%TF.GenerationSoftware,Altium Limited,Altium Designer,22.6.1 (34)*%
G04 Layer_Physical_Order=4*
G04 Layer_Color=16711680*
%FSLAX45Y45*%
%MOMM*%
%TF.SameCoordinates,41C29604-6FBD-4392-AD62-CF0DA8D1722B*%
%TF.FilePolarity,Positive*%
%TF.FileFunction,Copper,L4,Bot,Signal*%
%TF.Part,CustomerPanel*%
G01*
G75*
%TA.AperFunction,SMDPad,CuDef*%
%ADD11R,0.50000X0.60000*%
%ADD12R,0.60000X0.50000*%
%ADD13R,1.30000X0.40000*%
%TA.AperFunction,Conductor*%
%ADD14C,0.25400*%
%ADD19C,0.20320*%
%TA.AperFunction,ComponentPad*%
%ADD25R,1.50000X1.50000*%
%ADD26C,1.50000*%
%ADD27C,0.80000*%
%TA.AperFunction,ViaPad*%
%ADD28C,0.55880*%
%ADD29C,0.63500*%
%TA.AperFunction,ComponentPad*%
%ADD30C,1.52400*%
%ADD31R,1.52400X1.52400*%
%TA.AperFunction,SMDPad,CuDef*%
G04:AMPARAMS|DCode=32|XSize=1.19mm|YSize=0.4mm|CornerRadius=0.1mm|HoleSize=0mm|Usage=FLASHONLY|Rotation=90.000|XOffset=0mm|YOffset=0mm|HoleType=Round|Shape=RoundedRectangle|*
%AMROUNDEDRECTD32*
21,1,1.19000,0.20000,0,0,90.0*
21,1,0.99000,0.40000,0,0,90.0*
1,1,0.20000,0.10000,0.49500*
1,1,0.20000,0.10000,-0.49500*
1,1,0.20000,-0.10000,-0.49500*
1,1,0.20000,-0.10000,0.49500*
%
%ADD32ROUNDEDRECTD32*%
%TA.AperFunction,ConnectorPad*%
%ADD33R,0.60000X0.50000*%
%TA.AperFunction,SMDPad,CuDef*%
%ADD34R,0.15000X0.15000*%
%ADD35C,0.65000*%
%ADD36C,0.46000*%
%ADD37C,0.60000*%
%ADD38C,0.25400*%
G04:AMPARAMS|DCode=39|XSize=0.9017mm|YSize=0.7112mm|CornerRadius=0mm|HoleSize=0mm|Usage=FLASHONLY|Rotation=45.000|XOffset=0mm|YOffset=0mm|HoleType=Round|Shape=Rectangle|*
%AMROTATEDRECTD39*
4,1,4,-0.06735,-0.57025,-0.57025,-0.06735,0.06735,0.57025,0.57025,0.06735,-0.06735,-0.57025,0.0*
%
%ADD39ROTATEDRECTD39*%

G04:AMPARAMS|DCode=40|XSize=0.9017mm|YSize=0.7112mm|CornerRadius=0mm|HoleSize=0mm|Usage=FLASHONLY|Rotation=135.000|XOffset=0mm|YOffset=0mm|HoleType=Round|Shape=Rectangle|*
%AMROTATEDRECTD40*
4,1,4,0.57025,-0.06735,0.06735,-0.57025,-0.57025,0.06735,-0.06735,0.57025,0.57025,-0.06735,0.0*
%
%ADD40ROTATEDRECTD40*%

%ADD41R,0.71120X0.80010*%
%ADD42R,3.12420X0.71120*%
%ADD43R,2.05000X2.05000*%
%ADD44O,0.24000X0.60000*%
%ADD45O,0.60000X0.24000*%
%TA.AperFunction,ConnectorPad*%
%ADD46R,1.30000X0.70000*%
%ADD47R,0.70000X1.25000*%
G36*
X1035886Y7958241D02*
X1024139Y7955040D01*
X1023186Y7955230D01*
X1012853Y7970693D01*
X996890Y7981360D01*
X978060Y7985105D01*
X959230Y7981360D01*
X943267Y7970693D01*
X932600Y7954730D01*
X931554Y7949472D01*
X919190Y7942610D01*
X917268Y7942748D01*
X915520Y7945076D01*
Y7982020D01*
X823420D01*
Y8018380D01*
X823420Y8021720D01*
Y8031080D01*
X823420Y8034420D01*
Y8121720D01*
X815600D01*
X813872Y8123870D01*
X809974Y8134420D01*
X818560Y8147270D01*
X822305Y8166100D01*
X818560Y8184930D01*
X807893Y8200893D01*
X791930Y8211560D01*
X773100Y8215305D01*
X754270Y8211560D01*
X738307Y8200893D01*
X727640Y8184930D01*
X723895Y8166100D01*
X727640Y8147270D01*
X732358Y8140209D01*
X727658Y8126034D01*
X723014Y8124293D01*
X723013Y8124293D01*
X723013Y8124292D01*
X622374D01*
Y8039968D01*
X617293Y8029372D01*
X617294Y8023057D01*
Y7986300D01*
X585800D01*
Y7935898D01*
X573100D01*
Y7923198D01*
X517700D01*
Y7885500D01*
X517700D01*
X522780Y7881220D01*
Y7790580D01*
X615581D01*
X620841Y7777880D01*
X601125Y7758164D01*
X594388Y7748082D01*
X592023Y7736189D01*
Y7703639D01*
X579322Y7695015D01*
X573100Y7696253D01*
X560489Y7693745D01*
X549799Y7686601D01*
X534854Y7687095D01*
X529370Y7690760D01*
X510540Y7694505D01*
X491710Y7690760D01*
X475747Y7680093D01*
X475577Y7679840D01*
X462877Y7683693D01*
Y7714380D01*
X482120D01*
Y7798704D01*
X487200Y7809300D01*
X487201Y7809300D01*
X487200Y7809301D01*
Y7846999D01*
X431801D01*
Y7859699D01*
X419101D01*
Y7910100D01*
X376400D01*
Y7864409D01*
X364667Y7859549D01*
X265269Y7958946D01*
X255187Y7965683D01*
X243294Y7968049D01*
X-24699D01*
X-45123Y7988472D01*
Y8073176D01*
X-41407Y8075659D01*
X-30740Y8091622D01*
X-26995Y8110452D01*
X-30740Y8129282D01*
X-41407Y8145246D01*
X-57370Y8155912D01*
X-76200Y8159658D01*
X-95030Y8155912D01*
X-110993Y8145246D01*
X-121660Y8129282D01*
X-134186Y8131408D01*
Y8293602D01*
X-121486Y8296129D01*
X-121362Y8295829D01*
X-106083Y8275917D01*
X-86171Y8260638D01*
X-62983Y8251034D01*
X-38100Y8247758D01*
X-13217Y8251034D01*
X9971Y8260638D01*
X29883Y8275917D01*
X45162Y8295829D01*
X52201Y8312823D01*
X125599D01*
X132638Y8295829D01*
X147917Y8275917D01*
X167829Y8260638D01*
X191017Y8251034D01*
X215900Y8247758D01*
X240783Y8251034D01*
X263971Y8260638D01*
X283883Y8275917D01*
X299162Y8295829D01*
X308766Y8319017D01*
X312042Y8343900D01*
X308766Y8368783D01*
X299162Y8391971D01*
X283883Y8411883D01*
X263971Y8427162D01*
X240783Y8436766D01*
X215900Y8440042D01*
X191017Y8436766D01*
X167829Y8427162D01*
X147917Y8411883D01*
X132638Y8391971D01*
X125599Y8374977D01*
X52201D01*
X45162Y8391971D01*
X29883Y8411883D01*
X9971Y8427162D01*
X-13217Y8436766D01*
X-38100Y8440042D01*
X-62983Y8436766D01*
X-86171Y8427162D01*
X-106083Y8411883D01*
X-121362Y8391971D01*
X-121486Y8391671D01*
X-134186Y8394198D01*
Y8503486D01*
X1035886D01*
Y7958241D01*
D02*
G37*
G36*
X248920Y7764964D02*
Y7703655D01*
X276708D01*
X283497Y7690955D01*
X277600Y7682130D01*
X273855Y7663300D01*
X277600Y7644470D01*
X288267Y7628506D01*
X304230Y7617840D01*
X323060Y7614095D01*
X332623Y7615997D01*
X345323Y7606022D01*
Y7590625D01*
X248920D01*
Y7529316D01*
X238474Y7518870D01*
X2826D01*
X-7620Y7529316D01*
Y7590625D01*
X-93383D01*
Y7690147D01*
X-79875Y7703655D01*
X-7620D01*
Y7764964D01*
X2826Y7775410D01*
X238474D01*
X248920Y7764964D01*
D02*
G37*
G36*
X-55880Y7419524D02*
Y7407110D01*
X-43466D01*
X-35175Y7398819D01*
X-26883Y7407110D01*
X252133D01*
Y7349187D01*
X215970D01*
Y7364819D01*
X131646D01*
X121050Y7369900D01*
X121050Y7369900D01*
X121049Y7369899D01*
X83350D01*
Y7314499D01*
Y7259099D01*
X115500D01*
X115500Y7258599D01*
Y7226300D01*
X165900D01*
Y7200900D01*
X115500D01*
Y7189277D01*
X26363D01*
X-93383Y7309022D01*
Y7440433D01*
X-81650Y7445293D01*
X-55880Y7419524D01*
D02*
G37*
G36*
X457700Y7252569D02*
Y7226300D01*
X508100D01*
Y7213600D01*
X520800D01*
Y7158200D01*
X558500D01*
Y7158200D01*
X562780Y7163280D01*
X614470D01*
X641550Y7136200D01*
X636290Y7123500D01*
X623500D01*
Y7035800D01*
X723900D01*
X824300D01*
Y7123500D01*
X789375D01*
X782563Y7136200D01*
X785805Y7152501D01*
X782992Y7166643D01*
X798872Y7182523D01*
X819080D01*
Y7163280D01*
X902240D01*
X904751Y7160720D01*
X903778Y7155934D01*
X896533Y7148020D01*
X867180D01*
Y7037380D01*
X896125D01*
X904182Y7027563D01*
X903295Y7023100D01*
X907040Y7004270D01*
X917707Y6988307D01*
X933670Y6977640D01*
X942920Y6975800D01*
X941669Y6963100D01*
X862100D01*
Y6915400D01*
X952500D01*
Y6890000D01*
X862100D01*
Y6863514D01*
X-134186D01*
Y6972802D01*
X-121486Y6975329D01*
X-121362Y6975029D01*
X-106083Y6955117D01*
X-86171Y6939838D01*
X-62983Y6930234D01*
X-38100Y6926958D01*
X-13217Y6930234D01*
X9971Y6939838D01*
X29883Y6955117D01*
X45162Y6975029D01*
X54766Y6998217D01*
X58042Y7023100D01*
X54766Y7047983D01*
X45162Y7071171D01*
X29883Y7091083D01*
X9971Y7106362D01*
X-13217Y7115966D01*
X-38100Y7119242D01*
X-62983Y7115966D01*
X-86171Y7106362D01*
X-106083Y7091083D01*
X-121362Y7071171D01*
X-121486Y7070871D01*
X-134186Y7073398D01*
Y7245333D01*
X-122453Y7250193D01*
X-8485Y7136225D01*
X1597Y7129488D01*
X13490Y7127123D01*
X171489D01*
X174015Y7114423D01*
X165267Y7110799D01*
X144294Y7094706D01*
X128201Y7073733D01*
X118084Y7049310D01*
X116306Y7035800D01*
X215900D01*
X315494D01*
X313716Y7049310D01*
X303599Y7073733D01*
X287506Y7094706D01*
X266533Y7110799D01*
X257785Y7114423D01*
X260311Y7127123D01*
X301421D01*
X313314Y7129488D01*
X323396Y7136225D01*
X445000Y7257830D01*
X457700Y7252569D01*
D02*
G37*
G36*
X1099386Y5342026D02*
X1091000Y5332800D01*
X1086686Y5332800D01*
X1003300D01*
Y5232400D01*
X990600D01*
Y5219700D01*
X890200D01*
Y5136314D01*
X890200Y5132000D01*
X880974Y5123614D01*
X-134186D01*
Y5384690D01*
X-122985Y5390677D01*
X-120430Y5388970D01*
X-101600Y5385224D01*
X-82770Y5388970D01*
X-66807Y5399636D01*
X-56140Y5415600D01*
X-53647Y5428133D01*
X63980D01*
Y5416480D01*
X164620D01*
Y5428133D01*
X178280D01*
Y5416480D01*
X194933D01*
Y5321628D01*
X180529Y5315662D01*
X160617Y5300383D01*
X145338Y5280471D01*
X135734Y5257283D01*
X132458Y5232400D01*
X135734Y5207517D01*
X145338Y5184329D01*
X160617Y5164417D01*
X180529Y5149138D01*
X203717Y5139534D01*
X228600Y5136258D01*
X253483Y5139534D01*
X276671Y5149138D01*
X296583Y5164417D01*
X311862Y5184329D01*
X321466Y5207517D01*
X324742Y5232400D01*
X321466Y5257283D01*
X311862Y5280471D01*
X296583Y5300383D01*
X276671Y5315662D01*
X262267Y5321628D01*
Y5416480D01*
X278920D01*
Y5507120D01*
X278920D01*
Y5515434D01*
X281448Y5528133D01*
X345808D01*
X354788Y5519153D01*
X354788Y5507120D01*
X354788Y5503780D01*
Y5416480D01*
X455428D01*
Y5428133D01*
X468509D01*
X470236Y5425548D01*
X478233Y5420205D01*
X479329Y5417895D01*
X479399Y5404271D01*
X458794Y5383666D01*
X451496Y5372743D01*
X448933Y5359859D01*
Y5321628D01*
X434529Y5315662D01*
X414617Y5300383D01*
X399338Y5280471D01*
X389734Y5257283D01*
X386458Y5232400D01*
X389734Y5207517D01*
X399338Y5184329D01*
X414617Y5164417D01*
X434529Y5149138D01*
X457717Y5139534D01*
X482600Y5136258D01*
X507483Y5139534D01*
X530671Y5149138D01*
X550583Y5164417D01*
X565862Y5184329D01*
X575466Y5207517D01*
X578742Y5232400D01*
X575466Y5257283D01*
X565862Y5280471D01*
X550583Y5300383D01*
X530671Y5315662D01*
X516267Y5321628D01*
Y5345914D01*
X521486Y5351133D01*
X848721D01*
X861605Y5353696D01*
X872527Y5360994D01*
X909869Y5398336D01*
X917167Y5409258D01*
X919730Y5422142D01*
Y5424292D01*
X923793Y5427007D01*
X934460Y5442970D01*
X938205Y5461800D01*
X934589Y5479980D01*
X934431Y5483534D01*
X939320Y5492680D01*
X939320D01*
Y5579980D01*
X939320Y5590252D01*
X942987Y5592742D01*
X952980Y5588960D01*
Y5582520D01*
X952980Y5579180D01*
Y5491880D01*
X952980D01*
X957108Y5480890D01*
X957552Y5479180D01*
X954095Y5461800D01*
X957840Y5442970D01*
X968507Y5427007D01*
X984470Y5416340D01*
X1003300Y5412595D01*
X1022130Y5416340D01*
X1038093Y5427007D01*
X1048760Y5442970D01*
X1052505Y5461800D01*
X1049048Y5479180D01*
X1049438Y5480681D01*
X1053620Y5491880D01*
X1053620Y5491881D01*
X1053620Y5491881D01*
Y5579180D01*
X1053620Y5582520D01*
Y5591880D01*
X1053620Y5595220D01*
Y5682520D01*
X952980D01*
Y5670867D01*
X939320D01*
Y5683320D01*
X838680D01*
Y5671667D01*
X825020D01*
Y5683320D01*
X724380D01*
Y5683320D01*
X711680Y5682293D01*
X677869Y5716104D01*
X669865Y5721452D01*
Y5768633D01*
X700952D01*
X701705Y5767507D01*
X717668Y5756840D01*
X736498Y5753095D01*
X755328Y5756840D01*
X771292Y5767507D01*
X781958Y5783470D01*
X785704Y5802300D01*
X781958Y5821130D01*
X771292Y5837093D01*
X755328Y5847760D01*
X736498Y5851505D01*
X717668Y5847760D01*
X701705Y5837093D01*
X700952Y5835967D01*
X669865D01*
Y6025967D01*
X669866D01*
X664504Y6032500D01*
X554393D01*
X549031Y6025967D01*
X354208D01*
X351288Y6023046D01*
Y6002143D01*
X350961D01*
X338077Y5999580D01*
X327155Y5992282D01*
X271300Y5936427D01*
X258600Y5941688D01*
Y5963266D01*
X203198D01*
Y5988666D01*
X258600D01*
Y6026364D01*
X258600D01*
X253520Y6030644D01*
Y6078672D01*
X267407Y6092559D01*
X274706Y6103482D01*
X276327Y6111634D01*
X350311D01*
Y6104981D01*
X519109D01*
X520950Y6104981D01*
Y6104981D01*
X531810D01*
Y6104981D01*
X580200D01*
X584053Y6092281D01*
X571144Y6083656D01*
X559355Y6066012D01*
X557741Y6057900D01*
X661459D01*
X659845Y6066012D01*
X648056Y6083656D01*
X635147Y6092281D01*
X639000Y6104981D01*
X702449D01*
Y6104981D01*
X706603Y6107202D01*
X717770Y6099740D01*
X736600Y6095994D01*
X755430Y6099740D01*
X771393Y6110406D01*
X772146Y6111533D01*
X801755D01*
X809750Y6098833D01*
X808200Y6095600D01*
X808200Y6089284D01*
Y6057900D01*
X863600D01*
X919000D01*
Y6095600D01*
X913920Y6106196D01*
Y6190520D01*
X813280D01*
Y6178867D01*
X772146D01*
X771393Y6179993D01*
X767927Y6182310D01*
X766682Y6194949D01*
X773106Y6201373D01*
X780404Y6212295D01*
X782967Y6225179D01*
Y6311900D01*
X780404Y6324784D01*
X773106Y6335706D01*
X718653Y6390159D01*
X707731Y6397457D01*
X694847Y6400020D01*
X555132D01*
X516267Y6438885D01*
Y6463972D01*
X530671Y6469938D01*
X550583Y6485217D01*
X565862Y6505129D01*
X575466Y6528317D01*
X578742Y6553200D01*
X575466Y6578083D01*
X565862Y6601271D01*
X550583Y6621183D01*
X530671Y6636462D01*
X507483Y6646066D01*
X482600Y6649342D01*
X457717Y6646066D01*
X434529Y6636462D01*
X414617Y6621183D01*
X399338Y6601271D01*
X389734Y6578083D01*
X386458Y6553200D01*
X389734Y6528317D01*
X399338Y6505129D01*
X414617Y6485217D01*
X434529Y6469938D01*
X448933Y6463972D01*
Y6424939D01*
X451496Y6412056D01*
X458794Y6401133D01*
X517380Y6342547D01*
X528302Y6335249D01*
X541186Y6332686D01*
X674976D01*
X678256Y6328319D01*
X671912Y6315619D01*
X531810D01*
Y6315619D01*
X520950D01*
Y6315619D01*
X361665D01*
X287124Y6390159D01*
X276202Y6397457D01*
X263318Y6400020D01*
X260417D01*
Y6425720D01*
X212390D01*
X182900Y6455210D01*
X190094Y6465976D01*
X203717Y6460334D01*
X228600Y6457058D01*
X253483Y6460334D01*
X276671Y6469938D01*
X296583Y6485217D01*
X311862Y6505129D01*
X321466Y6528317D01*
X324742Y6553200D01*
X321466Y6578083D01*
X311862Y6601271D01*
X296583Y6621183D01*
X276671Y6636462D01*
X253483Y6646066D01*
X228600Y6649342D01*
X203717Y6646066D01*
X180529Y6636462D01*
X160617Y6621183D01*
X145338Y6601271D01*
X135734Y6578083D01*
X132458Y6553200D01*
X135734Y6528317D01*
X141376Y6514694D01*
X130610Y6507500D01*
X84329Y6553781D01*
X73406Y6561079D01*
X69605Y6561835D01*
X67466Y6578083D01*
X57862Y6601271D01*
X42583Y6621183D01*
X22671Y6636462D01*
X-517Y6646066D01*
X-25400Y6649342D01*
X-50283Y6646066D01*
X-73471Y6636462D01*
X-93383Y6621183D01*
X-108662Y6601271D01*
X-118266Y6578083D01*
X-121542Y6553200D01*
X-118266Y6528317D01*
X-108662Y6505129D01*
X-93383Y6485217D01*
X-73471Y6469938D01*
X-50283Y6460334D01*
X-25400Y6457058D01*
X-517Y6460334D01*
X22671Y6469938D01*
X42583Y6485217D01*
X43269Y6486112D01*
X55942Y6486943D01*
X105432Y6437453D01*
X100572Y6425720D01*
X69778D01*
Y6331022D01*
X63980D01*
Y6328227D01*
X63020Y6315925D01*
X-37620D01*
Y6304272D01*
X-66054D01*
X-66807Y6305398D01*
X-82770Y6316065D01*
X-101600Y6319810D01*
X-120430Y6316065D01*
X-122985Y6314357D01*
X-134186Y6320344D01*
Y6674686D01*
X1099386D01*
Y5342026D01*
D02*
G37*
G36*
X513712Y5980190D02*
X517629Y5979783D01*
X521519Y5979176D01*
X525374Y5978371D01*
X529182Y5977369D01*
X532934Y5976174D01*
X536620Y5974789D01*
X540230Y5973217D01*
X543755Y5971462D01*
X547185Y5969529D01*
X550512Y5967423D01*
X553727Y5965149D01*
X556822Y5962714D01*
X559788Y5960124D01*
X562617Y5957386D01*
X565302Y5954506D01*
X567837Y5951492D01*
X570214Y5948353D01*
X572427Y5945097D01*
X574471Y5941731D01*
X576340Y5938265D01*
X578029Y5934708D01*
X579534Y5931069D01*
X580850Y5927358D01*
X581975Y5923585D01*
X582905Y5919759D01*
X583639Y5915890D01*
X584173Y5911989D01*
X584507Y5908065D01*
X584640Y5904130D01*
X584608Y5902300D01*
Y5898300D01*
X584430Y5895710D01*
X583981Y5891923D01*
X583349Y5888162D01*
X582537Y5884436D01*
X581545Y5880753D01*
X580377Y5877122D01*
X579035Y5873552D01*
X577523Y5870051D01*
X575843Y5866627D01*
X574000Y5863288D01*
X571997Y5860042D01*
X569841Y5856896D01*
X567535Y5853858D01*
X565085Y5850935D01*
X562497Y5848134D01*
X559777Y5845460D01*
X556931Y5842922D01*
X553965Y5840523D01*
X550888Y5838271D01*
X547705Y5836169D01*
X544424Y5834224D01*
X541054Y5832439D01*
X537601Y5830819D01*
X534074Y5829368D01*
X530481Y5828089D01*
X526831Y5826984D01*
X523131Y5826057D01*
X519391Y5825310D01*
X515619Y5824744D01*
X511825Y5824361D01*
X510608Y5824300D01*
X504566D01*
X500487Y5824514D01*
X496424Y5824941D01*
X492389Y5825580D01*
X488393Y5826429D01*
X484448Y5827486D01*
X480563Y5828749D01*
X476749Y5830213D01*
X473017Y5831874D01*
X469377Y5833728D01*
X465840Y5835771D01*
X462414Y5837996D01*
X459109Y5840397D01*
X455934Y5842968D01*
X452898Y5845701D01*
X450010Y5848590D01*
X447276Y5851625D01*
X444705Y5854800D01*
X442304Y5858105D01*
X440080Y5861531D01*
X438037Y5865069D01*
X436183Y5868708D01*
X434521Y5872440D01*
X433057Y5876254D01*
X431795Y5880139D01*
X430737Y5884084D01*
X429888Y5888080D01*
X429249Y5892115D01*
X428822Y5896178D01*
X428608Y5900257D01*
Y5902300D01*
Y5905300D01*
X428687Y5907585D01*
X429010Y5911402D01*
X429521Y5915199D01*
X430219Y5918966D01*
X431103Y5922694D01*
X432169Y5926374D01*
X433416Y5929996D01*
X434841Y5933553D01*
X436440Y5937034D01*
X438209Y5940433D01*
X440144Y5943739D01*
X442240Y5946947D01*
X444492Y5950046D01*
X446894Y5953030D01*
X449441Y5955893D01*
X452127Y5958625D01*
X454944Y5961222D01*
X457886Y5963676D01*
X460945Y5965982D01*
X464116Y5968133D01*
X467388Y5970125D01*
X470755Y5971954D01*
X474208Y5973613D01*
X477739Y5975100D01*
X481339Y5976410D01*
X485000Y5977541D01*
X488712Y5978489D01*
X492466Y5979253D01*
X496254Y5979831D01*
X500065Y5980220D01*
X501608Y5980300D01*
Y5950300D01*
X500821Y5950232D01*
X498547Y5949922D01*
X496291Y5949503D01*
X494058Y5948975D01*
X491852Y5948340D01*
X489681Y5947599D01*
X487547Y5946754D01*
X485456Y5945808D01*
X483414Y5944761D01*
X481425Y5943617D01*
X479493Y5942378D01*
X477623Y5941048D01*
X475820Y5939629D01*
X474087Y5938124D01*
X472429Y5936538D01*
X470849Y5934873D01*
X469352Y5933135D01*
X467940Y5931325D01*
X466617Y5929450D01*
X465386Y5927513D01*
X464251Y5925520D01*
X463212Y5923473D01*
X462274Y5921379D01*
X461438Y5919242D01*
X460706Y5917067D01*
X460080Y5914859D01*
X459561Y5912623D01*
X459151Y5910366D01*
X458850Y5908091D01*
X458659Y5905804D01*
X458608Y5904300D01*
Y5898300D01*
X458706Y5897178D01*
X459007Y5894945D01*
X459411Y5892728D01*
X459918Y5890533D01*
X460526Y5888363D01*
X461235Y5886224D01*
X462043Y5884121D01*
X462947Y5882057D01*
X463946Y5880038D01*
X465039Y5878067D01*
X466222Y5876150D01*
X467492Y5874289D01*
X468848Y5872489D01*
X470287Y5870755D01*
X471804Y5869089D01*
X473397Y5867496D01*
X475063Y5865979D01*
X476797Y5864540D01*
X478597Y5863185D01*
X480457Y5861914D01*
X482375Y5860731D01*
X484346Y5859639D01*
X486365Y5858639D01*
X488429Y5857735D01*
X490532Y5856927D01*
X492671Y5856218D01*
X494841Y5855610D01*
X497036Y5855103D01*
X499252Y5854699D01*
X501486Y5854398D01*
X502608Y5854300D01*
X507865D01*
X510375Y5854432D01*
X512875Y5854694D01*
X515358Y5855088D01*
X517817Y5855610D01*
X520245Y5856261D01*
X522636Y5857038D01*
X524983Y5857938D01*
X527279Y5858961D01*
X529519Y5860102D01*
X531696Y5861359D01*
X533805Y5862728D01*
X535838Y5864206D01*
X537792Y5865788D01*
X539660Y5867470D01*
X541438Y5869248D01*
X543120Y5871116D01*
X544702Y5873069D01*
X546180Y5875103D01*
X547549Y5877211D01*
X548806Y5879388D01*
X549947Y5881628D01*
X550969Y5883924D01*
X551870Y5886271D01*
X552647Y5888662D01*
X553298Y5891091D01*
X553821Y5893549D01*
X554214Y5896032D01*
X554476Y5898533D01*
X554608Y5901043D01*
Y5902300D01*
Y5903300D01*
X554610Y5904085D01*
X554496Y5906409D01*
X554269Y5908724D01*
X553929Y5911026D01*
X553477Y5913308D01*
X552914Y5915566D01*
X552242Y5917794D01*
X551461Y5919985D01*
X550575Y5922136D01*
X549584Y5924242D01*
X548492Y5926296D01*
X547300Y5928295D01*
X546013Y5930233D01*
X544632Y5932105D01*
X543161Y5933908D01*
X541605Y5935637D01*
X539965Y5937288D01*
X538247Y5938857D01*
X536455Y5940340D01*
X534591Y5941734D01*
X532662Y5943035D01*
X530672Y5944240D01*
X528626Y5945347D01*
X526527Y5946352D01*
X524382Y5947254D01*
X522196Y5948050D01*
X519974Y5948738D01*
X517720Y5949317D01*
X515441Y5949784D01*
X513141Y5950140D01*
X511608Y5950300D01*
Y5980300D01*
X513712Y5980190D01*
D02*
G37*
G36*
X-18404Y5757635D02*
X-11106Y5746713D01*
X-10058Y5745665D01*
X-11105Y5740400D01*
X-7360Y5721570D01*
X3307Y5705607D01*
X4433Y5704854D01*
Y5577079D01*
X6996Y5564195D01*
X14294Y5553273D01*
X29173Y5538394D01*
X40095Y5531096D01*
X52979Y5528533D01*
X62417D01*
X63980Y5516480D01*
Y5508166D01*
X61452Y5495467D01*
X-71481D01*
X-84365Y5492904D01*
X-95287Y5485606D01*
X-97979Y5482915D01*
X-101600Y5483635D01*
X-120430Y5479889D01*
X-122985Y5478182D01*
X-134186Y5484169D01*
Y5756238D01*
X-51280D01*
Y5767891D01*
X-20444D01*
X-18404Y5757635D01*
D02*
G37*
G36*
X664742Y4315429D02*
X668659Y4315022D01*
X672549Y4314415D01*
X676404Y4313610D01*
X680212Y4312608D01*
X683964Y4311413D01*
X687650Y4310028D01*
X691260Y4308456D01*
X694785Y4306701D01*
X698215Y4304768D01*
X701542Y4302662D01*
X704757Y4300388D01*
X707852Y4297953D01*
X710817Y4295363D01*
X713647Y4292625D01*
X716332Y4289745D01*
X718867Y4286731D01*
X721244Y4283592D01*
X723457Y4280336D01*
X725501Y4276970D01*
X727370Y4273504D01*
X729059Y4269947D01*
X730563Y4266308D01*
X731880Y4262597D01*
X733005Y4258824D01*
X733935Y4254998D01*
X734669Y4251129D01*
X735203Y4247227D01*
X735537Y4243304D01*
X735670Y4239369D01*
X735638Y4237539D01*
Y4233539D01*
X735460Y4230949D01*
X735011Y4227162D01*
X734379Y4223400D01*
X733566Y4219674D01*
X732575Y4215991D01*
X731407Y4212361D01*
X730065Y4208791D01*
X728553Y4205290D01*
X726873Y4201866D01*
X725030Y4198527D01*
X723027Y4195280D01*
X720871Y4192135D01*
X718565Y4189097D01*
X716115Y4186174D01*
X713527Y4183372D01*
X710807Y4180699D01*
X707960Y4178161D01*
X704995Y4175762D01*
X701918Y4173510D01*
X698735Y4171408D01*
X695454Y4169463D01*
X692084Y4167678D01*
X688631Y4166058D01*
X685104Y4164607D01*
X681511Y4163327D01*
X677860Y4162223D01*
X674161Y4161296D01*
X670421Y4160549D01*
X666649Y4159983D01*
X662855Y4159600D01*
X661638Y4159539D01*
X655596D01*
X651517Y4159753D01*
X647454Y4160180D01*
X643419Y4160818D01*
X639423Y4161668D01*
X635478Y4162725D01*
X631593Y4163987D01*
X627779Y4165451D01*
X624047Y4167113D01*
X620407Y4168967D01*
X616869Y4171010D01*
X613444Y4173235D01*
X610139Y4175636D01*
X606964Y4178207D01*
X603928Y4180940D01*
X601040Y4183828D01*
X598306Y4186864D01*
X595735Y4190039D01*
X593334Y4193344D01*
X591110Y4196770D01*
X589067Y4200307D01*
X587212Y4203947D01*
X585551Y4207679D01*
X584087Y4211492D01*
X582825Y4215378D01*
X581767Y4219323D01*
X580918Y4223319D01*
X580279Y4227354D01*
X579852Y4231416D01*
X579638Y4235496D01*
Y4237539D01*
Y4240539D01*
X579717Y4242823D01*
X580040Y4246641D01*
X580551Y4250438D01*
X581249Y4254205D01*
X582132Y4257933D01*
X583199Y4261613D01*
X584446Y4265235D01*
X585871Y4268792D01*
X587470Y4272273D01*
X589239Y4275672D01*
X591174Y4278978D01*
X593270Y4282186D01*
X595522Y4285285D01*
X597924Y4288269D01*
X600471Y4291132D01*
X603157Y4293864D01*
X605974Y4296461D01*
X608916Y4298915D01*
X611975Y4301221D01*
X615146Y4303372D01*
X618418Y4305364D01*
X621785Y4307193D01*
X625238Y4308852D01*
X628769Y4310339D01*
X632369Y4311649D01*
X636030Y4312780D01*
X639742Y4313728D01*
X643496Y4314492D01*
X647283Y4315070D01*
X651095Y4315459D01*
X652638Y4315539D01*
Y4285539D01*
X651851Y4285471D01*
X649577Y4285161D01*
X647321Y4284742D01*
X645088Y4284214D01*
X642882Y4283579D01*
X640710Y4282838D01*
X638577Y4281993D01*
X636486Y4281047D01*
X634444Y4280000D01*
X632455Y4278856D01*
X630523Y4277617D01*
X628653Y4276287D01*
X626850Y4274868D01*
X625117Y4273363D01*
X623459Y4271777D01*
X621879Y4270112D01*
X620382Y4268374D01*
X618970Y4266564D01*
X617647Y4264689D01*
X616416Y4262752D01*
X615281Y4260758D01*
X614242Y4258712D01*
X613304Y4256617D01*
X612468Y4254480D01*
X611736Y4252305D01*
X611110Y4250098D01*
X610591Y4247862D01*
X610181Y4245604D01*
X609880Y4243330D01*
X609689Y4241043D01*
X609638Y4239539D01*
Y4233539D01*
X609736Y4232417D01*
X610037Y4230184D01*
X610441Y4227967D01*
X610948Y4225772D01*
X611556Y4223602D01*
X612265Y4221463D01*
X613072Y4219360D01*
X613977Y4217296D01*
X614976Y4215277D01*
X616069Y4213306D01*
X617251Y4211388D01*
X618522Y4209528D01*
X619878Y4207728D01*
X621317Y4205994D01*
X622834Y4204328D01*
X624427Y4202735D01*
X626093Y4201218D01*
X627827Y4199779D01*
X629627Y4198423D01*
X631487Y4197152D01*
X633405Y4195970D01*
X635376Y4194877D01*
X637395Y4193878D01*
X639459Y4192973D01*
X641562Y4192166D01*
X643701Y4191457D01*
X645870Y4190849D01*
X648066Y4190342D01*
X650282Y4189938D01*
X652516Y4189637D01*
X653638Y4189539D01*
X658895D01*
X661405Y4189670D01*
X663905Y4189933D01*
X666388Y4190326D01*
X668847Y4190849D01*
X671275Y4191500D01*
X673666Y4192276D01*
X676013Y4193177D01*
X678309Y4194200D01*
X680549Y4195341D01*
X682726Y4196598D01*
X684835Y4197967D01*
X686868Y4199444D01*
X688822Y4201027D01*
X690690Y4202709D01*
X692468Y4204486D01*
X694150Y4206354D01*
X695732Y4208308D01*
X697209Y4210342D01*
X698578Y4212450D01*
X699836Y4214627D01*
X700977Y4216867D01*
X701999Y4219163D01*
X702900Y4221510D01*
X703677Y4223901D01*
X704328Y4226329D01*
X704851Y4228788D01*
X705244Y4231271D01*
X705506Y4233771D01*
X705638Y4236282D01*
Y4237539D01*
Y4238539D01*
X705639Y4239324D01*
X705526Y4241648D01*
X705299Y4243963D01*
X704959Y4246265D01*
X704507Y4248547D01*
X703944Y4250805D01*
X703272Y4253032D01*
X702491Y4255224D01*
X701605Y4257375D01*
X700614Y4259480D01*
X699522Y4261535D01*
X698330Y4263534D01*
X697043Y4265472D01*
X695662Y4267344D01*
X694191Y4269147D01*
X692635Y4270876D01*
X690995Y4272527D01*
X689277Y4274096D01*
X687485Y4275579D01*
X685621Y4276973D01*
X683692Y4278274D01*
X681702Y4279479D01*
X679655Y4280586D01*
X677557Y4281591D01*
X675412Y4282493D01*
X673226Y4283289D01*
X671003Y4283977D01*
X668750Y4284556D01*
X666471Y4285023D01*
X664171Y4285379D01*
X662638Y4285539D01*
Y4315539D01*
X664742Y4315429D01*
D02*
G37*
G36*
X-2662Y4179558D02*
X5450Y4181171D01*
X7223Y4182356D01*
X18424Y4176369D01*
Y4120539D01*
X20777Y4108709D01*
X27478Y4098679D01*
X37508Y4091978D01*
X49338Y4089625D01*
X69338D01*
X81168Y4091978D01*
X91197Y4098679D01*
X97899Y4108709D01*
X100252Y4120539D01*
Y4161605D01*
X112952Y4171495D01*
X122695Y4169557D01*
X135724Y4172148D01*
X148424Y4163800D01*
Y4120539D01*
X150777Y4108709D01*
X157479Y4098679D01*
X167508Y4091978D01*
X179338Y4089625D01*
X199338D01*
X211168Y4091978D01*
X211597Y4092265D01*
X224297Y4085476D01*
Y4062601D01*
X211597Y4055813D01*
X211168Y4056100D01*
X199338Y4058453D01*
X179338D01*
X167508Y4056100D01*
X162249Y4052586D01*
X159860Y4053061D01*
X148150Y4060885D01*
X137038Y4063095D01*
Y3978039D01*
X111638D01*
Y4063095D01*
X100526Y4060885D01*
X88816Y4053061D01*
X86427Y4052586D01*
X81168Y4056100D01*
X69338Y4058453D01*
X49338D01*
X37508Y4056100D01*
X27478Y4049398D01*
X20777Y4039369D01*
X18424Y4027539D01*
Y3928539D01*
X19997Y3920630D01*
X9616Y3912292D01*
X3468Y3916400D01*
X-15362Y3920146D01*
X-28542Y3917524D01*
X-41242Y3925801D01*
Y3955056D01*
X-41241D01*
Y3964422D01*
X-41242D01*
Y4055061D01*
X-57895D01*
Y4089451D01*
X-41242D01*
Y4170216D01*
X-41082Y4170562D01*
X-28542Y4179653D01*
X-28062Y4179558D01*
Y4231416D01*
X-2662D01*
Y4179558D01*
D02*
G37*
G36*
X1109424Y4057104D02*
X1098223Y4051117D01*
X1095668Y4052824D01*
X1076838Y4056570D01*
X1058008Y4052824D01*
X1042045Y4042158D01*
X1031378Y4026194D01*
X1027633Y4007364D01*
X1031378Y3988534D01*
X1042045Y3972571D01*
X1058008Y3961904D01*
X1076838Y3958159D01*
X1095668Y3961904D01*
X1098223Y3963612D01*
X1109424Y3957625D01*
Y3612165D01*
X1101038Y3602939D01*
X1096724Y3602939D01*
X1013338D01*
Y3502539D01*
X1000638D01*
Y3489839D01*
X900238D01*
Y3406453D01*
X900238Y3402139D01*
X891012Y3393753D01*
X-124148D01*
Y3648516D01*
X-41242D01*
Y3648516D01*
X-40281D01*
Y3648516D01*
X40298D01*
X40508Y3648376D01*
X59338Y3644631D01*
X78168Y3648376D01*
X94131Y3659043D01*
X104798Y3675006D01*
X108543Y3693836D01*
X104798Y3712666D01*
X104521Y3713081D01*
X114386Y3721176D01*
X129027Y3706535D01*
X189339D01*
Y3693835D01*
X202039D01*
Y3643436D01*
X237930D01*
X245264Y3641977D01*
Y3693836D01*
X257964D01*
Y3706536D01*
X309823D01*
X308209Y3714649D01*
X296420Y3732292D01*
X278776Y3744082D01*
X261745Y3747469D01*
X262996Y3760169D01*
X288534D01*
X301418Y3762732D01*
X312340Y3770030D01*
X365638Y3823328D01*
X372574Y3816392D01*
X383496Y3809094D01*
X396380Y3806532D01*
X422716D01*
Y3789879D01*
X510020D01*
X513356Y3789878D01*
X522720D01*
X534374Y3780624D01*
Y3722734D01*
X536936Y3709850D01*
X544234Y3698928D01*
X612029Y3631133D01*
X622952Y3623835D01*
X635835Y3621272D01*
X822838D01*
X835722Y3623835D01*
X846644Y3631133D01*
X872044Y3656533D01*
X879342Y3667455D01*
X881905Y3680339D01*
Y3733693D01*
X883032Y3734445D01*
X893698Y3750409D01*
X897443Y3769239D01*
X893698Y3788069D01*
X883032Y3804032D01*
X867068Y3814699D01*
X848238Y3818444D01*
X829408Y3814699D01*
X814738Y3804897D01*
X808816Y3806381D01*
X802038Y3809821D01*
X802038Y3840596D01*
X797591Y3849872D01*
X799781Y3856415D01*
X801593Y3858226D01*
X813445Y3861445D01*
X829408Y3850779D01*
X848238Y3847033D01*
X867068Y3850779D01*
X883032Y3861445D01*
X893698Y3877409D01*
X897443Y3896239D01*
X893698Y3915069D01*
X883032Y3931032D01*
X867068Y3941699D01*
X861847Y3942737D01*
Y3955686D01*
X869050Y3957119D01*
X886694Y3968908D01*
X898483Y3986552D01*
X900097Y3994664D01*
X848238D01*
Y4007364D01*
X835538D01*
Y4059223D01*
X829908Y4058103D01*
X817208Y4064894D01*
Y4147994D01*
X872044Y4202831D01*
X879342Y4213753D01*
X881905Y4226637D01*
Y4467739D01*
X879342Y4480623D01*
X872044Y4491545D01*
X579538Y4784051D01*
X585504Y4798455D01*
X588780Y4823339D01*
X585504Y4848222D01*
X575900Y4871410D01*
X560621Y4891322D01*
X540709Y4906601D01*
X517521Y4916205D01*
X492638Y4919481D01*
X467755Y4916205D01*
X444567Y4906601D01*
X424655Y4891322D01*
X409376Y4871410D01*
X399772Y4848222D01*
X396496Y4823339D01*
X399772Y4798455D01*
X409376Y4775268D01*
X424655Y4755356D01*
X444567Y4740077D01*
X467755Y4730473D01*
X492638Y4727197D01*
X517521Y4730473D01*
X531926Y4736439D01*
X814571Y4453793D01*
Y4348062D01*
X792807D01*
Y4373363D01*
X790244Y4386247D01*
X782946Y4397169D01*
X745050Y4435065D01*
X734128Y4442363D01*
X721244Y4444926D01*
X710315D01*
X707115Y4449715D01*
X689471Y4461504D01*
X681359Y4463118D01*
Y4411259D01*
X668659D01*
Y4398559D01*
X616800D01*
X618414Y4390447D01*
X630203Y4372803D01*
X647847Y4361014D01*
X649109Y4360762D01*
X647858Y4348062D01*
X501551D01*
X498630Y4345142D01*
Y4335203D01*
X491878D01*
X478994Y4332641D01*
X468072Y4325343D01*
X439752Y4297023D01*
X417558D01*
Y4308676D01*
X316918D01*
Y4218037D01*
X316918D01*
Y4208676D01*
X316918D01*
Y4118036D01*
X413013D01*
X417316Y4113733D01*
X428238Y4106435D01*
X441122Y4103872D01*
X498630D01*
Y4061203D01*
X462010D01*
X449126Y4058641D01*
X438204Y4051343D01*
X428658Y4041797D01*
X415958Y4042879D01*
Y4055061D01*
X315318D01*
Y4035968D01*
X313187Y4034410D01*
X295920Y4037424D01*
X292758Y4042158D01*
X291631Y4042910D01*
Y4138815D01*
X289069Y4151699D01*
X281770Y4162621D01*
X258826Y4185566D01*
X247904Y4192864D01*
X239840Y4194468D01*
X235325Y4205875D01*
X235386Y4207975D01*
X258826Y4231414D01*
X266124Y4242337D01*
X268687Y4255221D01*
Y4328519D01*
X327563D01*
X338158Y4323439D01*
X344474Y4323439D01*
X375858D01*
Y4378839D01*
X388558D01*
Y4391539D01*
X447579D01*
X451658Y4392776D01*
X457090Y4384647D01*
X473054Y4373980D01*
X491884Y4370235D01*
X510714Y4373980D01*
X526677Y4384647D01*
X537344Y4400610D01*
X541089Y4419440D01*
X537344Y4438270D01*
X526677Y4454234D01*
X525551Y4454986D01*
Y4570093D01*
X522988Y4582977D01*
X515690Y4593899D01*
X325538Y4784051D01*
X331504Y4798455D01*
X334780Y4823339D01*
X331504Y4848222D01*
X321900Y4871410D01*
X306621Y4891322D01*
X286709Y4906601D01*
X263521Y4916205D01*
X238638Y4919481D01*
X213755Y4916205D01*
X190567Y4906601D01*
X170655Y4891322D01*
X155376Y4871410D01*
X145772Y4848222D01*
X142496Y4823339D01*
X145772Y4798455D01*
X155376Y4775268D01*
X170655Y4755356D01*
X190567Y4740077D01*
X213755Y4730473D01*
X238638Y4727197D01*
X263521Y4730473D01*
X267746Y4719237D01*
X250103Y4707448D01*
X238313Y4689804D01*
X236700Y4681692D01*
X288558D01*
Y4668992D01*
X301258D01*
Y4608680D01*
X354891Y4555047D01*
Y4443219D01*
X345911Y4434239D01*
X338158Y4434239D01*
X327563Y4429159D01*
X243239D01*
Y4408712D01*
X234158Y4402645D01*
X223412Y4391899D01*
X210712Y4397160D01*
Y4630932D01*
X208149Y4643815D01*
X200852Y4654738D01*
X71538Y4784051D01*
X77504Y4798455D01*
X80780Y4823339D01*
X77504Y4848222D01*
X67900Y4871410D01*
X52621Y4891322D01*
X32709Y4906601D01*
X9521Y4916205D01*
X-15362Y4919481D01*
X-40245Y4916205D01*
X-63433Y4906601D01*
X-83345Y4891322D01*
X-98624Y4871410D01*
X-108228Y4848222D01*
X-111504Y4823339D01*
X-108228Y4798455D01*
X-98624Y4775268D01*
X-83345Y4755356D01*
X-63433Y4740077D01*
X-40245Y4730473D01*
X-15362Y4727197D01*
X9521Y4730473D01*
X23926Y4736439D01*
X143378Y4616986D01*
Y4531778D01*
X141342Y4530263D01*
X130678Y4527050D01*
X115485Y4542243D01*
X104563Y4549541D01*
X91679Y4552104D01*
X-42513D01*
X-43266Y4553231D01*
X-59229Y4563897D01*
X-78059Y4567643D01*
X-96889Y4563897D01*
X-111448Y4554169D01*
X-117685Y4555779D01*
X-124148Y4559186D01*
Y4932125D01*
X1109424D01*
Y4057104D01*
D02*
G37*
G36*
X498630Y3929936D02*
X620965D01*
X622843Y3927124D01*
X638806Y3916458D01*
X657636Y3912713D01*
X676467Y3916458D01*
X683618Y3921237D01*
X696318Y3914448D01*
Y3851192D01*
X691238Y3840596D01*
X691238Y3834280D01*
Y3802897D01*
X746637D01*
Y3777497D01*
X691238D01*
Y3739796D01*
X691238D01*
X694787Y3735472D01*
X694779Y3735434D01*
X746638D01*
Y3710034D01*
X694779D01*
X696393Y3701921D01*
X697806Y3699806D01*
X691819Y3688606D01*
X649781D01*
X601707Y3736679D01*
Y3789879D01*
X613360D01*
Y3890519D01*
X526056D01*
X522721Y3890519D01*
X513356D01*
X510020Y3890519D01*
X422716D01*
X415958Y3900419D01*
Y3951721D01*
X415958Y3955061D01*
Y3964421D01*
X426199Y3973697D01*
X441838D01*
X454722Y3976260D01*
X465644Y3983558D01*
X475956Y3993870D01*
X498630D01*
Y3929936D01*
D02*
G37*
G36*
X1358565Y3180382D02*
X1347540Y3176340D01*
X1345865Y3176340D01*
X1167060D01*
Y2995860D01*
X1345865D01*
X1347540Y2995860D01*
X1358565Y2991818D01*
Y1878041D01*
X1357700Y1865700D01*
X1345865Y1865700D01*
X1270000D01*
Y1765300D01*
Y1664900D01*
X1341292Y1664900D01*
X1346861Y1652200D01*
X1346064Y1651335D01*
X-139365D01*
Y3212765D01*
X1358565Y3212765D01*
Y3180382D01*
D02*
G37*
G36*
X837945Y1448021D02*
X802586Y1412662D01*
X788210Y1418617D01*
X762000Y1422067D01*
X735790Y1418617D01*
X711367Y1408500D01*
X690394Y1392407D01*
X674301Y1371434D01*
X664184Y1347011D01*
X660734Y1320801D01*
X664184Y1294591D01*
X674301Y1270168D01*
X690394Y1249195D01*
X711367Y1233102D01*
X735790Y1222985D01*
X762000Y1219535D01*
X788210Y1222985D01*
X812633Y1233102D01*
X833606Y1249195D01*
X849699Y1270168D01*
X859816Y1294591D01*
X863266Y1320801D01*
X859816Y1347011D01*
X853861Y1361387D01*
X904018Y1411544D01*
X948472D01*
X952783Y1398844D01*
X944394Y1392407D01*
X928301Y1371434D01*
X918184Y1347011D01*
X914734Y1320801D01*
X918184Y1294591D01*
X928301Y1270168D01*
X944394Y1249195D01*
X965367Y1233102D01*
X989790Y1222985D01*
X1016000Y1219535D01*
X1042210Y1222985D01*
X1066633Y1233102D01*
X1087606Y1249195D01*
X1103699Y1270168D01*
X1113816Y1294591D01*
X1117266Y1320801D01*
X1113816Y1347011D01*
X1103699Y1371434D01*
X1087606Y1392407D01*
X1079217Y1398844D01*
X1083528Y1411544D01*
X1202472D01*
X1206783Y1398844D01*
X1198394Y1392407D01*
X1182301Y1371434D01*
X1172184Y1347011D01*
X1168734Y1320801D01*
X1172184Y1294591D01*
X1182301Y1270168D01*
X1198394Y1249195D01*
X1219367Y1233102D01*
X1243790Y1222985D01*
X1270000Y1219535D01*
X1296210Y1222985D01*
X1320633Y1233102D01*
X1341606Y1249195D01*
X1357699Y1270168D01*
X1367816Y1294591D01*
X1371266Y1320801D01*
X1367816Y1347011D01*
X1357699Y1371434D01*
X1341606Y1392407D01*
X1333217Y1398844D01*
X1337528Y1411544D01*
X1355708D01*
X1360572Y1404265D01*
X1378216Y1392475D01*
X1399028Y1388336D01*
X1419840Y1392475D01*
X1437484Y1404265D01*
X1442348Y1411544D01*
X1456472D01*
X1460783Y1398844D01*
X1452394Y1392407D01*
X1436301Y1371434D01*
X1426184Y1347011D01*
X1422734Y1320801D01*
X1426184Y1294591D01*
X1436301Y1270168D01*
X1452394Y1249195D01*
X1473367Y1233102D01*
X1497790Y1222985D01*
X1524000Y1219535D01*
X1550210Y1222985D01*
X1574633Y1233102D01*
X1595606Y1249195D01*
X1611699Y1270168D01*
X1621816Y1294591D01*
X1625266Y1320801D01*
X1621816Y1347011D01*
X1611699Y1371434D01*
X1595606Y1392407D01*
X1587217Y1398844D01*
X1591528Y1411544D01*
X1677600D01*
Y1220401D01*
X1755243D01*
Y1185701D01*
X1741100D01*
Y1074901D01*
X1741100D01*
X1738616Y1063230D01*
X1736100D01*
Y887430D01*
X1855243D01*
Y823230D01*
X1736100D01*
Y780588D01*
X1723400Y770166D01*
X1714500Y771936D01*
X1693688Y767796D01*
X1676044Y756007D01*
X1664255Y738363D01*
X1660115Y717551D01*
X1664255Y696739D01*
X1676044Y679095D01*
X1693688Y667306D01*
X1714500Y663166D01*
X1723400Y664936D01*
X1731552Y658246D01*
X1736099Y647430D01*
D01*
X1741100Y636751D01*
Y528801D01*
X1878807D01*
Y584201D01*
X1891507D01*
Y596901D01*
X1941900D01*
Y639601D01*
X1951357Y647430D01*
X2046900D01*
Y823230D01*
X1927757D01*
Y887430D01*
X2046900D01*
Y1063230D01*
X2037777D01*
X2037348Y1064429D01*
X2042890Y1073088D01*
X2046592Y1076292D01*
X2056653Y1078294D01*
X2069353Y1068511D01*
Y-138952D01*
X1224315D01*
X1219455Y-127219D01*
X1248270Y-98404D01*
X1270000Y-101265D01*
X1296210Y-97815D01*
X1320633Y-87698D01*
X1341606Y-71605D01*
X1357699Y-50632D01*
X1367816Y-26209D01*
X1371266Y1D01*
X1367816Y26211D01*
X1357699Y50634D01*
X1341606Y71607D01*
X1320633Y87700D01*
X1296210Y97817D01*
X1270000Y101267D01*
X1243790Y97817D01*
X1219367Y87700D01*
X1198394Y71607D01*
X1182301Y50634D01*
X1172184Y26211D01*
X1168734Y1D01*
X1172184Y-26209D01*
X1182301Y-50632D01*
X1187160Y-56964D01*
X1153382Y-90742D01*
X1083528D01*
X1079217Y-78042D01*
X1087606Y-71605D01*
X1103699Y-50632D01*
X1113816Y-26209D01*
X1117266Y1D01*
X1113816Y26211D01*
X1103699Y50634D01*
X1087606Y71607D01*
X1066633Y87700D01*
X1052257Y93655D01*
Y114300D01*
X1052257Y114301D01*
X1049497Y128176D01*
X1041637Y139939D01*
X1041637Y139939D01*
X965437Y216139D01*
X953675Y223998D01*
X939800Y226758D01*
X939799Y226758D01*
X573325D01*
X571856Y228957D01*
X554212Y240746D01*
X533400Y244886D01*
X512588Y240746D01*
X494944Y228957D01*
X490220Y221887D01*
X477520D01*
X472796Y228957D01*
X455152Y240746D01*
X434340Y244886D01*
X413528Y240746D01*
X395884Y228957D01*
X384095Y211313D01*
X379955Y190501D01*
X380471Y187907D01*
X368063Y175499D01*
X360203Y163736D01*
X357443Y149861D01*
X357443Y149860D01*
Y45811D01*
X344743Y43285D01*
X341699Y50634D01*
X325606Y71607D01*
X304633Y87700D01*
X290257Y93655D01*
Y175483D01*
X383318Y268544D01*
X876299D01*
X876300Y268544D01*
X890175Y271304D01*
X901937Y279164D01*
X1015778Y393004D01*
X1143715D01*
X1145184Y390805D01*
X1162828Y379016D01*
X1183640Y374876D01*
X1204452Y379016D01*
X1222096Y390805D01*
X1233885Y408449D01*
X1238025Y429261D01*
X1233885Y450073D01*
X1222096Y467717D01*
X1204452Y479506D01*
X1183640Y483646D01*
X1162828Y479506D01*
X1145184Y467717D01*
X1143715Y465518D01*
X1000761D01*
X1000760Y465518D01*
X986885Y462758D01*
X975123Y454899D01*
X975122Y454898D01*
X861282Y341058D01*
X368301D01*
X368300Y341058D01*
X354425Y338298D01*
X342663Y330439D01*
X342662Y330438D01*
X228363Y216139D01*
X220503Y204376D01*
X217743Y190501D01*
X217743Y190500D01*
Y93655D01*
X203367Y87700D01*
X182394Y71607D01*
X166301Y50634D01*
X156184Y26211D01*
X152734Y1D01*
X156184Y-26209D01*
X166301Y-50632D01*
X182394Y-71605D01*
X203367Y-87698D01*
X227790Y-97815D01*
X254000Y-101265D01*
X280210Y-97815D01*
X304633Y-87698D01*
X325606Y-71605D01*
X341699Y-50632D01*
X344743Y-43283D01*
X357443Y-45809D01*
Y-88898D01*
X357443Y-88899D01*
X360203Y-102774D01*
X368063Y-114536D01*
X380745Y-127219D01*
X375885Y-138953D01*
X-126253D01*
Y1459754D01*
X833085D01*
X837945Y1448021D01*
D02*
G37*
G36*
X1950243Y1363983D02*
Y1194945D01*
X1941900Y1185701D01*
X1904207D01*
Y1130301D01*
X1878807D01*
Y1185701D01*
X1827757D01*
Y1220401D01*
X1878400D01*
Y1411544D01*
X1902682D01*
X1950243Y1363983D01*
D02*
G37*
G36*
X494944Y152045D02*
X512588Y140256D01*
X533400Y136116D01*
X554212Y140256D01*
X571856Y152045D01*
X573325Y154244D01*
X924782D01*
X974003Y105024D01*
X971206Y90119D01*
X965367Y87700D01*
X944394Y71607D01*
X928301Y50634D01*
X918184Y26211D01*
X914734Y1D01*
X918184Y-26209D01*
X928301Y-50632D01*
X944394Y-71605D01*
X952783Y-78042D01*
X948472Y-90742D01*
X829528D01*
X825217Y-78042D01*
X833606Y-71605D01*
X849699Y-50632D01*
X859816Y-26209D01*
X863266Y1D01*
X859816Y26211D01*
X849699Y50634D01*
X833606Y71607D01*
X812633Y87700D01*
X788210Y97817D01*
X762000Y101267D01*
X735790Y97817D01*
X711367Y87700D01*
X690394Y71607D01*
X674301Y50634D01*
X664184Y26211D01*
X660734Y1D01*
X664184Y-26209D01*
X674301Y-50632D01*
X690394Y-71605D01*
X698783Y-78042D01*
X694472Y-90742D01*
X575528D01*
X571217Y-78042D01*
X579606Y-71605D01*
X595699Y-50632D01*
X605816Y-26209D01*
X609266Y1D01*
X605816Y26211D01*
X595699Y50634D01*
X579606Y71607D01*
X558633Y87700D01*
X534210Y97817D01*
X508000Y101267D01*
X481790Y97817D01*
X457367Y87700D01*
X442657Y76413D01*
X429957Y82676D01*
Y124039D01*
X434340Y136116D01*
X455152Y140256D01*
X472796Y152045D01*
X477520Y159115D01*
X490220D01*
X494944Y152045D01*
D02*
G37*
%LPC*%
G36*
X565220Y8439220D02*
X374580D01*
Y8248580D01*
X565220D01*
Y8439220D01*
D02*
G37*
G36*
X560400Y7986300D02*
X517700D01*
Y7948598D01*
X560400D01*
Y7986300D01*
D02*
G37*
G36*
X487200Y7910100D02*
X444501D01*
Y7872399D01*
X487200D01*
Y7910100D01*
D02*
G37*
G36*
X44700Y7694505D02*
X25870Y7690760D01*
X9907Y7680093D01*
X-760Y7664130D01*
X-4505Y7645300D01*
X-760Y7626470D01*
X9907Y7610506D01*
X25870Y7599840D01*
X44700Y7596095D01*
X63530Y7599840D01*
X79494Y7610506D01*
X90160Y7626470D01*
X93906Y7645300D01*
X90160Y7664130D01*
X79494Y7680093D01*
X63530Y7690760D01*
X44700Y7694505D01*
D02*
G37*
G36*
X57950Y7369899D02*
X20250D01*
Y7327199D01*
X57950D01*
Y7369899D01*
D02*
G37*
G36*
Y7301799D02*
X20250D01*
Y7259100D01*
X57950D01*
Y7301799D01*
D02*
G37*
G36*
X495400Y7200900D02*
X457700D01*
Y7158200D01*
X495400D01*
Y7200900D01*
D02*
G37*
G36*
X469900Y7119242D02*
X445017Y7115966D01*
X421829Y7106362D01*
X401917Y7091083D01*
X386638Y7071171D01*
X377034Y7047983D01*
X373758Y7023100D01*
X377034Y6998217D01*
X386638Y6975029D01*
X401917Y6955117D01*
X421829Y6939838D01*
X445017Y6930234D01*
X469900Y6926958D01*
X494783Y6930234D01*
X517971Y6939838D01*
X537883Y6955117D01*
X553162Y6975029D01*
X562766Y6998217D01*
X566042Y7023100D01*
X562766Y7047983D01*
X553162Y7071171D01*
X537883Y7091083D01*
X517971Y7106362D01*
X494783Y7115966D01*
X469900Y7119242D01*
D02*
G37*
G36*
X315494Y7010400D02*
X228600D01*
Y6923506D01*
X242110Y6925284D01*
X266533Y6935401D01*
X287506Y6951494D01*
X303599Y6972467D01*
X313716Y6996890D01*
X315494Y7010400D01*
D02*
G37*
G36*
X203200D02*
X116306D01*
X118084Y6996890D01*
X128201Y6972467D01*
X144294Y6951494D01*
X165267Y6935401D01*
X189690Y6925284D01*
X203200Y6923506D01*
Y7010400D01*
D02*
G37*
G36*
X824300D02*
X736600D01*
Y6922700D01*
X824300D01*
Y7010400D01*
D02*
G37*
G36*
X711200D02*
X623500D01*
Y6922700D01*
X711200D01*
Y7010400D01*
D02*
G37*
G36*
X1085920Y6648520D02*
X895280D01*
Y6457880D01*
X1085920D01*
Y6648520D01*
D02*
G37*
G36*
X736600Y6649342D02*
X711717Y6646066D01*
X688529Y6636462D01*
X668617Y6621183D01*
X653338Y6601271D01*
X643734Y6578083D01*
X640458Y6553200D01*
X643734Y6528317D01*
X653338Y6505129D01*
X668617Y6485217D01*
X688529Y6469938D01*
X711717Y6460334D01*
X736600Y6457058D01*
X761483Y6460334D01*
X784671Y6469938D01*
X804583Y6485217D01*
X819862Y6505129D01*
X829466Y6528317D01*
X832742Y6553200D01*
X829466Y6578083D01*
X819862Y6601271D01*
X804583Y6621183D01*
X784671Y6636462D01*
X761483Y6646066D01*
X736600Y6649342D01*
D02*
G37*
G36*
X919000Y6032500D02*
X863600D01*
X808200D01*
Y5994800D01*
X810149D01*
X816136Y5983599D01*
X813355Y5979437D01*
X811741Y5971325D01*
X915459D01*
X913845Y5979437D01*
X911064Y5983599D01*
X917051Y5994800D01*
X919000D01*
Y6032500D01*
D02*
G37*
G36*
X915459Y5945925D02*
X876300D01*
Y5906766D01*
X884412Y5908380D01*
X902056Y5920169D01*
X913845Y5937813D01*
X915459Y5945925D01*
D02*
G37*
G36*
X850900D02*
X811741D01*
X813355Y5937813D01*
X825144Y5920169D01*
X842788Y5908380D01*
X850900Y5906766D01*
Y5945925D01*
D02*
G37*
G36*
X977900Y5332800D02*
X890200D01*
Y5245100D01*
X977900D01*
Y5332800D01*
D02*
G37*
G36*
X736600Y5328542D02*
X711717Y5325266D01*
X688529Y5315662D01*
X668617Y5300383D01*
X653338Y5280471D01*
X643734Y5257283D01*
X640458Y5232400D01*
X643734Y5207517D01*
X653338Y5184329D01*
X668617Y5164417D01*
X688529Y5149138D01*
X711717Y5139534D01*
X736600Y5136258D01*
X761483Y5139534D01*
X784671Y5149138D01*
X804583Y5164417D01*
X819862Y5184329D01*
X829466Y5207517D01*
X832742Y5232400D01*
X829466Y5257283D01*
X819862Y5280471D01*
X804583Y5300383D01*
X784671Y5315662D01*
X761483Y5325266D01*
X736600Y5328542D01*
D02*
G37*
G36*
X-25400D02*
X-50283Y5325266D01*
X-73471Y5315662D01*
X-93383Y5300383D01*
X-108662Y5280471D01*
X-118266Y5257283D01*
X-121542Y5232400D01*
X-118266Y5207517D01*
X-108662Y5184329D01*
X-93383Y5164417D01*
X-73471Y5149138D01*
X-50283Y5139534D01*
X-25400Y5136258D01*
X-517Y5139534D01*
X22671Y5149138D01*
X42583Y5164417D01*
X57862Y5184329D01*
X67466Y5207517D01*
X70742Y5232400D01*
X67466Y5257283D01*
X57862Y5280471D01*
X42583Y5300383D01*
X22671Y5315662D01*
X-517Y5325266D01*
X-25400Y5328542D01*
D02*
G37*
G36*
X1095958Y4918659D02*
X905318D01*
Y4728019D01*
X1095958D01*
Y4918659D01*
D02*
G37*
G36*
X746638Y4919481D02*
X721755Y4916205D01*
X698567Y4906601D01*
X678655Y4891322D01*
X663376Y4871410D01*
X653772Y4848222D01*
X650496Y4823339D01*
X653772Y4798455D01*
X663376Y4775268D01*
X678655Y4755356D01*
X698567Y4740077D01*
X721755Y4730473D01*
X746638Y4727197D01*
X771521Y4730473D01*
X794709Y4740077D01*
X814621Y4755356D01*
X829900Y4775268D01*
X839504Y4798455D01*
X842780Y4823339D01*
X839504Y4848222D01*
X829900Y4871410D01*
X814621Y4891322D01*
X794709Y4906601D01*
X771521Y4916205D01*
X746638Y4919481D01*
D02*
G37*
G36*
X950638Y4684698D02*
Y4645539D01*
X989797D01*
X988183Y4653651D01*
X976394Y4671295D01*
X958750Y4683084D01*
X950638Y4684698D01*
D02*
G37*
G36*
X925238D02*
X917126Y4683084D01*
X899482Y4671295D01*
X887693Y4653651D01*
X886079Y4645539D01*
X925238D01*
Y4684698D01*
D02*
G37*
G36*
X275858Y4656292D02*
X236700D01*
X238313Y4648180D01*
X250103Y4630536D01*
X267746Y4618747D01*
X275858Y4617133D01*
Y4656292D01*
D02*
G37*
G36*
X989797Y4620139D02*
X950638D01*
Y4580980D01*
X958750Y4582594D01*
X976394Y4594383D01*
X988183Y4612027D01*
X989797Y4620139D01*
D02*
G37*
G36*
X925238D02*
X886079D01*
X887693Y4612027D01*
X899482Y4594383D01*
X917126Y4582594D01*
X925238Y4580980D01*
Y4620139D01*
D02*
G37*
G36*
X655959Y4463118D02*
X647847Y4461504D01*
X630203Y4449715D01*
X618414Y4432071D01*
X616800Y4423959D01*
X655959D01*
Y4463118D01*
D02*
G37*
G36*
X438958Y4366139D02*
X401258D01*
Y4323439D01*
X438958D01*
Y4366139D01*
D02*
G37*
G36*
X860938Y4059223D02*
Y4020064D01*
X900097D01*
X898483Y4028177D01*
X886694Y4045820D01*
X869050Y4057610D01*
X860938Y4059223D01*
D02*
G37*
G36*
X176639Y3681135D02*
X133938D01*
Y3643436D01*
X176639D01*
Y3681135D01*
D02*
G37*
G36*
X309823Y3681136D02*
X270664D01*
Y3641977D01*
X278776Y3643591D01*
X296420Y3655381D01*
X308209Y3673024D01*
X309823Y3681136D01*
D02*
G37*
G36*
X987938Y3602939D02*
X900238D01*
Y3515239D01*
X987938D01*
Y3602939D01*
D02*
G37*
G36*
X746638Y3598681D02*
X721755Y3595405D01*
X698567Y3585801D01*
X678655Y3570522D01*
X663376Y3550610D01*
X653772Y3527422D01*
X650496Y3502539D01*
X653772Y3477655D01*
X663376Y3454468D01*
X678655Y3434556D01*
X698567Y3419277D01*
X721755Y3409673D01*
X746638Y3406397D01*
X771521Y3409673D01*
X794709Y3419277D01*
X814621Y3434556D01*
X829900Y3454468D01*
X839504Y3477655D01*
X842780Y3502539D01*
X839504Y3527422D01*
X829900Y3550610D01*
X814621Y3570522D01*
X794709Y3585801D01*
X771521Y3595405D01*
X746638Y3598681D01*
D02*
G37*
G36*
X492638D02*
X467755Y3595405D01*
X444567Y3585801D01*
X424655Y3570522D01*
X409376Y3550610D01*
X399772Y3527422D01*
X396496Y3502539D01*
X399772Y3477655D01*
X409376Y3454468D01*
X424655Y3434556D01*
X444567Y3419277D01*
X467755Y3409673D01*
X492638Y3406397D01*
X517521Y3409673D01*
X540709Y3419277D01*
X560621Y3434556D01*
X575900Y3454468D01*
X585504Y3477655D01*
X588780Y3502539D01*
X585504Y3527422D01*
X575900Y3550610D01*
X560621Y3570522D01*
X540709Y3585801D01*
X517521Y3595405D01*
X492638Y3598681D01*
D02*
G37*
G36*
X238638D02*
X213755Y3595405D01*
X190567Y3585801D01*
X170655Y3570522D01*
X155376Y3550610D01*
X145772Y3527422D01*
X142496Y3502539D01*
X145772Y3477655D01*
X155376Y3454468D01*
X170655Y3434556D01*
X190567Y3419277D01*
X213755Y3409673D01*
X238638Y3406397D01*
X263521Y3409673D01*
X286709Y3419277D01*
X306621Y3434556D01*
X321900Y3454468D01*
X331504Y3477655D01*
X334780Y3502539D01*
X331504Y3527422D01*
X321900Y3550610D01*
X306621Y3570522D01*
X286709Y3585801D01*
X263521Y3595405D01*
X238638Y3598681D01*
D02*
G37*
G36*
X-15362D02*
X-40245Y3595405D01*
X-63433Y3585801D01*
X-83345Y3570522D01*
X-98624Y3550610D01*
X-108228Y3527422D01*
X-111504Y3502539D01*
X-108228Y3477655D01*
X-98624Y3454468D01*
X-83345Y3434556D01*
X-63433Y3419277D01*
X-40245Y3409673D01*
X-15362Y3406397D01*
X9521Y3409673D01*
X32709Y3419277D01*
X52621Y3434556D01*
X67900Y3454468D01*
X77504Y3477655D01*
X80780Y3502539D01*
X77504Y3527422D01*
X67900Y3550610D01*
X52621Y3570522D01*
X32709Y3585801D01*
X9521Y3595405D01*
X-15362Y3598681D01*
D02*
G37*
G36*
X1003300Y3177119D02*
X979743Y3174017D01*
X957791Y3164924D01*
X938940Y3150460D01*
X924476Y3131609D01*
X915383Y3109657D01*
X912281Y3086100D01*
X915383Y3062543D01*
X924476Y3040591D01*
X938940Y3021740D01*
X957791Y3007276D01*
X979743Y2998183D01*
X1003300Y2995081D01*
X1026857Y2998183D01*
X1048809Y3007276D01*
X1067660Y3021740D01*
X1082124Y3040591D01*
X1091217Y3062543D01*
X1094319Y3086100D01*
X1091217Y3109657D01*
X1082124Y3131609D01*
X1067660Y3150460D01*
X1048809Y3164924D01*
X1026857Y3174017D01*
X1003300Y3177119D01*
D02*
G37*
G36*
X495300D02*
X471743Y3174017D01*
X449791Y3164924D01*
X430940Y3150460D01*
X416476Y3131609D01*
X407383Y3109657D01*
X404281Y3086100D01*
X407383Y3062543D01*
X416476Y3040591D01*
X430940Y3021740D01*
X449791Y3007276D01*
X471743Y2998183D01*
X495300Y2995081D01*
X518857Y2998183D01*
X540809Y3007276D01*
X559660Y3021740D01*
X574124Y3040591D01*
X583217Y3062543D01*
X586319Y3086100D01*
X583217Y3109657D01*
X574124Y3131609D01*
X559660Y3150460D01*
X540809Y3164924D01*
X518857Y3174017D01*
X495300Y3177119D01*
D02*
G37*
G36*
X241300D02*
X217743Y3174017D01*
X195791Y3164924D01*
X176940Y3150460D01*
X162476Y3131609D01*
X153383Y3109657D01*
X150281Y3086100D01*
X153383Y3062543D01*
X162476Y3040591D01*
X176940Y3021740D01*
X195791Y3007276D01*
X217743Y2998183D01*
X241300Y2995081D01*
X264857Y2998183D01*
X286809Y3007276D01*
X305660Y3021740D01*
X320124Y3040591D01*
X329217Y3062543D01*
X332319Y3086100D01*
X329217Y3109657D01*
X320124Y3131609D01*
X305660Y3150460D01*
X286809Y3164924D01*
X264857Y3174017D01*
X241300Y3177119D01*
D02*
G37*
G36*
X647700Y2863426D02*
X630852Y2860075D01*
X616569Y2850531D01*
X607025Y2836248D01*
X603674Y2819400D01*
X607025Y2802552D01*
X616569Y2788269D01*
X630852Y2778725D01*
X647700Y2775374D01*
X664548Y2778725D01*
X678831Y2788269D01*
X688375Y2802552D01*
X691726Y2819400D01*
X688375Y2836248D01*
X678831Y2850531D01*
X664548Y2860075D01*
X647700Y2863426D01*
D02*
G37*
G36*
X749300Y3177119D02*
X725743Y3174017D01*
X703791Y3164924D01*
X684940Y3150460D01*
X670476Y3131609D01*
X661383Y3109657D01*
X658281Y3086100D01*
X661383Y3062543D01*
X669506Y3042931D01*
X349988Y2723412D01*
X344374Y2715011D01*
X342402Y2705100D01*
Y2501142D01*
X329702Y2497289D01*
X322792Y2507631D01*
X308509Y2517175D01*
X291661Y2520526D01*
X274813Y2517175D01*
X260530Y2507631D01*
X250987Y2493348D01*
X247635Y2476500D01*
X250987Y2459652D01*
X256358Y2451613D01*
X246493Y2443517D01*
X13198Y2676813D01*
Y2999152D01*
X32809Y3007276D01*
X51660Y3021740D01*
X66124Y3040591D01*
X75217Y3062543D01*
X78319Y3086100D01*
X75217Y3109657D01*
X66124Y3131609D01*
X51660Y3150460D01*
X32809Y3164924D01*
X10857Y3174017D01*
X-12700Y3177119D01*
X-36257Y3174017D01*
X-58209Y3164924D01*
X-77060Y3150460D01*
X-91524Y3131609D01*
X-100617Y3109657D01*
X-103719Y3086100D01*
X-100617Y3062543D01*
X-91524Y3040591D01*
X-77060Y3021740D01*
X-58209Y3007276D01*
X-38598Y2999152D01*
Y2666086D01*
X-36626Y2656175D01*
X-31012Y2647773D01*
X288113Y2328648D01*
X296515Y2323034D01*
X306426Y2321062D01*
X390394D01*
X400305Y2323034D01*
X400766Y2323342D01*
X782179D01*
X785676Y2318109D01*
X799959Y2308565D01*
X816807Y2305214D01*
X833655Y2308565D01*
X847938Y2318109D01*
X857482Y2332392D01*
X860833Y2349240D01*
X857482Y2366088D01*
X847938Y2380371D01*
X833655Y2389914D01*
X816807Y2393266D01*
X799959Y2389914D01*
X785676Y2380371D01*
X782179Y2375137D01*
X417531D01*
X409847Y2387838D01*
X412326Y2400300D01*
X408975Y2417148D01*
X399431Y2431431D01*
X394198Y2434928D01*
Y2694373D01*
X706131Y3006306D01*
X725743Y2998183D01*
X749300Y2995081D01*
X772857Y2998183D01*
X794809Y3007276D01*
X813660Y3021740D01*
X828124Y3040591D01*
X837217Y3062543D01*
X840319Y3086100D01*
X837217Y3109657D01*
X828124Y3131609D01*
X813660Y3150460D01*
X794809Y3164924D01*
X772857Y3174017D01*
X749300Y3177119D01*
D02*
G37*
G36*
X711200Y2241126D02*
X694352Y2237775D01*
X680069Y2228231D01*
X670525Y2213948D01*
X667174Y2197100D01*
X670525Y2180252D01*
X680069Y2165969D01*
X694352Y2156425D01*
X711200Y2153074D01*
X728048Y2156425D01*
X742331Y2165969D01*
X751875Y2180252D01*
X755226Y2197100D01*
X751875Y2213948D01*
X742331Y2228231D01*
X728048Y2237775D01*
X711200Y2241126D01*
D02*
G37*
G36*
X495300D02*
X478452Y2237775D01*
X464169Y2228231D01*
X454625Y2213948D01*
X451274Y2197100D01*
X454625Y2180252D01*
X464169Y2165969D01*
X478452Y2156425D01*
X495300Y2153074D01*
X512148Y2156425D01*
X526431Y2165969D01*
X535975Y2180252D01*
X539326Y2197100D01*
X535975Y2213948D01*
X526431Y2228231D01*
X512148Y2237775D01*
X495300Y2241126D01*
D02*
G37*
G36*
X1244600Y1865700D02*
X1156900D01*
Y1778000D01*
X1244600D01*
Y1865700D01*
D02*
G37*
G36*
X38100Y2366825D02*
X21252Y2363474D01*
X6969Y2353931D01*
X-2575Y2339648D01*
X-5926Y2322800D01*
X-2575Y2305951D01*
X6969Y2291669D01*
X20904Y2282358D01*
X20978Y2281986D01*
X26592Y2273584D01*
X311888Y1988288D01*
X320289Y1982674D01*
X330200Y1980702D01*
X751273D01*
X923506Y1808469D01*
X915383Y1788857D01*
X912281Y1765300D01*
X915383Y1741743D01*
X924476Y1719791D01*
X938940Y1700940D01*
X957791Y1686476D01*
X979743Y1677383D01*
X1003300Y1674281D01*
X1026857Y1677383D01*
X1048809Y1686476D01*
X1067660Y1700940D01*
X1082124Y1719791D01*
X1091217Y1741743D01*
X1094319Y1765300D01*
X1091217Y1788857D01*
X1082124Y1810809D01*
X1067660Y1829660D01*
X1048809Y1844124D01*
X1026857Y1853217D01*
X1003300Y1856319D01*
X979743Y1853217D01*
X960131Y1845094D01*
X780312Y2024912D01*
X771911Y2030526D01*
X762000Y2032498D01*
X340927D01*
X74248Y2299177D01*
X78775Y2305951D01*
X82126Y2322800D01*
X78775Y2339648D01*
X69231Y2353931D01*
X54948Y2363474D01*
X38100Y2366825D01*
D02*
G37*
G36*
X749300Y1856319D02*
X725743Y1853217D01*
X703791Y1844124D01*
X684940Y1829660D01*
X670476Y1810809D01*
X661383Y1788857D01*
X658281Y1765300D01*
X661383Y1741743D01*
X670476Y1719791D01*
X684940Y1700940D01*
X703791Y1686476D01*
X725743Y1677383D01*
X749300Y1674281D01*
X772857Y1677383D01*
X794809Y1686476D01*
X813660Y1700940D01*
X828124Y1719791D01*
X837217Y1741743D01*
X840319Y1765300D01*
X837217Y1788857D01*
X828124Y1810809D01*
X813660Y1829660D01*
X794809Y1844124D01*
X772857Y1853217D01*
X749300Y1856319D01*
D02*
G37*
G36*
X495300D02*
X471743Y1853217D01*
X449791Y1844124D01*
X430940Y1829660D01*
X416476Y1810809D01*
X407383Y1788857D01*
X404281Y1765300D01*
X407383Y1741743D01*
X416476Y1719791D01*
X430940Y1700940D01*
X449791Y1686476D01*
X471743Y1677383D01*
X495300Y1674281D01*
X518857Y1677383D01*
X540809Y1686476D01*
X559660Y1700940D01*
X574124Y1719791D01*
X583217Y1741743D01*
X586319Y1765300D01*
X583217Y1788857D01*
X574124Y1810809D01*
X559660Y1829660D01*
X540809Y1844124D01*
X518857Y1853217D01*
X495300Y1856319D01*
D02*
G37*
G36*
X241300D02*
X217743Y1853217D01*
X195791Y1844124D01*
X176940Y1829660D01*
X162476Y1810809D01*
X153383Y1788857D01*
X150281Y1765300D01*
X153383Y1741743D01*
X162476Y1719791D01*
X176940Y1700940D01*
X195791Y1686476D01*
X217743Y1677383D01*
X241300Y1674281D01*
X264857Y1677383D01*
X286809Y1686476D01*
X305660Y1700940D01*
X320124Y1719791D01*
X329217Y1741743D01*
X332319Y1765300D01*
X329217Y1788857D01*
X320124Y1810809D01*
X305660Y1829660D01*
X286809Y1844124D01*
X264857Y1853217D01*
X241300Y1856319D01*
D02*
G37*
G36*
X-12700D02*
X-36257Y1853217D01*
X-58209Y1844124D01*
X-77060Y1829660D01*
X-91524Y1810809D01*
X-100617Y1788857D01*
X-103719Y1765300D01*
X-100617Y1741743D01*
X-91524Y1719791D01*
X-77060Y1700940D01*
X-58209Y1686476D01*
X-36257Y1677383D01*
X-12700Y1674281D01*
X10857Y1677383D01*
X32809Y1686476D01*
X51660Y1700940D01*
X66124Y1719791D01*
X75217Y1741743D01*
X78319Y1765300D01*
X75217Y1788857D01*
X66124Y1810809D01*
X51660Y1829660D01*
X32809Y1844124D01*
X10857Y1853217D01*
X-12700Y1856319D01*
D02*
G37*
G36*
X1244600Y1752600D02*
X1156900D01*
Y1664900D01*
X1244600D01*
Y1752600D01*
D02*
G37*
G36*
X508000Y1422067D02*
X481790Y1418617D01*
X457367Y1408500D01*
X436394Y1392407D01*
X420301Y1371434D01*
X410184Y1347011D01*
X406734Y1320801D01*
X410184Y1294591D01*
X420301Y1270168D01*
X436394Y1249195D01*
X457367Y1233102D01*
X481790Y1222985D01*
X508000Y1219535D01*
X534210Y1222985D01*
X558633Y1233102D01*
X579606Y1249195D01*
X595699Y1270168D01*
X605816Y1294591D01*
X609266Y1320801D01*
X605816Y1347011D01*
X595699Y1371434D01*
X579606Y1392407D01*
X558633Y1408500D01*
X534210Y1418617D01*
X508000Y1422067D01*
D02*
G37*
G36*
X254000D02*
X227790Y1418617D01*
X203367Y1408500D01*
X182394Y1392407D01*
X166301Y1371434D01*
X156184Y1347011D01*
X152734Y1320801D01*
X156184Y1294591D01*
X166301Y1270168D01*
X182394Y1249195D01*
X203367Y1233102D01*
X227790Y1222985D01*
X254000Y1219535D01*
X280210Y1222985D01*
X304633Y1233102D01*
X325606Y1249195D01*
X341699Y1270168D01*
X351816Y1294591D01*
X355266Y1320801D01*
X351816Y1347011D01*
X341699Y1371434D01*
X325606Y1392407D01*
X304633Y1408500D01*
X280210Y1418617D01*
X254000Y1422067D01*
D02*
G37*
G36*
X702500Y749301D02*
X613600D01*
Y660401D01*
X702500D01*
Y749301D01*
D02*
G37*
G36*
X0Y1422067D02*
X-26210Y1418617D01*
X-50633Y1408500D01*
X-71606Y1392407D01*
X-87699Y1371434D01*
X-97816Y1347011D01*
X-101266Y1320801D01*
X-97816Y1294591D01*
X-87699Y1270168D01*
X-71606Y1249195D01*
X-50633Y1233102D01*
X-26210Y1222985D01*
X0Y1219535D01*
X26210Y1222985D01*
X40586Y1228940D01*
X152162Y1117364D01*
X152163Y1117364D01*
X163925Y1109504D01*
X177800Y1106744D01*
X472662D01*
X817833Y761573D01*
X812144Y749302D01*
X806028Y749301D01*
X727900D01*
Y660401D01*
X816800D01*
Y737639D01*
X816801Y744645D01*
X829072Y750334D01*
X1030711Y548695D01*
X1030195Y546101D01*
X1034335Y525289D01*
X1046124Y507645D01*
X1063768Y495856D01*
X1084580Y491716D01*
X1105392Y495856D01*
X1123036Y507645D01*
X1134825Y525289D01*
X1138965Y546101D01*
X1135203Y565012D01*
X1139707Y569712D01*
X1145564Y573070D01*
X1163962Y558953D01*
X1188677Y548716D01*
X1215200Y545224D01*
X1241723Y548716D01*
X1266438Y558953D01*
X1287662Y575239D01*
X1303948Y596463D01*
X1314185Y621178D01*
X1317677Y647701D01*
X1314185Y674224D01*
X1303948Y698939D01*
X1287662Y720163D01*
X1266438Y736449D01*
X1241723Y746686D01*
X1215200Y750178D01*
X1188677Y746686D01*
X1163962Y736449D01*
X1142738Y720163D01*
X1126452Y698939D01*
X1116215Y674224D01*
X1112723Y647701D01*
X1116215Y621178D01*
X1121294Y608916D01*
X1114073Y593162D01*
X1111467Y592287D01*
X1105392Y596346D01*
X1084580Y600486D01*
X1081986Y599970D01*
X513317Y1168639D01*
X501555Y1176498D01*
X487680Y1179258D01*
X487679Y1179258D01*
X192818D01*
X91861Y1280215D01*
X97816Y1294591D01*
X101266Y1320801D01*
X97816Y1347011D01*
X87699Y1371434D01*
X71606Y1392407D01*
X50633Y1408500D01*
X26210Y1418617D01*
X0Y1422067D01*
D02*
G37*
G36*
X1941900Y571501D02*
X1904207D01*
Y528801D01*
X1941900D01*
Y571501D01*
D02*
G37*
G36*
X816800Y635001D02*
X613600D01*
Y546101D01*
X666526D01*
X667776Y533401D01*
X664988Y532846D01*
X647344Y521057D01*
X642637Y514013D01*
X627363D01*
X622656Y521057D01*
X605012Y532846D01*
X584200Y536986D01*
X563388Y532846D01*
X545744Y521057D01*
X533955Y503413D01*
X529815Y482601D01*
X532708Y468058D01*
X524140Y455358D01*
X375205D01*
X373736Y457557D01*
X356092Y469346D01*
X335280Y473486D01*
X314468Y469346D01*
X296824Y457557D01*
X285035Y439913D01*
X280895Y419101D01*
X285035Y398289D01*
X296824Y380645D01*
X314468Y368856D01*
X335280Y364716D01*
X356092Y368856D01*
X373736Y380645D01*
X375205Y382844D01*
X647699D01*
X647700Y382844D01*
X661575Y385604D01*
X673337Y393464D01*
X704633Y424759D01*
X704634Y424760D01*
X712207Y436094D01*
X724256Y444145D01*
X736045Y461789D01*
X740185Y482601D01*
X736045Y503413D01*
X724256Y521057D01*
X706612Y532846D01*
X703824Y533401D01*
X705074Y546101D01*
X816800D01*
Y635001D01*
D02*
G37*
G36*
X1234440Y219486D02*
X1213628Y215346D01*
X1195984Y203557D01*
X1184195Y185913D01*
X1180055Y165101D01*
X1184195Y144289D01*
X1195984Y126645D01*
X1213628Y114856D01*
X1234440Y110716D01*
X1255252Y114856D01*
X1272896Y126645D01*
X1284685Y144289D01*
X1288825Y165101D01*
X1284685Y185913D01*
X1272896Y203557D01*
X1255252Y215346D01*
X1234440Y219486D01*
D02*
G37*
G36*
X1878400Y100401D02*
X1790692D01*
Y12701D01*
X1878400D01*
Y100401D01*
D02*
G37*
G36*
X1765292D02*
X1677600D01*
Y12701D01*
X1765292D01*
Y100401D01*
D02*
G37*
G36*
X1878400Y-12699D02*
X1790692D01*
Y-100399D01*
X1878400D01*
Y-12699D01*
D02*
G37*
G36*
X1765292D02*
X1677600D01*
Y-100399D01*
X1765292D01*
Y-12699D01*
D02*
G37*
G36*
X1524000Y101267D02*
X1497790Y97817D01*
X1473367Y87700D01*
X1452394Y71607D01*
X1436301Y50634D01*
X1426184Y26211D01*
X1422734Y1D01*
X1426184Y-26209D01*
X1436301Y-50632D01*
X1452394Y-71605D01*
X1473367Y-87698D01*
X1497790Y-97815D01*
X1524000Y-101265D01*
X1550210Y-97815D01*
X1574633Y-87698D01*
X1595606Y-71605D01*
X1611699Y-50632D01*
X1621816Y-26209D01*
X1625266Y1D01*
X1621816Y26211D01*
X1611699Y50634D01*
X1595606Y71607D01*
X1574633Y87700D01*
X1550210Y97817D01*
X1524000Y101267D01*
D02*
G37*
G36*
X0D02*
X-26210Y97817D01*
X-50633Y87700D01*
X-71606Y71607D01*
X-87699Y50634D01*
X-97816Y26211D01*
X-101266Y1D01*
X-97816Y-26209D01*
X-87699Y-50632D01*
X-71606Y-71605D01*
X-50633Y-87698D01*
X-26210Y-97815D01*
X0Y-101265D01*
X26210Y-97815D01*
X50633Y-87698D01*
X71606Y-71605D01*
X87699Y-50632D01*
X97816Y-26209D01*
X101266Y1D01*
X97816Y26211D01*
X87699Y50634D01*
X71606Y71607D01*
X50633Y87700D01*
X26210Y97817D01*
X0Y101267D01*
D02*
G37*
%LPD*%
D11*
X388558Y4378839D02*
D03*
X288558D02*
D03*
X468036Y3840199D02*
D03*
X568041D02*
D03*
X215097Y6375400D02*
D03*
X115098D02*
D03*
X139700Y5692298D02*
D03*
X239700D02*
D03*
X170650Y7314499D02*
D03*
X70650D02*
D03*
X673100Y7835900D02*
D03*
X773100D02*
D03*
X864400Y7213600D02*
D03*
X964400D02*
D03*
X608100D02*
D03*
X508100D02*
D03*
X265900D02*
D03*
X165900D02*
D03*
X1891500Y1130301D02*
D03*
X1791500D02*
D03*
Y584201D02*
D03*
X1891500D02*
D03*
D12*
X10038Y4419440D02*
D03*
Y4319435D02*
D03*
X746638Y3790196D02*
D03*
Y3890196D02*
D03*
X365638Y4009741D02*
D03*
Y3909741D02*
D03*
X367238Y4263356D02*
D03*
Y4163356D02*
D03*
X189338Y3693836D02*
D03*
Y3793836D02*
D03*
X10038Y3793841D02*
D03*
Y3693836D02*
D03*
X114300Y5561800D02*
D03*
Y5461800D02*
D03*
X228600Y5561800D02*
D03*
Y5461800D02*
D03*
X774700Y5538000D02*
D03*
Y5638000D02*
D03*
X889000Y5538000D02*
D03*
Y5638000D02*
D03*
X1003300Y5537200D02*
D03*
Y5637200D02*
D03*
X203200Y6075964D02*
D03*
Y5975964D02*
D03*
Y6285702D02*
D03*
Y6185703D02*
D03*
X114300D02*
D03*
Y6285702D02*
D03*
X863600Y6045200D02*
D03*
Y6145200D02*
D03*
X12700Y6170605D02*
D03*
Y6270605D02*
D03*
X609600Y5561800D02*
D03*
Y5461800D02*
D03*
X405108Y5561800D02*
D03*
Y5461800D02*
D03*
X202797Y5786169D02*
D03*
Y5886169D02*
D03*
X12700Y5981700D02*
D03*
Y6081705D02*
D03*
X1003300Y7664380D02*
D03*
Y7764380D02*
D03*
X1004320Y7469855D02*
D03*
Y7569855D02*
D03*
X431800Y7759700D02*
D03*
Y7859700D02*
D03*
X573100Y7935900D02*
D03*
Y7835900D02*
D03*
X672694Y7978972D02*
D03*
Y8078972D02*
D03*
X773100Y8076400D02*
D03*
Y7976400D02*
D03*
X865200Y7936700D02*
D03*
Y7836700D02*
D03*
D13*
X435631Y6145301D02*
D03*
Y6210300D02*
D03*
X617129D02*
D03*
X435631Y6275299D02*
D03*
X617129D02*
D03*
Y6145301D02*
D03*
D14*
X-40762Y4319435D02*
X15038D01*
X76800Y4518437D02*
X91679Y4503558D01*
X59338Y4170039D02*
Y4255946D01*
X51039Y4264245D02*
Y4283434D01*
X-78059Y4518437D02*
X76800D01*
X91679Y4281079D02*
Y4503558D01*
Y4281079D02*
X116863Y4255894D01*
X15038Y4319435D02*
X51039Y4283434D01*
Y4264245D02*
X59338Y4255946D01*
X165458Y4286325D02*
X171290Y4292157D01*
Y4313710D01*
X116863Y4224594D02*
X122695Y4218762D01*
X116863Y4224594D02*
Y4255894D01*
X752681Y3896239D02*
X754136Y3897694D01*
X752681Y3896239D02*
X848238D01*
X754136Y3897694D02*
Y4027537D01*
X668659Y4411259D02*
X721244D01*
X759140Y4301536D02*
Y4373363D01*
X721244Y4411259D02*
X759140Y4373363D01*
X755198Y4233924D02*
Y4297595D01*
X759140Y4301536D01*
X720648Y4199374D02*
X755198Y4233924D01*
X848238Y4226637D02*
Y4467739D01*
X492638Y4823339D02*
X848238Y4467739D01*
X759140Y4137539D02*
X848238Y4226637D01*
X288534Y3793836D02*
X365638Y3870940D01*
X189338Y3793836D02*
X288534D01*
X288558Y4668992D02*
X388558Y4568992D01*
Y4378839D02*
Y4568992D01*
X235020Y4355895D02*
X257964Y4378839D01*
X235020Y4255221D02*
Y4355895D01*
X257964Y4378839D02*
X288558D01*
X746638Y3722734D02*
Y3790196D01*
X568041Y3722734D02*
X635835Y3654939D01*
X568041Y3722734D02*
Y3840199D01*
X635835Y3654939D02*
X822838D01*
X848238Y3680339D02*
Y3769239D01*
X822838Y3654939D02*
X848238Y3680339D01*
X10038Y3693836D02*
X59338D01*
X-91562D02*
X10038D01*
X365638Y3870940D02*
Y3909741D01*
Y3870940D02*
X396380Y3840199D01*
X468036D01*
X189338Y3693836D02*
X257964D01*
X124338Y3758837D02*
X172038Y3711136D01*
X124338Y3758837D02*
Y3978039D01*
X172038Y3706136D02*
Y3711136D01*
Y3706136D02*
X184338Y3693836D01*
X189338D01*
X-91562Y4234776D02*
X-88203Y4231416D01*
X-15362D01*
X10038Y4797939D02*
X177045Y4630932D01*
X171290Y4313710D02*
X177045Y4319465D01*
Y4630932D01*
X-91562Y4419440D02*
X10038D01*
X257964Y4007364D02*
Y4138815D01*
X235020Y4161760D02*
X257964Y4138815D01*
X238638Y4823339D02*
X491884Y4570093D01*
Y4419440D02*
Y4570093D01*
X453698Y4263356D02*
X491878Y4301536D01*
X556138D01*
X367238Y4263356D02*
X453698D01*
X189338Y4169059D02*
X196638Y4161760D01*
X235020D01*
X196638Y4216839D02*
X235020Y4255221D01*
X368371Y4162223D02*
X416438D01*
X367238Y4163356D02*
X368371Y4162223D01*
X416438D02*
X441122Y4137539D01*
X556138D01*
X196638Y4177339D02*
Y4216839D01*
X189338Y4170039D02*
X196638Y4177339D01*
X657636Y3961918D02*
Y4027537D01*
X-91562Y4009741D02*
Y4134770D01*
X-91562Y4134771D02*
X-91562Y4134770D01*
X27338Y3811141D02*
X59338Y3843141D01*
Y3978039D01*
X10038Y3793841D02*
X15038D01*
X27338Y3806141D01*
Y3811141D01*
X-91562Y3793841D02*
Y3909736D01*
Y3793841D02*
X10038D01*
X189338Y3793836D02*
Y3978039D01*
X365638Y4009741D02*
X368015Y4007364D01*
X441838D01*
X462010Y4027537D02*
X561137D01*
X441838Y4007364D02*
X462010Y4027537D01*
X365638Y3909741D02*
X367238Y3908141D01*
X202797Y5786169D02*
X206333Y5789705D01*
X256018D01*
X268613Y5802300D01*
X405108D01*
X202797Y5886169D02*
X268654D01*
X350961Y5968476D01*
X85692Y5852358D02*
X100572Y5867237D01*
Y5971954D01*
X63500Y5852358D02*
X85692D01*
X100572Y5971954D02*
X103359Y5974742D01*
X201977D01*
X774700Y5486400D02*
Y5538000D01*
X1003300Y5461800D02*
Y5537200D01*
X114300Y6285702D02*
X115098Y6286500D01*
Y6375400D01*
X-98851Y5434430D02*
X-71481Y5461800D01*
X114300D01*
X-101600Y5434430D02*
X-98851D01*
X405108Y5461800D02*
X609600D01*
X482600Y5359859D02*
X507541Y5384800D01*
X848721D01*
X482600Y5232400D02*
Y5359859D01*
X228600Y5561800D02*
X405108D01*
X223600D02*
X228600D01*
X38100Y5740400D02*
Y5745119D01*
Y5577079D02*
Y5740400D01*
X12700Y5770519D02*
X38100Y5745119D01*
Y5577079D02*
X52979Y5562200D01*
X12700Y5770519D02*
Y5801558D01*
X52979Y5562200D02*
X113900D01*
X114300Y5561800D01*
X848721Y5384800D02*
X886063Y5422142D01*
Y5458863D02*
X889000Y5461800D01*
X886063Y5422142D02*
Y5458863D01*
X889000Y5461800D02*
Y5538000D01*
X608110Y5966298D02*
Y6043710D01*
X609600Y6045200D01*
X607491Y5965679D02*
X608110Y5966298D01*
X609600Y5561800D02*
X698500D01*
X654063Y5692298D02*
X708361Y5638000D01*
X603106Y5692298D02*
X654063D01*
X708361Y5638000D02*
X774700D01*
X889000D01*
X889800Y5637200D02*
X1003300D01*
X889000Y5638000D02*
X889800Y5637200D01*
X228600Y5232400D02*
Y5461800D01*
X114300D02*
X228600D01*
X139700Y5692298D02*
X147942Y5684056D01*
X211300Y5574100D02*
X223600Y5561800D01*
X211300Y5574100D02*
Y5579100D01*
X147942Y5642458D02*
X211300Y5579100D01*
X147942Y5642458D02*
Y5684056D01*
X239700Y5692298D02*
X410107D01*
X63500Y5801558D02*
X67796D01*
X128954Y5740400D01*
Y5703044D02*
X139700Y5692298D01*
X128954Y5703044D02*
Y5740400D01*
X201977Y5974742D02*
X203200Y5975964D01*
X350961Y5968476D02*
X402930D01*
X405108Y5966298D01*
X607491Y5907102D02*
Y5965679D01*
X554224Y5853836D02*
X607491Y5907102D01*
X502608Y5562600D02*
Y5688299D01*
X506607Y5692298D01*
X608110Y5802300D02*
X736498D01*
X-101600Y6270605D02*
X12700D01*
X114300Y6285702D02*
X203200D01*
X-101600Y5801558D02*
X12700D01*
Y5852358D02*
Y5981700D01*
X-101600Y5901558D02*
Y6070600D01*
X12700Y6170605D02*
X94202D01*
X-101595D02*
X12700D01*
Y6081705D02*
Y6170605D01*
X94202D02*
X109300Y6185703D01*
X114300D01*
X203200Y6075964D02*
X208200D01*
X220500Y6088264D01*
Y6093264D01*
X243601Y6116365D01*
Y6145301D01*
X220500Y6168403D02*
X243601Y6145301D01*
X208200Y6185703D02*
X220500Y6173403D01*
X243601Y6145301D02*
X435631D01*
X220500Y6168403D02*
Y6173403D01*
X203200Y6185703D02*
X208200D01*
X541186Y6366353D02*
X694847D01*
X749300Y6311900D01*
X482600Y6424939D02*
X541186Y6366353D01*
X617129Y6210300D02*
X734421D01*
X749300Y6225179D01*
Y6311900D01*
X482600Y6424939D02*
Y6553200D01*
X330200Y6210300D02*
X435631D01*
X863600Y5958625D02*
Y6045200D01*
X736600Y6145200D02*
X863600D01*
X736498Y6145301D02*
X736600Y6145200D01*
X617129Y6145301D02*
X736498D01*
X263318Y6366353D02*
X350961Y6278710D01*
X224144Y6366353D02*
X263318D01*
X215097Y6375400D02*
X224144Y6366353D01*
X60522Y6529975D02*
X197797Y6392700D01*
X-2175Y6529975D02*
X60522D01*
X-25400Y6553200D02*
X-2175Y6529975D01*
X350961Y6278710D02*
X432219D01*
X435631Y6275299D01*
X617129D01*
X197797Y6392700D02*
X202797D01*
X215097Y6380400D01*
Y6375400D02*
Y6380400D01*
D19*
X276475Y7441924D02*
Y7477845D01*
Y7441924D02*
X283210Y7435189D01*
Y7347794D02*
Y7435189D01*
Y7347794D02*
X308880Y7322124D01*
X276475Y7477845D02*
X283210Y7484580D01*
X308880Y7318110D02*
Y7322124D01*
X70650Y7233440D02*
Y7314499D01*
X90490Y7213600D02*
X165900D01*
X70650Y7233440D02*
X90490Y7213600D01*
X280740Y7233440D02*
X285740D01*
X265900Y7218600D02*
X280740Y7233440D01*
X265900Y7213600D02*
Y7218600D01*
X285740Y7233440D02*
X308880Y7256580D01*
Y7318110D01*
X170650Y7314499D02*
X174261Y7318110D01*
X308880D01*
X355479D01*
X467669Y7430300D02*
X508100D01*
X355479Y7318110D02*
X467669Y7430300D01*
X170650Y7314499D02*
X170700Y7314449D01*
X18182Y7314499D02*
X70650D01*
X-6350Y7339031D02*
Y7379499D01*
Y7339031D02*
X18182Y7314499D01*
X758260Y7816060D02*
X773100Y7830900D01*
X673100Y7645300D02*
Y7735900D01*
X623100Y7736189D02*
X673100Y7786189D01*
X753260Y7816060D02*
X758260D01*
X673100Y7735900D02*
X753260Y7816060D01*
X773100Y7830900D02*
Y7835900D01*
X623100Y7645300D02*
Y7736189D01*
X673100Y7786189D02*
Y7835900D01*
X866670Y7938170D02*
X1003300Y7801540D01*
X874180Y7764380D02*
X1003300D01*
Y7801540D01*
Y7754840D02*
Y7764380D01*
X883480Y7664380D02*
X1003300D01*
X838100Y7619000D02*
X883480Y7664380D01*
X1003300Y7570875D02*
Y7645300D01*
Y7664380D01*
Y7462990D02*
X1008300D01*
X1004320Y7469855D02*
X1031400Y7442775D01*
X629621Y7935900D02*
X652854Y7959132D01*
X667694Y7978972D02*
X672694D01*
X652854Y7964132D02*
X667694Y7978972D01*
X652854Y7959132D02*
Y7964132D01*
X573100Y7935900D02*
X629621D01*
X770528Y8078972D02*
X773100Y8076400D01*
X672694Y8078972D02*
X770528D01*
X-38100Y8343900D02*
X215900D01*
X723900Y7023100D02*
X853900Y7153100D01*
X903900D01*
X944560Y7193760D02*
X949560D01*
X964400Y7208600D01*
Y7213600D01*
X903900Y7153100D02*
X944560Y7193760D01*
X952500Y7023100D02*
Y7092700D01*
X773100Y7315300D02*
Y7318110D01*
X774800Y7319810D01*
X837515D01*
X405896Y7483672D02*
Y7485084D01*
X376400Y7514580D02*
X405896Y7485084D01*
X431800Y7542203D02*
Y7759700D01*
Y7542203D02*
X443703Y7530300D01*
X508100D01*
X376400Y7514580D02*
Y7803866D01*
X510540Y7645300D02*
X573100D01*
X773100D02*
Y7663300D01*
X874180Y7764380D01*
X-76200Y7975600D02*
Y8110452D01*
X723900Y7023100D02*
X728577Y7018423D01*
Y6929523D02*
Y7018423D01*
Y6929523D02*
X755400Y6902700D01*
X952500D01*
X730600Y7158200D02*
X786000Y7213600D01*
X243294Y7936971D02*
X376400Y7803866D01*
X-76200Y7975600D02*
X-37571Y7936971D01*
X243294D01*
X410680Y7480300D02*
X508100D01*
X431800Y7969160D02*
X459593Y7996952D01*
X575243D01*
X431800Y7859700D02*
Y7969160D01*
X574171Y7936971D02*
Y7995881D01*
X573100Y7935900D02*
X574171Y7936971D01*
Y7995881D02*
X575243Y7996952D01*
X773100Y8076400D02*
Y8166100D01*
Y7835900D02*
Y7976400D01*
X573100Y7835900D02*
X673100D01*
X773100D02*
X865200D01*
X838100Y7580300D02*
Y7619000D01*
X876601Y7530300D02*
X909292Y7562990D01*
X838100Y7530300D02*
X876601D01*
X458521Y7213600D02*
X508100D01*
X292834Y7047913D02*
X458521Y7213600D01*
X215900Y7023100D02*
X240713Y7047913D01*
X292834D01*
X673100Y7268683D02*
Y7315300D01*
Y7268683D02*
X698500Y7243283D01*
Y7239000D02*
Y7243283D01*
X608100Y7262900D02*
X623082Y7277882D01*
Y7315282D02*
X623100Y7315300D01*
X623082Y7277882D02*
Y7315282D01*
X608100Y7213600D02*
Y7262900D01*
Y7213600D02*
X669199Y7152501D01*
X736600D01*
X786000Y7213600D02*
X864400D01*
X964400D02*
X1006000D01*
X1031400Y7239000D01*
Y7442775D01*
X984864Y7389421D02*
X985406Y7389963D01*
X984864Y7346636D02*
Y7389421D01*
X978060Y7339832D02*
X984864Y7346636D01*
X883092Y7430300D02*
X904416Y7408976D01*
Y7342921D02*
Y7408976D01*
Y7342921D02*
X906942Y7340395D01*
X895069Y7480300D02*
X985406Y7389963D01*
X838100Y7480300D02*
X895069D01*
X838100Y7430300D02*
X883092D01*
X723100Y7372800D02*
Y7430300D01*
Y7315300D02*
Y7372800D01*
X730600Y7380300D02*
X838100D01*
X723100Y7372800D02*
X730600Y7380300D01*
X723100Y7530300D02*
Y7645300D01*
X673100Y7480300D02*
X723100Y7530300D01*
X573100Y7580300D02*
X623100Y7530300D01*
X508100Y7580300D02*
X573100D01*
X673100Y7480300D02*
X723100Y7430300D01*
X508100Y7380300D02*
X573100D01*
X623100Y7430300D01*
X-124460Y7296150D02*
X13490Y7158200D01*
X458521Y7315300D02*
X573100D01*
X301421Y7158200D02*
X458521Y7315300D01*
X13490Y7158200D02*
X301421D01*
X-124460Y7296150D02*
Y7703020D01*
X-93345Y7734135D01*
X-88900D01*
X-63500Y7759535D02*
Y7763980D01*
X-88900Y7734135D02*
X-63500Y7759535D01*
X762000Y2006600D02*
X1003300Y1765300D01*
X330200Y2006600D02*
X762000D01*
X38100Y2322800D02*
X44904Y2315996D01*
Y2291896D02*
X330200Y2006600D01*
X44904Y2291896D02*
Y2315996D01*
X-12700Y2666086D02*
Y3086100D01*
X306426Y2346960D02*
X390394D01*
X-12700Y2666086D02*
X306426Y2346960D01*
X392674Y2349240D02*
X816807D01*
X390394Y2346960D02*
X392674Y2349240D01*
X368300Y2705100D02*
X749300Y3086100D01*
X368300Y2400300D02*
Y2705100D01*
X1778721Y717551D02*
X1796500Y735330D01*
X1714500Y717551D02*
X1778721D01*
X1000760Y429261D02*
X1183640D01*
X876300Y304801D02*
X1000760Y429261D01*
X368300Y304801D02*
X876300D01*
X647700Y419101D02*
X678996Y450397D01*
Y475797D01*
X335280Y419101D02*
X647700D01*
X678996Y475797D02*
X685800Y482601D01*
X254000Y1D02*
Y190501D01*
X368300Y304801D01*
X177800Y1143001D02*
X487680D01*
X0Y1320801D02*
X177800Y1143001D01*
X487680D02*
X1084580Y546101D01*
X431800Y-126999D02*
X1168400D01*
X1270000Y-25399D02*
Y1D01*
X1168400Y-126999D02*
X1270000Y-25399D01*
X393700Y-88899D02*
X431800Y-126999D01*
X393700Y-88899D02*
Y149861D01*
X434340Y190501D01*
X533400D02*
X939800D01*
X1016000Y114301D01*
Y1D02*
Y114301D01*
X1393948Y1447801D02*
X1399028Y1442721D01*
Y1445880D02*
X1400949Y1447801D01*
X889000D02*
X1393948D01*
X1400949D02*
X1917700D01*
X1891500Y975330D02*
Y1130301D01*
Y584201D02*
Y975330D01*
X762000Y1320801D02*
X889000Y1447801D01*
X1986500Y975330D02*
Y1379001D01*
X1917700Y1447801D02*
X1986500Y1379001D01*
X1791500Y584201D02*
X1796500Y589201D01*
Y735330D01*
X1791500Y1130301D02*
X1796500Y1125301D01*
Y975330D02*
Y1125301D01*
X1791500Y1130301D02*
Y1307301D01*
X1778000Y1320801D02*
X1791500Y1307301D01*
D25*
X1000638Y4823339D02*
D03*
Y3502539D02*
D03*
X990600Y5232400D02*
D03*
Y6553200D02*
D03*
X723900Y7023100D02*
D03*
X469900Y8343900D02*
D03*
X1257300Y1765300D02*
D03*
Y3086100D02*
D03*
X1778000Y1320801D02*
D03*
Y1D02*
D03*
D26*
X746638Y4823339D02*
D03*
X492638D02*
D03*
X238638D02*
D03*
X-15362D02*
D03*
X746638Y3502539D02*
D03*
X492638D02*
D03*
X238638D02*
D03*
X-15362D02*
D03*
X736600Y5232400D02*
D03*
X482600D02*
D03*
X228600D02*
D03*
X-25400D02*
D03*
X736600Y6553200D02*
D03*
X482600D02*
D03*
X228600D02*
D03*
X-25400D02*
D03*
X-38100Y7023100D02*
D03*
X215900D02*
D03*
X469900D02*
D03*
X215900Y8343900D02*
D03*
X-38100D02*
D03*
X-12700Y1765300D02*
D03*
X241300D02*
D03*
X495300D02*
D03*
X749300D02*
D03*
X1003300D02*
D03*
Y3086100D02*
D03*
X749300D02*
D03*
X495300D02*
D03*
X241300D02*
D03*
X-12700D02*
D03*
X0Y1320801D02*
D03*
X254000D02*
D03*
X508000D02*
D03*
X762000D02*
D03*
X1016000D02*
D03*
X1270000D02*
D03*
X1524000D02*
D03*
X0Y1D02*
D03*
X254000D02*
D03*
X508000D02*
D03*
X762000D02*
D03*
X1016000D02*
D03*
X1270000D02*
D03*
X1524000D02*
D03*
D27*
X657636Y4237539D02*
D03*
X506607Y5902300D02*
D03*
D28*
X165458Y4286325D02*
D03*
X848238Y4007364D02*
D03*
X668659Y4411259D02*
D03*
X746638Y3722734D02*
D03*
X257964Y3693836D02*
D03*
X59338D02*
D03*
X-40762Y4319435D02*
D03*
X-15362Y4231416D02*
D03*
X-91562Y4419440D02*
D03*
X122695Y4218762D02*
D03*
X-78059Y4518437D02*
D03*
X257964Y4007364D02*
D03*
X288558Y4668992D02*
D03*
X657636Y3961918D02*
D03*
X-15362Y3870940D02*
D03*
X491884Y4419440D02*
D03*
X937938Y4632839D02*
D03*
X848238Y3769239D02*
D03*
X1076838Y4007364D02*
D03*
X848238Y3896239D02*
D03*
X100572Y5971954D02*
D03*
X774700Y5486400D02*
D03*
X505029Y5460342D02*
D03*
X-101600Y5434430D02*
D03*
X38100Y5740400D02*
D03*
X1003300Y5461800D02*
D03*
X609600Y6045200D02*
D03*
X889000Y5461800D02*
D03*
X736498Y5802300D02*
D03*
X-102945Y5980530D02*
D03*
X330200Y6210300D02*
D03*
X863600Y5958625D02*
D03*
X-101600Y6270605D02*
D03*
X736600Y6145200D02*
D03*
X502608Y5562600D02*
D03*
X698500Y5561800D02*
D03*
X308880Y7318110D02*
D03*
X978060Y7935900D02*
D03*
X837515Y7319810D02*
D03*
X906942Y7340395D02*
D03*
X952500Y7023100D02*
D03*
X405896Y7483672D02*
D03*
X323060Y7663300D02*
D03*
X510540Y7645300D02*
D03*
X776750Y7757527D02*
D03*
X330200Y8052600D02*
D03*
X88900D02*
D03*
X575243Y7996952D02*
D03*
X736600Y7152501D02*
D03*
X978060Y7339832D02*
D03*
X-6350Y7379499D02*
D03*
X44700Y7645300D02*
D03*
X-76200Y8110452D02*
D03*
X909292Y7562990D02*
D03*
X698500Y7239000D02*
D03*
X773100Y8166100D02*
D03*
X495300Y2197100D02*
D03*
X291661Y2476500D02*
D03*
X647700Y2819400D02*
D03*
X368300Y2400300D02*
D03*
X711200Y2197100D02*
D03*
X816807Y2349240D02*
D03*
X38100Y2322800D02*
D03*
X838200Y2550300D02*
D03*
X729900Y2616200D02*
D03*
X549900Y2666086D02*
D03*
X1234440Y165101D02*
D03*
X1183640Y429261D02*
D03*
X1084580Y546101D02*
D03*
X434340Y190501D02*
D03*
X533400D02*
D03*
X762000Y429261D02*
D03*
X1399028Y1442721D02*
D03*
X584200Y482601D02*
D03*
X2044700Y1130301D02*
D03*
X1714500Y717551D02*
D03*
X1955800Y584201D02*
D03*
X685800Y482601D02*
D03*
X335280Y419101D02*
D03*
X241300D02*
D03*
D29*
X623100Y7530300D02*
D03*
Y7430300D02*
D03*
D30*
X1215200Y647701D02*
D03*
D31*
X715200D02*
D03*
D32*
X59338Y4170039D02*
D03*
Y3978039D02*
D03*
X189338Y4170039D02*
D03*
X124338Y3978039D02*
D03*
X189338D02*
D03*
D33*
X-91562Y4134771D02*
D03*
Y4234776D02*
D03*
X-91562Y4009741D02*
D03*
Y3909736D02*
D03*
Y3793841D02*
D03*
Y3693836D02*
D03*
X-101600Y5901558D02*
D03*
Y5801558D02*
D03*
Y6170600D02*
D03*
Y6070600D02*
D03*
D34*
X657636Y4174536D02*
D03*
X506607Y5839298D02*
D03*
D35*
X754136Y4027537D02*
D03*
X561137D02*
D03*
X603106Y5692298D02*
D03*
X410107D02*
D03*
D36*
X759140Y4137539D02*
D03*
X556138D02*
D03*
X759140Y4301536D02*
D03*
X556138D02*
D03*
X608110Y5802300D02*
D03*
X405108D02*
D03*
X608110Y5966298D02*
D03*
X405108D02*
D03*
D37*
X657636Y4027537D02*
D03*
X506607Y5692298D02*
D03*
D38*
X63500Y5852358D02*
D03*
X12700D02*
D03*
X63500Y5801558D02*
D03*
X12700D02*
D03*
D39*
X-40640Y7810970D02*
D03*
X283210Y7484580D02*
D03*
D40*
X-41910D02*
D03*
X283210Y7809700D02*
D03*
D41*
X-63500Y7763980D02*
D03*
X304800D02*
D03*
X-63500Y7530300D02*
D03*
X304800D02*
D03*
D42*
X120650Y7831290D02*
D03*
Y7462990D02*
D03*
D43*
X673100Y7480300D02*
D03*
D44*
X573100Y7315300D02*
D03*
X623100D02*
D03*
X673100D02*
D03*
X723100D02*
D03*
X773100D02*
D03*
Y7645300D02*
D03*
X723100D02*
D03*
X673100D02*
D03*
X623100D02*
D03*
X573100D02*
D03*
D45*
X838100Y7380300D02*
D03*
Y7430300D02*
D03*
Y7480300D02*
D03*
Y7530300D02*
D03*
Y7580300D02*
D03*
X508100D02*
D03*
Y7530300D02*
D03*
Y7480300D02*
D03*
Y7430300D02*
D03*
Y7380300D02*
D03*
D46*
X952500Y7092700D02*
D03*
Y6902700D02*
D03*
D47*
X1796500Y975330D02*
D03*
X1891500D02*
D03*
X1986500D02*
D03*
Y735330D02*
D03*
X1796500D02*
D03*
%TF.MD5,e538cf4bf01ae0c3a802a46b459c9f5d*%
M02*
