%TF.GenerationSoftware,Altium Limited,Altium Designer,22.6.1 (34)*%
G04 Layer_Color=32768*
%FSLAX45Y45*%
%MOMM*%
%TF.SameCoordinates,41C29604-6FBD-4392-AD62-CF0DA8D1722B*%
%TF.FilePolarity,Positive*%
%TF.FileFunction,Other,Mechanical_15*%
%TF.Part,CustomerPanel*%
G01*
G75*
%TA.AperFunction,NonConductor*%
%ADD97C,0.10000*%
%ADD99C,0.05000*%
D97*
X892938Y4519339D02*
X1082938D01*
X892938Y4619339D02*
X1082938D01*
X987938Y4539339D02*
Y4599339D01*
X957938Y4569339D02*
X1017938D01*
X1082938Y4519339D02*
Y4619339D01*
X892938Y4519339D02*
Y4619339D01*
X512637Y4657439D02*
X702637D01*
X512637Y4557439D02*
X702637D01*
X607637Y4577439D02*
Y4637439D01*
X577636Y4607439D02*
X637637D01*
X512637Y4557439D02*
Y4657439D01*
X702637Y4557439D02*
Y4657439D01*
X867538Y3957364D02*
X1057538D01*
X867538Y4057364D02*
X1057538D01*
X962538Y3977364D02*
Y4037364D01*
X932538Y4007364D02*
X992538D01*
X1057538Y3957364D02*
Y4057364D01*
X867538Y3957364D02*
Y4057364D01*
X867538Y3946239D02*
X1057538D01*
X867538Y3846239D02*
X1057538D01*
X962538Y3866239D02*
Y3926239D01*
X932538Y3896239D02*
X992538D01*
X867538Y3846239D02*
Y3946239D01*
X1057538Y3846239D02*
Y3946239D01*
X867538Y3819239D02*
X1057538D01*
X867538Y3719239D02*
X1057538D01*
X962538Y3739239D02*
Y3799239D01*
X932538Y3769239D02*
X992538D01*
X867538Y3719239D02*
Y3819239D01*
X1057538Y3719239D02*
Y3819239D01*
X675988Y3686939D02*
Y3876939D01*
X575988Y3686939D02*
Y3876939D01*
X595988Y3781939D02*
X655988D01*
X625988Y3751939D02*
Y3811939D01*
X575988Y3876939D02*
X675988D01*
X575988Y3686939D02*
X675988D01*
X542638D02*
Y3876939D01*
X442638Y3686939D02*
Y3876939D01*
X462638Y3781939D02*
X522638D01*
X492638Y3751939D02*
Y3811939D01*
X442638Y3876939D02*
X542638D01*
X442638Y3686939D02*
X542638D01*
X-39959Y4274437D02*
Y4464439D01*
X60041Y4274437D02*
Y4464439D01*
X-19959Y4369438D02*
X40041D01*
X10038Y4339435D02*
Y4399440D01*
X-39959Y4464439D02*
X60041D01*
X-39959Y4274437D02*
X60041D01*
X-65359Y3648040D02*
Y3838042D01*
X34641Y3648040D02*
Y3838042D01*
X-45359Y3743041D02*
X14641D01*
X-15362Y3713039D02*
Y3773039D01*
X-65359Y3648040D02*
X34641D01*
X-65359Y3838042D02*
X34641D01*
X207137Y4268942D02*
X397139D01*
X207137Y4168942D02*
X397139D01*
X302138Y4188942D02*
Y4248942D01*
X272136Y4218939D02*
X332135D01*
X207137Y4168942D02*
Y4268942D01*
X397139Y4168942D02*
Y4268942D01*
X-41560Y4089772D02*
Y4279774D01*
X-141560Y4089772D02*
Y4279774D01*
X-121560Y4184773D02*
X-61560D01*
X-91562Y4154771D02*
Y4214776D01*
X-141560Y4089772D02*
X-41560D01*
X-141560Y4279774D02*
X-41560D01*
X-141564Y3864738D02*
Y4054740D01*
X-41565Y3864738D02*
Y4054740D01*
X-121564Y3959739D02*
X-61565D01*
X-91562Y3929736D02*
Y3989741D01*
X-141564Y4054740D02*
X-41565D01*
X-141564Y3864738D02*
X-41565D01*
X442636Y4023488D02*
X542635D01*
X442636Y4213490D02*
X542635D01*
X492638Y4088487D02*
Y4148486D01*
X462636Y4118489D02*
X522635D01*
X442636Y4023488D02*
Y4213490D01*
X542635Y4023488D02*
Y4213490D01*
X243555Y4428841D02*
X433557D01*
X243555Y4328841D02*
X433557D01*
X338556Y4348841D02*
Y4408841D01*
X308558Y4378839D02*
X368558D01*
X433557Y4328841D02*
Y4428841D01*
X243555Y4328841D02*
Y4428841D01*
X796641Y3745197D02*
Y3935200D01*
X696641Y3745197D02*
Y3935200D01*
X716641Y3840199D02*
X776641D01*
X746638Y3810196D02*
Y3870196D01*
X696641Y3745197D02*
X796641D01*
X696641Y3935200D02*
X796641D01*
X315636Y4054740D02*
X415635D01*
X315636Y3864738D02*
X415635D01*
X365638Y3929741D02*
Y3989741D01*
X335636Y3959739D02*
X395635D01*
X315636Y3864738D02*
Y4054740D01*
X415635Y3864738D02*
Y4054740D01*
X317241Y4308360D02*
X417241D01*
X317241Y4118358D02*
X417241D01*
X367238Y4183356D02*
Y4243356D01*
X337241Y4213359D02*
X397241D01*
X317241Y4118358D02*
Y4308360D01*
X417241Y4118358D02*
Y4308360D01*
X245237Y4557436D02*
X435239D01*
X245237Y4657436D02*
X435239D01*
X340238Y4577436D02*
Y4637436D01*
X310241Y4607439D02*
X370241D01*
X435239Y4557436D02*
Y4657436D01*
X245237Y4557436D02*
Y4657436D01*
X-123063Y4557436D02*
X66939D01*
X-123063Y4657436D02*
X66939D01*
X-28062Y4577436D02*
Y4637436D01*
X-58059Y4607439D02*
X1941D01*
X66939Y4557436D02*
Y4657436D01*
X-123063Y4557436D02*
Y4657436D01*
X-27264Y4347338D02*
Y4537340D01*
X72735Y4347338D02*
Y4537340D01*
X-7264Y4442339D02*
X52735D01*
X22738Y4412336D02*
Y4472336D01*
X-27264Y4347338D02*
X72735D01*
X-27264Y4537340D02*
X72735D01*
X-84165Y4011341D02*
X105837D01*
X-84165Y4111341D02*
X105837D01*
X10836Y4031341D02*
Y4091341D01*
X-19162Y4061339D02*
X40838D01*
X105837Y4011341D02*
Y4111341D01*
X-84165Y4011341D02*
Y4111341D01*
X512638Y4534436D02*
X702640D01*
X512638Y4434436D02*
X702640D01*
X607639Y4454436D02*
Y4514436D01*
X577637Y4484439D02*
X637637D01*
X512638Y4434436D02*
Y4534436D01*
X702640Y4434436D02*
Y4534436D01*
X239336Y3648838D02*
Y3838840D01*
X139336Y3648838D02*
Y3838840D01*
X159336Y3743839D02*
X219336D01*
X189338Y3713836D02*
Y3773836D01*
X139336Y3648838D02*
X239336D01*
X139336Y3838840D02*
X239336D01*
X-39964Y3648838D02*
Y3838840D01*
X60035Y3648838D02*
Y3838840D01*
X-19964Y3743839D02*
X40035D01*
X10038Y3713836D02*
Y3773841D01*
X-39964Y3838840D02*
X60035D01*
X-39964Y3648838D02*
X60035D01*
X423037Y3790196D02*
X613039D01*
X423037Y3890196D02*
X613039D01*
X518038Y3810196D02*
Y3870196D01*
X488036Y3840199D02*
X548041D01*
X423037Y3790196D02*
Y3890196D01*
X613039Y3790196D02*
Y3890196D01*
X-141564Y3838840D02*
X-41565D01*
X-141564Y3648838D02*
X-41565D01*
X-91562Y3713836D02*
Y3773841D01*
X-121564Y3743839D02*
X-61565D01*
X-141564Y3648838D02*
Y3838840D01*
X-41565Y3648838D02*
Y3838840D01*
X164300Y5391400D02*
Y5581400D01*
X64300Y5391400D02*
Y5581400D01*
X84300Y5486400D02*
X144300D01*
X114300Y5456400D02*
Y5516400D01*
X64300Y5581400D02*
X164300D01*
X64300Y5391400D02*
X164300D01*
X24600D02*
Y5581400D01*
X-75400Y5391400D02*
Y5581400D01*
X-55400Y5486400D02*
X4600D01*
X-25400Y5456400D02*
Y5516400D01*
X-75400Y5581400D02*
X24600D01*
X-75400Y5391400D02*
X24600D01*
X-151600Y5756557D02*
Y5946558D01*
X-51600Y5756557D02*
Y5946558D01*
X-131600Y5851558D02*
X-71600D01*
X-101600Y5821558D02*
Y5881558D01*
X-151600Y5946558D02*
X-51600D01*
X-151600Y5756557D02*
X-51600D01*
X64300Y5416800D02*
Y5606800D01*
X164300Y5416800D02*
Y5606800D01*
X84300Y5511800D02*
X144300D01*
X114300Y5481800D02*
Y5541800D01*
X64300Y5606800D02*
X164300D01*
X64300Y5416800D02*
X164300D01*
X178600D02*
Y5606800D01*
X278600Y5416800D02*
Y5606800D01*
X198600Y5511800D02*
X258600D01*
X228600Y5481800D02*
Y5541800D01*
X178600Y5606800D02*
X278600D01*
X178600Y5416800D02*
X278600D01*
X824700Y5493000D02*
Y5683000D01*
X724700Y5493000D02*
Y5683000D01*
X744700Y5588000D02*
X804700D01*
X774700Y5558000D02*
Y5618000D01*
X724700Y5493000D02*
X824700D01*
X724700Y5683000D02*
X824700D01*
X939000Y5493000D02*
Y5683000D01*
X839000Y5493000D02*
Y5683000D01*
X859000Y5588000D02*
X919000D01*
X889000Y5558000D02*
Y5618000D01*
X839000Y5493000D02*
X939000D01*
X839000Y5683000D02*
X939000D01*
X1053300Y5492200D02*
Y5682200D01*
X953300Y5492200D02*
Y5682200D01*
X973300Y5587200D02*
X1033300D01*
X1003300Y5557200D02*
Y5617200D01*
X953300Y5492200D02*
X1053300D01*
X953300Y5682200D02*
X1053300D01*
X260101Y6325398D02*
Y6425397D01*
X70099Y6325398D02*
Y6425397D01*
X135098Y6375400D02*
X195097D01*
X165100Y6345398D02*
Y6405397D01*
X70099Y6425397D02*
X260101D01*
X70099Y6325398D02*
X260101D01*
X153203Y6120968D02*
X253202D01*
X153203Y5930966D02*
X253202D01*
X203200Y5995964D02*
Y6055964D01*
X173203Y6025967D02*
X233202D01*
X153203Y5930966D02*
Y6120968D01*
X253202Y5930966D02*
Y6120968D01*
X153203Y6330706D02*
X253202D01*
X153203Y6140704D02*
X253202D01*
X203200Y6205703D02*
Y6265702D01*
X173203Y6235705D02*
X233202D01*
X153203Y6140704D02*
Y6330706D01*
X253202Y6140704D02*
Y6330706D01*
X64303Y6140699D02*
X164302D01*
X64303Y6330701D02*
X164302D01*
X114300Y6205703D02*
Y6265702D01*
X84303Y6235700D02*
X144302D01*
X164302Y6140699D02*
Y6330701D01*
X64303Y6140699D02*
Y6330701D01*
X813598Y6000196D02*
X913597D01*
X813598Y6190198D02*
X913597D01*
X863600Y6065200D02*
Y6125200D01*
X833598Y6095197D02*
X893597D01*
X913597Y6000196D02*
Y6190198D01*
X813598Y6000196D02*
Y6190198D01*
X-37297Y6125601D02*
X62702D01*
X-37297Y6315603D02*
X62702D01*
X12700Y6190605D02*
Y6250605D01*
X-17297Y6220602D02*
X42702D01*
X62702Y6125601D02*
Y6315603D01*
X-37297Y6125601D02*
Y6315603D01*
X322982Y5416800D02*
Y5606800D01*
X422982Y5416800D02*
Y5606800D01*
X342982Y5511800D02*
X402982D01*
X372982Y5481800D02*
Y5541800D01*
X322982Y5416800D02*
X422982D01*
X322982Y5606800D02*
X422982D01*
X559600Y5416800D02*
Y5606800D01*
X659600Y5416800D02*
Y5606800D01*
X579600Y5511800D02*
X639600D01*
X609600Y5481800D02*
Y5541800D01*
X559600Y5606800D02*
X659600D01*
X559600Y5416800D02*
X659600D01*
X-151597Y6025601D02*
Y6215604D01*
X-51598Y6025601D02*
Y6215604D01*
X-131597Y6120602D02*
X-71598D01*
X-101600Y6090600D02*
Y6150600D01*
X-151597Y6215604D02*
X-51598D01*
X-151597Y6025601D02*
X-51598D01*
X355108Y5416800D02*
Y5606800D01*
X455108Y5416800D02*
Y5606800D01*
X375108Y5511800D02*
X435108D01*
X405108Y5481800D02*
Y5541800D01*
X355108Y5606800D02*
X455108D01*
X355108Y5416800D02*
X455108D01*
X252797Y5741169D02*
Y5931169D01*
X152798Y5741169D02*
Y5931169D01*
X172797Y5836169D02*
X232797D01*
X202797Y5806169D02*
Y5866169D01*
X152798Y5741169D02*
X252797D01*
X152798Y5931169D02*
X252797D01*
X94700Y5642298D02*
X284700D01*
X94700Y5742298D02*
X284700D01*
X189700Y5662298D02*
Y5722298D01*
X159700Y5692298D02*
X219700D01*
X94700Y5642298D02*
Y5742298D01*
X284700Y5642298D02*
Y5742298D01*
X-37297Y5936701D02*
X62702D01*
X-37297Y6126704D02*
X62702D01*
X12700Y6001700D02*
Y6061705D01*
X-17297Y6031702D02*
X42702D01*
X62702Y5936701D02*
Y6126704D01*
X-37297Y5936701D02*
Y6126704D01*
X25650Y7364499D02*
X215650D01*
X25650Y7264500D02*
X215650D01*
X120650Y7284500D02*
Y7344499D01*
X90650Y7314499D02*
X150650D01*
X215650Y7264500D02*
Y7364499D01*
X25650Y7264500D02*
Y7364499D01*
X1053300Y7619380D02*
Y7809380D01*
X953300Y7619380D02*
Y7809380D01*
X973300Y7714380D02*
X1033300D01*
X1003300Y7684380D02*
Y7744380D01*
X953300Y7619380D02*
X1053300D01*
X953300Y7809380D02*
X1053300D01*
X1054320Y7424855D02*
Y7614855D01*
X954320Y7424855D02*
Y7614855D01*
X974320Y7519855D02*
X1034320D01*
X1004320Y7489855D02*
Y7549855D01*
X954320Y7424855D02*
X1054320D01*
X954320Y7614855D02*
X1054320D01*
X481800Y7714700D02*
Y7904700D01*
X381800Y7714700D02*
Y7904700D01*
X401800Y7809700D02*
X461800D01*
X431800Y7779700D02*
Y7839700D01*
X381800Y7714700D02*
X481800D01*
X381800Y7904700D02*
X481800D01*
X523100Y7790900D02*
Y7980900D01*
X623100Y7790900D02*
Y7980900D01*
X543100Y7885900D02*
X603100D01*
X573100Y7855900D02*
Y7915900D01*
X523100Y7980900D02*
X623100D01*
X523100Y7790900D02*
X623100D01*
X722693Y7933972D02*
Y8123973D01*
X622694Y7933972D02*
Y8123973D01*
X642694Y8028973D02*
X702694D01*
X672694Y7998972D02*
Y8058972D01*
X622694Y7933972D02*
X722693D01*
X622694Y8123973D02*
X722693D01*
X723100Y7931400D02*
Y8121400D01*
X823100Y7931400D02*
Y8121400D01*
X743100Y8026400D02*
X803100D01*
X773100Y7996400D02*
Y8056400D01*
X723100Y8121400D02*
X823100D01*
X723100Y7931400D02*
X823100D01*
X628100Y7785900D02*
X818100D01*
X628100Y7885900D02*
X818100D01*
X723100Y7805900D02*
Y7865900D01*
X693100Y7835900D02*
X753100D01*
X628100Y7785900D02*
Y7885900D01*
X818100Y7785900D02*
Y7885900D01*
X815200Y7791700D02*
Y7981700D01*
X915200Y7791700D02*
Y7981700D01*
X835200Y7886700D02*
X895200D01*
X865200Y7856700D02*
Y7916700D01*
X815200Y7981700D02*
X915200D01*
X815200Y7791700D02*
X915200D01*
X819400Y7163600D02*
X1009400D01*
X819400Y7263600D02*
X1009400D01*
X914400Y7183600D02*
Y7243600D01*
X884400Y7213600D02*
X944400D01*
X819400Y7163600D02*
Y7263600D01*
X1009400Y7163600D02*
Y7263600D01*
X857500Y6850200D02*
X1047500D01*
X857500Y7145200D02*
X1047500D01*
Y6850200D02*
Y7145200D01*
X857500Y6850200D02*
Y7145200D01*
X952500Y6967700D02*
Y7027700D01*
X922500Y6997700D02*
X982500D01*
X463100Y7263600D02*
X653100D01*
X463100Y7163600D02*
X653100D01*
X558100Y7183600D02*
Y7243600D01*
X528100Y7213600D02*
X588100D01*
X653100Y7163600D02*
Y7263600D01*
X463100Y7163600D02*
Y7263600D01*
X120900D02*
X310900D01*
X120900Y7163600D02*
X310900D01*
X215900Y7183600D02*
Y7243600D01*
X185900Y7213600D02*
X245900D01*
X310900Y7163600D02*
Y7263600D01*
X120900Y7163600D02*
Y7263600D01*
X311478Y7988788D02*
X371478D01*
X341478Y7958787D02*
Y8018788D01*
X228978Y7786288D02*
Y8191288D01*
X453978Y7786288D02*
Y8191288D01*
X228978Y7786288D02*
X453978D01*
X228978Y8191288D02*
X453978D01*
X545113Y7986979D02*
X605113D01*
X575113Y7956979D02*
Y8016979D01*
X462613Y7784479D02*
Y8189479D01*
X687613Y7784479D02*
Y8189479D01*
X462613Y7784479D02*
X687613D01*
X462613Y8189479D02*
X687613D01*
X-126200Y7901952D02*
Y8091952D01*
X-26200Y7901952D02*
Y8091952D01*
X-106200Y7996952D02*
X-46200D01*
X-76200Y7966952D02*
Y8026952D01*
X-126200Y7901952D02*
X-26200D01*
X-126200Y8091952D02*
X-26200D01*
X95500Y7631900D02*
X285500D01*
X95500Y7731900D02*
X285500D01*
X190500Y7651900D02*
Y7711900D01*
X160500Y7681900D02*
X220500D01*
X285500Y7631900D02*
Y7731900D01*
X95500Y7631900D02*
Y7731900D01*
X-26200Y7486900D02*
Y7676900D01*
X-126200Y7486900D02*
Y7676900D01*
X-106200Y7581900D02*
X-46200D01*
X-76200Y7551900D02*
Y7611900D01*
X-126200Y7676900D02*
X-26200D01*
X-126200Y7486900D02*
X-26200D01*
X-126200Y7220200D02*
Y7410200D01*
X-26200Y7220200D02*
Y7410200D01*
X-106200Y7315200D02*
X-46200D01*
X-76200Y7285200D02*
Y7345200D01*
X-126200Y7220200D02*
X-26200D01*
X-126200Y7410200D02*
X-26200D01*
X788200Y7613900D02*
Y7803900D01*
X888200Y7613900D02*
Y7803900D01*
X808200Y7708900D02*
X868200D01*
X838200Y7678900D02*
Y7738900D01*
X788200Y7613900D02*
X888200D01*
X788200Y7803900D02*
X888200D01*
X1053300Y8007600D02*
Y8197600D01*
X953300Y8007600D02*
Y8197600D01*
X973300Y8102600D02*
X1033300D01*
X1003300Y8072600D02*
Y8132600D01*
X953300Y8197600D02*
X1053300D01*
X953300Y8007600D02*
X1053300D01*
X809292Y8222700D02*
Y8412700D01*
X909292Y8222700D02*
Y8412700D01*
X829292Y8317700D02*
X889292D01*
X859292Y8287700D02*
Y8347700D01*
X809292Y8222700D02*
X909292D01*
X809292Y8412700D02*
X909292D01*
X902500Y7613900D02*
Y7803900D01*
X1002500Y7613900D02*
Y7803900D01*
X922500Y7708900D02*
X982500D01*
X952500Y7678900D02*
Y7738900D01*
X902500Y7613900D02*
X1002500D01*
X902500Y7803900D02*
X1002500D01*
X71600Y7988300D02*
X131600D01*
X101600Y7958300D02*
Y8018300D01*
X-10900Y7785800D02*
Y8190800D01*
X214100Y7785800D02*
Y8190800D01*
X-10900Y7785800D02*
X214100D01*
X-10900Y8190800D02*
X214100D01*
X181999Y2279900D02*
Y2469900D01*
X82000Y2279900D02*
Y2469900D01*
X102000Y2374900D02*
X161999D01*
X131999Y2344900D02*
Y2404900D01*
X82000Y2469900D02*
X181999D01*
X82000Y2279900D02*
X181999D01*
X77000Y2576547D02*
Y2766547D01*
X176999Y2576547D02*
Y2766547D01*
X97000Y2671547D02*
X156999D01*
X126999Y2641546D02*
Y2701547D01*
X77000Y2576547D02*
X176999D01*
X77000Y2766547D02*
X176999D01*
X341661Y2512227D02*
Y2702227D01*
X241661Y2512227D02*
Y2702227D01*
X261661Y2607227D02*
X321661D01*
X291661Y2577227D02*
Y2637227D01*
X241661Y2702227D02*
X341661D01*
X241661Y2512227D02*
X341661D01*
X603500Y2680500D02*
X793500D01*
X603500Y2780500D02*
X793500D01*
X698500Y2700500D02*
Y2760500D01*
X668500Y2730500D02*
X728500D01*
X793500Y2680500D02*
Y2780500D01*
X603500Y2680500D02*
Y2780500D01*
X1497800Y869401D02*
Y1059401D01*
X1397800Y869401D02*
Y1059401D01*
X1417800Y964401D02*
X1477800D01*
X1447800Y934401D02*
Y994401D01*
X1397800Y1059401D02*
X1497800D01*
X1397800Y869401D02*
X1497800D01*
X2069300Y882901D02*
Y1072901D01*
X1969300Y882901D02*
Y1072901D01*
X1989300Y977901D02*
X2049300D01*
X2019300Y947901D02*
Y1007901D01*
X1969300Y1072901D02*
X2069300D01*
X1969300Y882901D02*
X2069300D01*
X1689900Y927901D02*
X1789900D01*
X1739900Y877901D02*
Y977901D01*
X1891500Y805330D02*
Y905330D01*
X1841500Y855330D02*
X1941500D01*
X1936500Y1080301D02*
Y1180301D01*
X1746500Y1080301D02*
Y1180301D01*
X1811500Y1130301D02*
X1871500D01*
X1841500Y1100301D02*
Y1160301D01*
X1746500Y1180301D02*
X1936500D01*
X1746500Y1080301D02*
X1936500D01*
X1746500Y534201D02*
X1936500D01*
X1746500Y634201D02*
X1936500D01*
X1841500Y554201D02*
Y614201D01*
X1811500Y584201D02*
X1871500D01*
X1746500Y534201D02*
Y634201D01*
X1936500Y534201D02*
Y634201D01*
D99*
X14338Y3893039D02*
X234338D01*
X14338D02*
Y3981039D01*
X-10662D02*
X14338D01*
X-10662D02*
Y4167039D01*
X14338D01*
Y4255039D01*
X234338D01*
Y4167039D02*
Y4255039D01*
Y4167039D02*
X259338D01*
Y3981039D02*
Y4167039D01*
X234338Y3981039D02*
X259338D01*
X234338Y3893039D02*
Y3981039D01*
X485140Y3951540D02*
Y4377538D01*
X830138D01*
Y3951540D02*
Y4377538D01*
X485140Y3951540D02*
X830138D01*
X121138Y4309438D02*
Y4529443D01*
Y4309438D02*
X209139D01*
Y4284439D02*
Y4309438D01*
Y4284439D02*
X395138D01*
Y4309438D01*
X483138D01*
Y4529443D01*
X395138D02*
X483138D01*
X395138D02*
Y4554441D01*
X209139D02*
X395138D01*
X209139Y4529443D02*
Y4554441D01*
X121138Y4529443D02*
X209139D01*
X345131Y6100298D02*
X433131D01*
Y6075299D02*
Y6100298D01*
Y6075299D02*
X619131D01*
Y6100298D01*
X707131D01*
Y6320302D01*
X619131D02*
X707131D01*
X619131D02*
Y6345301D01*
X433131D02*
X619131D01*
X433131Y6320302D02*
Y6345301D01*
X345131Y6320302D02*
X433131D01*
X345131Y6100298D02*
Y6320302D01*
X334110Y5616301D02*
Y6042300D01*
X679108D01*
Y5616301D02*
Y6042300D01*
X334110Y5616301D02*
X679108D01*
X1050200Y7144800D02*
Y7536400D01*
X778600Y7144800D02*
Y7536400D01*
Y7144800D02*
X1050200D01*
X778600Y7536400D02*
X1050200D01*
X942292Y7874600D02*
Y7916600D01*
X776292Y8076600D02*
Y8118600D01*
X942292Y7916600D02*
X959292D01*
X759292Y8076600D02*
X776292D01*
X759292Y7916600D02*
X776292D01*
Y7874600D02*
Y7916600D01*
X942292Y8076600D02*
X959292D01*
X942292D02*
Y8118600D01*
X759292Y7916600D02*
Y8076600D01*
X959292Y7916600D02*
Y8076600D01*
X776292Y7874600D02*
X942292D01*
X776292Y8118600D02*
X942292D01*
X1490200Y647701D02*
G03*
X1490200Y647701I-525000J0D01*
G01*
X1507400Y722901D02*
Y1132901D01*
X1972400Y722901D02*
Y1132901D01*
X1507400D02*
X1972400D01*
X1507400Y722901D02*
X1972400D01*
X1686500Y1087830D02*
X2096500D01*
X1686500Y622830D02*
X2096500D01*
X1686500D02*
Y1087830D01*
X2096500Y622830D02*
Y1087830D01*
%TF.MD5,6946ab59fd5e2ea1ee0c1bbc95343e87*%
M02*
