%TF.GenerationSoftware,Altium Limited,Altium Designer,22.6.1 (34)*%
G04 Layer_Color=32896*
%FSLAX45Y45*%
%MOMM*%
%TF.SameCoordinates,41C29604-6FBD-4392-AD62-CF0DA8D1722B*%
%TF.FilePolarity,Positive*%
%TF.FileFunction,Other,Mechanical_4*%
%TF.Part,CustomerPanel*%
G01*
G75*
%TA.AperFunction,NonConductor*%
%ADD52C,0.25400*%
D52*
X3073367Y5986283D02*
X2971800D01*
Y5910108D01*
X3022583D01*
X2971800D01*
Y5833933D01*
X3149543Y5935500D02*
X3200326D01*
X3225718Y5910108D01*
Y5833933D01*
X3149543D01*
X3124151Y5859325D01*
X3149543Y5884716D01*
X3225718D01*
X3276501Y5986283D02*
Y5833933D01*
X3352677D01*
X3378069Y5859325D01*
Y5884716D01*
Y5910108D01*
X3352677Y5935500D01*
X3276501D01*
X3581203Y5833933D02*
Y5986283D01*
X3682770Y5833933D01*
Y5986283D01*
X3758945Y5833933D02*
X3809729D01*
X3835121Y5859325D01*
Y5910108D01*
X3809729Y5935500D01*
X3758945D01*
X3733554Y5910108D01*
Y5859325D01*
X3758945Y5833933D01*
X3911296Y5960892D02*
Y5935500D01*
X3885904D01*
X3936688D01*
X3911296D01*
Y5859325D01*
X3936688Y5833933D01*
X4089039D02*
X4038255D01*
X4012863Y5859325D01*
Y5910108D01*
X4038255Y5935500D01*
X4089039D01*
X4114430Y5910108D01*
Y5884716D01*
X4012863D01*
X4165214Y5833933D02*
X4241389D01*
X4266781Y5859325D01*
X4241389Y5884716D01*
X4190606D01*
X4165214Y5910108D01*
X4190606Y5935500D01*
X4266781D01*
X4317565D02*
X4342957D01*
Y5910108D01*
X4317565D01*
Y5935500D01*
Y5859325D02*
X4342957D01*
Y5833933D01*
X4317565D01*
Y5859325D01*
X2971800Y5590152D02*
X3022583D01*
X2997192D01*
Y5742503D01*
X2971800Y5717111D01*
X3098759Y5590152D02*
Y5615544D01*
X3124151D01*
Y5590152D01*
X3098759D01*
X3454244D02*
Y5742503D01*
X3378068Y5666327D01*
X3479636D01*
X3682770Y5590152D02*
X3733553D01*
X3708162D01*
Y5742503D01*
X3682770D01*
X3835121Y5691719D02*
X3885904D01*
X3911296Y5666327D01*
Y5590152D01*
X3835121D01*
X3809729Y5615544D01*
X3835121Y5640935D01*
X3911296D01*
X3962079Y5691719D02*
Y5615544D01*
X3987471Y5590152D01*
X4063647D01*
Y5564760D01*
X4038255Y5539368D01*
X4012863D01*
X4063647Y5590152D02*
Y5691719D01*
X4190606Y5590152D02*
X4139822D01*
X4114430Y5615544D01*
Y5666327D01*
X4139822Y5691719D01*
X4190606D01*
X4215997Y5666327D01*
Y5640935D01*
X4114430D01*
X4266781Y5691719D02*
Y5590152D01*
Y5640935D01*
X4292173Y5666327D01*
X4317564Y5691719D01*
X4342956D01*
X4571482Y5590152D02*
Y5742503D01*
X4647658D01*
X4673050Y5717111D01*
Y5666327D01*
X4647658Y5640935D01*
X4571482D01*
X4825400Y5717111D02*
X4800008Y5742503D01*
X4749225D01*
X4723833Y5717111D01*
Y5615544D01*
X4749225Y5590152D01*
X4800008D01*
X4825400Y5615544D01*
X4876184Y5742503D02*
Y5590152D01*
X4952359D01*
X4977751Y5615544D01*
Y5640935D01*
X4952359Y5666327D01*
X4876184D01*
X4952359D01*
X4977751Y5691719D01*
Y5717111D01*
X4952359Y5742503D01*
X4876184D01*
X5180885Y5691719D02*
Y5615544D01*
X5206277Y5590152D01*
X5231669Y5615544D01*
X5257061Y5590152D01*
X5282452Y5615544D01*
Y5691719D01*
X5333236Y5590152D02*
X5384019D01*
X5358628D01*
Y5691719D01*
X5333236D01*
X5485587Y5717111D02*
Y5691719D01*
X5460195D01*
X5510978D01*
X5485587D01*
Y5615544D01*
X5510978Y5590152D01*
X5587154Y5742503D02*
Y5590152D01*
Y5666327D01*
X5612546Y5691719D01*
X5663329D01*
X5688721Y5666327D01*
Y5590152D01*
X5891855D02*
X5968030D01*
X5993422Y5615544D01*
X5968030Y5640935D01*
X5917247D01*
X5891855Y5666327D01*
X5917247Y5691719D01*
X5993422D01*
X6069598Y5717111D02*
Y5691719D01*
X6044206D01*
X6094989D01*
X6069598D01*
Y5615544D01*
X6094989Y5590152D01*
X6196557Y5691719D02*
X6247340D01*
X6272732Y5666327D01*
Y5590152D01*
X6196557D01*
X6171165Y5615544D01*
X6196557Y5640935D01*
X6272732D01*
X6323515Y5590152D02*
Y5691719D01*
X6399691D01*
X6425083Y5666327D01*
Y5590152D01*
X6577433Y5742503D02*
Y5590152D01*
X6501258D01*
X6475866Y5615544D01*
Y5666327D01*
X6501258Y5691719D01*
X6577433D01*
X6653609D02*
X6704392D01*
X6729784Y5666327D01*
Y5590152D01*
X6653609D01*
X6628217Y5615544D01*
X6653609Y5640935D01*
X6729784D01*
X6780568Y5691719D02*
Y5590152D01*
Y5640935D01*
X6805959Y5666327D01*
X6831351Y5691719D01*
X6856743D01*
X7034486Y5742503D02*
Y5590152D01*
X6958310D01*
X6932918Y5615544D01*
Y5666327D01*
X6958310Y5691719D01*
X7034486D01*
X7237620Y5590152D02*
X7313795D01*
X7339187Y5615544D01*
X7313795Y5640935D01*
X7263012D01*
X7237620Y5666327D01*
X7263012Y5691719D01*
X7339187D01*
X7415362Y5717111D02*
Y5691719D01*
X7389970D01*
X7440754D01*
X7415362D01*
Y5615544D01*
X7440754Y5590152D01*
X7542321Y5691719D02*
X7593105D01*
X7618497Y5666327D01*
Y5590152D01*
X7542321D01*
X7516929Y5615544D01*
X7542321Y5640935D01*
X7618497D01*
X7770847Y5691719D02*
X7694672D01*
X7669280Y5666327D01*
Y5615544D01*
X7694672Y5590152D01*
X7770847D01*
X7821631D02*
Y5742503D01*
Y5640935D02*
X7897806Y5691719D01*
X7821631Y5640935D02*
X7897806Y5590152D01*
X8126332Y5691719D02*
Y5615544D01*
X8151724Y5590152D01*
X8227899D01*
Y5691719D01*
X8278683Y5539368D02*
Y5691719D01*
X8354858D01*
X8380250Y5666327D01*
Y5615544D01*
X8354858Y5590152D01*
X8278683D01*
X8608776D02*
Y5717111D01*
Y5666327D01*
X8583384D01*
X8634168D01*
X8608776D01*
Y5717111D01*
X8634168Y5742503D01*
X8735735Y5590152D02*
X8786519D01*
X8811910Y5615544D01*
Y5666327D01*
X8786519Y5691719D01*
X8735735D01*
X8710343Y5666327D01*
Y5615544D01*
X8735735Y5590152D01*
X8862694Y5691719D02*
Y5590152D01*
Y5640935D01*
X8888086Y5666327D01*
X8913477Y5691719D01*
X8938869D01*
X9167395Y5590152D02*
X9218179D01*
X9192787D01*
Y5742503D01*
X9167395Y5717111D01*
X9294354Y5590152D02*
Y5615544D01*
X9319746D01*
Y5590152D01*
X9294354D01*
X9522880Y5742503D02*
X9472097Y5717111D01*
X9421313Y5666327D01*
Y5615544D01*
X9446705Y5590152D01*
X9497488D01*
X9522880Y5615544D01*
Y5640935D01*
X9497488Y5666327D01*
X9421313D01*
X9573664Y5590152D02*
Y5691719D01*
X9599056D01*
X9624447Y5666327D01*
Y5590152D01*
Y5666327D01*
X9649839Y5691719D01*
X9675231Y5666327D01*
Y5590152D01*
X9726015D02*
Y5691719D01*
X9751406D01*
X9776798Y5666327D01*
Y5590152D01*
Y5666327D01*
X9802190Y5691719D01*
X9827582Y5666327D01*
Y5590152D01*
X2997192Y5422546D02*
Y5397155D01*
X2971800D01*
X3022583D01*
X2997192D01*
Y5320979D01*
X3022583Y5295588D01*
X3124151D02*
X3174934D01*
X3200326Y5320979D01*
Y5371763D01*
X3174934Y5397155D01*
X3124151D01*
X3098759Y5371763D01*
Y5320979D01*
X3124151Y5295588D01*
X3276501Y5422546D02*
Y5397155D01*
X3251110D01*
X3301893D01*
X3276501D01*
Y5320979D01*
X3301893Y5295588D01*
X3403460Y5397155D02*
X3454244D01*
X3479636Y5371763D01*
Y5295588D01*
X3403460D01*
X3378068Y5320979D01*
X3403460Y5346371D01*
X3479636D01*
X3530419Y5295588D02*
X3581203D01*
X3555811D01*
Y5447938D01*
X3530419D01*
X3835121Y5422546D02*
Y5397155D01*
X3809729D01*
X3860512D01*
X3835121D01*
Y5320979D01*
X3860512Y5295588D01*
X3936688Y5447938D02*
Y5295588D01*
Y5371763D01*
X3962079Y5397155D01*
X4012863D01*
X4038255Y5371763D01*
Y5295588D01*
X4089038D02*
X4139822D01*
X4114430D01*
Y5397155D01*
X4089038D01*
X4317564D02*
X4241389D01*
X4215997Y5371763D01*
Y5320979D01*
X4241389Y5295588D01*
X4317564D01*
X4368348D02*
Y5447938D01*
Y5346371D02*
X4444523Y5397155D01*
X4368348Y5346371D02*
X4444523Y5295588D01*
X4520699D02*
Y5397155D01*
X4596874D01*
X4622266Y5371763D01*
Y5295588D01*
X4749225D02*
X4698441D01*
X4673049Y5320979D01*
Y5371763D01*
X4698441Y5397155D01*
X4749225D01*
X4774617Y5371763D01*
Y5346371D01*
X4673049D01*
X4825400Y5295588D02*
X4901575D01*
X4926967Y5320979D01*
X4901575Y5346371D01*
X4850792D01*
X4825400Y5371763D01*
X4850792Y5397155D01*
X4926967D01*
X4977751Y5295588D02*
X5053926D01*
X5079318Y5320979D01*
X5053926Y5346371D01*
X5003143D01*
X4977751Y5371763D01*
X5003143Y5397155D01*
X5079318D01*
X5130101Y5295588D02*
Y5320979D01*
X5155493D01*
Y5295588D01*
X5130101D01*
X2971800Y5178766D02*
X2997192Y5204157D01*
X3047975D01*
X3073367Y5178766D01*
Y5153374D01*
X3047975Y5127982D01*
X3022583D01*
X3047975D01*
X3073367Y5102590D01*
Y5077199D01*
X3047975Y5051807D01*
X2997192D01*
X2971800Y5077199D01*
X3124151Y5051807D02*
Y5077199D01*
X3149543D01*
Y5051807D01*
X3124151D01*
X3403460D02*
Y5204157D01*
X3454244Y5153374D01*
X3505028Y5204157D01*
Y5051807D01*
X3555811D02*
X3606595D01*
X3581203D01*
Y5153374D01*
X3555811D01*
X3682770Y5051807D02*
Y5153374D01*
X3758945D01*
X3784337Y5127982D01*
Y5051807D01*
X3835121D02*
X3885904D01*
X3860512D01*
Y5153374D01*
X3835121D01*
X3962079Y5051807D02*
Y5153374D01*
X3987471D01*
X4012863Y5127982D01*
Y5051807D01*
Y5127982D01*
X4038255Y5153374D01*
X4063647Y5127982D01*
Y5051807D01*
X4114430Y5153374D02*
Y5077199D01*
X4139822Y5051807D01*
X4215997D01*
Y5153374D01*
X4266781Y5051807D02*
Y5153374D01*
X4292173D01*
X4317564Y5127982D01*
Y5051807D01*
Y5127982D01*
X4342956Y5153374D01*
X4368348Y5127982D01*
Y5051807D01*
X4673050Y5153374D02*
X4596874D01*
X4571482Y5127982D01*
Y5077199D01*
X4596874Y5051807D01*
X4673050D01*
X4723833D02*
X4774617D01*
X4749225D01*
Y5204157D01*
X4723833D01*
X4926967Y5051807D02*
X4876184D01*
X4850792Y5077199D01*
Y5127982D01*
X4876184Y5153374D01*
X4926967D01*
X4952359Y5127982D01*
Y5102590D01*
X4850792D01*
X5028535Y5153374D02*
X5079318D01*
X5104710Y5127982D01*
Y5051807D01*
X5028535D01*
X5003143Y5077199D01*
X5028535Y5102590D01*
X5104710D01*
X5155493Y5153374D02*
Y5051807D01*
Y5102590D01*
X5180885Y5127982D01*
X5206277Y5153374D01*
X5231669D01*
X5333236D02*
X5384019D01*
X5409411Y5127982D01*
Y5051807D01*
X5333236D01*
X5307844Y5077199D01*
X5333236Y5102590D01*
X5409411D01*
X5460195Y5051807D02*
Y5153374D01*
X5536370D01*
X5561762Y5127982D01*
Y5051807D01*
X5714113Y5153374D02*
X5637937D01*
X5612546Y5127982D01*
Y5077199D01*
X5637937Y5051807D01*
X5714113D01*
X5841072D02*
X5790288D01*
X5764896Y5077199D01*
Y5127982D01*
X5790288Y5153374D01*
X5841072D01*
X5866464Y5127982D01*
Y5102590D01*
X5764896D01*
X6069598Y5051807D02*
X6120381D01*
X6094990D01*
Y5153374D01*
X6069598D01*
X6196557Y5051807D02*
X6272732D01*
X6298124Y5077199D01*
X6272732Y5102590D01*
X6221948D01*
X6196557Y5127982D01*
X6221948Y5153374D01*
X6298124D01*
X6602825Y5204157D02*
X6552042Y5178766D01*
X6501258Y5127982D01*
Y5077199D01*
X6526650Y5051807D01*
X6577433D01*
X6602825Y5077199D01*
Y5102590D01*
X6577433Y5127982D01*
X6501258D01*
X6805959Y5051807D02*
Y5153374D01*
X6831351D01*
X6856743Y5127982D01*
Y5051807D01*
Y5127982D01*
X6882135Y5153374D01*
X6907527Y5127982D01*
Y5051807D01*
X6958310D02*
X7009094D01*
X6983702D01*
Y5153374D01*
X6958310D01*
X7085269Y5051807D02*
X7136053D01*
X7110661D01*
Y5204157D01*
X7085269D01*
X7212228Y5051807D02*
Y5077199D01*
X7237620D01*
Y5051807D01*
X7212228D01*
X3047975Y4808026D02*
Y4960377D01*
X2971800Y4884201D01*
X3073367D01*
X3124151Y4808026D02*
Y4833418D01*
X3149543D01*
Y4808026D01*
X3124151D01*
X3403460D02*
Y4960377D01*
X3454244Y4909593D01*
X3505028Y4960377D01*
Y4808026D01*
X3555811D02*
X3606595D01*
X3581203D01*
Y4909593D01*
X3555811D01*
X3682770Y4808026D02*
Y4909593D01*
X3758945D01*
X3784337Y4884201D01*
Y4808026D01*
X3835121D02*
X3885904D01*
X3860512D01*
Y4909593D01*
X3835121D01*
X3962079Y4808026D02*
Y4909593D01*
X3987471D01*
X4012863Y4884201D01*
Y4808026D01*
Y4884201D01*
X4038255Y4909593D01*
X4063647Y4884201D01*
Y4808026D01*
X4114430Y4909593D02*
Y4833418D01*
X4139822Y4808026D01*
X4215997D01*
Y4909593D01*
X4266781Y4808026D02*
Y4909593D01*
X4292173D01*
X4317564Y4884201D01*
Y4808026D01*
Y4884201D01*
X4342956Y4909593D01*
X4368348Y4884201D01*
Y4808026D01*
X4596874Y4934985D02*
Y4909593D01*
X4571482D01*
X4622266D01*
X4596874D01*
Y4833418D01*
X4622266Y4808026D01*
X4698441Y4909593D02*
Y4808026D01*
Y4858809D01*
X4723833Y4884201D01*
X4749225Y4909593D01*
X4774617D01*
X4876184D02*
X4926967D01*
X4952359Y4884201D01*
Y4808026D01*
X4876184D01*
X4850792Y4833418D01*
X4876184Y4858809D01*
X4952359D01*
X5104710Y4909593D02*
X5028535D01*
X5003143Y4884201D01*
Y4833418D01*
X5028535Y4808026D01*
X5104710D01*
X5231669D02*
X5180885D01*
X5155493Y4833418D01*
Y4884201D01*
X5180885Y4909593D01*
X5231669D01*
X5257061Y4884201D01*
Y4858809D01*
X5155493D01*
X5460195Y4909593D02*
Y4833418D01*
X5485587Y4808026D01*
X5510978Y4833418D01*
X5536370Y4808026D01*
X5561762Y4833418D01*
Y4909593D01*
X5612546Y4808026D02*
X5663329D01*
X5637937D01*
Y4909593D01*
X5612546D01*
X5841072Y4960377D02*
Y4808026D01*
X5764896D01*
X5739504Y4833418D01*
Y4884201D01*
X5764896Y4909593D01*
X5841072D01*
X5917247Y4934985D02*
Y4909593D01*
X5891855D01*
X5942639D01*
X5917247D01*
Y4833418D01*
X5942639Y4808026D01*
X6018814Y4960377D02*
Y4808026D01*
Y4884201D01*
X6044206Y4909593D01*
X6094989D01*
X6120381Y4884201D01*
Y4808026D01*
X6323515D02*
X6374299D01*
X6348907D01*
Y4909593D01*
X6323515D01*
X6450474Y4808026D02*
X6526650D01*
X6552042Y4833418D01*
X6526650Y4858809D01*
X6475866D01*
X6450474Y4884201D01*
X6475866Y4909593D01*
X6552042D01*
X6755176Y4934985D02*
X6780568Y4960377D01*
X6831351D01*
X6856743Y4934985D01*
Y4909593D01*
X6831351Y4884201D01*
X6856743Y4858809D01*
Y4833418D01*
X6831351Y4808026D01*
X6780568D01*
X6755176Y4833418D01*
Y4858809D01*
X6780568Y4884201D01*
X6755176Y4909593D01*
Y4934985D01*
X6780568Y4884201D02*
X6831351D01*
X7059877Y4808026D02*
Y4909593D01*
X7085269D01*
X7110661Y4884201D01*
Y4808026D01*
Y4884201D01*
X7136053Y4909593D01*
X7161444Y4884201D01*
Y4808026D01*
X7212228D02*
X7263011D01*
X7237620D01*
Y4909593D01*
X7212228D01*
X7339187Y4808026D02*
X7389970D01*
X7364579D01*
Y4960377D01*
X7339187D01*
X7466146Y4808026D02*
Y4833418D01*
X7491537D01*
Y4808026D01*
X7466146D01*
X3073367Y4716596D02*
X2971800D01*
Y4640420D01*
X3022583Y4665812D01*
X3047975D01*
X3073367Y4640420D01*
Y4589637D01*
X3047975Y4564245D01*
X2997192D01*
X2971800Y4589637D01*
X3124151Y4564245D02*
Y4589637D01*
X3149543D01*
Y4564245D01*
X3124151D01*
X3403460D02*
Y4716596D01*
X3454244Y4665812D01*
X3505028Y4716596D01*
Y4564245D01*
X3555811D02*
X3606595D01*
X3581203D01*
Y4665812D01*
X3555811D01*
X3682770Y4564245D02*
Y4665812D01*
X3758945D01*
X3784337Y4640420D01*
Y4564245D01*
X3835121D02*
X3885904D01*
X3860512D01*
Y4665812D01*
X3835121D01*
X3962079Y4564245D02*
Y4665812D01*
X3987471D01*
X4012863Y4640420D01*
Y4564245D01*
Y4640420D01*
X4038255Y4665812D01*
X4063647Y4640420D01*
Y4564245D01*
X4114430Y4665812D02*
Y4589637D01*
X4139822Y4564245D01*
X4215997D01*
Y4665812D01*
X4266781Y4564245D02*
Y4665812D01*
X4292173D01*
X4317564Y4640420D01*
Y4564245D01*
Y4640420D01*
X4342956Y4665812D01*
X4368348Y4640420D01*
Y4564245D01*
X4571482Y4716596D02*
Y4564245D01*
Y4640420D01*
X4596874Y4665812D01*
X4647658D01*
X4673050Y4640420D01*
Y4564245D01*
X4749225D02*
X4800008D01*
X4825400Y4589637D01*
Y4640420D01*
X4800008Y4665812D01*
X4749225D01*
X4723833Y4640420D01*
Y4589637D01*
X4749225Y4564245D01*
X4876184D02*
X4926967D01*
X4901576D01*
Y4716596D01*
X4876184D01*
X5079318Y4564245D02*
X5028535D01*
X5003143Y4589637D01*
Y4640420D01*
X5028535Y4665812D01*
X5079318D01*
X5104710Y4640420D01*
Y4615029D01*
X5003143D01*
X5307844Y4564245D02*
X5384019D01*
X5409411Y4589637D01*
X5384019Y4615029D01*
X5333236D01*
X5307844Y4640420D01*
X5333236Y4665812D01*
X5409411D01*
X5460195Y4564245D02*
X5510978D01*
X5485587D01*
Y4665812D01*
X5460195D01*
X5587154D02*
X5688721D01*
X5587154Y4564245D01*
X5688721D01*
X5815680D02*
X5764896D01*
X5739504Y4589637D01*
Y4640420D01*
X5764896Y4665812D01*
X5815680D01*
X5841072Y4640420D01*
Y4615029D01*
X5739504D01*
X6044206Y4564245D02*
X6094989D01*
X6069598D01*
Y4665812D01*
X6044206D01*
X6171165Y4564245D02*
X6247340D01*
X6272732Y4589637D01*
X6247340Y4615029D01*
X6196557D01*
X6171165Y4640420D01*
X6196557Y4665812D01*
X6272732D01*
X6577433Y4564245D02*
X6475866D01*
X6577433Y4665812D01*
Y4691204D01*
X6552042Y4716596D01*
X6501258D01*
X6475866Y4691204D01*
X6729784Y4564245D02*
X6628217D01*
X6729784Y4665812D01*
Y4691204D01*
X6704392Y4716596D01*
X6653609D01*
X6628217Y4691204D01*
X6780568Y4564245D02*
Y4665812D01*
X6805959D01*
X6831351Y4640420D01*
Y4564245D01*
Y4640420D01*
X6856743Y4665812D01*
X6882135Y4640420D01*
Y4564245D01*
X6932918D02*
X6983702D01*
X6958310D01*
Y4665812D01*
X6932918D01*
X7059877Y4564245D02*
X7110661D01*
X7085269D01*
Y4716596D01*
X7059877D01*
X7364579Y4564245D02*
Y4691204D01*
Y4640420D01*
X7339187D01*
X7389970D01*
X7364579D01*
Y4691204D01*
X7389970Y4716596D01*
X7466146Y4564245D02*
X7516929D01*
X7491537D01*
Y4665812D01*
X7466146D01*
X7593104Y4564245D02*
Y4665812D01*
X7669280D01*
X7694672Y4640420D01*
Y4564245D01*
X7745455D02*
X7796239D01*
X7770847D01*
Y4665812D01*
X7745455D01*
X7872414Y4564245D02*
X7948589D01*
X7973981Y4589637D01*
X7948589Y4615029D01*
X7897806D01*
X7872414Y4640420D01*
X7897806Y4665812D01*
X7973981D01*
X8024765Y4716596D02*
Y4564245D01*
Y4640420D01*
X8050157Y4665812D01*
X8100940D01*
X8126332Y4640420D01*
Y4564245D01*
X8253291D02*
X8202507D01*
X8177115Y4589637D01*
Y4640420D01*
X8202507Y4665812D01*
X8253291D01*
X8278683Y4640420D01*
Y4615029D01*
X8177115D01*
X8431033Y4716596D02*
Y4564245D01*
X8354858D01*
X8329466Y4589637D01*
Y4640420D01*
X8354858Y4665812D01*
X8431033D01*
X8659560Y4691204D02*
Y4665812D01*
X8634168D01*
X8684951D01*
X8659560D01*
Y4589637D01*
X8684951Y4564245D01*
X8786518D02*
X8837302D01*
X8862694Y4589637D01*
Y4640420D01*
X8837302Y4665812D01*
X8786518D01*
X8761126Y4640420D01*
Y4589637D01*
X8786518Y4564245D01*
X9065828D02*
X9116611D01*
X9091220D01*
Y4716596D01*
X9065828Y4691204D01*
X9294354Y4564245D02*
X9192787D01*
X9294354Y4665812D01*
Y4691204D01*
X9268962Y4716596D01*
X9218179D01*
X9192787Y4691204D01*
X9497488Y4564245D02*
Y4665812D01*
X9522880D01*
X9548272Y4640420D01*
Y4564245D01*
Y4640420D01*
X9573664Y4665812D01*
X9599055Y4640420D01*
Y4564245D01*
X9649839D02*
X9700622D01*
X9675231D01*
Y4665812D01*
X9649839D01*
X9776798Y4564245D02*
X9827581D01*
X9802190D01*
Y4716596D01*
X9776798D01*
X9903757Y4564245D02*
Y4589637D01*
X9929149D01*
Y4564245D01*
X9903757D01*
X3073367Y4472815D02*
X3022583Y4447423D01*
X2971800Y4396640D01*
Y4345856D01*
X2997192Y4320464D01*
X3047975D01*
X3073367Y4345856D01*
Y4371248D01*
X3047975Y4396640D01*
X2971800D01*
X3124151Y4320464D02*
Y4345856D01*
X3149543D01*
Y4320464D01*
X3124151D01*
X3403460Y4472815D02*
Y4371248D01*
X3454244Y4320464D01*
X3505028Y4371248D01*
Y4472815D01*
X3657378Y4422032D02*
X3581203D01*
X3555811Y4396640D01*
Y4345856D01*
X3581203Y4320464D01*
X3657378D01*
X3708162Y4422032D02*
Y4345856D01*
X3733554Y4320464D01*
X3809729D01*
Y4422032D01*
X3885904Y4447423D02*
Y4422032D01*
X3860512D01*
X3911296D01*
X3885904D01*
Y4345856D01*
X3911296Y4320464D01*
X3987471D02*
X4063647D01*
X4089039Y4345856D01*
X4063647Y4371248D01*
X4012863D01*
X3987471Y4396640D01*
X4012863Y4422032D01*
X4089039D01*
X4317565D02*
X4368348D01*
X4393740Y4396640D01*
Y4320464D01*
X4317565D01*
X4292173Y4345856D01*
X4317565Y4371248D01*
X4393740D01*
X4444523Y4422032D02*
Y4320464D01*
Y4371248D01*
X4469915Y4396640D01*
X4495307Y4422032D01*
X4520699D01*
X4673050Y4320464D02*
X4622266D01*
X4596874Y4345856D01*
Y4396640D01*
X4622266Y4422032D01*
X4673050D01*
X4698441Y4396640D01*
Y4371248D01*
X4596874D01*
X5003143Y4472815D02*
Y4320464D01*
X4926968D01*
X4901576Y4345856D01*
Y4396640D01*
X4926968Y4422032D01*
X5003143D01*
X5053926D02*
Y4320464D01*
Y4371248D01*
X5079318Y4396640D01*
X5104710Y4422032D01*
X5130102D01*
X5231669D02*
X5282452D01*
X5307844Y4396640D01*
Y4320464D01*
X5231669D01*
X5206277Y4345856D01*
X5231669Y4371248D01*
X5307844D01*
X5358628Y4422032D02*
Y4345856D01*
X5384020Y4320464D01*
X5409411Y4345856D01*
X5434803Y4320464D01*
X5460195Y4345856D01*
Y4422032D01*
X5510979Y4320464D02*
Y4422032D01*
X5587154D01*
X5612546Y4396640D01*
Y4320464D01*
X5815680D02*
X5866464D01*
X5841072D01*
Y4422032D01*
X5815680D01*
X5942639Y4320464D02*
Y4422032D01*
X6018814D01*
X6044206Y4396640D01*
Y4320464D01*
X6247340D02*
Y4422032D01*
X6272732D01*
X6298124Y4396640D01*
Y4320464D01*
Y4396640D01*
X6323516Y4422032D01*
X6348908Y4396640D01*
Y4320464D01*
X6475866D02*
X6425083D01*
X6399691Y4345856D01*
Y4396640D01*
X6425083Y4422032D01*
X6475866D01*
X6501258Y4396640D01*
Y4371248D01*
X6399691D01*
X6653609Y4422032D02*
X6577434D01*
X6552042Y4396640D01*
Y4345856D01*
X6577434Y4320464D01*
X6653609D01*
X6704392Y4472815D02*
Y4320464D01*
Y4396640D01*
X6729784Y4422032D01*
X6780568D01*
X6805960Y4396640D01*
Y4320464D01*
X6882135Y4422032D02*
X6932919D01*
X6958310Y4396640D01*
Y4320464D01*
X6882135D01*
X6856743Y4345856D01*
X6882135Y4371248D01*
X6958310D01*
X7009094Y4320464D02*
Y4422032D01*
X7085269D01*
X7110661Y4396640D01*
Y4320464D01*
X7161445D02*
X7212228D01*
X7186837D01*
Y4422032D01*
X7161445D01*
X7389971D02*
X7313795D01*
X7288404Y4396640D01*
Y4345856D01*
X7313795Y4320464D01*
X7389971D01*
X7466146Y4422032D02*
X7516930D01*
X7542321Y4396640D01*
Y4320464D01*
X7466146D01*
X7440754Y4345856D01*
X7466146Y4371248D01*
X7542321D01*
X7593105Y4320464D02*
X7643888D01*
X7618497D01*
Y4472815D01*
X7593105D01*
X7872415Y4320464D02*
X7923198D01*
X7897806D01*
Y4472815D01*
X7872415D01*
X8024765Y4422032D02*
X8075549D01*
X8100941Y4396640D01*
Y4320464D01*
X8024765D01*
X7999373Y4345856D01*
X8024765Y4371248D01*
X8100941D01*
X8151724Y4422032D02*
Y4345856D01*
X8177116Y4320464D01*
X8253291D01*
Y4295072D01*
X8227899Y4269681D01*
X8202508D01*
X8253291Y4320464D02*
Y4422032D01*
X8380250Y4320464D02*
X8329467D01*
X8304075Y4345856D01*
Y4396640D01*
X8329467Y4422032D01*
X8380250D01*
X8405642Y4396640D01*
Y4371248D01*
X8304075D01*
X8456426Y4422032D02*
Y4320464D01*
Y4371248D01*
X8481817Y4396640D01*
X8507209Y4422032D01*
X8532601D01*
X8862694Y4320464D02*
X8761127D01*
X8862694Y4422032D01*
Y4447423D01*
X8837302Y4472815D01*
X8786519D01*
X8761127Y4447423D01*
X8913478Y4320464D02*
Y4345856D01*
X8938870D01*
Y4320464D01*
X8913478D01*
X2971800Y4178251D02*
X3073367D01*
Y4152859D01*
X2971800Y4051292D01*
Y4025900D01*
X3124151D02*
Y4051292D01*
X3149543D01*
Y4025900D01*
X3124151D01*
X3403460D02*
Y4178251D01*
X3479636D01*
X3505028Y4152859D01*
Y4102075D01*
X3479636Y4076683D01*
X3403460D01*
X3555811Y4178251D02*
Y4025900D01*
X3631986D01*
X3657378Y4051292D01*
Y4076683D01*
Y4102075D01*
X3631986Y4127467D01*
X3555811D01*
X3885904Y4025900D02*
Y4152859D01*
Y4102075D01*
X3860512D01*
X3911296D01*
X3885904D01*
Y4152859D01*
X3911296Y4178251D01*
X3987471Y4127467D02*
Y4025900D01*
Y4076683D01*
X4012863Y4102075D01*
X4038255Y4127467D01*
X4063647D01*
X4215997Y4025900D02*
X4165214D01*
X4139822Y4051292D01*
Y4102075D01*
X4165214Y4127467D01*
X4215997D01*
X4241389Y4102075D01*
Y4076683D01*
X4139822D01*
X4368348Y4025900D02*
X4317565D01*
X4292173Y4051292D01*
Y4102075D01*
X4317565Y4127467D01*
X4368348D01*
X4393740Y4102075D01*
Y4076683D01*
X4292173D01*
X4596874Y4178251D02*
Y4025900D01*
Y4102075D01*
X4698441D01*
Y4178251D01*
Y4025900D01*
X4749225D02*
Y4127467D01*
X4800008Y4178251D01*
X4850792Y4127467D01*
Y4025900D01*
Y4102075D01*
X4749225D01*
X4901576Y4178251D02*
Y4025900D01*
X5003143D01*
X5231669D02*
Y4152859D01*
Y4102075D01*
X5206277D01*
X5257061D01*
X5231669D01*
Y4152859D01*
X5257061Y4178251D01*
X5333236Y4025900D02*
X5384019D01*
X5358628D01*
Y4127467D01*
X5333236D01*
X5460195Y4025900D02*
Y4127467D01*
X5536370D01*
X5561762Y4102075D01*
Y4025900D01*
X5612546D02*
X5663329D01*
X5637937D01*
Y4127467D01*
X5612546D01*
X5739504Y4025900D02*
X5815680D01*
X5841072Y4051292D01*
X5815680Y4076683D01*
X5764896D01*
X5739504Y4102075D01*
X5764896Y4127467D01*
X5841072D01*
X5891855Y4178251D02*
Y4025900D01*
Y4102075D01*
X5917247Y4127467D01*
X5968030D01*
X5993422Y4102075D01*
Y4025900D01*
X6044206D02*
Y4051292D01*
X6069598D01*
Y4025900D01*
X6044206D01*
%TF.MD5,e70b9e0337424217d3a9bace088dba0b*%
M02*
