%TF.GenerationSoftware,Altium Limited,Altium Designer,22.6.1 (34)*%
G04 Layer_Color=65535*
%FSLAX45Y45*%
%MOMM*%
%TF.SameCoordinates,41C29604-6FBD-4392-AD62-CF0DA8D1722B*%
%TF.FilePolarity,Positive*%
%TF.FileFunction,Legend,Top*%
%TF.Part,CustomerPanel*%
G01*
G75*
%TA.AperFunction,NonConductor*%
%ADD48C,0.15240*%
%ADD50C,0.20000*%
%ADD51C,0.12700*%
%ADD52C,0.25400*%
%ADD55C,0.25000*%
%ADD84C,0.15000*%
%ADD85C,0.20320*%
D48*
X97758Y4517960D02*
G03*
X97758Y4543360I0J12700D01*
G01*
D02*
G03*
X97758Y4517960I0J-12700D01*
G01*
X234137Y4541360D02*
X370139D01*
X234137Y4297520D02*
X370139D01*
X-114300Y579121D02*
Y726441D01*
X1633220D01*
Y579121D02*
Y726441D01*
X1323340Y203201D02*
X1333500Y177801D01*
X1346200Y203201D01*
D50*
X1117138Y4478440D02*
G03*
X1117138Y4478440I-10000J0D01*
G01*
X782138Y4198440D02*
Y4378440D01*
X1092138Y4198440D02*
Y4378440D01*
X1087138Y4198440D02*
X1092138D01*
X1087138Y4378440D02*
X1092138D01*
X782138Y4198440D02*
X787138D01*
X782138Y4378440D02*
X787138D01*
X892938Y4549339D02*
Y4589339D01*
X702637Y4587439D02*
Y4627439D01*
X867538Y3987364D02*
Y4027364D01*
X1057538Y3876239D02*
Y3916239D01*
X1057538Y3749239D02*
Y3789239D01*
X605988Y3686939D02*
X645988D01*
X472638D02*
X512638D01*
X-35362Y3838042D02*
X4638D01*
X397139Y4198939D02*
Y4238939D01*
X472638Y4023488D02*
X512638D01*
X245237Y4587439D02*
Y4627439D01*
X-123063Y4587439D02*
Y4627439D01*
X2738Y4537340D02*
X42738D01*
X-84165Y4041339D02*
Y4081339D01*
X702640Y4464439D02*
Y4504439D01*
X94300Y5391400D02*
X134300D01*
X-45400D02*
X-5400D01*
X352982Y5606800D02*
X392982D01*
X319700Y7594100D02*
G03*
X319700Y7594100I-10000J0D01*
G01*
X-165100Y8470900D02*
X596900D01*
X-165100Y8216900D02*
Y8470900D01*
Y8216900D02*
X596900D01*
Y8470900D01*
X421478Y7958788D02*
Y8018788D01*
X261478Y7958788D02*
Y8018788D01*
X421478D01*
X261478Y7999788D02*
X421478D01*
X655113Y7956979D02*
Y8016979D01*
X495113Y7956979D02*
Y8016979D01*
X655113D01*
X495113Y7997979D02*
X655113D01*
X-96200Y8091952D02*
X-56200D01*
X95500Y7661900D02*
Y7701900D01*
X-15300Y7494100D02*
X-10300D01*
X-15300Y7314100D02*
X-10300D01*
X289700Y7494100D02*
X294700D01*
X289700Y7314100D02*
X294700D01*
Y7494100D01*
X-15300Y7314100D02*
Y7494100D01*
X-96200Y7486900D02*
X-56200D01*
X-96200Y7410200D02*
X-56200D01*
X818200Y7803900D02*
X858200D01*
X983300Y8007600D02*
X1023300D01*
X839292Y8412700D02*
X879292D01*
X932500Y7803900D02*
X972500D01*
X181600Y7958300D02*
Y8018300D01*
X21600Y7958300D02*
Y8018300D01*
X181600D01*
X21600Y7999300D02*
X181600D01*
X112000Y2279900D02*
X151999D01*
X107000Y2766547D02*
X146999D01*
X271661Y2512227D02*
X311661D01*
X603500Y2710500D02*
Y2750500D01*
X1427800Y869401D02*
X1467800D01*
X1999300Y882901D02*
X2039300D01*
X1719900Y1082901D02*
X1759900D01*
X1719900Y772901D02*
X1759900D01*
X1719900D02*
Y1082901D01*
X1759900Y772901D02*
Y1082901D01*
D51*
X249516Y4150835D02*
X247098Y4155672D01*
X242260Y4160509D01*
X237423Y4162928D01*
X227749D01*
X222912Y4160509D01*
X218075Y4155672D01*
X215657Y4150835D01*
X213238Y4143580D01*
Y4131487D01*
X215657Y4124232D01*
X218075Y4119394D01*
X222912Y4114557D01*
X227749Y4112139D01*
X237423D01*
X242260Y4114557D01*
X247098Y4119394D01*
X249516Y4124232D01*
X266204Y4150835D02*
Y4153254D01*
X268623Y4158091D01*
X271041Y4160509D01*
X275878Y4162928D01*
X285552D01*
X290389Y4160509D01*
X292808Y4158091D01*
X295226Y4153254D01*
Y4148417D01*
X292808Y4143580D01*
X287971Y4136324D01*
X263785Y4112139D01*
X297645D01*
X321105Y4162928D02*
X313849Y4160509D01*
X311430Y4155672D01*
Y4150835D01*
X313849Y4145998D01*
X318686Y4143580D01*
X328360Y4141161D01*
X335616Y4138743D01*
X340453Y4133906D01*
X342871Y4129068D01*
Y4121813D01*
X340453Y4116976D01*
X338034Y4114557D01*
X330779Y4112139D01*
X321105D01*
X313849Y4114557D01*
X311430Y4116976D01*
X309012Y4121813D01*
Y4129068D01*
X311430Y4133906D01*
X316267Y4138743D01*
X323523Y4141161D01*
X333197Y4143580D01*
X338034Y4145998D01*
X340453Y4150835D01*
Y4155672D01*
X338034Y4160509D01*
X330779Y4162928D01*
X321105D01*
X429127Y4162939D02*
X378338D01*
X429127D02*
Y4141172D01*
X426709Y4133917D01*
X424290Y4131498D01*
X419453Y4129079D01*
X414616D01*
X409779Y4131498D01*
X407360Y4133917D01*
X404942Y4141172D01*
Y4162939D01*
Y4146009D02*
X378338Y4129079D01*
X429127Y4112875D02*
Y4086271D01*
X409779Y4100783D01*
Y4093527D01*
X407360Y4088690D01*
X404942Y4086271D01*
X397686Y4083853D01*
X392849D01*
X385594Y4086271D01*
X380757Y4091109D01*
X378338Y4098364D01*
Y4105620D01*
X380757Y4112875D01*
X383175Y4115294D01*
X388012Y4117712D01*
X429127Y4048301D02*
X395268Y4072486D01*
Y4036208D01*
X429127Y4048301D02*
X378338D01*
X971027Y4696331D02*
Y4654011D01*
X979491Y4645547D01*
X996419D01*
X1004882Y4654011D01*
Y4696331D01*
X1055666Y4645547D02*
X1021810D01*
X1055666Y4679403D01*
Y4687867D01*
X1047202Y4696331D01*
X1030274D01*
X1021810Y4687867D01*
X1106449Y4645547D02*
X1072594D01*
X1106449Y4679403D01*
Y4687867D01*
X1097986Y4696331D01*
X1081058D01*
X1072594Y4687867D01*
X577327Y4670947D02*
Y4721731D01*
X602719D01*
X611182Y4713267D01*
Y4696339D01*
X602719Y4687875D01*
X577327D01*
X594255D02*
X611182Y4670947D01*
X628110Y4713267D02*
X636574Y4721731D01*
X653502D01*
X661966Y4713267D01*
Y4704803D01*
X653502Y4696339D01*
X645038D01*
X653502D01*
X661966Y4687875D01*
Y4679411D01*
X653502Y4670947D01*
X636574D01*
X628110Y4679411D01*
X678894Y4713267D02*
X687358Y4721731D01*
X704286D01*
X712749Y4713267D01*
Y4679411D01*
X704286Y4670947D01*
X687358D01*
X678894Y4679411D01*
Y4713267D01*
X678927Y3870847D02*
Y3921631D01*
X704319D01*
X712782Y3913167D01*
Y3896239D01*
X704319Y3887775D01*
X678927D01*
X695855D02*
X712782Y3870847D01*
X763566D02*
X729710D01*
X763566Y3904703D01*
Y3913167D01*
X755102Y3921631D01*
X738174D01*
X729710Y3913167D01*
X780494D02*
X788958Y3921631D01*
X805886D01*
X814349Y3913167D01*
Y3904703D01*
X805886Y3896239D01*
X797422D01*
X805886D01*
X814349Y3887775D01*
Y3879311D01*
X805886Y3870847D01*
X788958D01*
X780494Y3879311D01*
X600985Y3876788D02*
X550202D01*
Y3902179D01*
X558665Y3910643D01*
X575593D01*
X584057Y3902179D01*
Y3876788D01*
Y3893715D02*
X600985Y3910643D01*
Y3961427D02*
Y3927571D01*
X567129Y3961427D01*
X558665D01*
X550202Y3952963D01*
Y3936035D01*
X558665Y3927571D01*
X600985Y4012210D02*
Y3978355D01*
X567129Y4012210D01*
X558665D01*
X550202Y4003746D01*
Y3986819D01*
X558665Y3978355D01*
X517275Y3885252D02*
X466492D01*
Y3910643D01*
X474956Y3919107D01*
X491883D01*
X500347Y3910643D01*
Y3885252D01*
Y3902179D02*
X517275Y3919107D01*
Y3969891D02*
Y3936035D01*
X483420Y3969891D01*
X474956D01*
X466492Y3961427D01*
Y3944499D01*
X474956Y3936035D01*
X517275Y3986819D02*
Y4003746D01*
Y3995283D01*
X466492D01*
X474956Y3986819D01*
X903315Y3668445D02*
Y3719228D01*
X928707D01*
X937171Y3710764D01*
Y3693837D01*
X928707Y3685373D01*
X903315D01*
X920243D02*
X937171Y3668445D01*
X987955D02*
X954099D01*
X987955Y3702300D01*
Y3710764D01*
X979491Y3719228D01*
X962563D01*
X954099Y3710764D01*
X1004882D02*
X1013346Y3719228D01*
X1030274D01*
X1038738Y3710764D01*
Y3676909D01*
X1030274Y3668445D01*
X1013346D01*
X1004882Y3676909D01*
Y3710764D01*
X712782Y4024292D02*
X704319Y4032756D01*
X687391D01*
X678927Y4024292D01*
Y3990437D01*
X687391Y3981973D01*
X704319D01*
X712782Y3990437D01*
X729710Y4024292D02*
X738174Y4032756D01*
X755102D01*
X763566Y4024292D01*
Y4015828D01*
X755102Y4007365D01*
X746638D01*
X755102D01*
X763566Y3998901D01*
Y3990437D01*
X755102Y3981973D01*
X738174D01*
X729710Y3990437D01*
X780494Y4024292D02*
X788958Y4032756D01*
X805886D01*
X814349Y4024292D01*
Y3990437D01*
X805886Y3981973D01*
X788958D01*
X780494Y3990437D01*
Y4024292D01*
X762083Y4685920D02*
X753619Y4694384D01*
X736691D01*
X728227Y4685920D01*
Y4652065D01*
X736691Y4643601D01*
X753619D01*
X762083Y4652065D01*
X812866Y4643601D02*
X779011D01*
X812866Y4677456D01*
Y4685920D01*
X804403Y4694384D01*
X787475D01*
X779011Y4685920D01*
X829794Y4652065D02*
X838258Y4643601D01*
X855186D01*
X863650Y4652065D01*
Y4685920D01*
X855186Y4694384D01*
X838258D01*
X829794Y4685920D01*
Y4677456D01*
X838258Y4668992D01*
X863650D01*
X-91562Y4668992D02*
Y4719776D01*
X-66171D01*
X-57707Y4711312D01*
Y4694384D01*
X-66171Y4685920D01*
X-91562D01*
X-74635D02*
X-57707Y4668992D01*
X-40779Y4711312D02*
X-32315Y4719776D01*
X-15387D01*
X-6923Y4711312D01*
Y4702848D01*
X-15387Y4694384D01*
X-23851D01*
X-15387D01*
X-6923Y4685920D01*
Y4677456D01*
X-15387Y4668992D01*
X-32315D01*
X-40779Y4677456D01*
X43860Y4668992D02*
X10005D01*
X43860Y4702848D01*
Y4711312D01*
X35396Y4719776D01*
X18469D01*
X10005Y4711312D01*
X-128848Y3686939D02*
X-78059D01*
X-128848D02*
Y3708706D01*
X-126430Y3715961D01*
X-124011Y3718380D01*
X-119174Y3720798D01*
X-114337D01*
X-109500Y3718380D01*
X-107082Y3715961D01*
X-104663Y3708706D01*
Y3686939D01*
Y3703868D02*
X-78059Y3720798D01*
X-116756Y3734584D02*
X-119174D01*
X-124011Y3737002D01*
X-126430Y3739421D01*
X-128848Y3744258D01*
Y3753932D01*
X-126430Y3758769D01*
X-124011Y3761188D01*
X-119174Y3763606D01*
X-114337D01*
X-109500Y3761188D01*
X-102245Y3756351D01*
X-78059Y3732165D01*
Y3766025D01*
X-128848Y3806414D02*
Y3782229D01*
X-107082Y3779810D01*
X-109500Y3782229D01*
X-111919Y3789484D01*
Y3796740D01*
X-109500Y3803995D01*
X-104663Y3808833D01*
X-97407Y3811251D01*
X-92571D01*
X-85315Y3808833D01*
X-80478Y3803995D01*
X-78059Y3796740D01*
Y3789484D01*
X-80478Y3782229D01*
X-82896Y3779810D01*
X-87733Y3777392D01*
X536676Y4421990D02*
Y4383899D01*
Y4421990D02*
X553001D01*
X558442Y4420177D01*
X560256Y4418363D01*
X562070Y4414735D01*
Y4411107D01*
X560256Y4407479D01*
X558442Y4405665D01*
X553001Y4403851D01*
X536676D01*
X549373D02*
X562070Y4383899D01*
X574223Y4421990D02*
X594176D01*
X583293Y4407479D01*
X588734D01*
X592362Y4405665D01*
X594176Y4403851D01*
X595990Y4398410D01*
Y4394782D01*
X594176Y4389340D01*
X590548Y4385712D01*
X585107Y4383899D01*
X579665D01*
X574223Y4385712D01*
X572409Y4387526D01*
X570596Y4391154D01*
X604515Y4414735D02*
X608143Y4416549D01*
X613585Y4421990D01*
Y4383899D01*
X97758Y4638228D02*
Y4601950D01*
X100177Y4594694D01*
X105014Y4589857D01*
X112269Y4587439D01*
X117106D01*
X124362Y4589857D01*
X129199Y4594694D01*
X131617Y4601950D01*
Y4638228D01*
X148063Y4626135D02*
Y4628554D01*
X150482Y4633391D01*
X152900Y4635809D01*
X157738Y4638228D01*
X167412D01*
X172249Y4635809D01*
X174667Y4633391D01*
X177086Y4628554D01*
Y4623717D01*
X174667Y4618880D01*
X169830Y4611624D01*
X145645Y4587439D01*
X179504D01*
X190871Y4628554D02*
X195709Y4630972D01*
X202964Y4638228D01*
Y4587439D01*
X-35362Y3995288D02*
Y3944499D01*
Y3995288D02*
X-13595D01*
X-6340Y3992869D01*
X-3921Y3990451D01*
X-1502Y3985614D01*
Y3980777D01*
X-3921Y3975940D01*
X-6340Y3973521D01*
X-13595Y3971103D01*
X-35362D01*
X-18432D02*
X-1502Y3944499D01*
X14702Y3995288D02*
X41305D01*
X26794Y3975940D01*
X34050D01*
X38887Y3973521D01*
X41305Y3971103D01*
X43724Y3963847D01*
Y3959010D01*
X41305Y3951754D01*
X36468Y3946917D01*
X29213Y3944499D01*
X21957D01*
X14702Y3946917D01*
X12283Y3949336D01*
X9865Y3954173D01*
X59928Y3995288D02*
X86532D01*
X72021Y3975940D01*
X79276D01*
X84113Y3973521D01*
X86532Y3971103D01*
X88951Y3963847D01*
Y3959010D01*
X86532Y3951754D01*
X81695Y3946917D01*
X74439Y3944499D01*
X67184D01*
X59928Y3946917D01*
X57510Y3949336D01*
X55091Y3954173D01*
X406417Y4707689D02*
X403998Y4712526D01*
X399161Y4717363D01*
X394324Y4719781D01*
X384650D01*
X379813Y4717363D01*
X374976Y4712526D01*
X372558Y4707689D01*
X370139Y4700433D01*
Y4688340D01*
X372558Y4681085D01*
X374976Y4676248D01*
X379813Y4671411D01*
X384650Y4668992D01*
X394324D01*
X399161Y4671411D01*
X403998Y4676248D01*
X406417Y4681085D01*
X423105Y4707689D02*
Y4710107D01*
X425523Y4714944D01*
X427942Y4717363D01*
X432779Y4719781D01*
X442453D01*
X447290Y4717363D01*
X449709Y4714944D01*
X452127Y4710107D01*
Y4705270D01*
X449709Y4700433D01*
X444872Y4693178D01*
X420686Y4668992D01*
X454546D01*
X499772Y4719781D02*
X475587Y4668992D01*
X465913Y4719781D02*
X499772D01*
X45031Y4239672D02*
X41162Y4237738D01*
X37292Y4233868D01*
X35357Y4229998D01*
Y4222259D01*
X37292Y4218390D01*
X41162Y4214520D01*
X45031Y4212585D01*
X50836Y4210650D01*
X60510D01*
X66315Y4212585D01*
X70184Y4214520D01*
X74054Y4218390D01*
X75989Y4222259D01*
Y4229998D01*
X74054Y4233868D01*
X70184Y4237738D01*
X66315Y4239672D01*
X45031Y4253023D02*
X43097D01*
X39227Y4254958D01*
X37292Y4256892D01*
X35357Y4260762D01*
Y4268501D01*
X37292Y4272371D01*
X39227Y4274306D01*
X43097Y4276241D01*
X46966D01*
X50836Y4274306D01*
X56640Y4270436D01*
X75989Y4251088D01*
Y4278176D01*
X41162Y4310487D02*
X37292Y4308552D01*
X35357Y4302748D01*
Y4298878D01*
X37292Y4293074D01*
X43097Y4289204D01*
X52771Y4287269D01*
X62445D01*
X70184Y4289204D01*
X74054Y4293074D01*
X75989Y4298878D01*
Y4300813D01*
X74054Y4306617D01*
X70184Y4310487D01*
X64380Y4312422D01*
X62445D01*
X56640Y4310487D01*
X52771Y4306617D01*
X50836Y4300813D01*
Y4298878D01*
X52771Y4293074D01*
X56640Y4289204D01*
X62445Y4287269D01*
X-77554Y5575321D02*
X-128337D01*
Y5600713D01*
X-119874Y5609176D01*
X-102946D01*
X-94482Y5600713D01*
Y5575321D01*
Y5592249D02*
X-77554Y5609176D01*
Y5626104D02*
Y5643032D01*
Y5634568D01*
X-128337D01*
X-119874Y5626104D01*
Y5668424D02*
X-128337Y5676888D01*
Y5693816D01*
X-119874Y5702280D01*
X-86018D01*
X-77554Y5693816D01*
Y5676888D01*
X-86018Y5668424D01*
X-119874D01*
X153123Y5596481D02*
X102340D01*
Y5621872D01*
X110803Y5630336D01*
X127731D01*
X136195Y5621872D01*
Y5596481D01*
Y5613408D02*
X153123Y5630336D01*
X144659Y5647264D02*
X153123Y5655728D01*
Y5672656D01*
X144659Y5681120D01*
X110803D01*
X102340Y5672656D01*
Y5655728D01*
X110803Y5647264D01*
X119267D01*
X127731Y5655728D01*
Y5681120D01*
X254011Y5486400D02*
X304800D01*
X254011D02*
Y5508167D01*
X256430Y5515422D01*
X258848Y5517841D01*
X263685Y5520259D01*
X268522D01*
X273359Y5517841D01*
X275778Y5515422D01*
X278196Y5508167D01*
Y5486400D01*
Y5503330D02*
X304800Y5520259D01*
X254011Y5565486D02*
X304800Y5541301D01*
X254011Y5531626D02*
Y5565486D01*
X804400Y7325600D02*
Y7355600D01*
X1024400Y7325600D02*
Y7355600D01*
X760392Y7931600D02*
Y8061600D01*
X958192Y7931600D02*
Y8061600D01*
X446870Y7661811D02*
X404550D01*
X396086Y7653347D01*
Y7636419D01*
X404550Y7627956D01*
X446870D01*
Y7577172D02*
X438406Y7594100D01*
X421478Y7611028D01*
X404550D01*
X396086Y7602564D01*
Y7585636D01*
X404550Y7577172D01*
X413014D01*
X421478Y7585636D01*
Y7611028D01*
X396086Y7526389D02*
Y7560244D01*
X429942Y7526389D01*
X438406D01*
X446870Y7534852D01*
Y7551780D01*
X438406Y7560244D01*
X1008692Y8319327D02*
X966372D01*
X957908Y8310863D01*
Y8293935D01*
X966372Y8285472D01*
X1008692D01*
Y8234688D02*
X1000228Y8251616D01*
X983300Y8268544D01*
X966372D01*
X957908Y8260080D01*
Y8243152D01*
X966372Y8234688D01*
X974836D01*
X983300Y8243152D01*
Y8268544D01*
X957908Y8217760D02*
Y8200832D01*
Y8209296D01*
X1008692D01*
X1000228Y8217760D01*
X957908Y8480411D02*
X1008692D01*
Y8455019D01*
X1000228Y8446556D01*
X983300D01*
X974836Y8455019D01*
Y8480411D01*
Y8463483D02*
X957908Y8446556D01*
X1008692Y8429628D02*
Y8395772D01*
X1000228D01*
X966372Y8429628D01*
X957908D01*
X1000228Y8378844D02*
X1008692Y8370380D01*
Y8353452D01*
X1000228Y8344989D01*
X966372D01*
X957908Y8353452D01*
Y8370380D01*
X966372Y8378844D01*
X1000228D01*
X785783Y8276189D02*
X735000D01*
Y8301581D01*
X743464Y8310044D01*
X760391D01*
X768855Y8301581D01*
Y8276189D01*
Y8293117D02*
X785783Y8310044D01*
X735000Y8360828D02*
X743464Y8343900D01*
X760391Y8326972D01*
X777319D01*
X785783Y8335436D01*
Y8352364D01*
X777319Y8360828D01*
X768855D01*
X760391Y8352364D01*
Y8326972D01*
X777319Y8377756D02*
X785783Y8386220D01*
Y8403148D01*
X777319Y8411611D01*
X743464D01*
X735000Y8403148D01*
Y8386220D01*
X743464Y8377756D01*
X751928D01*
X760391Y8386220D01*
Y8411611D01*
X-70809Y7689816D02*
X-121592D01*
Y7715208D01*
X-113128Y7723672D01*
X-96200D01*
X-87736Y7715208D01*
Y7689816D01*
Y7706744D02*
X-70809Y7723672D01*
X-121592Y7774455D02*
X-113128Y7757528D01*
X-96200Y7740600D01*
X-79273D01*
X-70809Y7749064D01*
Y7765992D01*
X-79273Y7774455D01*
X-87736D01*
X-96200Y7765992D01*
Y7740600D01*
X-113128Y7791383D02*
X-121592Y7799847D01*
Y7816775D01*
X-113128Y7825239D01*
X-104664D01*
X-96200Y7816775D01*
X-87736Y7825239D01*
X-79273D01*
X-70809Y7816775D01*
Y7799847D01*
X-79273Y7791383D01*
X-87736D01*
X-96200Y7799847D01*
X-104664Y7791383D01*
X-113128D01*
X-96200Y7799847D02*
Y7816775D01*
X10092Y7689816D02*
X-40692D01*
Y7715208D01*
X-32228Y7723672D01*
X-15300D01*
X-6836Y7715208D01*
Y7689816D01*
Y7706744D02*
X10092Y7723672D01*
X-40692Y7774455D02*
X-32228Y7757527D01*
X-15300Y7740599D01*
X1628D01*
X10092Y7749063D01*
Y7765991D01*
X1628Y7774455D01*
X-6836D01*
X-15300Y7765991D01*
Y7740599D01*
X-32228Y7791383D02*
X-40692Y7799847D01*
Y7816775D01*
X-32228Y7825239D01*
X1628D01*
X10092Y7816775D01*
Y7799847D01*
X1628Y7791383D01*
X-32228D01*
X749292Y7414848D02*
X698508D01*
Y7380992D01*
X749292Y7330208D02*
X740828Y7347136D01*
X723900Y7364064D01*
X706972D01*
X698508Y7355600D01*
Y7338672D01*
X706972Y7330208D01*
X715436D01*
X723900Y7338672D01*
Y7364064D01*
X698508Y7313281D02*
Y7296353D01*
Y7304816D01*
X749292D01*
X740828Y7313281D01*
X414872Y7243245D02*
X406408Y7234781D01*
Y7217853D01*
X414872Y7209389D01*
X448727D01*
X457191Y7217853D01*
Y7234781D01*
X448727Y7243245D01*
X406408Y7260172D02*
Y7294028D01*
X414872D01*
X448727Y7260172D01*
X457191D01*
Y7344812D02*
Y7310956D01*
X423336Y7344812D01*
X414872D01*
X406408Y7336348D01*
Y7319420D01*
X414872Y7310956D01*
X406408Y7743707D02*
X397945Y7752171D01*
X381017D01*
X372553Y7743707D01*
Y7709851D01*
X381017Y7701387D01*
X397945D01*
X406408Y7709851D01*
X423336Y7752171D02*
X457192D01*
Y7743707D01*
X423336Y7709851D01*
Y7701387D01*
X474120D02*
X491048D01*
X482584D01*
Y7752171D01*
X474120Y7743707D01*
X715436Y7697155D02*
X723900Y7705619D01*
Y7722547D01*
X715436Y7731011D01*
X681581D01*
X673117Y7722547D01*
Y7705619D01*
X681581Y7697155D01*
X723900Y7646372D02*
X715436Y7663300D01*
X698508Y7680227D01*
X681581D01*
X673117Y7671763D01*
Y7654836D01*
X681581Y7646372D01*
X690044D01*
X698508Y7654836D01*
Y7680227D01*
X681581Y7629444D02*
X673117Y7620980D01*
Y7604052D01*
X681581Y7595588D01*
X715436D01*
X723900Y7604052D01*
Y7620980D01*
X715436Y7629444D01*
X706972D01*
X698508Y7620980D01*
Y7595588D01*
X640028Y7697155D02*
X648492Y7705619D01*
Y7722547D01*
X640028Y7731011D01*
X606172D01*
X597708Y7722547D01*
Y7705619D01*
X606172Y7697155D01*
X648492Y7646372D02*
X640028Y7663300D01*
X623100Y7680227D01*
X606172D01*
X597708Y7671763D01*
Y7654836D01*
X606172Y7646372D01*
X614636D01*
X623100Y7654836D01*
Y7680227D01*
X640028Y7629444D02*
X648492Y7620980D01*
Y7604052D01*
X640028Y7595588D01*
X631564D01*
X623100Y7604052D01*
X614636Y7595588D01*
X606172D01*
X597708Y7604052D01*
Y7620980D01*
X606172Y7629444D01*
X614636D01*
X623100Y7620980D01*
X631564Y7629444D01*
X640028D01*
X623100Y7620980D02*
Y7604052D01*
X791415Y2874428D02*
X782952Y2882892D01*
X766024D01*
X757560Y2874428D01*
Y2840572D01*
X766024Y2832108D01*
X782952D01*
X791415Y2840572D01*
X842199Y2882892D02*
X808343D01*
Y2857500D01*
X825271Y2865964D01*
X833735D01*
X842199Y2857500D01*
Y2840572D01*
X833735Y2832108D01*
X816807D01*
X808343Y2840572D01*
X859127Y2832108D02*
X876055D01*
X867591D01*
Y2882892D01*
X859127Y2874428D01*
X372188Y2775892D02*
Y2733572D01*
X380653Y2725108D01*
X397580D01*
X406044Y2733572D01*
Y2775892D01*
X456828D02*
X422972D01*
Y2750500D01*
X439900Y2758964D01*
X448364D01*
X456828Y2750500D01*
Y2733572D01*
X448364Y2725108D01*
X431436D01*
X422972Y2733572D01*
X473755Y2767428D02*
X482220Y2775892D01*
X499147D01*
X507611Y2767428D01*
Y2733572D01*
X499147Y2725108D01*
X482220D01*
X473755Y2733572D01*
Y2767428D01*
X25392Y2615853D02*
X-25392D01*
Y2641245D01*
X-16928Y2649708D01*
X-0D01*
X8464Y2641245D01*
Y2615853D01*
Y2632781D02*
X25392Y2649708D01*
X-25392Y2700492D02*
Y2666636D01*
X-0D01*
X-8464Y2683564D01*
Y2692028D01*
X-0Y2700492D01*
X16928D01*
X25392Y2692028D01*
Y2675100D01*
X16928Y2666636D01*
X25392Y2717420D02*
Y2734348D01*
Y2725884D01*
X-25392D01*
X-16928Y2717420D01*
X266691Y2281529D02*
X215908D01*
Y2306921D01*
X224372Y2315384D01*
X241299D01*
X249764Y2306921D01*
Y2281529D01*
Y2298457D02*
X266691Y2315384D01*
X215908Y2366168D02*
Y2332312D01*
X241299D01*
X232836Y2349240D01*
Y2357704D01*
X241299Y2366168D01*
X258227D01*
X266691Y2357704D01*
Y2340776D01*
X258227Y2332312D01*
X224372Y2383096D02*
X215908Y2391560D01*
Y2408488D01*
X224372Y2416951D01*
X258227D01*
X266691Y2408488D01*
Y2391560D01*
X258227Y2383096D01*
X224372D01*
X294733Y2798253D02*
X286269Y2789789D01*
Y2772861D01*
X294733Y2764397D01*
X328588D01*
X337052Y2772861D01*
Y2789789D01*
X328588Y2798253D01*
X286269Y2849036D02*
Y2815181D01*
X311661D01*
X303197Y2832109D01*
Y2840573D01*
X311661Y2849036D01*
X328588D01*
X337052Y2840573D01*
Y2823645D01*
X328588Y2815181D01*
X294733Y2865964D02*
X286269Y2874428D01*
Y2891356D01*
X294733Y2899820D01*
X328588D01*
X337052Y2891356D01*
Y2874428D01*
X328588Y2865964D01*
X294733D01*
X-88900Y825490D02*
Y789212D01*
X-86481Y781957D01*
X-81644Y777120D01*
X-74389Y774701D01*
X-69552D01*
X-62296Y777120D01*
X-57459Y781957D01*
X-55041Y789212D01*
Y825490D01*
X-16828D02*
X-41013Y791631D01*
X-4735D01*
X-16828Y825490D02*
Y774701D01*
X6632Y813397D02*
Y815816D01*
X9051Y820653D01*
X11469Y823072D01*
X16306Y825490D01*
X25980D01*
X30817Y823072D01*
X33236Y820653D01*
X35654Y815816D01*
Y810979D01*
X33236Y806142D01*
X28399Y798886D01*
X4213Y774701D01*
X38073D01*
X1371600Y1142990D02*
Y1106712D01*
X1374019Y1099457D01*
X1378856Y1094620D01*
X1386111Y1092201D01*
X1390948D01*
X1398204Y1094620D01*
X1403041Y1099457D01*
X1405459Y1106712D01*
Y1142990D01*
X1443672D02*
X1419487Y1109131D01*
X1455765D01*
X1443672Y1142990D02*
Y1092201D01*
X1479225Y1142990D02*
X1471969Y1140572D01*
X1467132Y1133316D01*
X1464713Y1121223D01*
Y1113968D01*
X1467132Y1101875D01*
X1471969Y1094620D01*
X1479225Y1092201D01*
X1484062D01*
X1491317Y1094620D01*
X1496154Y1101875D01*
X1498573Y1113968D01*
Y1121223D01*
X1496154Y1133316D01*
X1491317Y1140572D01*
X1484062Y1142990D01*
X1479225D01*
X2037996Y1284523D02*
X2042834Y1286942D01*
X2047671Y1291779D01*
X2050089Y1296616D01*
Y1306290D01*
X2047671Y1311127D01*
X2042834Y1315964D01*
X2037996Y1318382D01*
X2030741Y1320801D01*
X2018648D01*
X2011393Y1318382D01*
X2006556Y1315964D01*
X2001719Y1311127D01*
X1999300Y1306290D01*
Y1296616D01*
X2001719Y1291779D01*
X2006556Y1286942D01*
X2011393Y1284523D01*
X2050089Y1246068D02*
X2016230Y1270254D01*
Y1233976D01*
X2050089Y1246068D02*
X1999300D01*
X2040415Y1225027D02*
X2042834Y1220190D01*
X2050089Y1212935D01*
X1999300D01*
X1308696Y967023D02*
X1313534Y969442D01*
X1318370Y974279D01*
X1320789Y979116D01*
Y988790D01*
X1318370Y993627D01*
X1313534Y998464D01*
X1308696Y1000882D01*
X1301441Y1003301D01*
X1289348D01*
X1282093Y1000882D01*
X1277256Y998464D01*
X1272419Y993627D01*
X1270000Y988790D01*
Y979116D01*
X1272419Y974279D01*
X1277256Y969442D01*
X1282093Y967023D01*
X1320789Y928568D02*
X1286930Y952754D01*
Y916476D01*
X1320789Y928568D02*
X1270000D01*
X1320789Y893016D02*
X1318370Y900272D01*
X1311115Y905109D01*
X1299022Y907527D01*
X1291767D01*
X1279674Y905109D01*
X1272419Y900272D01*
X1270000Y893016D01*
Y888179D01*
X1272419Y880924D01*
X1279674Y876086D01*
X1291767Y873668D01*
X1299022D01*
X1311115Y876086D01*
X1318370Y880924D01*
X1320789Y888179D01*
Y893016D01*
D52*
X429900Y2640300D02*
G03*
X429900Y2640300I-10000J0D01*
G01*
D55*
X1632400Y1112901D02*
G03*
X1632400Y1112901I-12500J0D01*
G01*
D84*
X914292Y8146600D02*
G03*
X914292Y8146600I-5000J0D01*
G01*
D85*
X699900Y2610300D02*
X759900D01*
Y2590300D02*
Y2610300D01*
X439900Y2290300D02*
Y2310300D01*
Y2290300D02*
X499900D01*
X699900D02*
X759900D01*
Y2310300D01*
X439900Y2590300D02*
Y2610300D01*
X499900D01*
%TF.MD5,5f25cd554dd6b3e524e4ebdcebb4bdba*%
M02*
