%TF.GenerationSoftware,Altium Limited,Altium Designer,22.6.1 (34)*%
G04 Layer_Color=16711935*
%FSLAX45Y45*%
%MOMM*%
%TF.SameCoordinates,41C29604-6FBD-4392-AD62-CF0DA8D1722B*%
%TF.FilePolarity,Positive*%
%TF.FileFunction,Other,Mechanical_1*%
%TF.Part,CustomerPanel*%
G01*
G75*
%TA.AperFunction,NonConductor*%
%ADD52C,0.25400*%
D52*
X-155062Y3362839D02*
Y4976703D01*
X1139541Y3362839D02*
Y4974612D01*
X-155062Y3362839D02*
X1127638D01*
X-155062Y4976703D02*
X1139541Y4974612D01*
X-165100Y5092700D02*
X1130300D01*
Y6704903D01*
X-165100Y6706994D02*
X1130300Y6704903D01*
X-165100Y5092700D02*
Y6706994D01*
X1028700Y8534400D02*
X1054100D01*
X1028700Y6832600D02*
X1054100D01*
Y8534400D01*
X-165100Y6832600D02*
X1028700D01*
X-165100D02*
Y8534400D01*
X1028700D01*
Y6832600D02*
Y8534400D01*
X-152400Y1625600D02*
Y3226087D01*
X1397000Y1625600D02*
Y3223588D01*
X-152400Y1625600D02*
X1397000D01*
X-152400Y3226087D02*
X1397000Y3223588D01*
X-165100Y-177799D02*
X2108200D01*
X-165100D02*
Y1498601D01*
X2108200D01*
Y-177799D02*
Y1498601D01*
%TF.MD5,7ed33bb1334d93c1ac719ffbfe3e3c26*%
M02*
