%TF.GenerationSoftware,Altium Limited,Altium Designer,22.6.1 (34)*%
G04 Layer_Color=32896*
%FSLAX45Y45*%
%MOMM*%
%TF.SameCoordinates,41C29604-6FBD-4392-AD62-CF0DA8D1722B*%
%TF.FilePolarity,Positive*%
%TF.FileFunction,Legend,Bot*%
%TF.Part,CustomerPanel*%
G01*
G75*
%TA.AperFunction,NonConductor*%
%ADD48C,0.15240*%
%ADD49C,0.30000*%
%ADD50C,0.20000*%
%ADD51C,0.12700*%
%ADD52C,0.25400*%
%ADD53C,0.17780*%
%ADD54C,0.10160*%
%ADD55C,0.25000*%
D48*
X248258Y3869659D02*
G03*
X222858Y3869659I-12700J0D01*
G01*
D02*
G03*
X248258Y3869659I12700J0D01*
G01*
X246258Y4006039D02*
Y4142039D01*
X2418Y4006039D02*
Y4142039D01*
X321751Y6111780D02*
G03*
X321751Y6086380I0J-12700D01*
G01*
D02*
G03*
X321751Y6111780I0J12700D01*
G01*
X458130Y6332220D02*
X594132D01*
X458130Y6088380D02*
X594132D01*
D49*
X461780Y4024539D02*
G03*
X461780Y4024539I-14142J0D01*
G01*
X310750Y5689300D02*
G03*
X310750Y5689300I-14142J0D01*
G01*
D50*
X-142362Y4696339D02*
Y4950339D01*
Y4696339D02*
X1127638D01*
X-142362Y4950339D02*
X1127638D01*
Y4696339D02*
Y4950339D01*
X-142362Y3375539D02*
Y3629539D01*
Y3375539D02*
X1127638D01*
X-142362Y3629539D02*
X1127638D01*
Y3375539D02*
Y3629539D01*
X-9962Y4274437D02*
X30038D01*
X-111562Y4279774D02*
X-71562D01*
X-111562Y3864738D02*
X-71562D01*
X243555Y4358839D02*
Y4398839D01*
X726638Y3935200D02*
X766638D01*
X345638Y4054740D02*
X385638D01*
X347238Y4308360D02*
X387238D01*
X169338Y3838840D02*
X209338D01*
X-9962Y3648838D02*
X30038D01*
X613039Y3820199D02*
Y3860199D01*
X-111562Y3838840D02*
X-71562D01*
X-152400Y5105400D02*
Y5359400D01*
Y5105400D02*
X1117600D01*
X-152400Y5359400D02*
X1117600D01*
Y5105400D02*
Y5359400D01*
X-152400Y6426200D02*
Y6680200D01*
Y6426200D02*
X1117600D01*
X-152400Y6680200D02*
X1117600D01*
Y6426200D02*
Y6680200D01*
X-121600Y5756557D02*
X-81600D01*
X94300Y5416800D02*
X134300D01*
X208600D02*
X248600D01*
X754700Y5683000D02*
X794700D01*
X869000D02*
X909000D01*
X983300Y5682200D02*
X1023300D01*
X260101Y6355400D02*
Y6395400D01*
X183200Y6120968D02*
X223200D01*
X183200Y6330706D02*
X223200D01*
X94300Y6140699D02*
X134300D01*
X843600Y6000196D02*
X883600D01*
X-7300Y6125601D02*
X32700D01*
X589600Y5416800D02*
X629600D01*
X-121600Y6025601D02*
X-81600D01*
X385108Y5416800D02*
X425108D01*
X182797Y5931169D02*
X222797D01*
X284700Y5672298D02*
Y5712298D01*
X-7300Y5936701D02*
X32700D01*
X25650Y7294500D02*
Y7334499D01*
X983300Y7809380D02*
X1023300D01*
X984320Y7614855D02*
X1024320D01*
X411800Y7904700D02*
X451800D01*
X553100Y7790900D02*
X593100D01*
X652694Y8123973D02*
X692694D01*
X753100Y7931400D02*
X793100D01*
X818100Y7815900D02*
Y7855900D01*
X845200Y7791700D02*
X885200D01*
X475600Y7282800D02*
Y7326300D01*
Y7282800D02*
X519100D01*
X1009400Y7193600D02*
Y7233600D01*
X897500Y6850200D02*
X1007500D01*
X463100Y7193600D02*
Y7233600D01*
X120900Y7193600D02*
Y7233600D01*
X850900Y6896100D02*
Y7150100D01*
X-165100D02*
X850900D01*
X-165100Y6896100D02*
X850900D01*
X-165100D02*
Y7150100D01*
X-139700Y1638300D02*
X1384300D01*
X-139700Y1892300D02*
X1384300D01*
Y1638300D02*
Y1892300D01*
X-139700Y1638300D02*
Y1892300D01*
Y2959100D02*
Y3213100D01*
X1384300Y2959100D02*
Y3213100D01*
X-139700D02*
X1384300D01*
X-139700Y2959100D02*
X1384300D01*
X400200Y647701D02*
G03*
X400200Y647701I-10000J0D01*
G01*
X-127000Y1447801D02*
X1905000D01*
Y1193801D02*
Y1447801D01*
X-127000Y1193801D02*
X1905000D01*
X-127000D02*
Y1447801D01*
Y127001D02*
X1905000D01*
Y-126999D02*
Y127001D01*
X-127000Y-126999D02*
X1905000D01*
X-127000D02*
Y127001D01*
X1736500Y835330D02*
Y875330D01*
X2046500Y835330D02*
Y875330D01*
X1736500D02*
X2046500D01*
X1736500Y835330D02*
X2046500D01*
X1936500Y1110301D02*
Y1150301D01*
Y564201D02*
Y604201D01*
D51*
X757636Y4356040D02*
X818139D01*
Y4304539D02*
Y4356040D01*
X497139D02*
X557637D01*
X497139Y4304539D02*
Y4356040D01*
X818139Y3963041D02*
Y4014537D01*
X757636Y3963041D02*
X818139D01*
X497139D02*
Y4014537D01*
Y3963041D02*
X557637D01*
X313950Y3833633D02*
X271631D01*
X263167Y3842097D01*
Y3859025D01*
X271631Y3867488D01*
X313950D01*
X263167Y3918272D02*
Y3884416D01*
X297023Y3918272D01*
X305487D01*
X313950Y3909808D01*
Y3892880D01*
X305487Y3884416D01*
Y3935200D02*
X313950Y3943664D01*
Y3960592D01*
X305487Y3969055D01*
X271631D01*
X263167Y3960592D01*
Y3943664D01*
X271631Y3935200D01*
X305487D01*
X23334Y4554715D02*
X28172Y4552297D01*
X33009Y4547460D01*
X35427Y4542623D01*
Y4532949D01*
X33009Y4528111D01*
X28172Y4523274D01*
X23334Y4520856D01*
X16079Y4518437D01*
X3986D01*
X-3269Y4520856D01*
X-8106Y4523274D01*
X-12943Y4528111D01*
X-15362Y4532949D01*
Y4542623D01*
X-12943Y4547460D01*
X-8106Y4552297D01*
X-3269Y4554715D01*
X23334Y4571403D02*
X25753D01*
X30590Y4573822D01*
X33009Y4576240D01*
X35427Y4581077D01*
Y4590751D01*
X33009Y4595588D01*
X30590Y4598007D01*
X25753Y4600425D01*
X20916D01*
X16079Y4598007D01*
X8823Y4593170D01*
X-15362Y4568985D01*
Y4602844D01*
X35427Y4619048D02*
Y4645652D01*
X16079Y4631141D01*
Y4638396D01*
X13660Y4643233D01*
X11242Y4645652D01*
X3986Y4648070D01*
X-851D01*
X-8106Y4645652D01*
X-12943Y4640815D01*
X-15362Y4633559D01*
Y4626304D01*
X-12943Y4619048D01*
X-10525Y4616630D01*
X-5688Y4614211D01*
X979491Y4658230D02*
Y4607447D01*
X1004883D01*
X1013346Y4615911D01*
Y4632839D01*
X1004883Y4641303D01*
X979491D01*
X1064130Y4658230D02*
X1030274D01*
X1064130Y4624375D01*
Y4615911D01*
X1055666Y4607447D01*
X1038738D01*
X1030274Y4615911D01*
X1081058Y4658230D02*
X1097986D01*
X1089522D01*
Y4607447D01*
X1081058Y4615911D01*
X971027Y3719228D02*
Y3668445D01*
X996419D01*
X1004882Y3676908D01*
Y3693836D01*
X996419Y3702300D01*
X971027D01*
X1055666Y3719228D02*
X1021810D01*
X1055666Y3685372D01*
Y3676908D01*
X1047202Y3668445D01*
X1030274D01*
X1021810Y3676908D01*
X1072594D02*
X1081058Y3668445D01*
X1097986D01*
X1106449Y3676908D01*
Y3710764D01*
X1097986Y3719228D01*
X1081058D01*
X1072594Y3710764D01*
Y3676908D01*
X128558Y4392695D02*
X137022Y4384231D01*
Y4367303D01*
X128558Y4358839D01*
X94702D01*
X86238Y4367303D01*
Y4384231D01*
X94702Y4392695D01*
X86238Y4443478D02*
Y4409622D01*
X120094Y4443478D01*
X128558D01*
X137022Y4435014D01*
Y4418086D01*
X128558Y4409622D01*
X137022Y4494262D02*
Y4460406D01*
X111630D01*
X120094Y4477334D01*
Y4485798D01*
X111630Y4494262D01*
X94702D01*
X86238Y4485798D01*
Y4468870D01*
X94702Y4460406D01*
X1076838Y4231416D02*
Y4282200D01*
X1059910Y4265272D01*
X1042982Y4282200D01*
Y4231416D01*
X1026055Y4282200D02*
Y4231416D01*
Y4248344D01*
X992199Y4282200D01*
X1017591Y4256808D01*
X992199Y4231416D01*
X941415D02*
X975271D01*
X941415Y4265272D01*
Y4273736D01*
X949879Y4282200D01*
X966807D01*
X975271Y4273736D01*
X924488D02*
X916024Y4282200D01*
X899096D01*
X890632Y4273736D01*
Y4239881D01*
X899096Y4231416D01*
X916024D01*
X924488Y4239881D01*
Y4273736D01*
X337769Y3777497D02*
X388558D01*
X337769D02*
Y3755730D01*
X340188Y3748475D01*
X342606Y3746056D01*
X347443Y3743637D01*
X352280D01*
X357117Y3746056D01*
X359536Y3748475D01*
X361955Y3755730D01*
Y3777497D01*
Y3760567D02*
X388558Y3743637D01*
X349862Y3729852D02*
X347443D01*
X342606Y3727433D01*
X340188Y3725015D01*
X337769Y3720178D01*
Y3710504D01*
X340188Y3705667D01*
X342606Y3703248D01*
X347443Y3700830D01*
X352280D01*
X357117Y3703248D01*
X364373Y3708085D01*
X388558Y3732270D01*
Y3698411D01*
X354699Y3655603D02*
X361955Y3658022D01*
X366791Y3662859D01*
X369210Y3670114D01*
Y3672533D01*
X366791Y3679788D01*
X361955Y3684625D01*
X354699Y3687044D01*
X352280D01*
X345025Y3684625D01*
X340188Y3679788D01*
X337769Y3672533D01*
Y3670114D01*
X340188Y3662859D01*
X345025Y3658022D01*
X354699Y3655603D01*
X366791D01*
X378884Y3658022D01*
X386140Y3662859D01*
X388558Y3670114D01*
Y3674951D01*
X386140Y3682207D01*
X381303Y3684625D01*
X313956Y4175639D02*
X263167D01*
X313956D02*
Y4197406D01*
X311537Y4204661D01*
X309119Y4207080D01*
X304282Y4209498D01*
X299445D01*
X294608Y4207080D01*
X292189Y4204661D01*
X289771Y4197406D01*
Y4175639D01*
Y4192568D02*
X263167Y4209498D01*
X301863Y4223284D02*
X304282D01*
X309119Y4225702D01*
X311537Y4228121D01*
X313956Y4232958D01*
Y4242632D01*
X311537Y4247469D01*
X309119Y4249888D01*
X304282Y4252306D01*
X299445D01*
X294608Y4249888D01*
X287352Y4245051D01*
X263167Y4220865D01*
Y4254725D01*
X306700Y4295114D02*
X311537Y4292696D01*
X313956Y4285440D01*
Y4280603D01*
X311537Y4273347D01*
X304282Y4268510D01*
X292189Y4266092D01*
X280096D01*
X270422Y4268510D01*
X265585Y4273347D01*
X263167Y4280603D01*
Y4283021D01*
X265585Y4290277D01*
X270422Y4295114D01*
X277678Y4297533D01*
X280096D01*
X287352Y4295114D01*
X292189Y4290277D01*
X294608Y4283021D01*
Y4280603D01*
X292189Y4273347D01*
X287352Y4268510D01*
X280096Y4266092D01*
X557637Y3773523D02*
Y3722734D01*
Y3773523D02*
X535870D01*
X528614Y3771104D01*
X526196Y3768686D01*
X523777Y3763849D01*
Y3759012D01*
X526196Y3754175D01*
X528614Y3751756D01*
X535870Y3749337D01*
X557637D01*
X540707D02*
X523777Y3722734D01*
X509992Y3761430D02*
Y3763849D01*
X507573Y3768686D01*
X505155Y3771104D01*
X500318Y3773523D01*
X490643D01*
X485806Y3771104D01*
X483388Y3768686D01*
X480969Y3763849D01*
Y3759012D01*
X483388Y3754175D01*
X488225Y3746919D01*
X512410Y3722734D01*
X478551D01*
X442998Y3773523D02*
X467184Y3739663D01*
X430906D01*
X442998Y3773523D02*
Y3722734D01*
X102196Y3776171D02*
X107034Y3773752D01*
X111870Y3768915D01*
X114289Y3764078D01*
Y3754404D01*
X111870Y3749567D01*
X107034Y3744730D01*
X102196Y3742311D01*
X94941Y3739893D01*
X82848D01*
X75593Y3742311D01*
X70756Y3744730D01*
X65919Y3749567D01*
X63500Y3754404D01*
Y3764078D01*
X65919Y3768915D01*
X70756Y3773752D01*
X75593Y3776171D01*
X102196Y3792859D02*
X104615D01*
X109452Y3795277D01*
X111870Y3797695D01*
X114289Y3802533D01*
Y3812207D01*
X111870Y3817044D01*
X109452Y3819462D01*
X104615Y3821881D01*
X99778D01*
X94941Y3819462D01*
X87685Y3814625D01*
X63500Y3790440D01*
Y3824299D01*
X114289Y3859852D02*
X80430Y3835666D01*
Y3871945D01*
X114289Y3859852D02*
X63500D01*
X950434Y3998196D02*
X955272Y3995777D01*
X960109Y3990940D01*
X962527Y3986103D01*
Y3976429D01*
X960109Y3971592D01*
X955272Y3966755D01*
X950434Y3964336D01*
X943179Y3961918D01*
X931086D01*
X923831Y3964336D01*
X918994Y3966755D01*
X914157Y3971592D01*
X911738Y3976429D01*
Y3986103D01*
X914157Y3990940D01*
X918994Y3995777D01*
X923831Y3998196D01*
X950434Y4014884D02*
X952853D01*
X957690Y4017302D01*
X960109Y4019721D01*
X962527Y4024558D01*
Y4034232D01*
X960109Y4039069D01*
X957690Y4041487D01*
X952853Y4043906D01*
X948016D01*
X943179Y4041487D01*
X935923Y4036651D01*
X911738Y4012465D01*
Y4046325D01*
X950434Y4060110D02*
X952853D01*
X957690Y4062529D01*
X960109Y4064947D01*
X962527Y4069784D01*
Y4079458D01*
X960109Y4084295D01*
X957690Y4086714D01*
X952853Y4089133D01*
X948016D01*
X943179Y4086714D01*
X935923Y4081877D01*
X911738Y4057692D01*
Y4091551D01*
X329360Y4493735D02*
X331779Y4498572D01*
X336616Y4503409D01*
X341453Y4505828D01*
X351127D01*
X355964Y4503409D01*
X360801Y4498572D01*
X363219Y4493735D01*
X365638Y4486480D01*
Y4474387D01*
X363219Y4467132D01*
X360801Y4462294D01*
X355964Y4457457D01*
X351127Y4455039D01*
X341453D01*
X336616Y4457457D01*
X331779Y4462294D01*
X329360Y4467132D01*
X312672Y4493735D02*
Y4496154D01*
X310254Y4500991D01*
X307835Y4503409D01*
X302998Y4505828D01*
X293324D01*
X288487Y4503409D01*
X286069Y4500991D01*
X283650Y4496154D01*
Y4491317D01*
X286069Y4486480D01*
X290905Y4479224D01*
X315091Y4455039D01*
X281231D01*
X255353Y4505828D02*
X262609Y4503409D01*
X267446Y4496154D01*
X269864Y4484061D01*
Y4476806D01*
X267446Y4464713D01*
X262609Y4457457D01*
X255353Y4455039D01*
X250516D01*
X243261Y4457457D01*
X238423Y4464713D01*
X236005Y4476806D01*
Y4484061D01*
X238423Y4496154D01*
X243261Y4503409D01*
X250516Y4505828D01*
X255353D01*
X950434Y3843617D02*
X955272Y3841198D01*
X960109Y3836361D01*
X962527Y3831524D01*
Y3821850D01*
X960109Y3817013D01*
X955272Y3812176D01*
X950434Y3809757D01*
X943179Y3807339D01*
X931086D01*
X923831Y3809757D01*
X918994Y3812176D01*
X914157Y3817013D01*
X911738Y3821850D01*
Y3831524D01*
X914157Y3836361D01*
X918994Y3841198D01*
X923831Y3843617D01*
X950434Y3860305D02*
X952853D01*
X957690Y3862723D01*
X960109Y3865142D01*
X962527Y3869979D01*
Y3879653D01*
X960109Y3884490D01*
X957690Y3886908D01*
X952853Y3889327D01*
X948016D01*
X943179Y3886908D01*
X935923Y3882071D01*
X911738Y3857886D01*
Y3891746D01*
X952853Y3903113D02*
X955272Y3907950D01*
X962527Y3915205D01*
X911738D01*
X606606Y6020801D02*
X667109D01*
Y5969300D02*
Y6020801D01*
X346109D02*
X406607D01*
X346109Y5969300D02*
Y6020801D01*
X667109Y5627802D02*
Y5679298D01*
X606606Y5627802D02*
X667109D01*
X346109D02*
Y5679298D01*
Y5627802D02*
X406607D01*
X66556Y5697690D02*
Y5655370D01*
X58092Y5646906D01*
X41164D01*
X32700Y5655370D01*
Y5697690D01*
X15772Y5646906D02*
X-1156D01*
X7308D01*
Y5697690D01*
X15772Y5689226D01*
X304808Y5494881D02*
X355592D01*
Y5520272D01*
X347128Y5528736D01*
X330200D01*
X321736Y5520272D01*
Y5494881D01*
Y5511808D02*
X304808Y5528736D01*
X355592Y5579520D02*
X347128Y5562592D01*
X330200Y5545664D01*
X313272D01*
X304808Y5554128D01*
Y5571056D01*
X313272Y5579520D01*
X321736D01*
X330200Y5571056D01*
Y5545664D01*
X304808Y5392110D02*
X355592D01*
Y5417502D01*
X347128Y5425966D01*
X330200D01*
X321736Y5417502D01*
Y5392110D01*
Y5409038D02*
X304808Y5425966D01*
X355592Y5476749D02*
Y5442894D01*
X330200D01*
X338664Y5459821D01*
Y5468285D01*
X330200Y5476749D01*
X313272D01*
X304808Y5468285D01*
Y5451358D01*
X313272Y5442894D01*
X-32692Y5494881D02*
X18092D01*
Y5520272D01*
X9628Y5528736D01*
X-7300D01*
X-15764Y5520272D01*
Y5494881D01*
Y5511808D02*
X-32692Y5528736D01*
Y5571056D02*
X18092D01*
X-7300Y5545664D01*
Y5579520D01*
X673108Y5418022D02*
X723892D01*
Y5443414D01*
X715428Y5451878D01*
X698500D01*
X690036Y5443414D01*
Y5418022D01*
Y5434950D02*
X673108Y5451878D01*
X715428Y5468806D02*
X723892Y5477270D01*
Y5494198D01*
X715428Y5502661D01*
X706964D01*
X698500Y5494198D01*
Y5485734D01*
Y5494198D01*
X690036Y5502661D01*
X681572D01*
X673108Y5494198D01*
Y5477270D01*
X681572Y5468806D01*
X1045619Y5715008D02*
Y5765792D01*
X1020228D01*
X1011764Y5757328D01*
Y5740400D01*
X1020228Y5731936D01*
X1045619D01*
X1028692D02*
X1011764Y5715008D01*
X960980D02*
X994836D01*
X960980Y5748864D01*
Y5757328D01*
X969444Y5765792D01*
X986372D01*
X994836Y5757328D01*
X922856Y5715008D02*
Y5765792D01*
X897464D01*
X889000Y5757328D01*
Y5740400D01*
X897464Y5731936D01*
X922856D01*
X905928D02*
X889000Y5715008D01*
X872072D02*
X855144D01*
X863608D01*
Y5765792D01*
X872072Y5757328D01*
X960981Y6367938D02*
Y6317155D01*
X986372D01*
X994836Y6325619D01*
Y6342547D01*
X986372Y6351011D01*
X960981D01*
X1045620Y6367938D02*
X1011764D01*
X1045620Y6334083D01*
Y6325619D01*
X1037156Y6317155D01*
X1020228D01*
X1011764Y6325619D01*
X1032944Y5437986D02*
Y5387203D01*
X1058336D01*
X1066800Y5395667D01*
Y5412594D01*
X1058336Y5421058D01*
X1032944D01*
X1083728Y5437986D02*
X1100656D01*
X1092192D01*
Y5387203D01*
X1083728Y5395667D01*
X-86017Y5672298D02*
X-77554Y5663834D01*
Y5646906D01*
X-86017Y5638442D01*
X-119873D01*
X-128337Y5646906D01*
Y5663834D01*
X-119873Y5672298D01*
X-128337Y5689225D02*
Y5706153D01*
Y5697689D01*
X-77554D01*
X-86017Y5689225D01*
X248600Y6172200D02*
X299383D01*
Y6197592D01*
X290920Y6206056D01*
X273992D01*
X265528Y6197592D01*
Y6172200D01*
Y6189128D02*
X248600Y6206056D01*
Y6222983D02*
Y6239911D01*
Y6231448D01*
X299383D01*
X290920Y6222983D01*
X248600Y6299159D02*
Y6265303D01*
X282456Y6299159D01*
X290920D01*
X299383Y6290695D01*
Y6273767D01*
X290920Y6265303D01*
X825500Y5842000D02*
Y5892783D01*
X808572Y5875856D01*
X791644Y5892783D01*
Y5842000D01*
X774717Y5892783D02*
Y5842000D01*
Y5858928D01*
X740861Y5892783D01*
X766252Y5867392D01*
X740861Y5842000D01*
X723933D02*
X707005D01*
X715469D01*
Y5892783D01*
X723933Y5884320D01*
X38089Y6311900D02*
X-12700D01*
X38089D02*
Y6333667D01*
X35670Y6340922D01*
X33252Y6343341D01*
X28415Y6345759D01*
X23578D01*
X18741Y6343341D01*
X16322Y6340922D01*
X13904Y6333667D01*
Y6311900D01*
Y6328830D02*
X-12700Y6345759D01*
X28415Y6357126D02*
X30834Y6361964D01*
X38089Y6369219D01*
X-12700D01*
X28415Y6394372D02*
X30834Y6399209D01*
X38089Y6406464D01*
X-12700D01*
X863600Y6286489D02*
Y6250211D01*
X861181Y6242956D01*
X856344Y6238119D01*
X849089Y6235700D01*
X844252D01*
X836996Y6238119D01*
X832159Y6242956D01*
X829741Y6250211D01*
Y6286489D01*
X813295Y6274396D02*
Y6276815D01*
X810876Y6281652D01*
X808458Y6284070D01*
X803620Y6286489D01*
X793946D01*
X789109Y6284070D01*
X786691Y6281652D01*
X784272Y6276815D01*
Y6271978D01*
X786691Y6267141D01*
X791528Y6259885D01*
X815713Y6235700D01*
X781854D01*
X130417Y6016537D02*
X87246D01*
X130417D02*
Y6035038D01*
X128361Y6041206D01*
X126305Y6043261D01*
X122194Y6045317D01*
X118082D01*
X113971Y6043261D01*
X111915Y6041206D01*
X109859Y6035038D01*
Y6016537D01*
Y6030927D02*
X87246Y6045317D01*
X122194Y6054979D02*
X124249Y6059091D01*
X130417Y6065258D01*
X87246D01*
X130417Y6090749D02*
Y6113363D01*
X113971Y6101028D01*
Y6107195D01*
X111915Y6111307D01*
X109859Y6113363D01*
X103692Y6115418D01*
X99580D01*
X93413Y6113363D01*
X89302Y6109251D01*
X87246Y6103084D01*
Y6096917D01*
X89302Y6090749D01*
X91357Y6088694D01*
X95469Y6086638D01*
X310488Y5791464D02*
X259698D01*
X310488D02*
Y5813231D01*
X308069Y5820486D01*
X305651Y5822905D01*
X300813Y5825324D01*
X295977D01*
X291139Y5822905D01*
X288721Y5820486D01*
X286302Y5813231D01*
Y5791464D01*
Y5808394D02*
X259698Y5825324D01*
X310488Y5848783D02*
X308069Y5841528D01*
X303232Y5839109D01*
X298395D01*
X293558Y5841528D01*
X291139Y5846365D01*
X288721Y5856039D01*
X286302Y5863294D01*
X281465Y5868132D01*
X276628Y5870550D01*
X269373D01*
X264536Y5868132D01*
X262117Y5865713D01*
X259698Y5858457D01*
Y5848783D01*
X262117Y5841528D01*
X264536Y5839109D01*
X269373Y5836691D01*
X276628D01*
X281465Y5839109D01*
X286302Y5843946D01*
X288721Y5851202D01*
X291139Y5860876D01*
X293558Y5865713D01*
X298395Y5868132D01*
X303232D01*
X308069Y5865713D01*
X310488Y5858457D01*
Y5848783D01*
X370329Y6394096D02*
X372747Y6398934D01*
X377584Y6403771D01*
X382421Y6406189D01*
X392095D01*
X396933Y6403771D01*
X401770Y6398934D01*
X404188Y6394096D01*
X406607Y6386841D01*
Y6374748D01*
X404188Y6367493D01*
X401770Y6362656D01*
X396933Y6357819D01*
X392095Y6355400D01*
X382421D01*
X377584Y6357819D01*
X372747Y6362656D01*
X370329Y6367493D01*
X322200Y6406189D02*
X346385Y6355400D01*
X356059Y6406189D02*
X322200D01*
X192322Y5639396D02*
X194741Y5644234D01*
X199578Y5649070D01*
X204415Y5651489D01*
X214089D01*
X218926Y5649070D01*
X223763Y5644234D01*
X226181Y5639396D01*
X228600Y5632141D01*
Y5620048D01*
X226181Y5612793D01*
X223763Y5607956D01*
X218926Y5603119D01*
X214089Y5600700D01*
X204415D01*
X199578Y5603119D01*
X194741Y5607956D01*
X192322Y5612793D01*
X173216Y5651489D02*
X146612D01*
X161123Y5632141D01*
X153867D01*
X149030Y5629722D01*
X146612Y5627304D01*
X144193Y5620048D01*
Y5615211D01*
X146612Y5607956D01*
X151449Y5603119D01*
X158705Y5600700D01*
X165960D01*
X173216Y5603119D01*
X175634Y5605537D01*
X178053Y5610374D01*
X978496Y6094178D02*
X983334Y6091759D01*
X988170Y6086922D01*
X990589Y6082085D01*
Y6072411D01*
X988170Y6067574D01*
X983334Y6062737D01*
X978496Y6060319D01*
X971241Y6057900D01*
X959148D01*
X951893Y6060319D01*
X947056Y6062737D01*
X942219Y6067574D01*
X939800Y6072411D01*
Y6082085D01*
X942219Y6086922D01*
X947056Y6091759D01*
X951893Y6094178D01*
X990589Y6132633D02*
X956730Y6108447D01*
Y6144725D01*
X990589Y6132633D02*
X939800D01*
X287296Y6036474D02*
X292134Y6034056D01*
X296970Y6029219D01*
X299389Y6024382D01*
Y6014708D01*
X296970Y6009870D01*
X292134Y6005033D01*
X287296Y6002615D01*
X280041Y6000196D01*
X267948D01*
X260693Y6002615D01*
X255855Y6005033D01*
X251019Y6009870D01*
X248600Y6014708D01*
Y6024382D01*
X251019Y6029219D01*
X255855Y6034056D01*
X260693Y6036474D01*
X292134Y6079766D02*
X296970Y6077347D01*
X299389Y6070092D01*
Y6065255D01*
X296970Y6057999D01*
X289715Y6053162D01*
X277622Y6050744D01*
X265530D01*
X255855Y6053162D01*
X251019Y6057999D01*
X248600Y6065255D01*
Y6067673D01*
X251019Y6074929D01*
X255855Y6079766D01*
X263111Y6082184D01*
X265530D01*
X272785Y6079766D01*
X277622Y6074929D01*
X280041Y6067673D01*
Y6065255D01*
X277622Y6057999D01*
X272785Y6053162D01*
X265530Y6050744D01*
X789222Y5750994D02*
X791641Y5755831D01*
X796478Y5760668D01*
X801315Y5763087D01*
X810989D01*
X815826Y5760668D01*
X820663Y5755831D01*
X823081Y5750994D01*
X825500Y5743739D01*
Y5731646D01*
X823081Y5724390D01*
X820663Y5719553D01*
X815826Y5714716D01*
X810989Y5712298D01*
X801315D01*
X796478Y5714716D01*
X791641Y5719553D01*
X789222Y5724390D01*
X772534Y5750994D02*
Y5753413D01*
X770116Y5758250D01*
X767697Y5760668D01*
X762860Y5763087D01*
X753186D01*
X748349Y5760668D01*
X745930Y5758250D01*
X743512Y5753413D01*
Y5748576D01*
X745930Y5743739D01*
X750767Y5736483D01*
X774953Y5712298D01*
X741093D01*
X258211Y8039092D02*
Y7988308D01*
X224356D01*
X173572Y8039092D02*
X190500Y8030628D01*
X207428Y8013700D01*
Y7996772D01*
X198964Y7988308D01*
X182036D01*
X173572Y7996772D01*
Y8005236D01*
X182036Y8013700D01*
X207428D01*
X156644Y8030628D02*
X148180Y8039092D01*
X131252D01*
X122789Y8030628D01*
Y7996772D01*
X131252Y7988308D01*
X148180D01*
X156644Y7996772D01*
Y8030628D01*
X464369Y8008885D02*
X472833Y8000421D01*
Y7983494D01*
X464369Y7975030D01*
X430514D01*
X422050Y7983494D01*
Y8000421D01*
X430514Y8008885D01*
X472833Y8059669D02*
X464369Y8042741D01*
X447442Y8025813D01*
X430514D01*
X422050Y8034277D01*
Y8051205D01*
X430514Y8059669D01*
X438978D01*
X447442Y8051205D01*
Y8025813D01*
X472833Y8076596D02*
Y8110452D01*
X464369D01*
X430514Y8076596D01*
X422050D01*
X647708Y8174589D02*
X698492D01*
Y8199981D01*
X690028Y8208444D01*
X673100D01*
X664636Y8199981D01*
Y8174589D01*
Y8191517D02*
X647708Y8208444D01*
X698492Y8259228D02*
X690028Y8242300D01*
X673100Y8225372D01*
X656172D01*
X647708Y8233836D01*
Y8250764D01*
X656172Y8259228D01*
X664636D01*
X673100Y8250764D01*
Y8225372D01*
X698492Y8276156D02*
Y8310011D01*
X690028D01*
X656172Y8276156D01*
X647708D01*
X957267Y7524981D02*
X906483D01*
Y7499589D01*
X914947Y7491125D01*
X931875D01*
X940339Y7499589D01*
Y7524981D01*
Y7508053D02*
X957267Y7491125D01*
X906483Y7440341D02*
X914947Y7457269D01*
X931875Y7474197D01*
X948803D01*
X957267Y7465733D01*
Y7448805D01*
X948803Y7440341D01*
X940339D01*
X931875Y7448805D01*
Y7474197D01*
X906483Y7389558D02*
X914947Y7406486D01*
X931875Y7423414D01*
X948803D01*
X957267Y7414950D01*
Y7398022D01*
X948803Y7389558D01*
X940339D01*
X931875Y7398022D01*
Y7423414D01*
X527708Y8056261D02*
X578492D01*
Y8081653D01*
X570028Y8090117D01*
X553100D01*
X544636Y8081653D01*
Y8056261D01*
Y8073189D02*
X527708Y8090117D01*
X578492Y8140900D02*
X570028Y8123972D01*
X553100Y8107044D01*
X536172D01*
X527708Y8115509D01*
Y8132436D01*
X536172Y8140900D01*
X544636D01*
X553100Y8132436D01*
Y8107044D01*
X578492Y8191684D02*
Y8157828D01*
X553100D01*
X561564Y8174756D01*
Y8183220D01*
X553100Y8191684D01*
X536172D01*
X527708Y8183220D01*
Y8166292D01*
X536172Y8157828D01*
X872108Y8056261D02*
X922892D01*
Y8081653D01*
X914428Y8090117D01*
X897500D01*
X889036Y8081653D01*
Y8056261D01*
Y8073189D02*
X872108Y8090117D01*
X922892Y8140900D02*
X914428Y8123972D01*
X897500Y8107044D01*
X880572D01*
X872108Y8115509D01*
Y8132436D01*
X880572Y8140900D01*
X889036D01*
X897500Y8132436D01*
Y8107044D01*
X872108Y8183220D02*
X922892D01*
X897500Y8157828D01*
Y8191684D01*
X934683Y7763911D02*
X883900D01*
Y7738519D01*
X892363Y7730056D01*
X909291D01*
X917755Y7738519D01*
Y7763911D01*
Y7746983D02*
X934683Y7730056D01*
X883900Y7679272D02*
X892363Y7696200D01*
X909291Y7713128D01*
X926219D01*
X934683Y7704664D01*
Y7687736D01*
X926219Y7679272D01*
X917755D01*
X909291Y7687736D01*
Y7713128D01*
X892363Y7662344D02*
X883900Y7653880D01*
Y7636952D01*
X892363Y7628489D01*
X900828D01*
X909291Y7636952D01*
Y7645417D01*
Y7636952D01*
X917755Y7628489D01*
X926219D01*
X934683Y7636952D01*
Y7653880D01*
X926219Y7662344D01*
X1048692Y8115508D02*
X997908D01*
Y8090116D01*
X1006372Y8081653D01*
X1023300D01*
X1031764Y8090116D01*
Y8115508D01*
Y8098580D02*
X1048692Y8081653D01*
X997908Y8030869D02*
X1006372Y8047797D01*
X1023300Y8064725D01*
X1040228D01*
X1048692Y8056261D01*
Y8039333D01*
X1040228Y8030869D01*
X1031764D01*
X1023300Y8039333D01*
Y8064725D01*
X1048692Y8013941D02*
Y7997013D01*
Y8005477D01*
X997908D01*
X1006372Y8013941D01*
X958928Y8475111D02*
X1009712D01*
Y8449719D01*
X1001248Y8441256D01*
X984320D01*
X975856Y8449719D01*
Y8475111D01*
X1009712Y8390472D02*
X1001248Y8407400D01*
X984320Y8424328D01*
X967393D01*
X958928Y8415864D01*
Y8398936D01*
X967393Y8390472D01*
X975856D01*
X984320Y8398936D01*
Y8424328D01*
X1001248Y8373544D02*
X1009712Y8365080D01*
Y8348152D01*
X1001248Y8339689D01*
X967393D01*
X958928Y8348152D01*
Y8365080D01*
X967393Y8373544D01*
X1001248D01*
X1341947Y1943108D02*
Y1993892D01*
X1316555D01*
X1308092Y1985428D01*
Y1968500D01*
X1316555Y1960036D01*
X1341947D01*
X1257308Y1993892D02*
X1291164D01*
Y1968500D01*
X1274236Y1976964D01*
X1265772D01*
X1257308Y1968500D01*
Y1951572D01*
X1265772Y1943108D01*
X1282700D01*
X1291164Y1951572D01*
X1240380Y1943108D02*
X1223452D01*
X1231916D01*
Y1993892D01*
X1240380Y1985428D01*
X1350411Y2857508D02*
Y2908292D01*
X1325019D01*
X1316556Y2899828D01*
Y2882900D01*
X1325019Y2874436D01*
X1350411D01*
X1265772Y2908292D02*
X1299628D01*
Y2882900D01*
X1282700Y2891364D01*
X1274236D01*
X1265772Y2882900D01*
Y2865972D01*
X1274236Y2857508D01*
X1291164D01*
X1299628Y2865972D01*
X1248844Y2899828D02*
X1240380Y2908292D01*
X1223452D01*
X1214989Y2899828D01*
Y2865972D01*
X1223452Y2857508D01*
X1240380D01*
X1248844Y2865972D01*
Y2899828D01*
X1465200Y647701D02*
G03*
X1465200Y647701I-500000J0D01*
G01*
X-122747Y253993D02*
Y203209D01*
X-97355D01*
X-88892Y211673D01*
Y228601D01*
X-97355Y237065D01*
X-122747D01*
X-46572Y253993D02*
Y203209D01*
X-71964Y228601D01*
X-38108D01*
X-21180Y253993D02*
X-4252D01*
X-12716D01*
Y203209D01*
X-21180Y211673D01*
X-131211Y1135693D02*
Y1084909D01*
X-105819D01*
X-97356Y1093373D01*
Y1110301D01*
X-105819Y1118765D01*
X-131211D01*
X-55036Y1135693D02*
Y1084909D01*
X-80428Y1110301D01*
X-46572D01*
X-29644Y1093373D02*
X-21180Y1084909D01*
X-4252D01*
X4211Y1093373D01*
Y1127229D01*
X-4252Y1135693D01*
X-21180D01*
X-29644Y1127229D01*
Y1093373D01*
X1655711Y1150301D02*
X1691988D01*
X1699244Y1147882D01*
X1704081Y1143045D01*
X1706500Y1135790D01*
Y1130953D01*
X1704081Y1123697D01*
X1699244Y1118860D01*
X1691988Y1116442D01*
X1655711D01*
Y1078229D02*
X1689570Y1102414D01*
Y1066136D01*
X1655711Y1078229D02*
X1706500D01*
X1665385Y1057188D02*
X1662966Y1052350D01*
X1655711Y1045095D01*
X1706500D01*
X1814278Y443905D02*
X1811859Y439067D01*
X1807022Y434231D01*
X1802185Y431812D01*
X1792511D01*
X1787674Y434231D01*
X1782837Y439067D01*
X1780419Y443905D01*
X1778000Y451160D01*
Y463253D01*
X1780419Y470508D01*
X1782837Y475346D01*
X1787674Y480182D01*
X1792511Y482601D01*
X1802185D01*
X1807022Y480182D01*
X1811859Y475346D01*
X1814278Y470508D01*
X1852733Y431812D02*
X1828547Y465671D01*
X1864825D01*
X1852733Y431812D02*
Y482601D01*
X1878611Y431812D02*
X1905215D01*
X1890703Y451160D01*
X1897959D01*
X1902796Y453579D01*
X1905215Y455997D01*
X1907633Y463253D01*
Y468090D01*
X1905215Y475346D01*
X1900377Y480182D01*
X1893122Y482601D01*
X1885866D01*
X1878611Y480182D01*
X1876192Y477764D01*
X1873774Y472927D01*
X1972778Y1218605D02*
X1970360Y1213767D01*
X1965522Y1208931D01*
X1960685Y1206512D01*
X1951011D01*
X1946174Y1208931D01*
X1941337Y1213767D01*
X1938919Y1218605D01*
X1936500Y1225860D01*
Y1237953D01*
X1938919Y1245208D01*
X1941337Y1250046D01*
X1946174Y1254882D01*
X1951011Y1257301D01*
X1960685D01*
X1965522Y1254882D01*
X1970360Y1250046D01*
X1972778Y1245208D01*
X2011233Y1206512D02*
X1987047Y1240371D01*
X2023325D01*
X2011233Y1206512D02*
Y1257301D01*
X2034692Y1218605D02*
Y1216186D01*
X2037111Y1211349D01*
X2039529Y1208931D01*
X2044366Y1206512D01*
X2054041D01*
X2058878Y1208931D01*
X2061296Y1211349D01*
X2063715Y1216186D01*
Y1221023D01*
X2061296Y1225860D01*
X2056459Y1233116D01*
X2032274Y1257301D01*
X2066133D01*
D52*
X129630Y7329640D02*
G03*
X129630Y7329640I-8980J0D01*
G01*
D53*
X-138430Y7475690D02*
Y7570940D01*
Y7475690D02*
X-54610Y7391870D01*
X300990D01*
X381000Y7471880D01*
Y7576020D01*
X-139700Y7718260D02*
Y7822400D01*
X-59690Y7902410D01*
X295910D01*
X379730Y7818590D01*
Y7723340D02*
Y7818590D01*
D54*
X345647Y7287540D02*
Y7319280D01*
X351995Y7325628D01*
X364691D01*
X371039Y7319280D01*
Y7287540D01*
X409127D02*
X396431Y7293888D01*
X383735Y7306584D01*
Y7319280D01*
X390083Y7325628D01*
X402779D01*
X409127Y7319280D01*
Y7312932D01*
X402779Y7306584D01*
X383735D01*
X421823Y7293888D02*
X428171Y7287540D01*
X440867D01*
X447215Y7293888D01*
Y7319280D01*
X440867Y7325628D01*
X428171D01*
X421823Y7319280D01*
Y7293888D01*
X729655Y7884575D02*
Y7922662D01*
X710611D01*
X704263Y7916314D01*
Y7903618D01*
X710611Y7897270D01*
X729655D01*
X716959D02*
X704263Y7884575D01*
X666175Y7922662D02*
X678871Y7916314D01*
X691567Y7903618D01*
Y7890922D01*
X685219Y7884575D01*
X672523D01*
X666175Y7890922D01*
Y7897270D01*
X672523Y7903618D01*
X691567D01*
X628087Y7884575D02*
X653479D01*
X628087Y7909966D01*
Y7916314D01*
X634435Y7922662D01*
X647131D01*
X653479Y7916314D01*
X-49463Y7194796D02*
Y7232884D01*
X-68507D01*
X-74855Y7226536D01*
Y7213840D01*
X-68507Y7207492D01*
X-49463D01*
X-112943Y7232884D02*
X-100247Y7226536D01*
X-87551Y7213840D01*
Y7201144D01*
X-93899Y7194796D01*
X-106595D01*
X-112943Y7201144D01*
Y7207492D01*
X-106595Y7213840D01*
X-87551D01*
X-125639Y7194796D02*
X-138334D01*
X-131987D01*
Y7232884D01*
X-125639Y7226536D01*
X-50808Y7327896D02*
X-44460Y7334244D01*
X-31764D01*
X-25416Y7327896D01*
Y7302504D01*
X-31764Y7296156D01*
X-44460D01*
X-50808Y7302504D01*
X-88896Y7334244D02*
X-76200Y7327896D01*
X-63504Y7315200D01*
Y7302504D01*
X-69852Y7296156D01*
X-82548D01*
X-88896Y7302504D01*
Y7308852D01*
X-82548Y7315200D01*
X-63504D01*
X-126984Y7334244D02*
X-114288Y7327896D01*
X-101592Y7315200D01*
Y7302504D01*
X-107940Y7296156D01*
X-120636D01*
X-126984Y7302504D01*
Y7308852D01*
X-120636Y7315200D01*
X-101592D01*
X51042Y7226536D02*
X57390Y7232884D01*
X70086D01*
X76434Y7226536D01*
Y7201144D01*
X70086Y7194796D01*
X57390D01*
X51042Y7201144D01*
X12954Y7232884D02*
X25650Y7226536D01*
X38346Y7213840D01*
Y7201144D01*
X31998Y7194796D01*
X19302D01*
X12954Y7201144D01*
Y7207492D01*
X19302Y7213840D01*
X38346D01*
X-25134Y7232884D02*
X258D01*
Y7213840D01*
X-12438Y7220188D01*
X-18786D01*
X-25134Y7213840D01*
Y7201144D01*
X-18786Y7194796D01*
X-6090D01*
X258Y7201144D01*
X405122Y7226296D02*
X411470Y7232644D01*
X424166D01*
X430514Y7226296D01*
Y7200904D01*
X424166Y7194556D01*
X411470D01*
X405122Y7200904D01*
X367034Y7232644D02*
X379730Y7226296D01*
X392426Y7213600D01*
Y7200904D01*
X386078Y7194556D01*
X373382D01*
X367034Y7200904D01*
Y7207252D01*
X373382Y7213600D01*
X392426D01*
X335294Y7194556D02*
Y7232644D01*
X354338Y7213600D01*
X328946D01*
X977892Y7295496D02*
X984240Y7301844D01*
X996936D01*
X1003284Y7295496D01*
Y7270104D01*
X996936Y7263756D01*
X984240D01*
X977892Y7270104D01*
X939804Y7301844D02*
X952500Y7295496D01*
X965196Y7282800D01*
Y7270104D01*
X958848Y7263756D01*
X946152D01*
X939804Y7270104D01*
Y7276452D01*
X946152Y7282800D01*
X965196D01*
X927108Y7295496D02*
X920760Y7301844D01*
X908064D01*
X901716Y7295496D01*
Y7289148D01*
X908064Y7282800D01*
X914412D01*
X908064D01*
X901716Y7276452D01*
Y7270104D01*
X908064Y7263756D01*
X920760D01*
X927108Y7270104D01*
D55*
X1719000Y975330D02*
G03*
X1719000Y975330I-12500J0D01*
G01*
%TF.MD5,598c70284d09378b699a68bb8692a305*%
M02*
