%TF.GenerationSoftware,Altium Limited,Altium Designer,22.6.1 (34)*%
G04 Layer_Color=128*
%FSLAX45Y45*%
%MOMM*%
%TF.SameCoordinates,41C29604-6FBD-4392-AD62-CF0DA8D1722B*%
%TF.FilePolarity,Positive*%
%TF.FileFunction,Paste,Bot*%
%TF.Part,CustomerPanel*%
G01*
G75*
%TA.AperFunction,SMDPad,CuDef*%
%ADD11R,0.50000X0.60000*%
%ADD12R,0.60000X0.50000*%
%ADD13R,1.30000X0.40000*%
G04:AMPARAMS|DCode=32|XSize=1.19mm|YSize=0.4mm|CornerRadius=0.1mm|HoleSize=0mm|Usage=FLASHONLY|Rotation=90.000|XOffset=0mm|YOffset=0mm|HoleType=Round|Shape=RoundedRectangle|*
%AMROUNDEDRECTD32*
21,1,1.19000,0.20000,0,0,90.0*
21,1,0.99000,0.40000,0,0,90.0*
1,1,0.20000,0.10000,0.49500*
1,1,0.20000,0.10000,-0.49500*
1,1,0.20000,-0.10000,-0.49500*
1,1,0.20000,-0.10000,0.49500*
%
%ADD32ROUNDEDRECTD32*%
%TA.AperFunction,ConnectorPad*%
%ADD33R,0.60000X0.50000*%
%TA.AperFunction,SMDPad,CuDef*%
%ADD34R,0.15000X0.15000*%
%ADD35C,0.65000*%
%ADD36C,0.46000*%
%ADD37C,0.60000*%
%ADD38C,0.25400*%
G04:AMPARAMS|DCode=39|XSize=0.9017mm|YSize=0.7112mm|CornerRadius=0mm|HoleSize=0mm|Usage=FLASHONLY|Rotation=45.000|XOffset=0mm|YOffset=0mm|HoleType=Round|Shape=Rectangle|*
%AMROTATEDRECTD39*
4,1,4,-0.06735,-0.57025,-0.57025,-0.06735,0.06735,0.57025,0.57025,0.06735,-0.06735,-0.57025,0.0*
%
%ADD39ROTATEDRECTD39*%

G04:AMPARAMS|DCode=40|XSize=0.9017mm|YSize=0.7112mm|CornerRadius=0mm|HoleSize=0mm|Usage=FLASHONLY|Rotation=135.000|XOffset=0mm|YOffset=0mm|HoleType=Round|Shape=Rectangle|*
%AMROTATEDRECTD40*
4,1,4,0.57025,-0.06735,0.06735,-0.57025,-0.57025,0.06735,-0.06735,0.57025,0.57025,-0.06735,0.0*
%
%ADD40ROTATEDRECTD40*%

%ADD41R,0.71120X0.80010*%
%ADD42R,3.12420X0.71120*%
%TA.AperFunction,ConnectorPad*%
%ADD46R,1.30000X0.70000*%
%ADD47R,0.70000X1.25000*%
%TA.AperFunction,NonConductor*%
%ADD81R,0.82000X0.82000*%
%TA.AperFunction,SMDPad,CuDef*%
%ADD82O,0.19000X0.55000*%
%ADD83O,0.55000X0.19000*%
G36*
X513712Y5980190D02*
X517629Y5979783D01*
X521519Y5979176D01*
X525374Y5978371D01*
X529182Y5977369D01*
X532934Y5976174D01*
X536620Y5974789D01*
X540230Y5973217D01*
X543755Y5971462D01*
X547185Y5969529D01*
X550512Y5967423D01*
X553727Y5965149D01*
X556822Y5962714D01*
X559788Y5960124D01*
X562617Y5957386D01*
X565302Y5954506D01*
X567837Y5951492D01*
X570214Y5948353D01*
X572427Y5945097D01*
X574471Y5941731D01*
X576340Y5938265D01*
X578029Y5934708D01*
X579534Y5931069D01*
X580850Y5927358D01*
X581975Y5923585D01*
X582905Y5919759D01*
X583639Y5915890D01*
X584173Y5911989D01*
X584507Y5908065D01*
X584640Y5904130D01*
X584608Y5902300D01*
Y5898300D01*
X584430Y5895710D01*
X583981Y5891923D01*
X583349Y5888162D01*
X582537Y5884436D01*
X581545Y5880753D01*
X580377Y5877122D01*
X579035Y5873552D01*
X577523Y5870051D01*
X575843Y5866627D01*
X574000Y5863288D01*
X571997Y5860042D01*
X569841Y5856896D01*
X567535Y5853858D01*
X565085Y5850935D01*
X562497Y5848134D01*
X559777Y5845460D01*
X556931Y5842922D01*
X553965Y5840523D01*
X550888Y5838271D01*
X547705Y5836169D01*
X544424Y5834224D01*
X541054Y5832439D01*
X537601Y5830819D01*
X534074Y5829368D01*
X530481Y5828089D01*
X526831Y5826984D01*
X523131Y5826057D01*
X519391Y5825310D01*
X515619Y5824744D01*
X511825Y5824361D01*
X510608Y5824300D01*
X504566D01*
X500487Y5824514D01*
X496424Y5824941D01*
X492389Y5825580D01*
X488393Y5826429D01*
X484448Y5827486D01*
X480563Y5828749D01*
X476749Y5830213D01*
X473017Y5831874D01*
X469377Y5833728D01*
X465840Y5835771D01*
X462414Y5837996D01*
X459109Y5840397D01*
X455934Y5842968D01*
X452898Y5845701D01*
X450010Y5848590D01*
X447276Y5851625D01*
X444705Y5854800D01*
X442304Y5858105D01*
X440080Y5861531D01*
X438037Y5865069D01*
X436183Y5868708D01*
X434521Y5872440D01*
X433057Y5876254D01*
X431795Y5880139D01*
X430737Y5884084D01*
X429888Y5888080D01*
X429249Y5892115D01*
X428822Y5896178D01*
X428608Y5900257D01*
Y5902300D01*
Y5905300D01*
X428687Y5907585D01*
X429010Y5911402D01*
X429521Y5915199D01*
X430219Y5918966D01*
X431103Y5922694D01*
X432169Y5926374D01*
X433416Y5929996D01*
X434841Y5933553D01*
X436440Y5937034D01*
X438209Y5940433D01*
X440144Y5943739D01*
X442240Y5946947D01*
X444492Y5950046D01*
X446894Y5953030D01*
X449441Y5955893D01*
X452127Y5958625D01*
X454944Y5961222D01*
X457886Y5963676D01*
X460945Y5965982D01*
X464116Y5968133D01*
X467388Y5970125D01*
X470755Y5971954D01*
X474208Y5973613D01*
X477739Y5975100D01*
X481339Y5976410D01*
X485000Y5977541D01*
X488712Y5978489D01*
X492466Y5979253D01*
X496254Y5979831D01*
X500065Y5980220D01*
X501608Y5980300D01*
Y5950300D01*
X500821Y5950232D01*
X498547Y5949922D01*
X496291Y5949503D01*
X494058Y5948975D01*
X491852Y5948340D01*
X489681Y5947599D01*
X487547Y5946754D01*
X485456Y5945808D01*
X483414Y5944761D01*
X481425Y5943617D01*
X479493Y5942378D01*
X477623Y5941048D01*
X475820Y5939629D01*
X474087Y5938124D01*
X472429Y5936538D01*
X470849Y5934873D01*
X469352Y5933135D01*
X467940Y5931325D01*
X466617Y5929450D01*
X465386Y5927513D01*
X464251Y5925520D01*
X463212Y5923473D01*
X462274Y5921379D01*
X461438Y5919242D01*
X460706Y5917067D01*
X460080Y5914859D01*
X459561Y5912623D01*
X459151Y5910366D01*
X458850Y5908091D01*
X458659Y5905804D01*
X458608Y5904300D01*
Y5898300D01*
X458706Y5897178D01*
X459007Y5894945D01*
X459411Y5892728D01*
X459918Y5890533D01*
X460526Y5888363D01*
X461235Y5886224D01*
X462043Y5884121D01*
X462947Y5882057D01*
X463946Y5880038D01*
X465039Y5878067D01*
X466222Y5876150D01*
X467492Y5874289D01*
X468848Y5872489D01*
X470287Y5870755D01*
X471804Y5869089D01*
X473397Y5867496D01*
X475063Y5865979D01*
X476797Y5864540D01*
X478597Y5863185D01*
X480457Y5861914D01*
X482375Y5860731D01*
X484346Y5859639D01*
X486365Y5858639D01*
X488429Y5857735D01*
X490532Y5856927D01*
X492671Y5856218D01*
X494841Y5855610D01*
X497036Y5855103D01*
X499252Y5854699D01*
X501486Y5854398D01*
X502608Y5854300D01*
X507865D01*
X510375Y5854432D01*
X512875Y5854694D01*
X515358Y5855088D01*
X517817Y5855610D01*
X520245Y5856261D01*
X522636Y5857038D01*
X524983Y5857938D01*
X527279Y5858961D01*
X529519Y5860102D01*
X531696Y5861359D01*
X533805Y5862728D01*
X535838Y5864206D01*
X537792Y5865788D01*
X539660Y5867470D01*
X541438Y5869248D01*
X543120Y5871116D01*
X544702Y5873069D01*
X546180Y5875103D01*
X547549Y5877211D01*
X548806Y5879388D01*
X549947Y5881628D01*
X550969Y5883924D01*
X551870Y5886271D01*
X552647Y5888662D01*
X553298Y5891091D01*
X553821Y5893549D01*
X554214Y5896032D01*
X554476Y5898533D01*
X554608Y5901043D01*
Y5902300D01*
Y5903300D01*
X554610Y5904085D01*
X554496Y5906409D01*
X554269Y5908724D01*
X553929Y5911026D01*
X553477Y5913308D01*
X552914Y5915566D01*
X552242Y5917794D01*
X551461Y5919985D01*
X550575Y5922136D01*
X549584Y5924242D01*
X548492Y5926296D01*
X547300Y5928295D01*
X546013Y5930233D01*
X544632Y5932105D01*
X543161Y5933908D01*
X541605Y5935637D01*
X539965Y5937288D01*
X538247Y5938857D01*
X536455Y5940340D01*
X534591Y5941734D01*
X532662Y5943035D01*
X530672Y5944240D01*
X528626Y5945347D01*
X526527Y5946352D01*
X524382Y5947254D01*
X522196Y5948050D01*
X519974Y5948738D01*
X517720Y5949317D01*
X515441Y5949784D01*
X513141Y5950140D01*
X511608Y5950300D01*
Y5980300D01*
X513712Y5980190D01*
D02*
G37*
G36*
X664742Y4315429D02*
X668659Y4315022D01*
X672549Y4314415D01*
X676404Y4313610D01*
X680212Y4312608D01*
X683964Y4311413D01*
X687650Y4310028D01*
X691260Y4308456D01*
X694785Y4306701D01*
X698215Y4304768D01*
X701542Y4302662D01*
X704757Y4300388D01*
X707852Y4297953D01*
X710817Y4295363D01*
X713647Y4292625D01*
X716332Y4289745D01*
X718867Y4286731D01*
X721244Y4283592D01*
X723457Y4280336D01*
X725501Y4276970D01*
X727370Y4273504D01*
X729059Y4269947D01*
X730563Y4266308D01*
X731880Y4262597D01*
X733005Y4258824D01*
X733935Y4254998D01*
X734669Y4251129D01*
X735203Y4247227D01*
X735537Y4243304D01*
X735670Y4239369D01*
X735638Y4237539D01*
Y4233539D01*
X735460Y4230949D01*
X735011Y4227162D01*
X734379Y4223400D01*
X733566Y4219674D01*
X732575Y4215991D01*
X731407Y4212361D01*
X730065Y4208791D01*
X728553Y4205290D01*
X726873Y4201866D01*
X725030Y4198527D01*
X723027Y4195280D01*
X720871Y4192135D01*
X718565Y4189097D01*
X716115Y4186174D01*
X713527Y4183372D01*
X710807Y4180699D01*
X707960Y4178161D01*
X704995Y4175762D01*
X701918Y4173510D01*
X698735Y4171408D01*
X695454Y4169463D01*
X692084Y4167678D01*
X688631Y4166058D01*
X685104Y4164607D01*
X681511Y4163327D01*
X677860Y4162223D01*
X674161Y4161296D01*
X670421Y4160549D01*
X666649Y4159983D01*
X662855Y4159600D01*
X661638Y4159539D01*
X655596D01*
X651517Y4159753D01*
X647454Y4160180D01*
X643419Y4160818D01*
X639423Y4161668D01*
X635478Y4162725D01*
X631593Y4163987D01*
X627779Y4165451D01*
X624047Y4167113D01*
X620407Y4168967D01*
X616869Y4171010D01*
X613444Y4173235D01*
X610139Y4175636D01*
X606964Y4178207D01*
X603928Y4180940D01*
X601040Y4183828D01*
X598306Y4186864D01*
X595735Y4190039D01*
X593334Y4193344D01*
X591110Y4196770D01*
X589067Y4200307D01*
X587212Y4203947D01*
X585551Y4207679D01*
X584087Y4211492D01*
X582825Y4215378D01*
X581767Y4219323D01*
X580918Y4223319D01*
X580279Y4227354D01*
X579852Y4231416D01*
X579638Y4235496D01*
Y4237539D01*
Y4240539D01*
X579717Y4242823D01*
X580040Y4246641D01*
X580551Y4250438D01*
X581249Y4254205D01*
X582132Y4257933D01*
X583199Y4261613D01*
X584446Y4265235D01*
X585871Y4268792D01*
X587470Y4272273D01*
X589239Y4275672D01*
X591174Y4278978D01*
X593270Y4282186D01*
X595522Y4285285D01*
X597924Y4288269D01*
X600471Y4291132D01*
X603157Y4293864D01*
X605974Y4296461D01*
X608916Y4298915D01*
X611975Y4301221D01*
X615146Y4303372D01*
X618418Y4305364D01*
X621785Y4307193D01*
X625238Y4308852D01*
X628769Y4310339D01*
X632369Y4311649D01*
X636030Y4312780D01*
X639742Y4313728D01*
X643496Y4314492D01*
X647283Y4315070D01*
X651095Y4315459D01*
X652638Y4315539D01*
Y4285539D01*
X651851Y4285471D01*
X649577Y4285161D01*
X647321Y4284742D01*
X645088Y4284214D01*
X642882Y4283579D01*
X640710Y4282838D01*
X638577Y4281993D01*
X636486Y4281047D01*
X634444Y4280000D01*
X632455Y4278856D01*
X630523Y4277617D01*
X628653Y4276287D01*
X626850Y4274868D01*
X625117Y4273363D01*
X623459Y4271777D01*
X621879Y4270112D01*
X620382Y4268374D01*
X618970Y4266564D01*
X617647Y4264689D01*
X616416Y4262752D01*
X615281Y4260758D01*
X614242Y4258712D01*
X613304Y4256617D01*
X612468Y4254480D01*
X611736Y4252305D01*
X611110Y4250098D01*
X610591Y4247862D01*
X610181Y4245604D01*
X609880Y4243330D01*
X609689Y4241043D01*
X609638Y4239539D01*
Y4233539D01*
X609736Y4232417D01*
X610037Y4230184D01*
X610441Y4227967D01*
X610948Y4225772D01*
X611556Y4223602D01*
X612265Y4221463D01*
X613072Y4219360D01*
X613977Y4217296D01*
X614976Y4215277D01*
X616069Y4213306D01*
X617251Y4211388D01*
X618522Y4209528D01*
X619878Y4207728D01*
X621317Y4205994D01*
X622834Y4204328D01*
X624427Y4202735D01*
X626093Y4201218D01*
X627827Y4199779D01*
X629627Y4198423D01*
X631487Y4197152D01*
X633405Y4195970D01*
X635376Y4194877D01*
X637395Y4193878D01*
X639459Y4192973D01*
X641562Y4192166D01*
X643701Y4191457D01*
X645870Y4190849D01*
X648066Y4190342D01*
X650282Y4189938D01*
X652516Y4189637D01*
X653638Y4189539D01*
X658895D01*
X661405Y4189670D01*
X663905Y4189933D01*
X666388Y4190326D01*
X668847Y4190849D01*
X671275Y4191500D01*
X673666Y4192276D01*
X676013Y4193177D01*
X678309Y4194200D01*
X680549Y4195341D01*
X682726Y4196598D01*
X684835Y4197967D01*
X686868Y4199444D01*
X688822Y4201027D01*
X690690Y4202709D01*
X692468Y4204486D01*
X694150Y4206354D01*
X695732Y4208308D01*
X697209Y4210342D01*
X698578Y4212450D01*
X699836Y4214627D01*
X700977Y4216867D01*
X701999Y4219163D01*
X702900Y4221510D01*
X703677Y4223901D01*
X704328Y4226329D01*
X704851Y4228788D01*
X705244Y4231271D01*
X705506Y4233771D01*
X705638Y4236282D01*
Y4237539D01*
Y4238539D01*
X705639Y4239324D01*
X705526Y4241648D01*
X705299Y4243963D01*
X704959Y4246265D01*
X704507Y4248547D01*
X703944Y4250805D01*
X703272Y4253032D01*
X702491Y4255224D01*
X701605Y4257375D01*
X700614Y4259480D01*
X699522Y4261535D01*
X698330Y4263534D01*
X697043Y4265472D01*
X695662Y4267344D01*
X694191Y4269147D01*
X692635Y4270876D01*
X690995Y4272527D01*
X689277Y4274096D01*
X687485Y4275579D01*
X685621Y4276973D01*
X683692Y4278274D01*
X681702Y4279479D01*
X679655Y4280586D01*
X677557Y4281591D01*
X675412Y4282493D01*
X673226Y4283289D01*
X671003Y4283977D01*
X668750Y4284556D01*
X666471Y4285023D01*
X664171Y4285379D01*
X662638Y4285539D01*
Y4315539D01*
X664742Y4315429D01*
D02*
G37*
D11*
X388558Y4378839D02*
D03*
X288558D02*
D03*
X468036Y3840199D02*
D03*
X568041D02*
D03*
X215097Y6375400D02*
D03*
X115098D02*
D03*
X139700Y5692298D02*
D03*
X239700D02*
D03*
X170650Y7314499D02*
D03*
X70650D02*
D03*
X673100Y7835900D02*
D03*
X773100D02*
D03*
X864400Y7213600D02*
D03*
X964400D02*
D03*
X608100D02*
D03*
X508100D02*
D03*
X265900D02*
D03*
X165900D02*
D03*
X1891500Y1130301D02*
D03*
X1791500D02*
D03*
Y584201D02*
D03*
X1891500D02*
D03*
D12*
X10038Y4419440D02*
D03*
Y4319435D02*
D03*
X746638Y3790196D02*
D03*
Y3890196D02*
D03*
X365638Y4009741D02*
D03*
Y3909741D02*
D03*
X367238Y4263356D02*
D03*
Y4163356D02*
D03*
X189338Y3693836D02*
D03*
Y3793836D02*
D03*
X10038Y3793841D02*
D03*
Y3693836D02*
D03*
X114300Y5561800D02*
D03*
Y5461800D02*
D03*
X228600Y5561800D02*
D03*
Y5461800D02*
D03*
X774700Y5538000D02*
D03*
Y5638000D02*
D03*
X889000Y5538000D02*
D03*
Y5638000D02*
D03*
X1003300Y5537200D02*
D03*
Y5637200D02*
D03*
X203200Y6075964D02*
D03*
Y5975964D02*
D03*
Y6285702D02*
D03*
Y6185703D02*
D03*
X114300D02*
D03*
Y6285702D02*
D03*
X863600Y6045200D02*
D03*
Y6145200D02*
D03*
X12700Y6170605D02*
D03*
Y6270605D02*
D03*
X609600Y5561800D02*
D03*
Y5461800D02*
D03*
X405108Y5561800D02*
D03*
Y5461800D02*
D03*
X202797Y5786169D02*
D03*
Y5886169D02*
D03*
X12700Y5981700D02*
D03*
Y6081705D02*
D03*
X1003300Y7664380D02*
D03*
Y7764380D02*
D03*
X1004320Y7469855D02*
D03*
Y7569855D02*
D03*
X431800Y7759700D02*
D03*
Y7859700D02*
D03*
X573100Y7935900D02*
D03*
Y7835900D02*
D03*
X672694Y7978972D02*
D03*
Y8078972D02*
D03*
X773100Y8076400D02*
D03*
Y7976400D02*
D03*
X865200Y7936700D02*
D03*
Y7836700D02*
D03*
D13*
X435631Y6145301D02*
D03*
Y6210300D02*
D03*
X617129D02*
D03*
X435631Y6275299D02*
D03*
X617129D02*
D03*
Y6145301D02*
D03*
D32*
X59338Y4170039D02*
D03*
Y3978039D02*
D03*
X189338Y4170039D02*
D03*
X124338Y3978039D02*
D03*
X189338D02*
D03*
D33*
X-91562Y4134771D02*
D03*
Y4234776D02*
D03*
X-91562Y4009741D02*
D03*
Y3909736D02*
D03*
Y3793841D02*
D03*
Y3693836D02*
D03*
X-101600Y5901558D02*
D03*
Y5801558D02*
D03*
Y6170600D02*
D03*
Y6070600D02*
D03*
D34*
X657636Y4174536D02*
D03*
X506607Y5839298D02*
D03*
D35*
X754136Y4027537D02*
D03*
X561137D02*
D03*
X603106Y5692298D02*
D03*
X410107D02*
D03*
D36*
X759140Y4137539D02*
D03*
X556138D02*
D03*
X759140Y4301536D02*
D03*
X556138D02*
D03*
X608110Y5802300D02*
D03*
X405108D02*
D03*
X608110Y5966298D02*
D03*
X405108D02*
D03*
D37*
X657636Y4027537D02*
D03*
X506607Y5692298D02*
D03*
D38*
X63500Y5852358D02*
D03*
X12700D02*
D03*
X63500Y5801558D02*
D03*
X12700D02*
D03*
D39*
X-40640Y7810970D02*
D03*
X283210Y7484580D02*
D03*
D40*
X-41910D02*
D03*
X283210Y7809700D02*
D03*
D41*
X-63500Y7763980D02*
D03*
X304800D02*
D03*
X-63500Y7530300D02*
D03*
X304800D02*
D03*
D42*
X120650Y7831290D02*
D03*
Y7462990D02*
D03*
D46*
X952500Y7092700D02*
D03*
Y6902700D02*
D03*
D47*
X1796500Y975330D02*
D03*
X1891500D02*
D03*
X1986500D02*
D03*
Y735330D02*
D03*
X1796500D02*
D03*
D81*
X617102Y7424302D02*
D03*
X729099D02*
D03*
Y7536298D02*
D03*
X617102D02*
D03*
D82*
X573100Y7315300D02*
D03*
X623100D02*
D03*
X673100D02*
D03*
X723100D02*
D03*
X773100D02*
D03*
Y7645300D02*
D03*
X723100D02*
D03*
X673100D02*
D03*
X623100D02*
D03*
X573100D02*
D03*
D83*
X838100Y7380300D02*
D03*
Y7430300D02*
D03*
Y7480300D02*
D03*
Y7530300D02*
D03*
Y7580300D02*
D03*
X508100D02*
D03*
Y7530300D02*
D03*
Y7480300D02*
D03*
Y7430300D02*
D03*
Y7380300D02*
D03*
%TF.MD5,95db388168fa176642874f98ea215379*%
M02*
