%TF.GenerationSoftware,Altium Limited,Altium Designer,22.6.1 (34)*%
G04 Layer_Color=255*
%FSLAX45Y45*%
%MOMM*%
%TF.SameCoordinates,41C29604-6FBD-4392-AD62-CF0DA8D1722B*%
%TF.FilePolarity,Positive*%
%TF.FileFunction,Pads,Bot*%
%TF.Part,CustomerPanel*%
G01*
G75*
%TA.AperFunction,SMDPad,CuDef*%
%ADD11R,0.50000X0.60000*%
%ADD12R,0.60000X0.50000*%
%ADD13R,1.30000X0.40000*%
%TA.AperFunction,ComponentPad*%
%ADD25R,1.50000X1.50000*%
%ADD26C,1.50000*%
%ADD27C,0.80000*%
%ADD30C,1.52400*%
%ADD31R,1.52400X1.52400*%
%TA.AperFunction,SMDPad,CuDef*%
G04:AMPARAMS|DCode=32|XSize=1.19mm|YSize=0.4mm|CornerRadius=0.1mm|HoleSize=0mm|Usage=FLASHONLY|Rotation=90.000|XOffset=0mm|YOffset=0mm|HoleType=Round|Shape=RoundedRectangle|*
%AMROUNDEDRECTD32*
21,1,1.19000,0.20000,0,0,90.0*
21,1,0.99000,0.40000,0,0,90.0*
1,1,0.20000,0.10000,0.49500*
1,1,0.20000,0.10000,-0.49500*
1,1,0.20000,-0.10000,-0.49500*
1,1,0.20000,-0.10000,0.49500*
%
%ADD32ROUNDEDRECTD32*%
%TA.AperFunction,ConnectorPad*%
%ADD33R,0.60000X0.50000*%
%TA.AperFunction,SMDPad,CuDef*%
%ADD34R,0.15000X0.15000*%
%ADD35C,0.65000*%
%ADD36C,0.46000*%
%ADD37C,0.60000*%
%ADD38C,0.25400*%
G04:AMPARAMS|DCode=39|XSize=0.9017mm|YSize=0.7112mm|CornerRadius=0mm|HoleSize=0mm|Usage=FLASHONLY|Rotation=45.000|XOffset=0mm|YOffset=0mm|HoleType=Round|Shape=Rectangle|*
%AMROTATEDRECTD39*
4,1,4,-0.06735,-0.57025,-0.57025,-0.06735,0.06735,0.57025,0.57025,0.06735,-0.06735,-0.57025,0.0*
%
%ADD39ROTATEDRECTD39*%

G04:AMPARAMS|DCode=40|XSize=0.9017mm|YSize=0.7112mm|CornerRadius=0mm|HoleSize=0mm|Usage=FLASHONLY|Rotation=135.000|XOffset=0mm|YOffset=0mm|HoleType=Round|Shape=Rectangle|*
%AMROTATEDRECTD40*
4,1,4,0.57025,-0.06735,0.06735,-0.57025,-0.57025,0.06735,-0.06735,0.57025,0.57025,-0.06735,0.0*
%
%ADD40ROTATEDRECTD40*%

%ADD41R,0.71120X0.80010*%
%ADD42R,3.12420X0.71120*%
%ADD43R,2.05000X2.05000*%
%ADD44O,0.24000X0.60000*%
%ADD45O,0.60000X0.24000*%
%TA.AperFunction,ConnectorPad*%
%ADD46R,1.30000X0.70000*%
%ADD47R,0.70000X1.25000*%
D11*
X388558Y4378839D02*
D03*
X288558D02*
D03*
X468036Y3840199D02*
D03*
X568041D02*
D03*
X215097Y6375400D02*
D03*
X115098D02*
D03*
X139700Y5692298D02*
D03*
X239700D02*
D03*
X170650Y7314499D02*
D03*
X70650D02*
D03*
X673100Y7835900D02*
D03*
X773100D02*
D03*
X864400Y7213600D02*
D03*
X964400D02*
D03*
X608100D02*
D03*
X508100D02*
D03*
X265900D02*
D03*
X165900D02*
D03*
X1891500Y1130301D02*
D03*
X1791500D02*
D03*
Y584201D02*
D03*
X1891500D02*
D03*
D12*
X10038Y4419440D02*
D03*
Y4319435D02*
D03*
X746638Y3790196D02*
D03*
Y3890196D02*
D03*
X365638Y4009741D02*
D03*
Y3909741D02*
D03*
X367238Y4263356D02*
D03*
Y4163356D02*
D03*
X189338Y3693836D02*
D03*
Y3793836D02*
D03*
X10038Y3793841D02*
D03*
Y3693836D02*
D03*
X114300Y5561800D02*
D03*
Y5461800D02*
D03*
X228600Y5561800D02*
D03*
Y5461800D02*
D03*
X774700Y5538000D02*
D03*
Y5638000D02*
D03*
X889000Y5538000D02*
D03*
Y5638000D02*
D03*
X1003300Y5537200D02*
D03*
Y5637200D02*
D03*
X203200Y6075964D02*
D03*
Y5975964D02*
D03*
Y6285702D02*
D03*
Y6185703D02*
D03*
X114300D02*
D03*
Y6285702D02*
D03*
X863600Y6045200D02*
D03*
Y6145200D02*
D03*
X12700Y6170605D02*
D03*
Y6270605D02*
D03*
X609600Y5561800D02*
D03*
Y5461800D02*
D03*
X405108Y5561800D02*
D03*
Y5461800D02*
D03*
X202797Y5786169D02*
D03*
Y5886169D02*
D03*
X12700Y5981700D02*
D03*
Y6081705D02*
D03*
X1003300Y7664380D02*
D03*
Y7764380D02*
D03*
X1004320Y7469855D02*
D03*
Y7569855D02*
D03*
X431800Y7759700D02*
D03*
Y7859700D02*
D03*
X573100Y7935900D02*
D03*
Y7835900D02*
D03*
X672694Y7978972D02*
D03*
Y8078972D02*
D03*
X773100Y8076400D02*
D03*
Y7976400D02*
D03*
X865200Y7936700D02*
D03*
Y7836700D02*
D03*
D13*
X435631Y6145301D02*
D03*
Y6210300D02*
D03*
X617129D02*
D03*
X435631Y6275299D02*
D03*
X617129D02*
D03*
Y6145301D02*
D03*
D25*
X1000638Y4823339D02*
D03*
Y3502539D02*
D03*
X990600Y5232400D02*
D03*
Y6553200D02*
D03*
X723900Y7023100D02*
D03*
X469900Y8343900D02*
D03*
X1257300Y1765300D02*
D03*
Y3086100D02*
D03*
X1778000Y1320801D02*
D03*
Y1D02*
D03*
D26*
X746638Y4823339D02*
D03*
X492638D02*
D03*
X238638D02*
D03*
X-15362D02*
D03*
X746638Y3502539D02*
D03*
X492638D02*
D03*
X238638D02*
D03*
X-15362D02*
D03*
X736600Y5232400D02*
D03*
X482600D02*
D03*
X228600D02*
D03*
X-25400D02*
D03*
X736600Y6553200D02*
D03*
X482600D02*
D03*
X228600D02*
D03*
X-25400D02*
D03*
X-38100Y7023100D02*
D03*
X215900D02*
D03*
X469900D02*
D03*
X215900Y8343900D02*
D03*
X-38100D02*
D03*
X-12700Y1765300D02*
D03*
X241300D02*
D03*
X495300D02*
D03*
X749300D02*
D03*
X1003300D02*
D03*
Y3086100D02*
D03*
X749300D02*
D03*
X495300D02*
D03*
X241300D02*
D03*
X-12700D02*
D03*
X0Y1320801D02*
D03*
X254000D02*
D03*
X508000D02*
D03*
X762000D02*
D03*
X1016000D02*
D03*
X1270000D02*
D03*
X1524000D02*
D03*
X0Y1D02*
D03*
X254000D02*
D03*
X508000D02*
D03*
X762000D02*
D03*
X1016000D02*
D03*
X1270000D02*
D03*
X1524000D02*
D03*
D27*
X657636Y4237539D02*
D03*
X506607Y5902300D02*
D03*
D30*
X1215200Y647701D02*
D03*
D31*
X715200D02*
D03*
D32*
X59338Y4170039D02*
D03*
Y3978039D02*
D03*
X189338Y4170039D02*
D03*
X124338Y3978039D02*
D03*
X189338D02*
D03*
D33*
X-91562Y4134771D02*
D03*
Y4234776D02*
D03*
X-91562Y4009741D02*
D03*
Y3909736D02*
D03*
Y3793841D02*
D03*
Y3693836D02*
D03*
X-101600Y5901558D02*
D03*
Y5801558D02*
D03*
Y6170600D02*
D03*
Y6070600D02*
D03*
D34*
X657636Y4174536D02*
D03*
X506607Y5839298D02*
D03*
D35*
X754136Y4027537D02*
D03*
X561137D02*
D03*
X603106Y5692298D02*
D03*
X410107D02*
D03*
D36*
X759140Y4137539D02*
D03*
X556138D02*
D03*
X759140Y4301536D02*
D03*
X556138D02*
D03*
X608110Y5802300D02*
D03*
X405108D02*
D03*
X608110Y5966298D02*
D03*
X405108D02*
D03*
D37*
X657636Y4027537D02*
D03*
X506607Y5692298D02*
D03*
D38*
X63500Y5852358D02*
D03*
X12700D02*
D03*
X63500Y5801558D02*
D03*
X12700D02*
D03*
D39*
X-40640Y7810970D02*
D03*
X283210Y7484580D02*
D03*
D40*
X-41910D02*
D03*
X283210Y7809700D02*
D03*
D41*
X-63500Y7763980D02*
D03*
X304800D02*
D03*
X-63500Y7530300D02*
D03*
X304800D02*
D03*
D42*
X120650Y7831290D02*
D03*
Y7462990D02*
D03*
D43*
X673100Y7480300D02*
D03*
D44*
X573100Y7315300D02*
D03*
X623100D02*
D03*
X673100D02*
D03*
X723100D02*
D03*
X773100D02*
D03*
Y7645300D02*
D03*
X723100D02*
D03*
X673100D02*
D03*
X623100D02*
D03*
X573100D02*
D03*
D45*
X838100Y7380300D02*
D03*
Y7430300D02*
D03*
Y7480300D02*
D03*
Y7530300D02*
D03*
Y7580300D02*
D03*
X508100D02*
D03*
Y7530300D02*
D03*
Y7480300D02*
D03*
Y7430300D02*
D03*
Y7380300D02*
D03*
D46*
X952500Y7092700D02*
D03*
Y6902700D02*
D03*
D47*
X1796500Y975330D02*
D03*
X1891500D02*
D03*
X1986500D02*
D03*
Y735330D02*
D03*
X1796500D02*
D03*
%TF.MD5,fca8ec49ebb2f36303725a78cb383747*%
M02*
