%TF.GenerationSoftware,Altium Limited,Altium Designer,22.6.1 (34)*%
G04 Layer_Color=16711935*
%FSLAX45Y45*%
%MOMM*%
%TF.SameCoordinates,41C29604-6FBD-4392-AD62-CF0DA8D1722B*%
%TF.FilePolarity,Positive*%
%TF.FileFunction,Other,Mechanical_13*%
%TF.Part,CustomerPanel*%
G01*
G75*
%TA.AperFunction,NonConductor*%
%ADD48C,0.15240*%
%ADD49C,0.30000*%
%ADD50C,0.20000*%
%ADD51C,0.12700*%
%ADD84C,0.15000*%
%ADD95C,0.05080*%
%ADD96C,0.03810*%
%ADD97C,0.10000*%
D48*
X248258Y3869659D02*
G03*
X222858Y3869659I-12700J0D01*
G01*
D02*
G03*
X248258Y3869659I12700J0D01*
G01*
X97758Y4517960D02*
G03*
X97758Y4543360I0J12700D01*
G01*
D02*
G03*
X97758Y4517960I0J-12700D01*
G01*
D02*
G03*
X97758Y4543360I0J12700D01*
G01*
D02*
G03*
X97758Y4517960I0J-12700D01*
G01*
X234338Y4006039D02*
Y4142039D01*
X14338D02*
X234338D01*
X14338Y4006039D02*
Y4142039D01*
Y4006039D02*
X234338D01*
X234137Y4529443D02*
X370139D01*
Y4309438D02*
Y4529443D01*
X234137Y4309438D02*
X370139D01*
X234137D02*
Y4529443D01*
X370139D01*
Y4309438D02*
Y4529443D01*
X234137Y4309438D02*
X370139D01*
X234137D02*
Y4529443D01*
X321751Y6111780D02*
G03*
X321751Y6086380I0J-12700D01*
G01*
D02*
G03*
X321751Y6111780I0J12700D01*
G01*
D02*
G03*
X321751Y6086380I0J-12700D01*
G01*
D02*
G03*
X321751Y6111780I0J12700D01*
G01*
X71120Y5885378D02*
X96520Y5859978D01*
X-20320Y5768538D02*
X96520D01*
X-20320D02*
Y5885378D01*
X96520D01*
Y5768538D02*
Y5885378D01*
X458130Y6100298D02*
Y6320302D01*
X594132D01*
Y6100298D02*
Y6320302D01*
X458130Y6100298D02*
X594132D01*
X458130D02*
Y6320302D01*
X594132D01*
Y6100298D02*
Y6320302D01*
X458130Y6100298D02*
X594132D01*
X-114300Y304801D02*
Y726441D01*
X1633220D01*
Y304801D02*
Y726441D01*
X-114300Y304801D02*
X1633220D01*
X1270000D02*
X1333500Y177801D01*
X1397000Y304801D01*
X-114300D02*
Y726441D01*
X1633220D01*
Y304801D02*
Y726441D01*
X-114300Y304801D02*
X1633220D01*
X1270000D02*
X1333500Y177801D01*
X1397000Y304801D01*
D49*
X461780Y4024539D02*
G03*
X461780Y4024539I-14142J0D01*
G01*
D02*
G03*
X461780Y4024539I-14142J0D01*
G01*
X310750Y5689300D02*
G03*
X310750Y5689300I-14142J0D01*
G01*
D02*
G03*
X310750Y5689300I-14142J0D01*
G01*
D50*
X400200Y647701D02*
G03*
X400200Y647701I-10000J0D01*
G01*
D51*
X510139Y4352540D02*
X805139D01*
Y3976538D02*
Y4352540D01*
X510139Y3976538D02*
X805139D01*
X510139D02*
Y4352540D01*
X805139D01*
Y3976538D02*
Y4352540D01*
X510139Y3976538D02*
X805139D01*
X510139D02*
Y4352540D01*
X1062138Y4275157D02*
Y4317476D01*
X1053674Y4325940D01*
X1036746D01*
X1028282Y4317476D01*
Y4275157D01*
X977499Y4325940D02*
X1011355D01*
X977499Y4292085D01*
Y4283621D01*
X985963Y4275157D01*
X1002891D01*
X1011355Y4283621D01*
X926715Y4325940D02*
X960571D01*
X926715Y4292085D01*
Y4283621D01*
X935179Y4275157D01*
X952107D01*
X960571Y4283621D01*
X981794Y4601659D02*
X973330Y4610122D01*
X956402D01*
X947938Y4601659D01*
Y4567803D01*
X956402Y4559339D01*
X973330D01*
X981794Y4567803D01*
X1032577Y4559339D02*
X998722D01*
X1032577Y4593195D01*
Y4601659D01*
X1024114Y4610122D01*
X1007186D01*
X998722Y4601659D01*
X1049505Y4567803D02*
X1057969Y4559339D01*
X1074897D01*
X1083361Y4567803D01*
Y4601659D01*
X1074897Y4610122D01*
X1057969D01*
X1049505Y4601659D01*
Y4593195D01*
X1057969Y4584731D01*
X1083361D01*
X647636Y4617439D02*
Y4566655D01*
X622245D01*
X613781Y4575119D01*
Y4592047D01*
X622245Y4600511D01*
X647636D01*
X630709D02*
X613781Y4617439D01*
X596853Y4575119D02*
X588389Y4566655D01*
X571461D01*
X562997Y4575119D01*
Y4583583D01*
X571461Y4592047D01*
X579925D01*
X571461D01*
X562997Y4600511D01*
Y4608975D01*
X571461Y4617439D01*
X588389D01*
X596853Y4608975D01*
X546070Y4575119D02*
X537605Y4566655D01*
X520678D01*
X512214Y4575119D01*
Y4608975D01*
X520678Y4617439D01*
X537605D01*
X546070Y4608975D01*
Y4575119D01*
X956394Y4039684D02*
X947930Y4048148D01*
X931002D01*
X922538Y4039684D01*
Y4005828D01*
X931002Y3997364D01*
X947930D01*
X956394Y4005828D01*
X973322Y4039684D02*
X981786Y4048148D01*
X998714D01*
X1007177Y4039684D01*
Y4031220D01*
X998714Y4022756D01*
X990249D01*
X998714D01*
X1007177Y4014292D01*
Y4005828D01*
X998714Y3997364D01*
X981786D01*
X973322Y4005828D01*
X1024105Y4039684D02*
X1032569Y4048148D01*
X1049497D01*
X1057961Y4039684D01*
Y4005828D01*
X1049497Y3997364D01*
X1032569D01*
X1024105Y4005828D01*
Y4039684D01*
X1002538Y3906239D02*
Y3855456D01*
X977146D01*
X968683Y3863920D01*
Y3880847D01*
X977146Y3889311D01*
X1002538D01*
X985610D02*
X968683Y3906239D01*
X917899D02*
X951755D01*
X917899Y3872384D01*
Y3863920D01*
X926363Y3855456D01*
X943291D01*
X951755Y3863920D01*
X900971D02*
X892507Y3855456D01*
X875579D01*
X867116Y3863920D01*
Y3872384D01*
X875579Y3880847D01*
X884043D01*
X875579D01*
X867116Y3889311D01*
Y3897775D01*
X875579Y3906239D01*
X892507D01*
X900971Y3897775D01*
X1002538Y3779239D02*
Y3728455D01*
X977146D01*
X968682Y3736919D01*
Y3753847D01*
X977146Y3762311D01*
X1002538D01*
X985610D02*
X968682Y3779239D01*
X917899D02*
X951755D01*
X917899Y3745383D01*
Y3736919D01*
X926363Y3728455D01*
X943290D01*
X951755Y3736919D01*
X900971D02*
X892507Y3728455D01*
X875579D01*
X867115Y3736919D01*
Y3770775D01*
X875579Y3779239D01*
X892507D01*
X900971Y3770775D01*
Y3736919D01*
X635988Y3741939D02*
X585205D01*
Y3767331D01*
X593668Y3775795D01*
X610596D01*
X619060Y3767331D01*
Y3741939D01*
Y3758867D02*
X635988Y3775795D01*
Y3826578D02*
Y3792722D01*
X602132Y3826578D01*
X593668D01*
X585205Y3818114D01*
Y3801186D01*
X593668Y3792722D01*
X635988Y3877362D02*
Y3843506D01*
X602132Y3877362D01*
X593668D01*
X585205Y3868898D01*
Y3851970D01*
X593668Y3843506D01*
X502638Y3741939D02*
X451855D01*
Y3767331D01*
X460318Y3775795D01*
X477246D01*
X485710Y3767331D01*
Y3741939D01*
Y3758867D02*
X502638Y3775795D01*
Y3826578D02*
Y3792722D01*
X468782Y3826578D01*
X460318D01*
X451855Y3818114D01*
Y3801186D01*
X460318Y3792722D01*
X502638Y3843506D02*
Y3860434D01*
Y3851970D01*
X451855D01*
X460318Y3843506D01*
X42358Y4363294D02*
X50822Y4354830D01*
Y4337902D01*
X42358Y4329438D01*
X8502D01*
X38Y4337902D01*
Y4354830D01*
X8502Y4363294D01*
X38Y4414077D02*
Y4380221D01*
X33894Y4414077D01*
X42358D01*
X50822Y4405613D01*
Y4388685D01*
X42358Y4380221D01*
X50822Y4464861D02*
Y4431005D01*
X25430D01*
X33894Y4447933D01*
Y4456397D01*
X25430Y4464861D01*
X8502D01*
X38Y4456397D01*
Y4439469D01*
X8502Y4431005D01*
X-25362Y3783041D02*
X25422D01*
Y3757649D01*
X16958Y3749186D01*
X30D01*
X-8434Y3757649D01*
Y3783041D01*
Y3766113D02*
X-25362Y3749186D01*
Y3698402D02*
Y3732258D01*
X8494Y3698402D01*
X16958D01*
X25422Y3706866D01*
Y3723794D01*
X16958Y3732258D01*
X25422Y3647619D02*
Y3681474D01*
X30D01*
X8494Y3664546D01*
Y3656082D01*
X30Y3647619D01*
X-16898D01*
X-25362Y3656082D01*
Y3673010D01*
X-16898Y3681474D01*
X308282Y4186620D02*
X316746Y4178156D01*
X333674D01*
X342138Y4186620D01*
Y4220475D01*
X333674Y4228939D01*
X316746D01*
X308282Y4220475D01*
X257499Y4228939D02*
X291355D01*
X257499Y4195084D01*
Y4186620D01*
X265963Y4178156D01*
X282890D01*
X291355Y4186620D01*
X240571D02*
X232107Y4178156D01*
X215179D01*
X206715Y4186620D01*
Y4195084D01*
X215179Y4203547D01*
X206715Y4212011D01*
Y4220475D01*
X215179Y4228939D01*
X232107D01*
X240571Y4220475D01*
Y4212011D01*
X232107Y4203547D01*
X240571Y4195084D01*
Y4186620D01*
X232107Y4203547D02*
X215179D01*
X-123882Y4190917D02*
X-132345Y4199381D01*
Y4216309D01*
X-123882Y4224773D01*
X-90026D01*
X-81562Y4216309D01*
Y4199381D01*
X-90026Y4190917D01*
X-81562Y4140134D02*
Y4173990D01*
X-115418Y4140134D01*
X-123882D01*
X-132345Y4148598D01*
Y4165526D01*
X-123882Y4173990D01*
Y4123206D02*
X-132345Y4114742D01*
Y4097814D01*
X-123882Y4089350D01*
X-115418D01*
X-106954Y4097814D01*
Y4106278D01*
Y4097814D01*
X-98490Y4089350D01*
X-90026D01*
X-81562Y4097814D01*
Y4114742D01*
X-90026Y4123206D01*
X-101562Y3919739D02*
X-50778D01*
Y3945131D01*
X-59242Y3953595D01*
X-76170D01*
X-84634Y3945131D01*
Y3919739D01*
Y3936667D02*
X-101562Y3953595D01*
Y4004378D02*
Y3970522D01*
X-67706Y4004378D01*
X-59242D01*
X-50778Y3995914D01*
Y3978986D01*
X-59242Y3970522D01*
Y4021306D02*
X-50778Y4029770D01*
Y4046698D01*
X-59242Y4055162D01*
X-67706D01*
X-76170Y4046698D01*
X-84634Y4055162D01*
X-93098D01*
X-101562Y4046698D01*
Y4029770D01*
X-93098Y4021306D01*
X-84634D01*
X-76170Y4029770D01*
X-67706Y4021306D01*
X-59242D01*
X-76170Y4029770D02*
Y4046698D01*
X502638Y4078489D02*
X451855D01*
Y4103881D01*
X460318Y4112345D01*
X477246D01*
X485710Y4103881D01*
Y4078489D01*
Y4095417D02*
X502638Y4112345D01*
X460318Y4129273D02*
X451855Y4137737D01*
Y4154665D01*
X460318Y4163128D01*
X468782D01*
X477246Y4154665D01*
Y4146200D01*
Y4154665D01*
X485710Y4163128D01*
X494174D01*
X502638Y4154665D01*
Y4137737D01*
X494174Y4129273D01*
X502638Y4205448D02*
X451855D01*
X477246Y4180056D01*
Y4213912D01*
X332412Y4346519D02*
X323948Y4338055D01*
X307020D01*
X298556Y4346519D01*
Y4380375D01*
X307020Y4388839D01*
X323948D01*
X332412Y4380375D01*
X383195Y4388839D02*
X349339D01*
X383195Y4354983D01*
Y4346519D01*
X374731Y4338055D01*
X357803D01*
X349339Y4346519D01*
X400123D02*
X408587Y4338055D01*
X425515D01*
X433979Y4346519D01*
Y4380375D01*
X425515Y4388839D01*
X408587D01*
X400123Y4380375D01*
Y4346519D01*
X714318Y3846343D02*
X705855Y3854807D01*
Y3871734D01*
X714318Y3880198D01*
X748174D01*
X756638Y3871734D01*
Y3854807D01*
X748174Y3846343D01*
X756638Y3795559D02*
Y3829415D01*
X722782Y3795559D01*
X714318D01*
X705855Y3804023D01*
Y3820951D01*
X714318Y3829415D01*
X756638Y3778632D02*
Y3761704D01*
Y3770167D01*
X705855D01*
X714318Y3778632D01*
X333318Y3965883D02*
X324855Y3974347D01*
Y3991275D01*
X333318Y3999739D01*
X367174D01*
X375638Y3991275D01*
Y3974347D01*
X367174Y3965883D01*
X375638Y3915100D02*
Y3948955D01*
X341782Y3915100D01*
X333318D01*
X324855Y3923563D01*
Y3940491D01*
X333318Y3948955D01*
X375638Y3864316D02*
Y3898172D01*
X341782Y3864316D01*
X333318D01*
X324855Y3872780D01*
Y3889708D01*
X333318Y3898172D01*
X377238Y4253359D02*
X326455D01*
Y4227967D01*
X334919Y4219503D01*
X351846D01*
X360310Y4227967D01*
Y4253359D01*
Y4236431D02*
X377238Y4219503D01*
Y4168719D02*
Y4202575D01*
X343383Y4168719D01*
X334919D01*
X326455Y4177183D01*
Y4194111D01*
X334919Y4202575D01*
X326455Y4117936D02*
X334919Y4134864D01*
X351846Y4151792D01*
X368774D01*
X377238Y4143328D01*
Y4126400D01*
X368774Y4117936D01*
X360310D01*
X351846Y4126400D01*
Y4151792D01*
X334094Y4639759D02*
X325630Y4648222D01*
X308702D01*
X300238Y4639759D01*
Y4605903D01*
X308702Y4597439D01*
X325630D01*
X334094Y4605903D01*
X384877Y4597439D02*
X351022D01*
X384877Y4631295D01*
Y4639759D01*
X376414Y4648222D01*
X359486D01*
X351022Y4639759D01*
X401805Y4648222D02*
X435661D01*
Y4639759D01*
X401805Y4605903D01*
Y4597439D01*
X-68062D02*
Y4648222D01*
X-42670D01*
X-34206Y4639759D01*
Y4622831D01*
X-42670Y4614367D01*
X-68062D01*
X-51134D02*
X-34206Y4597439D01*
X-17278Y4639759D02*
X-8814Y4648222D01*
X8114D01*
X16577Y4639759D01*
Y4631295D01*
X8114Y4622831D01*
X-351D01*
X8114D01*
X16577Y4614367D01*
Y4605903D01*
X8114Y4597439D01*
X-8814D01*
X-17278Y4605903D01*
X67361Y4597439D02*
X33505D01*
X67361Y4631295D01*
Y4639759D01*
X58897Y4648222D01*
X41969D01*
X33505Y4639759D01*
X55058Y4448483D02*
X63522Y4456947D01*
Y4473875D01*
X55058Y4482339D01*
X21202D01*
X12738Y4473875D01*
Y4456947D01*
X21202Y4448483D01*
X12738Y4397700D02*
Y4431555D01*
X46594Y4397700D01*
X55058D01*
X63522Y4406163D01*
Y4423091D01*
X55058Y4431555D01*
X63522Y4346916D02*
X55058Y4363844D01*
X38130Y4380772D01*
X21202D01*
X12738Y4372308D01*
Y4355380D01*
X21202Y4346916D01*
X29666D01*
X38130Y4355380D01*
Y4380772D01*
X-29164Y4051339D02*
Y4102122D01*
X-3772D01*
X4691Y4093659D01*
Y4076731D01*
X-3772Y4068267D01*
X-29164D01*
X-12236D02*
X4691Y4051339D01*
X21619Y4093659D02*
X30083Y4102122D01*
X47011D01*
X55475Y4093659D01*
Y4085195D01*
X47011Y4076731D01*
X38547D01*
X47011D01*
X55475Y4068267D01*
Y4059803D01*
X47011Y4051339D01*
X30083D01*
X21619Y4059803D01*
X72403Y4093659D02*
X80867Y4102122D01*
X97795D01*
X106258Y4093659D01*
Y4085195D01*
X97795Y4076731D01*
X89331D01*
X97795D01*
X106258Y4068267D01*
Y4059803D01*
X97795Y4051339D01*
X80867D01*
X72403Y4059803D01*
X647639Y4494439D02*
Y4443655D01*
X622247D01*
X613783Y4452119D01*
Y4469047D01*
X622247Y4477511D01*
X647639D01*
X630711D02*
X613783Y4494439D01*
X596856Y4452119D02*
X588392Y4443655D01*
X571464D01*
X563000Y4452119D01*
Y4460583D01*
X571464Y4469047D01*
X579928D01*
X571464D01*
X563000Y4477511D01*
Y4485975D01*
X571464Y4494439D01*
X588392D01*
X596856Y4485975D01*
X546072Y4494439D02*
X529144D01*
X537608D01*
Y4443655D01*
X546072Y4452119D01*
X199338Y3783839D02*
X148555D01*
Y3758447D01*
X157018Y3749983D01*
X173946D01*
X182410Y3758447D01*
Y3783839D01*
Y3766911D02*
X199338Y3749983D01*
Y3699200D02*
Y3733055D01*
X165483Y3699200D01*
X157018D01*
X148555Y3707663D01*
Y3724591D01*
X157018Y3733055D01*
X148555Y3682272D02*
Y3648416D01*
X157018D01*
X190874Y3682272D01*
X199338D01*
X42358Y3737695D02*
X50822Y3729231D01*
Y3712303D01*
X42358Y3703839D01*
X8502D01*
X38Y3712303D01*
Y3729231D01*
X8502Y3737695D01*
X38Y3788478D02*
Y3754622D01*
X33894Y3788478D01*
X42358D01*
X50822Y3780014D01*
Y3763086D01*
X42358Y3754622D01*
X38Y3830798D02*
X50822D01*
X25430Y3805406D01*
Y3839262D01*
X558038Y3830199D02*
Y3880982D01*
X532646D01*
X524182Y3872518D01*
Y3855590D01*
X532646Y3847126D01*
X558038D01*
X541110D02*
X524182Y3830199D01*
X473399D02*
X507255D01*
X473399Y3864054D01*
Y3872518D01*
X481863Y3880982D01*
X498790D01*
X507255Y3872518D01*
X431079Y3830199D02*
Y3880982D01*
X456471Y3855590D01*
X422615D01*
X-81562Y3783839D02*
X-132345D01*
Y3758447D01*
X-123882Y3749983D01*
X-106954D01*
X-98490Y3758447D01*
Y3783839D01*
Y3766911D02*
X-81562Y3749983D01*
Y3699200D02*
Y3733055D01*
X-115418Y3699200D01*
X-123882D01*
X-132345Y3707663D01*
Y3724591D01*
X-123882Y3733055D01*
X-90026Y3682272D02*
X-81562Y3673808D01*
Y3656880D01*
X-90026Y3648416D01*
X-123882D01*
X-132345Y3656880D01*
Y3673808D01*
X-123882Y3682272D01*
X-115418D01*
X-106954Y3673808D01*
Y3648416D01*
X359109Y6017301D02*
X654109D01*
Y5641300D02*
Y6017301D01*
X359109Y5641300D02*
X654109D01*
X359109D02*
Y6017301D01*
X654109D01*
Y5641300D02*
Y6017301D01*
X359109Y5641300D02*
X654109D01*
X359109D02*
Y6017301D01*
X171244Y6407720D02*
X179708Y6416184D01*
X196636D01*
X205100Y6407720D01*
Y6373864D01*
X196636Y6365400D01*
X179708D01*
X171244Y6373864D01*
X154316Y6416184D02*
X120461D01*
Y6407720D01*
X154316Y6373864D01*
Y6365400D01*
X170880Y6032111D02*
X162416Y6040575D01*
Y6057502D01*
X170880Y6065967D01*
X204736D01*
X213200Y6057502D01*
Y6040575D01*
X204736Y6032111D01*
X162416Y5981327D02*
X170880Y5998255D01*
X187808Y6015183D01*
X204736D01*
X213200Y6006719D01*
Y5989791D01*
X204736Y5981327D01*
X196272D01*
X187808Y5989791D01*
Y6015183D01*
X213200Y6275705D02*
X162416D01*
Y6250313D01*
X170880Y6241849D01*
X187808D01*
X196272Y6250313D01*
Y6275705D01*
Y6258777D02*
X213200Y6241849D01*
Y6224922D02*
Y6207994D01*
Y6216457D01*
X162416D01*
X170880Y6224922D01*
X213200Y6148746D02*
Y6182602D01*
X179344Y6148746D01*
X170880D01*
X162416Y6157210D01*
Y6174138D01*
X170880Y6182602D01*
X104300Y6195700D02*
X155084D01*
Y6221092D01*
X146620Y6229556D01*
X129692D01*
X121228Y6221092D01*
Y6195700D01*
Y6212628D02*
X104300Y6229556D01*
Y6246484D02*
Y6263411D01*
Y6254948D01*
X155084D01*
X146620Y6246484D01*
Y6288803D02*
X155084Y6297267D01*
Y6314195D01*
X146620Y6322659D01*
X138156D01*
X129692Y6314195D01*
Y6305731D01*
Y6314195D01*
X121228Y6322659D01*
X112764D01*
X104300Y6314195D01*
Y6297267D01*
X112764Y6288803D01*
X895920Y6089053D02*
X904384Y6080589D01*
Y6063661D01*
X895920Y6055197D01*
X862064D01*
X853600Y6063661D01*
Y6080589D01*
X862064Y6089053D01*
X853600Y6131373D02*
X904384D01*
X878992Y6105981D01*
Y6139837D01*
X2700Y6180602D02*
X53484D01*
Y6205994D01*
X45020Y6214458D01*
X28092D01*
X19628Y6205994D01*
Y6180602D01*
Y6197530D02*
X2700Y6214458D01*
Y6231386D02*
Y6248314D01*
Y6239850D01*
X53484D01*
X45020Y6231386D01*
X2700Y6273706D02*
Y6290633D01*
Y6282170D01*
X53484D01*
X45020Y6273706D01*
X-111600Y6080603D02*
X-60816D01*
Y6105994D01*
X-69280Y6114458D01*
X-86208D01*
X-94672Y6105994D01*
Y6080603D01*
Y6097530D02*
X-111600Y6114458D01*
Y6131386D02*
Y6148314D01*
Y6139850D01*
X-60816D01*
X-69280Y6131386D01*
X-111600Y6199098D02*
X-60816D01*
X-86208Y6173706D01*
Y6207561D01*
X45020Y6025558D02*
X53484Y6017094D01*
Y6000167D01*
X45020Y5991703D01*
X11164D01*
X2700Y6000167D01*
Y6017094D01*
X11164Y6025558D01*
X53484Y6076342D02*
Y6042486D01*
X28092D01*
X36556Y6059414D01*
Y6067878D01*
X28092Y6076342D01*
X11164D01*
X2700Y6067878D01*
Y6050950D01*
X11164Y6042486D01*
X1024400Y7205600D02*
Y7475600D01*
X804400Y7205600D02*
Y7475600D01*
X1024400D01*
X804400Y7205600D02*
X1024400D01*
Y7475600D01*
X804400Y7205600D02*
Y7475600D01*
X1024400D01*
X804400Y7205600D02*
X1024400D01*
X944292Y7931600D02*
Y8061600D01*
X774292Y7931600D02*
X944292D01*
X774292D02*
Y8061600D01*
X944292D01*
X114506Y7282180D02*
X106042Y7273716D01*
X89114D01*
X80650Y7282180D01*
Y7316035D01*
X89114Y7324499D01*
X106042D01*
X114506Y7316035D01*
X165289Y7273716D02*
X148361Y7282180D01*
X131434Y7299108D01*
Y7316035D01*
X139898Y7324499D01*
X156825D01*
X165289Y7316035D01*
Y7307572D01*
X156825Y7299108D01*
X131434D01*
X216073Y7273716D02*
X199145Y7282180D01*
X182217Y7299108D01*
Y7316035D01*
X190681Y7324499D01*
X207609D01*
X216073Y7316035D01*
Y7307572D01*
X207609Y7299108D01*
X182217D01*
X1013300Y7754380D02*
X962516D01*
Y7728988D01*
X970980Y7720524D01*
X987908D01*
X996372Y7728988D01*
Y7754380D01*
Y7737452D02*
X1013300Y7720524D01*
X962516Y7669741D02*
X970980Y7686668D01*
X987908Y7703596D01*
X1004836D01*
X1013300Y7695132D01*
Y7678204D01*
X1004836Y7669741D01*
X996372D01*
X987908Y7678204D01*
Y7703596D01*
X970980Y7652813D02*
X962516Y7644349D01*
Y7627421D01*
X970980Y7618957D01*
X979444D01*
X987908Y7627421D01*
Y7635885D01*
Y7627421D01*
X996372Y7618957D01*
X1004836D01*
X1013300Y7627421D01*
Y7644349D01*
X1004836Y7652813D01*
X1014320Y7559855D02*
X963537D01*
Y7534463D01*
X972000Y7525999D01*
X988928D01*
X997392Y7534463D01*
Y7559855D01*
Y7542927D02*
X1014320Y7525999D01*
X963537Y7475216D02*
X972000Y7492144D01*
X988928Y7509071D01*
X1005856D01*
X1014320Y7500607D01*
Y7483679D01*
X1005856Y7475216D01*
X997392D01*
X988928Y7483679D01*
Y7509071D01*
X963537Y7424432D02*
X972000Y7441360D01*
X988928Y7458288D01*
X1005856D01*
X1014320Y7449824D01*
Y7432896D01*
X1005856Y7424432D01*
X997392D01*
X988928Y7432896D01*
Y7458288D01*
X563100Y7845900D02*
X613883D01*
Y7871292D01*
X605420Y7879756D01*
X588492D01*
X580028Y7871292D01*
Y7845900D01*
Y7862828D02*
X563100Y7879756D01*
X613883Y7930539D02*
X605420Y7913611D01*
X588492Y7896683D01*
X571564D01*
X563100Y7905148D01*
Y7922075D01*
X571564Y7930539D01*
X580028D01*
X588492Y7922075D01*
Y7896683D01*
X613883Y7981323D02*
Y7947467D01*
X588492D01*
X596956Y7964395D01*
Y7972859D01*
X588492Y7981323D01*
X571564D01*
X563100Y7972859D01*
Y7955931D01*
X571564Y7947467D01*
X682694Y8068972D02*
X631910D01*
Y8043581D01*
X640374Y8035117D01*
X657302D01*
X665766Y8043581D01*
Y8068972D01*
Y8052045D02*
X682694Y8035117D01*
X631910Y7984333D02*
X640374Y8001261D01*
X657302Y8018189D01*
X674230D01*
X682694Y8009725D01*
Y7992797D01*
X674230Y7984333D01*
X665766D01*
X657302Y7992797D01*
Y8018189D01*
X631910Y7967405D02*
Y7933550D01*
X640374D01*
X674230Y7967405D01*
X682694D01*
X763100Y7986400D02*
X813884D01*
Y8011792D01*
X805420Y8020256D01*
X788492D01*
X780028Y8011792D01*
Y7986400D01*
Y8003328D02*
X763100Y8020256D01*
X813884Y8071039D02*
X805420Y8054111D01*
X788492Y8037184D01*
X771564D01*
X763100Y8045648D01*
Y8062575D01*
X771564Y8071039D01*
X780028D01*
X788492Y8062575D01*
Y8037184D01*
X763100Y8113359D02*
X813884D01*
X788492Y8087967D01*
Y8121823D01*
X763100Y7825900D02*
Y7876684D01*
X737708D01*
X729244Y7868220D01*
Y7851292D01*
X737708Y7842828D01*
X763100D01*
X746172D02*
X729244Y7825900D01*
X678461Y7876684D02*
X695389Y7868220D01*
X712317Y7851292D01*
Y7834364D01*
X703853Y7825900D01*
X686925D01*
X678461Y7834364D01*
Y7842828D01*
X686925Y7851292D01*
X712317D01*
X627677Y7825900D02*
X661533D01*
X627677Y7859756D01*
Y7868220D01*
X636141Y7876684D01*
X653069D01*
X661533Y7868220D01*
X855200Y7846700D02*
X905983D01*
Y7872092D01*
X897520Y7880556D01*
X880592D01*
X872128Y7872092D01*
Y7846700D01*
Y7863628D02*
X855200Y7880556D01*
X905983Y7931339D02*
X897520Y7914411D01*
X880592Y7897484D01*
X863664D01*
X855200Y7905948D01*
Y7922875D01*
X863664Y7931339D01*
X872128D01*
X880592Y7922875D01*
Y7897484D01*
X855200Y7948267D02*
Y7965195D01*
Y7956731D01*
X905983D01*
X897520Y7948267D01*
X920544Y7245920D02*
X929008Y7254384D01*
X945936D01*
X954400Y7245920D01*
Y7212064D01*
X945936Y7203600D01*
X929008D01*
X920544Y7212064D01*
X869761Y7254384D02*
X886689Y7245920D01*
X903616Y7228992D01*
Y7212064D01*
X895152Y7203600D01*
X878225D01*
X869761Y7212064D01*
Y7220528D01*
X878225Y7228992D01*
X903616D01*
X852833Y7245920D02*
X844369Y7254384D01*
X827441D01*
X818977Y7245920D01*
Y7237456D01*
X827441Y7228992D01*
X835905D01*
X827441D01*
X818977Y7220528D01*
Y7212064D01*
X827441Y7203600D01*
X844369D01*
X852833Y7212064D01*
X982120Y6955356D02*
X990583Y6946892D01*
Y6929964D01*
X982120Y6921500D01*
X948264D01*
X939800Y6929964D01*
Y6946892D01*
X948264Y6955356D01*
X990583Y6972283D02*
Y7006139D01*
X982120D01*
X948264Y6972283D01*
X939800D01*
X982120Y7023067D02*
X990583Y7031531D01*
Y7048459D01*
X982120Y7056923D01*
X948264D01*
X939800Y7048459D01*
Y7031531D01*
X948264Y7023067D01*
X982120D01*
X551956Y7181280D02*
X543492Y7172816D01*
X526564D01*
X518100Y7181280D01*
Y7215136D01*
X526564Y7223600D01*
X543492D01*
X551956Y7215136D01*
X602739Y7172816D02*
X585811Y7181280D01*
X568884Y7198208D01*
Y7215136D01*
X577348Y7223600D01*
X594275D01*
X602739Y7215136D01*
Y7206672D01*
X594275Y7198208D01*
X568884D01*
X645059Y7223600D02*
Y7172816D01*
X619667Y7198208D01*
X653523D01*
X209756Y7181280D02*
X201292Y7172816D01*
X184364D01*
X175900Y7181280D01*
Y7215136D01*
X184364Y7223600D01*
X201292D01*
X209756Y7215136D01*
X260539Y7172816D02*
X243611Y7181280D01*
X226684Y7198208D01*
Y7215136D01*
X235148Y7223600D01*
X252075D01*
X260539Y7215136D01*
Y7206672D01*
X252075Y7198208D01*
X226684D01*
X311323Y7172816D02*
X277467D01*
Y7198208D01*
X294395Y7189744D01*
X302859D01*
X311323Y7198208D01*
Y7215136D01*
X302859Y7223600D01*
X285931D01*
X277467Y7215136D01*
X348797Y8094932D02*
X357261Y8103396D01*
Y8120324D01*
X348797Y8128788D01*
X314942D01*
X306478Y8120324D01*
Y8103396D01*
X314942Y8094932D01*
X357261Y8044149D02*
X348797Y8061076D01*
X331870Y8078004D01*
X314942D01*
X306478Y8069540D01*
Y8052612D01*
X314942Y8044149D01*
X323406D01*
X331870Y8052612D01*
Y8078004D01*
X306478Y7993365D02*
Y8027221D01*
X340333Y7993365D01*
X348797D01*
X357261Y8001829D01*
Y8018757D01*
X348797Y8027221D01*
X582433Y8093124D02*
X590896Y8101587D01*
Y8118515D01*
X582433Y8126979D01*
X548577D01*
X540113Y8118515D01*
Y8101587D01*
X548577Y8093124D01*
X590896Y8042340D02*
X582433Y8059268D01*
X565505Y8076196D01*
X548577D01*
X540113Y8067732D01*
Y8050804D01*
X548577Y8042340D01*
X557041D01*
X565505Y8050804D01*
Y8076196D01*
X582433Y8025412D02*
X590896Y8016948D01*
Y8000020D01*
X582433Y7991557D01*
X548577D01*
X540113Y8000020D01*
Y8016948D01*
X548577Y8025412D01*
X582433D01*
X-86200Y8036952D02*
X-35416D01*
Y8011560D01*
X-43880Y8003097D01*
X-60808D01*
X-69272Y8011560D01*
Y8036952D01*
Y8020024D02*
X-86200Y8003097D01*
X-35416Y7952313D02*
X-43880Y7969241D01*
X-60808Y7986169D01*
X-77736D01*
X-86200Y7977705D01*
Y7960777D01*
X-77736Y7952313D01*
X-69272D01*
X-60808Y7960777D01*
Y7986169D01*
X-43880Y7935385D02*
X-35416Y7926921D01*
Y7909993D01*
X-43880Y7901530D01*
X-77736D01*
X-86200Y7909993D01*
Y7926921D01*
X-77736Y7935385D01*
X-43880D01*
X184356Y7714220D02*
X175892Y7722684D01*
X158964D01*
X150500Y7714220D01*
Y7680364D01*
X158964Y7671900D01*
X175892D01*
X184356Y7680364D01*
X201284Y7722684D02*
X235139D01*
Y7714220D01*
X201284Y7680364D01*
Y7671900D01*
X252067D02*
X268995D01*
X260531D01*
Y7722684D01*
X252067Y7714220D01*
X264700Y7390817D02*
Y7433136D01*
X256236Y7441600D01*
X239308D01*
X230844Y7433136D01*
Y7390817D01*
X180061D02*
X196989Y7399280D01*
X213917Y7416208D01*
Y7433136D01*
X205452Y7441600D01*
X188525D01*
X180061Y7433136D01*
Y7424672D01*
X188525Y7416208D01*
X213917D01*
X129277Y7441600D02*
X163133D01*
X129277Y7407744D01*
Y7399280D01*
X137741Y7390817D01*
X154669D01*
X163133Y7399280D01*
X-66200Y7541900D02*
X-116984D01*
Y7567292D01*
X-108520Y7575756D01*
X-91592D01*
X-83128Y7567292D01*
Y7541900D01*
Y7558828D02*
X-66200Y7575756D01*
X-116984Y7626539D02*
X-108520Y7609611D01*
X-91592Y7592684D01*
X-74664D01*
X-66200Y7601148D01*
Y7618075D01*
X-74664Y7626539D01*
X-83128D01*
X-91592Y7618075D01*
Y7592684D01*
X-108520Y7643467D02*
X-116984Y7651931D01*
Y7668859D01*
X-108520Y7677323D01*
X-100056D01*
X-91592Y7668859D01*
X-83128Y7677323D01*
X-74664D01*
X-66200Y7668859D01*
Y7651931D01*
X-74664Y7643467D01*
X-83128D01*
X-91592Y7651931D01*
X-100056Y7643467D01*
X-108520D01*
X-91592Y7651931D02*
Y7668859D01*
X-43880Y7321344D02*
X-35416Y7329808D01*
Y7346736D01*
X-43880Y7355200D01*
X-77736D01*
X-86200Y7346736D01*
Y7329808D01*
X-77736Y7321344D01*
X-35416Y7304416D02*
Y7270561D01*
X-43880D01*
X-77736Y7304416D01*
X-86200D01*
Y7219777D02*
Y7253633D01*
X-52344Y7219777D01*
X-43880D01*
X-35416Y7228241D01*
Y7245169D01*
X-43880Y7253633D01*
X1013300Y8062600D02*
X962516D01*
Y8087992D01*
X970980Y8096456D01*
X987908D01*
X996372Y8087992D01*
Y8062600D01*
Y8079528D02*
X1013300Y8096456D01*
X962516Y8113384D02*
Y8147239D01*
X970980D01*
X1004836Y8113384D01*
X1013300D01*
X970980Y8164167D02*
X962516Y8172631D01*
Y8189559D01*
X970980Y8198023D01*
X1004836D01*
X1013300Y8189559D01*
Y8172631D01*
X1004836Y8164167D01*
X970980D01*
X849292Y8357700D02*
X900075D01*
Y8332308D01*
X891611Y8323844D01*
X874684D01*
X866220Y8332308D01*
Y8357700D01*
Y8340772D02*
X849292Y8323844D01*
X900075Y8273061D02*
X891611Y8289989D01*
X874684Y8306917D01*
X857756D01*
X849292Y8298453D01*
Y8281525D01*
X857756Y8273061D01*
X866220D01*
X874684Y8281525D01*
Y8306917D01*
X857756Y8256133D02*
X849292Y8247669D01*
Y8230741D01*
X857756Y8222277D01*
X891611D01*
X900075Y8230741D01*
Y8247669D01*
X891611Y8256133D01*
X883147D01*
X874684Y8247669D01*
Y8222277D01*
X108920Y8094444D02*
X117384Y8102908D01*
Y8119836D01*
X108920Y8128300D01*
X75064D01*
X66600Y8119836D01*
Y8102908D01*
X75064Y8094444D01*
X117384Y8043661D02*
X108920Y8060589D01*
X91992Y8077516D01*
X75064D01*
X66600Y8069052D01*
Y8052125D01*
X75064Y8043661D01*
X83528D01*
X91992Y8052125D01*
Y8077516D01*
X66600Y8026733D02*
Y8009805D01*
Y8018269D01*
X117384D01*
X108920Y8026733D01*
X141999Y2334900D02*
X91216D01*
Y2360292D01*
X99680Y2368756D01*
X116608D01*
X125072Y2360292D01*
Y2334900D01*
Y2351828D02*
X141999Y2368756D01*
X91216Y2419539D02*
Y2385684D01*
X116608D01*
X108144Y2402611D01*
Y2411075D01*
X116608Y2419539D01*
X133535D01*
X141999Y2411075D01*
Y2394148D01*
X133535Y2385684D01*
X99680Y2436467D02*
X91216Y2444931D01*
Y2461859D01*
X99680Y2470323D01*
X133535D01*
X141999Y2461859D01*
Y2444931D01*
X133535Y2436467D01*
X99680D01*
X117000Y2711547D02*
X167783D01*
Y2686155D01*
X159319Y2677691D01*
X142391D01*
X133927Y2686155D01*
Y2711547D01*
Y2694619D02*
X117000Y2677691D01*
X167783Y2626907D02*
Y2660763D01*
X142391D01*
X150855Y2643835D01*
Y2635371D01*
X142391Y2626907D01*
X125464D01*
X117000Y2635371D01*
Y2652299D01*
X125464Y2660763D01*
X117000Y2609980D02*
Y2593052D01*
Y2601515D01*
X167783D01*
X159319Y2609980D01*
X539900Y2493583D02*
Y2451264D01*
X548364Y2442800D01*
X565292D01*
X573756Y2451264D01*
Y2493583D01*
X624539D02*
X590683D01*
Y2468191D01*
X607611Y2476655D01*
X616075D01*
X624539Y2468191D01*
Y2451264D01*
X616075Y2442800D01*
X599147D01*
X590683Y2451264D01*
X641467Y2485119D02*
X649931Y2493583D01*
X666859D01*
X675322Y2485119D01*
Y2451264D01*
X666859Y2442800D01*
X649931D01*
X641467Y2451264D01*
Y2485119D01*
X259341Y2601082D02*
X250878Y2592619D01*
Y2575691D01*
X259341Y2567227D01*
X293197D01*
X301661Y2575691D01*
Y2592619D01*
X293197Y2601082D01*
X250878Y2651866D02*
Y2618010D01*
X276269D01*
X267805Y2634938D01*
Y2643402D01*
X276269Y2651866D01*
X293197D01*
X301661Y2643402D01*
Y2626474D01*
X293197Y2618010D01*
X259341Y2668794D02*
X250878Y2677258D01*
Y2694186D01*
X259341Y2702649D01*
X293197D01*
X301661Y2694186D01*
Y2677258D01*
X293197Y2668794D01*
X259341D01*
X1465200Y647701D02*
G03*
X1465200Y647701I-500000J0D01*
G01*
X1415480Y958257D02*
X1407016Y949793D01*
Y932865D01*
X1415480Y924401D01*
X1449336D01*
X1457800Y932865D01*
Y949793D01*
X1449336Y958257D01*
X1457800Y1000576D02*
X1407016D01*
X1432408Y975184D01*
Y1009040D01*
X1415480Y1025968D02*
X1407016Y1034432D01*
Y1051360D01*
X1415480Y1059824D01*
X1449336D01*
X1457800Y1051360D01*
Y1034432D01*
X1449336Y1025968D01*
X1415480D01*
X1986980Y971757D02*
X1978516Y963293D01*
Y946365D01*
X1986980Y937901D01*
X2020836D01*
X2029300Y946365D01*
Y963293D01*
X2020836Y971757D01*
X2029300Y1014076D02*
X1978516D01*
X2003908Y988685D01*
Y1022540D01*
X2029300Y1039468D02*
Y1056396D01*
Y1047932D01*
X1978516D01*
X1986980Y1039468D01*
X1847644Y1162621D02*
X1856108Y1171085D01*
X1873036D01*
X1881500Y1162621D01*
Y1128765D01*
X1873036Y1120301D01*
X1856108D01*
X1847644Y1128765D01*
X1805325Y1120301D02*
Y1171085D01*
X1830716Y1145693D01*
X1796861D01*
X1746077Y1120301D02*
X1779933D01*
X1746077Y1154157D01*
Y1162621D01*
X1754541Y1171085D01*
X1771469D01*
X1779933Y1162621D01*
X1847644Y616521D02*
X1856108Y624985D01*
X1873036D01*
X1881500Y616521D01*
Y582665D01*
X1873036Y574201D01*
X1856108D01*
X1847644Y582665D01*
X1805325Y574201D02*
Y624985D01*
X1830716Y599593D01*
X1796861D01*
X1779933Y616521D02*
X1771469Y624985D01*
X1754541D01*
X1746077Y616521D01*
Y608057D01*
X1754541Y599593D01*
X1763005D01*
X1754541D01*
X1746077Y591129D01*
Y582665D01*
X1754541Y574201D01*
X1771469D01*
X1779933Y582665D01*
D84*
X914292Y8146600D02*
G03*
X914292Y8146600I-5000J0D01*
G01*
D95*
X937938Y4594339D02*
X1037938D01*
Y4544339D02*
Y4594339D01*
X937938Y4544339D02*
X1037938D01*
X937938D02*
Y4594339D01*
X557637Y4582439D02*
X657636D01*
X557637D02*
Y4632439D01*
X657636D01*
Y4582439D02*
Y4632439D01*
X912538Y4032364D02*
X1012538D01*
Y3982364D02*
Y4032364D01*
X912538Y3982364D02*
X1012538D01*
X912538D02*
Y4032364D01*
X912538Y3871239D02*
X1012538D01*
X912538D02*
Y3921239D01*
X1012538D01*
Y3871239D02*
Y3921239D01*
X912538Y3744239D02*
X1012538D01*
X912538D02*
Y3794239D01*
X1012538D01*
Y3744239D02*
Y3794239D01*
X600988Y3731939D02*
Y3831939D01*
X650988D01*
Y3731939D02*
Y3831939D01*
X600988Y3731939D02*
X650988D01*
X467638D02*
Y3831939D01*
X517638D01*
Y3731939D02*
Y3831939D01*
X467638Y3731939D02*
X517638D01*
X35037Y4319435D02*
Y4419435D01*
X-14961D02*
X35037D01*
X-14961Y4319435D02*
Y4419435D01*
Y4319435D02*
X35037D01*
X9637Y3693039D02*
Y3793039D01*
X-40361Y3693039D02*
X9637D01*
X-40361D02*
Y3793039D01*
X9637D01*
X252136Y4193941D02*
X352135D01*
X252136D02*
Y4243938D01*
X352135D01*
Y4193941D02*
Y4243938D01*
X-116561Y4134776D02*
Y4234776D01*
Y4134776D02*
X-66564D01*
Y4234776D01*
X-116561D02*
X-66564D01*
X-66563Y3909736D02*
Y4009736D01*
X-116561D02*
X-66563D01*
X-116561Y3909736D02*
Y4009736D01*
Y3909736D02*
X-66563D01*
X467639Y4068487D02*
X517637D01*
Y4168486D01*
X467639D02*
X517637D01*
X467639Y4068487D02*
Y4168486D01*
X288558Y4353840D02*
X388558D01*
Y4403838D01*
X288558D02*
X388558D01*
X288558Y4353840D02*
Y4403838D01*
X721639Y3790196D02*
Y3890196D01*
Y3790196D02*
X771637D01*
Y3890196D01*
X721639D02*
X771637D01*
X340639Y4009741D02*
X390637D01*
Y3909741D02*
Y4009741D01*
X340639Y3909741D02*
X390637D01*
X340639D02*
Y4009741D01*
X342240Y4263356D02*
X392237D01*
Y4163356D02*
Y4263356D01*
X342240Y4163356D02*
X392237D01*
X342240D02*
Y4263356D01*
X290241Y4632438D02*
X390241D01*
Y4582440D02*
Y4632438D01*
X290241Y4582440D02*
X390241D01*
X290241D02*
Y4632438D01*
X-78059D02*
X21941D01*
Y4582440D02*
Y4632438D01*
X-78059Y4582440D02*
X21941D01*
X-78059D02*
Y4632438D01*
X47737Y4392336D02*
Y4492336D01*
X-2261Y4392336D02*
X47737D01*
X-2261D02*
Y4492336D01*
X47737D01*
X-39162Y4086338D02*
X60838D01*
Y4036340D02*
Y4086338D01*
X-39162Y4036340D02*
X60838D01*
X-39162D02*
Y4086338D01*
X557637Y4459440D02*
X657636D01*
X557637D02*
Y4509438D01*
X657636D01*
Y4459440D02*
Y4509438D01*
X164340Y3693836D02*
Y3793836D01*
Y3693836D02*
X214337D01*
Y3793836D01*
X164340D02*
X214337D01*
X35037Y3693836D02*
Y3793836D01*
X-14966D02*
X35037D01*
X-14966Y3693836D02*
Y3793836D01*
Y3693836D02*
X35037D01*
X468041Y3865197D02*
X568041D01*
X468041Y3815200D02*
Y3865197D01*
Y3815200D02*
X568041D01*
Y3865197D01*
X-116561Y3793841D02*
X-66563D01*
Y3693841D02*
Y3793841D01*
X-116561Y3693841D02*
X-66563D01*
X-116561D02*
Y3793841D01*
X89300Y5436400D02*
Y5536400D01*
X139300D01*
Y5436400D02*
Y5536400D01*
X89300Y5436400D02*
X139300D01*
X-50400D02*
Y5536400D01*
X-400D01*
Y5436400D02*
Y5536400D01*
X-50400Y5436400D02*
X-400D01*
X-76600Y5801558D02*
Y5901557D01*
X-126600D02*
X-76600D01*
X-126600Y5801558D02*
Y5901557D01*
Y5801558D02*
X-76600D01*
X139300Y5461800D02*
Y5561800D01*
X89300D02*
X139300D01*
X89300Y5461800D02*
Y5561800D01*
Y5461800D02*
X139300D01*
X253600D02*
Y5561800D01*
X203600D02*
X253600D01*
X203600Y5461800D02*
Y5561800D01*
Y5461800D02*
X253600D01*
X749700Y5538000D02*
Y5638000D01*
Y5538000D02*
X799700D01*
Y5638000D01*
X749700D02*
X799700D01*
X864000Y5538000D02*
Y5638000D01*
Y5538000D02*
X914000D01*
Y5638000D01*
X864000D02*
X914000D01*
X978300Y5537200D02*
Y5637200D01*
Y5537200D02*
X1028300D01*
Y5637200D01*
X978300D02*
X1028300D01*
X215097Y6350401D02*
Y6400399D01*
X115098Y6350401D02*
X215097D01*
X115098D02*
Y6400399D01*
X215097D01*
X178201Y6075964D02*
X228199D01*
Y5975964D02*
Y6075964D01*
X178201Y5975964D02*
X228199D01*
X178201D02*
Y6075964D01*
Y6285702D02*
X228199D01*
Y6185703D02*
Y6285702D01*
X178201Y6185703D02*
X228199D01*
X178201D02*
Y6285702D01*
X89301Y6185703D02*
X139299D01*
X89301D02*
Y6285702D01*
X139299D01*
Y6185703D02*
Y6285702D01*
X838601Y6045200D02*
X888599D01*
X838601D02*
Y6145200D01*
X888599D01*
Y6045200D02*
Y6145200D01*
X-12299Y6170605D02*
X37699D01*
X-12299D02*
Y6270605D01*
X37699D01*
Y6170605D02*
Y6270605D01*
X397982Y5461800D02*
Y5561800D01*
X347982Y5461800D02*
X397982D01*
X347982D02*
Y5561800D01*
X397982D01*
X634600Y5461800D02*
Y5561800D01*
X584600D02*
X634600D01*
X584600Y5461800D02*
Y5561800D01*
Y5461800D02*
X634600D01*
X-76601Y6070600D02*
Y6170600D01*
X-126599D02*
X-76601D01*
X-126599Y6070600D02*
Y6170600D01*
Y6070600D02*
X-76601D01*
X430108Y5461800D02*
Y5561800D01*
X380108D02*
X430108D01*
X380108Y5461800D02*
Y5561800D01*
Y5461800D02*
X430108D01*
X177797Y5786170D02*
Y5886169D01*
Y5786170D02*
X227797D01*
Y5886169D01*
X177797D02*
X227797D01*
X139700Y5717298D02*
X239700D01*
X139700Y5667298D02*
Y5717298D01*
Y5667298D02*
X239700D01*
Y5717298D01*
X-12299Y5981700D02*
X37699D01*
X-12299D02*
Y6081700D01*
X37699D01*
Y5981700D02*
Y6081700D01*
X70650Y7289500D02*
X170650D01*
Y7339499D01*
X70650D02*
X170650D01*
X70650Y7289500D02*
Y7339499D01*
X978300Y7664380D02*
Y7764380D01*
Y7664380D02*
X1028300D01*
Y7764380D01*
X978300D02*
X1028300D01*
X979320Y7469855D02*
Y7569855D01*
Y7469855D02*
X1029320D01*
Y7569855D01*
X979320D02*
X1029320D01*
X406800Y7759700D02*
Y7859700D01*
Y7759700D02*
X456800D01*
Y7859700D01*
X406800D02*
X456800D01*
X598100Y7835900D02*
Y7935900D01*
X548100D02*
X598100D01*
X548100Y7835900D02*
Y7935900D01*
Y7835900D02*
X598100D01*
X647694Y7978973D02*
Y8078972D01*
Y7978973D02*
X697694D01*
Y8078972D01*
X647694D02*
X697694D01*
X798100Y7976400D02*
Y8076400D01*
X748100D02*
X798100D01*
X748100Y7976400D02*
Y8076400D01*
Y7976400D02*
X798100D01*
X673100Y7860900D02*
X773100D01*
X673100Y7810900D02*
Y7860900D01*
Y7810900D02*
X773100D01*
Y7860900D01*
X890200Y7836700D02*
Y7936700D01*
X840200D02*
X890200D01*
X840200Y7836700D02*
Y7936700D01*
Y7836700D02*
X890200D01*
X864400Y7238600D02*
X964400D01*
X864400Y7188600D02*
Y7238600D01*
Y7188600D02*
X964400D01*
Y7238600D01*
X890000Y6897700D02*
X1015000D01*
X890000D02*
Y7097700D01*
X1015000D01*
Y6897700D02*
Y7097700D01*
X508100Y7188600D02*
X608100D01*
Y7238600D01*
X508100D02*
X608100D01*
X508100Y7188600D02*
Y7238600D01*
X165900Y7188600D02*
X265900D01*
Y7238600D01*
X165900D02*
X265900D01*
X165900Y7188600D02*
Y7238600D01*
X421478Y7828788D02*
Y8148788D01*
X261478Y7828788D02*
X421478D01*
X261478D02*
Y8148788D01*
X421478D01*
X655113Y7826979D02*
Y8146979D01*
X495113Y7826979D02*
X655113D01*
X495113D02*
Y8146979D01*
X655113D01*
X-51200Y7946952D02*
Y8046952D01*
X-101200Y7946952D02*
X-51200D01*
X-101200D02*
Y8046952D01*
X-51200D01*
X140500Y7706900D02*
X240500D01*
Y7656900D02*
Y7706900D01*
X140500Y7656900D02*
X240500D01*
X140500D02*
Y7706900D01*
X-101200Y7531900D02*
Y7631900D01*
X-51200D01*
Y7531900D02*
Y7631900D01*
X-101200Y7531900D02*
X-51200D01*
Y7265200D02*
Y7365200D01*
X-101200Y7265200D02*
X-51200D01*
X-101200D02*
Y7365200D01*
X-51200D01*
X863200Y7658900D02*
Y7758900D01*
X813200Y7658900D02*
X863200D01*
X813200D02*
Y7758900D01*
X863200D01*
X978300Y8052600D02*
Y8152600D01*
X1028300D01*
Y8052600D02*
Y8152600D01*
X978300Y8052600D02*
X1028300D01*
X884292Y8267700D02*
Y8367700D01*
X834292Y8267700D02*
X884292D01*
X834292D02*
Y8367700D01*
X884292D01*
X977500Y7658900D02*
Y7758900D01*
X927500Y7658900D02*
X977500D01*
X927500D02*
Y7758900D01*
X977500D01*
X181600Y7828300D02*
Y8148300D01*
X21600Y7828300D02*
X181600D01*
X21600D02*
Y8148300D01*
X181600D01*
X107000Y2324900D02*
Y2424900D01*
X156999D01*
Y2324900D02*
Y2424900D01*
X107000Y2324900D02*
X156999D01*
X151999Y2621547D02*
Y2721546D01*
X102000Y2621547D02*
X151999D01*
X102000D02*
Y2721546D01*
X151999D01*
X266661Y2557227D02*
Y2657227D01*
X316661D01*
Y2557227D02*
Y2657227D01*
X266661Y2557227D02*
X316661D01*
X648500Y2755500D02*
X748500D01*
Y2705500D02*
Y2755500D01*
X648500Y2705500D02*
X748500D01*
X648500D02*
Y2755500D01*
X1422800Y914401D02*
Y1014401D01*
X1472800D01*
Y914401D02*
Y1014401D01*
X1422800Y914401D02*
X1472800D01*
X1994300Y927901D02*
Y1027901D01*
X2044300D01*
Y927901D02*
Y1027901D01*
X1994300Y927901D02*
X2044300D01*
X1891500Y1105301D02*
Y1155301D01*
X1791500Y1105301D02*
X1891500D01*
X1791500D02*
Y1155301D01*
X1891500D01*
X1791500Y609201D02*
X1891500D01*
X1791500Y559201D02*
Y609201D01*
Y559201D02*
X1891500D01*
Y609201D01*
D96*
X124300Y5446400D02*
X101447D01*
Y5457826D01*
X105256Y5461635D01*
X112874D01*
X116683Y5457826D01*
Y5446400D01*
Y5454018D02*
X124300Y5461635D01*
X120491Y5469253D02*
X124300Y5473061D01*
Y5480679D01*
X120491Y5484488D01*
X105256D01*
X101447Y5480679D01*
Y5473061D01*
X105256Y5469253D01*
X109065D01*
X112874Y5473061D01*
Y5484488D01*
X-15400Y5446400D02*
X-38253D01*
Y5457826D01*
X-34444Y5461635D01*
X-26826D01*
X-23017Y5457826D01*
Y5446400D01*
Y5454018D02*
X-15400Y5461635D01*
Y5469253D02*
Y5476870D01*
Y5473061D01*
X-38253D01*
X-34444Y5469253D01*
Y5488297D02*
X-38253Y5492105D01*
Y5499723D01*
X-34444Y5503532D01*
X-19209D01*
X-15400Y5499723D01*
Y5492105D01*
X-19209Y5488297D01*
X-34444D01*
X-92556Y5826793D02*
X-88747Y5822984D01*
Y5815366D01*
X-92556Y5811558D01*
X-107791D01*
X-111600Y5815366D01*
Y5822984D01*
X-107791Y5826793D01*
X-111600Y5834410D02*
Y5842028D01*
Y5838219D01*
X-88747D01*
X-92556Y5834410D01*
X104300Y5471800D02*
X127153D01*
Y5483226D01*
X123344Y5487035D01*
X115726D01*
X111917Y5483226D01*
Y5471800D01*
Y5479418D02*
X104300Y5487035D01*
Y5506079D02*
X127153D01*
X115726Y5494653D01*
Y5509888D01*
X218600Y5471800D02*
X241453D01*
Y5483226D01*
X237644Y5487035D01*
X230026D01*
X226217Y5483226D01*
Y5471800D01*
Y5479418D02*
X218600Y5487035D01*
X241453Y5509888D02*
X237644Y5502270D01*
X230026Y5494653D01*
X222409D01*
X218600Y5498461D01*
Y5506079D01*
X222409Y5509888D01*
X226217D01*
X230026Y5506079D01*
Y5494653D01*
X765656Y5612765D02*
X761847Y5616574D01*
Y5624191D01*
X765656Y5628000D01*
X780891D01*
X784700Y5624191D01*
Y5616574D01*
X780891Y5612765D01*
X784700Y5589912D02*
Y5605147D01*
X769465Y5589912D01*
X765656D01*
X761847Y5593721D01*
Y5601339D01*
X765656Y5605147D01*
X899000Y5628000D02*
X876147D01*
Y5616574D01*
X879956Y5612765D01*
X887574D01*
X891383Y5616574D01*
Y5628000D01*
Y5620382D02*
X899000Y5612765D01*
Y5605147D02*
Y5597530D01*
Y5601339D01*
X876147D01*
X879956Y5605147D01*
X1013300Y5627200D02*
X990447D01*
Y5615774D01*
X994256Y5611965D01*
X1001874D01*
X1005683Y5615774D01*
Y5627200D01*
Y5619583D02*
X1013300Y5611965D01*
Y5589112D02*
Y5604347D01*
X998065Y5589112D01*
X994256D01*
X990447Y5592921D01*
Y5600539D01*
X994256Y5604347D01*
X362982Y5551800D02*
X385834D01*
Y5540374D01*
X382026Y5536565D01*
X374408D01*
X370599Y5540374D01*
Y5551800D01*
Y5544182D02*
X362982Y5536565D01*
X385834Y5528947D02*
Y5513712D01*
X382026D01*
X366790Y5528947D01*
X362982D01*
X599600Y5471800D02*
X622453D01*
Y5483226D01*
X618644Y5487035D01*
X611026D01*
X607217Y5483226D01*
Y5471800D01*
Y5479418D02*
X599600Y5487035D01*
X618644Y5494653D02*
X622453Y5498461D01*
Y5506079D01*
X618644Y5509888D01*
X614835D01*
X611026Y5506079D01*
Y5502270D01*
Y5506079D01*
X607217Y5509888D01*
X603409D01*
X599600Y5506079D01*
Y5498461D01*
X603409Y5494653D01*
X395108Y5471800D02*
X417961D01*
Y5483226D01*
X414152Y5487035D01*
X406534D01*
X402726Y5483226D01*
Y5471800D01*
Y5479418D02*
X395108Y5487035D01*
X417961Y5509888D02*
Y5494653D01*
X406534D01*
X410343Y5502270D01*
Y5506079D01*
X406534Y5509888D01*
X398917D01*
X395108Y5506079D01*
Y5498461D01*
X398917Y5494653D01*
X212797Y5876169D02*
X189945D01*
Y5864743D01*
X193753Y5860934D01*
X201371D01*
X205180Y5864743D01*
Y5876169D01*
Y5868552D02*
X212797Y5860934D01*
X193753Y5853317D02*
X189945Y5849508D01*
Y5841891D01*
X193753Y5838082D01*
X197562D01*
X201371Y5841891D01*
X205180Y5838082D01*
X208989D01*
X212797Y5841891D01*
Y5849508D01*
X208989Y5853317D01*
X205180D01*
X201371Y5849508D01*
X197562Y5853317D01*
X193753D01*
X201371Y5849508D02*
Y5841891D01*
X214465Y5701342D02*
X218274Y5705150D01*
X225891D01*
X229700Y5701342D01*
Y5686106D01*
X225891Y5682298D01*
X218274D01*
X214465Y5686106D01*
X206847Y5701342D02*
X203039Y5705150D01*
X195421D01*
X191612Y5701342D01*
Y5697533D01*
X195421Y5693724D01*
X199230D01*
X195421D01*
X191612Y5689915D01*
Y5686106D01*
X195421Y5682298D01*
X203039D01*
X206847Y5686106D01*
X422756Y7834465D02*
X418947Y7838274D01*
Y7845891D01*
X422756Y7849700D01*
X437991D01*
X441800Y7845891D01*
Y7838274D01*
X437991Y7834465D01*
X418947Y7811612D02*
X422756Y7819230D01*
X430374Y7826847D01*
X437991D01*
X441800Y7823038D01*
Y7815421D01*
X437991Y7811612D01*
X434183D01*
X430374Y7815421D01*
Y7826847D01*
X418947Y7803995D02*
Y7788759D01*
X422756D01*
X437991Y7803995D01*
X441800D01*
X847244Y7733665D02*
X851053Y7737474D01*
Y7745091D01*
X847244Y7748900D01*
X832009D01*
X828200Y7745091D01*
Y7737474D01*
X832009Y7733665D01*
X851053Y7710812D02*
X847244Y7718430D01*
X839626Y7726047D01*
X832009D01*
X828200Y7722239D01*
Y7714621D01*
X832009Y7710812D01*
X835817D01*
X839626Y7714621D01*
Y7726047D01*
X847244Y7703195D02*
X851053Y7699386D01*
Y7691768D01*
X847244Y7687959D01*
X843435D01*
X839626Y7691768D01*
X835817Y7687959D01*
X832009D01*
X828200Y7691768D01*
Y7699386D01*
X832009Y7703195D01*
X835817D01*
X839626Y7699386D01*
X843435Y7703195D01*
X847244D01*
X839626Y7699386D02*
Y7691768D01*
X961544Y7733665D02*
X965353Y7737474D01*
Y7745091D01*
X961544Y7748900D01*
X946309D01*
X942500Y7745091D01*
Y7737474D01*
X946309Y7733665D01*
X965353Y7710812D02*
X961544Y7718430D01*
X953926Y7726047D01*
X946309D01*
X942500Y7722239D01*
Y7714621D01*
X946309Y7710812D01*
X950117D01*
X953926Y7714621D01*
Y7726047D01*
X946309Y7703195D02*
X942500Y7699386D01*
Y7691768D01*
X946309Y7687959D01*
X961544D01*
X965353Y7691768D01*
Y7699386D01*
X961544Y7703195D01*
X957735D01*
X953926Y7699386D01*
Y7687959D01*
X673735Y2739544D02*
X669926Y2743353D01*
X662309D01*
X658500Y2739544D01*
Y2724309D01*
X662309Y2720500D01*
X669926D01*
X673735Y2724309D01*
X696588Y2743353D02*
X681353D01*
Y2731926D01*
X688970Y2735735D01*
X692779D01*
X696588Y2731926D01*
Y2724309D01*
X692779Y2720500D01*
X685161D01*
X681353Y2724309D01*
X704205Y2720500D02*
X711823D01*
X708014D01*
Y2743353D01*
X704205Y2739544D01*
D97*
X585600Y7387800D02*
G03*
X585600Y7387800I-30000J0D01*
G01*
X490600Y7297800D02*
X855600D01*
Y7662800D01*
X490600D02*
X855600D01*
X490600Y7297800D02*
Y7662800D01*
X1652400Y775401D02*
Y1080401D01*
X1827400Y775401D02*
Y1080401D01*
X1652400D02*
X1827400D01*
X1652400Y775401D02*
X1827400D01*
X1739000Y942830D02*
X2044000D01*
X1739000Y767830D02*
X2044000D01*
X1739000D02*
Y942830D01*
X2044000Y767830D02*
Y942830D01*
%TF.MD5,4f786c7c702c20ea21cd87289037ea31*%
M02*
