%TF.GenerationSoftware,Altium Limited,Altium Designer,22.6.1 (34)*%
G04 Layer_Color=8388736*
%FSLAX45Y45*%
%MOMM*%
%TF.SameCoordinates,41C29604-6FBD-4392-AD62-CF0DA8D1722B*%
%TF.FilePolarity,Negative*%
%TF.FileFunction,Soldermask,Top*%
%TF.Part,CustomerPanel*%
G01*
G75*
%TA.AperFunction,SMDPad,CuDef*%
%ADD57R,0.80320X0.70320*%
%ADD63R,0.70320X0.80320*%
%ADD65R,1.50320X0.60320*%
%TA.AperFunction,ComponentPad*%
%ADD75R,1.70320X1.70320*%
%ADD76C,1.70320*%
%ADD77C,1.00320*%
%TA.AperFunction,ViaPad*%
%ADD78C,0.83820*%
%TA.AperFunction,ComponentPad*%
%ADD79C,1.72720*%
%ADD80R,1.72720X1.72720*%
%TA.AperFunction,SMDPad,CuDef*%
%ADD86R,0.82320X1.42320*%
%ADD87R,1.80320X1.10320*%
%ADD88R,2.42320X1.44320*%
G04:AMPARAMS|DCode=89|XSize=0.9132mm|YSize=0.5532mm|CornerRadius=0.1891mm|HoleSize=0mm|Usage=FLASHONLY|Rotation=90.000|XOffset=0mm|YOffset=0mm|HoleType=Round|Shape=RoundedRectangle|*
%AMROUNDEDRECTD89*
21,1,0.91320,0.17500,0,0,90.0*
21,1,0.53501,0.55320,0,0,90.0*
1,1,0.37820,0.08750,0.26750*
1,1,0.37820,0.08750,-0.26750*
1,1,0.37820,-0.08750,-0.26750*
1,1,0.37820,-0.08750,0.26750*
%
%ADD89ROUNDEDRECTD89*%
%ADD90R,1.12820X0.50320*%
%ADD91R,0.50320X1.00320*%
%ADD92R,1.45320X0.90320*%
%ADD93R,2.84480X2.51460*%
%ADD94R,0.50800X1.60020*%
D57*
X625988Y3831939D02*
D03*
Y3731939D02*
D03*
X492638Y3831939D02*
D03*
Y3731939D02*
D03*
X-15362Y3693039D02*
D03*
Y3793039D02*
D03*
X492638Y4068487D02*
D03*
Y4168486D02*
D03*
X22738Y4392336D02*
D03*
Y4492336D02*
D03*
X114300Y5536400D02*
D03*
Y5436400D02*
D03*
X-25400Y5536400D02*
D03*
Y5436400D02*
D03*
X372982Y5461800D02*
D03*
Y5561800D02*
D03*
X-76200Y7946952D02*
D03*
Y8046952D02*
D03*
Y7631900D02*
D03*
Y7531900D02*
D03*
Y7265200D02*
D03*
Y7365200D02*
D03*
X838200Y7658900D02*
D03*
Y7758900D02*
D03*
X1003300Y8152600D02*
D03*
Y8052600D02*
D03*
X859292Y8267700D02*
D03*
Y8367700D02*
D03*
X952500Y7658900D02*
D03*
Y7758900D02*
D03*
X131999Y2424900D02*
D03*
Y2324900D02*
D03*
X126999Y2621546D02*
D03*
Y2721546D02*
D03*
X291661Y2657227D02*
D03*
Y2557227D02*
D03*
X1447800Y1014401D02*
D03*
Y914401D02*
D03*
X2019300Y1027901D02*
D03*
Y927901D02*
D03*
D63*
X1037938Y4569339D02*
D03*
X937938D02*
D03*
X557636Y4607439D02*
D03*
X657636D02*
D03*
X1012538Y4007364D02*
D03*
X912538D02*
D03*
Y3896239D02*
D03*
X1012538D02*
D03*
X912538Y3769239D02*
D03*
X1012538D02*
D03*
X252136Y4218939D02*
D03*
X352135D02*
D03*
X390241Y4607439D02*
D03*
X290241D02*
D03*
X21941D02*
D03*
X-78059D02*
D03*
X60838Y4061339D02*
D03*
X-39162D02*
D03*
X557637Y4484439D02*
D03*
X657636D02*
D03*
X240500Y7681900D02*
D03*
X140500D02*
D03*
X748500Y2730500D02*
D03*
X648500D02*
D03*
D65*
X393136Y4484439D02*
D03*
Y4354442D02*
D03*
X211638D02*
D03*
X393136Y4419440D02*
D03*
X211638D02*
D03*
Y4484439D02*
D03*
D75*
X1000638Y4823339D02*
D03*
Y3502539D02*
D03*
X990600Y5232400D02*
D03*
Y6553200D02*
D03*
X723900Y7023100D02*
D03*
X469900Y8343900D02*
D03*
X1257300Y1765300D02*
D03*
Y3086100D02*
D03*
X1778000Y1320801D02*
D03*
Y1D02*
D03*
D76*
X746638Y4823339D02*
D03*
X492638D02*
D03*
X238638D02*
D03*
X-15362D02*
D03*
X746638Y3502539D02*
D03*
X492638D02*
D03*
X238638D02*
D03*
X-15362D02*
D03*
X736600Y5232400D02*
D03*
X482600D02*
D03*
X228600D02*
D03*
X-25400D02*
D03*
X736600Y6553200D02*
D03*
X482600D02*
D03*
X228600D02*
D03*
X-25400D02*
D03*
X-38100Y7023100D02*
D03*
X215900D02*
D03*
X469900D02*
D03*
X215900Y8343900D02*
D03*
X-38100D02*
D03*
X-12700Y1765300D02*
D03*
X241300D02*
D03*
X495300D02*
D03*
X749300D02*
D03*
X1003300D02*
D03*
Y3086100D02*
D03*
X749300D02*
D03*
X495300D02*
D03*
X241300D02*
D03*
X-12700D02*
D03*
X0Y1320801D02*
D03*
X254000D02*
D03*
X508000D02*
D03*
X762000D02*
D03*
X1016000D02*
D03*
X1270000D02*
D03*
X1524000D02*
D03*
X0Y1D02*
D03*
X254000D02*
D03*
X508000D02*
D03*
X762000D02*
D03*
X1016000D02*
D03*
X1270000D02*
D03*
X1524000D02*
D03*
D77*
X657636Y4237539D02*
D03*
X506607Y5902300D02*
D03*
D78*
X623100Y7530300D02*
D03*
Y7430300D02*
D03*
D79*
X1215200Y647701D02*
D03*
D80*
X715200D02*
D03*
D86*
X1032138Y4157440D02*
D03*
X842138D02*
D03*
Y4419440D02*
D03*
X937137D02*
D03*
X1032138D02*
D03*
X234700Y7535100D02*
D03*
X139699D02*
D03*
X44700D02*
D03*
Y7273100D02*
D03*
X234700D02*
D03*
D87*
X341478Y8133788D02*
D03*
Y7843788D02*
D03*
X575113Y8131979D02*
D03*
Y7841979D02*
D03*
X101600Y8133300D02*
D03*
Y7843300D02*
D03*
D88*
X914400Y7231600D02*
D03*
Y7449600D02*
D03*
D89*
X909292Y7925600D02*
D03*
X859292D02*
D03*
X809292Y7926600D02*
D03*
Y8067600D02*
D03*
X859292D02*
D03*
X909292D02*
D03*
D90*
X469900Y2550300D02*
D03*
Y2500300D02*
D03*
Y2450300D02*
D03*
Y2400300D02*
D03*
Y2350300D02*
D03*
X729900D02*
D03*
Y2400300D02*
D03*
Y2450300D02*
D03*
Y2500300D02*
D03*
Y2550300D02*
D03*
D91*
X549900Y2322800D02*
D03*
X599900D02*
D03*
X649900D02*
D03*
Y2577800D02*
D03*
X599900D02*
D03*
X549900D02*
D03*
D92*
X1619900Y1022901D02*
D03*
Y927901D02*
D03*
Y832901D02*
D03*
X1859900D02*
D03*
Y1022901D02*
D03*
D93*
X1511300Y431801D02*
D03*
X7620D02*
D03*
D94*
X185420Y304801D02*
D03*
X233680D02*
D03*
X284480D02*
D03*
X335280D02*
D03*
X383540D02*
D03*
X434340D02*
D03*
X485140D02*
D03*
X533400D02*
D03*
X584200D02*
D03*
X635000D02*
D03*
X683260D02*
D03*
X734060D02*
D03*
X784860D02*
D03*
X835660D02*
D03*
X883920D02*
D03*
X934720D02*
D03*
X985520D02*
D03*
X1033780D02*
D03*
X1084580D02*
D03*
X1135380D02*
D03*
X1183640D02*
D03*
X1234440D02*
D03*
X1285240D02*
D03*
X1333500D02*
D03*
%TF.MD5,0529bab21b6b5d12556bee187c33a161*%
M02*
