G04*
G04 #@! TF.GenerationSoftware,Altium Limited,Altium Designer,19.0.15 (446)*
G04*
G04 Layer_Color=16711935*
%FSLAX25Y25*%
%MOIN*%
G70*
G01*
G75*
%ADD11C,0.00600*%
%ADD33C,0.00000*%
%ADD34C,0.00200*%
%ADD35C,0.00100*%
%ADD36C,0.00394*%
%ADD37C,0.00150*%
D11*
X56400Y28500D02*
X58900Y33500D01*
X53900D02*
X56400Y28500D01*
X-600Y33500D02*
X68200D01*
Y50100D01*
X-600D02*
X68200D01*
X-600Y33500D02*
Y50100D01*
X56400Y28500D02*
X58900Y33500D01*
X53900D02*
X56400Y28500D01*
X-600Y33500D02*
X68200D01*
Y50100D01*
X-600D02*
X68200D01*
X-600Y33500D02*
Y50100D01*
D33*
X108264Y34232D02*
G03*
X108264Y34232I-18500J0D01*
G01*
D34*
X11984Y20000D02*
Y23937D01*
X10016Y20000D02*
X11984D01*
X10016D02*
Y23937D01*
X11984D01*
X54016Y17531D02*
X55984D01*
X54016D02*
Y21468D01*
X55984D01*
Y17531D02*
Y21468D01*
X37031Y19876D02*
Y21845D01*
X40968D01*
Y19876D02*
Y21845D01*
X37031Y19876D02*
X40968D01*
X4516Y20031D02*
X6484D01*
Y23968D01*
X4516D02*
X6484D01*
X4516Y20031D02*
Y23968D01*
X105468Y53016D02*
Y54984D01*
X101532D02*
X105468D01*
X101532Y53016D02*
Y54984D01*
Y53016D02*
X105468D01*
X56016Y29531D02*
X57984D01*
X56016D02*
Y33468D01*
X57984D01*
Y29531D02*
Y33468D01*
X33516Y29531D02*
X35484D01*
X33516D02*
Y33468D01*
X35484D01*
Y29531D02*
Y33468D01*
X27016Y29531D02*
X28984D01*
X27016D02*
Y33468D01*
X28984D01*
Y29531D02*
Y33468D01*
X58031Y17516D02*
Y19484D01*
Y17516D02*
X61968D01*
Y19484D01*
X58031D02*
X61968D01*
X64969Y46016D02*
Y47984D01*
X61032Y46016D02*
X64969D01*
X61032D02*
Y47984D01*
X64969D01*
X61968Y13516D02*
Y15484D01*
X58031D02*
X61968D01*
X58031Y13516D02*
Y15484D01*
Y13516D02*
X61968D01*
X61032Y50016D02*
Y51984D01*
X64969D01*
Y50016D02*
Y51984D01*
X61032Y50016D02*
X64969D01*
X6984Y29531D02*
Y33468D01*
X5016D02*
X6984D01*
X5016Y29531D02*
Y33468D01*
Y29531D02*
X6984D01*
X62984Y23000D02*
Y26937D01*
X61016Y23000D02*
X62984D01*
X61016D02*
Y26937D01*
X62984D01*
D35*
X100000Y9732D02*
Y14732D01*
X97500Y12232D02*
X102500D01*
D36*
X13555Y23736D02*
X20445D01*
X13555Y35744D02*
X20445D01*
X13555Y23736D02*
Y35744D01*
X20445Y23736D02*
Y35744D01*
X41280Y23736D02*
X48169D01*
X41280Y35744D02*
X48169D01*
X41280Y23736D02*
Y35744D01*
X48169Y23736D02*
Y35744D01*
D37*
X10606Y23543D02*
X11506D01*
Y23094D01*
X11356Y22943D01*
X11056D01*
X10906Y23094D01*
Y23543D01*
Y23243D02*
X10606Y22943D01*
Y22194D02*
X11506D01*
X11056Y22644D01*
Y22044D01*
X10606Y21294D02*
X11506D01*
X11056Y21744D01*
Y21144D01*
X54606Y17925D02*
X55506D01*
Y18375D01*
X55356Y18525D01*
X55056D01*
X54906Y18375D01*
Y17925D01*
Y18225D02*
X54606Y18525D01*
Y19275D02*
X55506D01*
X55056Y18825D01*
Y19425D01*
X54606Y19725D02*
Y20024D01*
Y19875D01*
X55506D01*
X55356Y19725D01*
X37425Y21254D02*
Y20355D01*
X37875D01*
X38025Y20504D01*
Y20804D01*
X37875Y20954D01*
X37425D01*
X37725D02*
X38025Y21254D01*
X38775D02*
Y20355D01*
X38325Y20804D01*
X38925D01*
X39824Y21254D02*
X39225D01*
X39824Y20654D01*
Y20504D01*
X39674Y20355D01*
X39375D01*
X39225Y20504D01*
X5894Y20425D02*
X4994D01*
Y20875D01*
X5144Y21025D01*
X5444D01*
X5594Y20875D01*
Y20425D01*
Y20725D02*
X5894Y21025D01*
Y21775D02*
X4994D01*
X5444Y21325D01*
Y21925D01*
X5144Y22225D02*
X4994Y22375D01*
Y22674D01*
X5144Y22824D01*
X5294D01*
X5444Y22674D01*
Y22524D01*
Y22674D01*
X5594Y22824D01*
X5744D01*
X5894Y22674D01*
Y22375D01*
X5744Y22225D01*
X105075Y54394D02*
Y53494D01*
X104625D01*
X104475Y53644D01*
Y53944D01*
X104625Y54094D01*
X105075D01*
X104775D02*
X104475Y54394D01*
X103725D02*
Y53494D01*
X104175Y53944D01*
X103575D01*
X102676Y53494D02*
X103275D01*
Y53944D01*
X102975Y53794D01*
X102825D01*
X102676Y53944D01*
Y54244D01*
X102825Y54394D01*
X103125D01*
X103275Y54244D01*
X57356Y30525D02*
X57506Y30375D01*
Y30075D01*
X57356Y29925D01*
X56756D01*
X56606Y30075D01*
Y30375D01*
X56756Y30525D01*
X56606Y31275D02*
X57506D01*
X57056Y30825D01*
Y31425D01*
X56606Y31725D02*
Y32024D01*
Y31875D01*
X57506D01*
X57356Y31725D01*
X34856Y30525D02*
X35006Y30375D01*
Y30075D01*
X34856Y29925D01*
X34256D01*
X34106Y30075D01*
Y30375D01*
X34256Y30525D01*
X34106Y31275D02*
X35006D01*
X34556Y30825D01*
Y31425D01*
X34106Y32324D02*
Y31725D01*
X34706Y32324D01*
X34856D01*
X35006Y32175D01*
Y31875D01*
X34856Y31725D01*
X28356Y30525D02*
X28506Y30375D01*
Y30075D01*
X28356Y29925D01*
X27756D01*
X27606Y30075D01*
Y30375D01*
X27756Y30525D01*
X27606Y31275D02*
X28506D01*
X28056Y30825D01*
Y31425D01*
X28356Y31725D02*
X28506Y31875D01*
Y32175D01*
X28356Y32324D01*
X28206D01*
X28056Y32175D01*
Y32024D01*
Y32175D01*
X27906Y32324D01*
X27756D01*
X27606Y32175D01*
Y31875D01*
X27756Y31725D01*
X58425Y18106D02*
Y19006D01*
X58875D01*
X59025Y18856D01*
Y18556D01*
X58875Y18406D01*
X58425D01*
X58725D02*
X59025Y18106D01*
X59775D02*
Y19006D01*
X59325Y18556D01*
X59925D01*
X60824Y19006D02*
X60524Y18856D01*
X60225Y18556D01*
Y18256D01*
X60375Y18106D01*
X60675D01*
X60824Y18256D01*
Y18406D01*
X60675Y18556D01*
X60225D01*
X64575Y46606D02*
Y47506D01*
X64125D01*
X63975Y47356D01*
Y47056D01*
X64125Y46906D01*
X64575D01*
X64275D02*
X63975Y46606D01*
X63225D02*
Y47506D01*
X63675Y47056D01*
X63075D01*
X62775Y47506D02*
X62176D01*
Y47356D01*
X62775Y46756D01*
Y46606D01*
X61575Y14894D02*
Y13994D01*
X61125D01*
X60975Y14144D01*
Y14444D01*
X61125Y14594D01*
X61575D01*
X61275D02*
X60975Y14894D01*
X60225D02*
Y13994D01*
X60675Y14444D01*
X60075D01*
X59775Y14144D02*
X59625Y13994D01*
X59325D01*
X59176Y14144D01*
Y14294D01*
X59325Y14444D01*
X59176Y14594D01*
Y14744D01*
X59325Y14894D01*
X59625D01*
X59775Y14744D01*
Y14594D01*
X59625Y14444D01*
X59775Y14294D01*
Y14144D01*
X59625Y14444D02*
X59325D01*
X61425Y51394D02*
Y50494D01*
X61875D01*
X62025Y50644D01*
Y50944D01*
X61875Y51094D01*
X61425D01*
X61725D02*
X62025Y51394D01*
X62775D02*
Y50494D01*
X62325Y50944D01*
X62925D01*
X63225Y51244D02*
X63375Y51394D01*
X63674D01*
X63824Y51244D01*
Y50644D01*
X63674Y50494D01*
X63375D01*
X63225Y50644D01*
Y50794D01*
X63375Y50944D01*
X63824D01*
X6356Y30525D02*
X6506Y30375D01*
Y30075D01*
X6356Y29925D01*
X5756D01*
X5606Y30075D01*
Y30375D01*
X5756Y30525D01*
X5606Y31275D02*
X6506D01*
X6056Y30825D01*
Y31425D01*
X5606Y32175D02*
X6506D01*
X6056Y31725D01*
Y32324D01*
X62356Y25943D02*
X62506Y26094D01*
Y26393D01*
X62356Y26543D01*
X61756D01*
X61606Y26393D01*
Y26094D01*
X61756Y25943D01*
X61606Y25194D02*
X62506D01*
X62056Y25644D01*
Y25044D01*
X62506Y24144D02*
Y24744D01*
X62056D01*
X62206Y24444D01*
Y24294D01*
X62056Y24144D01*
X61756D01*
X61606Y24294D01*
Y24594D01*
X61756Y24744D01*
M02*
