G04*
G04 #@! TF.GenerationSoftware,Altium Limited,Altium Designer,19.0.15 (446)*
G04*
G04 Layer_Color=255*
%FSLAX25Y25*%
%MOIN*%
G70*
G01*
G75*
%ADD12R,0.02362X0.01968*%
%ADD15R,0.01968X0.02362*%
%ADD20R,0.05000X0.05000*%
%ADD21C,0.05000*%
%ADD25R,0.05906X0.05906*%
%ADD26C,0.05906*%
%ADD28R,0.04921X0.02756*%
D12*
X55000Y17531D02*
D03*
Y21468D02*
D03*
X57000Y29531D02*
D03*
Y33468D02*
D03*
X34500Y29531D02*
D03*
Y33468D02*
D03*
X28000Y29531D02*
D03*
Y33468D02*
D03*
X6000D02*
D03*
Y29531D02*
D03*
D15*
X37031Y20861D02*
D03*
X40968D02*
D03*
X64969Y47000D02*
D03*
X61032D02*
D03*
X61032Y51000D02*
D03*
X64969D02*
D03*
D20*
X100000Y25965D02*
D03*
D21*
X79528D02*
D03*
Y42500D02*
D03*
X100000D02*
D03*
D25*
X105000Y65000D02*
D03*
Y5000D02*
D03*
D26*
X95000Y65000D02*
D03*
X85000D02*
D03*
X75000D02*
D03*
X95000Y5000D02*
D03*
X85000D02*
D03*
X75000D02*
D03*
X65000D02*
D03*
X55000D02*
D03*
X45000D02*
D03*
X35000D02*
D03*
X25000D02*
D03*
X15000D02*
D03*
X5000D02*
D03*
D28*
X12276Y33480D02*
D03*
Y26000D02*
D03*
X21724D02*
D03*
Y29740D02*
D03*
Y33480D02*
D03*
X40000D02*
D03*
Y26000D02*
D03*
X49449D02*
D03*
Y29740D02*
D03*
Y33480D02*
D03*
M02*
