G04*
G04 #@! TF.GenerationSoftware,Altium Limited,Altium Designer,19.0.15 (446)*
G04*
G04 Layer_Physical_Order=1*
G04 Layer_Color=255*
%FSLAX25Y25*%
%MOIN*%
G70*
G01*
G75*
%ADD12R,0.02362X0.01968*%
%ADD13R,0.01200X0.05500*%
%ADD14R,0.10400X0.09100*%
%ADD15R,0.01968X0.02362*%
%ADD20R,0.05000X0.05000*%
%ADD21C,0.05000*%
%ADD24C,0.00800*%
%ADD25R,0.05906X0.05906*%
%ADD26C,0.05906*%
%ADD27C,0.03000*%
G36*
X72378Y67971D02*
X72181Y67819D01*
X71547Y66993D01*
X71313Y66427D01*
X71000D01*
X71000Y66427D01*
X70454Y66319D01*
X69991Y66009D01*
X69991Y66009D01*
X49756Y45775D01*
X49121Y45825D01*
X48802Y46302D01*
X47976Y46855D01*
X47000Y47049D01*
X46025Y46855D01*
X45198Y46302D01*
X44645Y45476D01*
X44451Y44500D01*
X44539Y44058D01*
X39691Y39209D01*
X39381Y38746D01*
X39273Y38200D01*
X39273Y38200D01*
Y37250D01*
X39100D01*
Y33500D01*
X38400D01*
Y37250D01*
X38368D01*
X38368Y37250D01*
X38200D01*
Y37564D01*
X38132Y37691D01*
X38355Y38025D01*
X38549Y39000D01*
X38355Y39976D01*
X37802Y40802D01*
X36975Y41355D01*
X36000Y41549D01*
X35024Y41355D01*
X34198Y40802D01*
X33947Y40427D01*
X30000D01*
X29454Y40319D01*
X28991Y40009D01*
X28991Y40009D01*
X27991Y39009D01*
X27935Y38926D01*
X27670Y38966D01*
X27434Y39076D01*
X27255Y39976D01*
X26702Y40802D01*
X25875Y41355D01*
X24900Y41549D01*
X23924Y41355D01*
X23098Y40802D01*
X22545Y39976D01*
X22351Y39000D01*
X22545Y38025D01*
X22768Y37691D01*
X22532Y37250D01*
X19827D01*
X19500Y37750D01*
X19649Y38500D01*
X19455Y39476D01*
X18902Y40302D01*
X18076Y40855D01*
X17100Y41049D01*
X16125Y40855D01*
X15298Y40302D01*
X14745Y39476D01*
X14551Y38500D01*
X14700Y37750D01*
X14373Y37250D01*
X13500D01*
Y33500D01*
Y29750D01*
X19573D01*
Y24023D01*
X19132Y23788D01*
X18975Y23892D01*
X18000Y24086D01*
X17527Y23992D01*
X16572Y24946D01*
X16109Y25256D01*
X15563Y25364D01*
X15563Y25364D01*
X13181D01*
Y25921D01*
X8819D01*
Y21459D01*
X7681D01*
Y25953D01*
X3319D01*
Y25953D01*
X2865Y26063D01*
X2475Y26324D01*
X1500Y26518D01*
X525Y26324D01*
X-302Y25771D01*
X-471Y25519D01*
X-971Y25671D01*
Y32950D01*
X9600D01*
Y29750D01*
X12800D01*
Y33500D01*
Y37250D01*
X10400D01*
Y44050D01*
X-971D01*
Y68471D01*
X72208D01*
X72378Y67971D01*
D02*
G37*
G36*
X101047Y61047D02*
X104041D01*
Y56181D01*
X99547D01*
Y55427D01*
X66153D01*
X65946Y55927D01*
X69091Y59073D01*
X80500D01*
X80500Y59073D01*
X81046Y59181D01*
X81509Y59491D01*
X83402Y61383D01*
X83968Y61149D01*
X85000Y61013D01*
X86032Y61149D01*
X86993Y61547D01*
X87819Y62181D01*
X88453Y63007D01*
X88851Y63968D01*
X88987Y65000D01*
X88851Y66032D01*
X88453Y66993D01*
X87819Y67819D01*
X87622Y67971D01*
X87792Y68471D01*
X92208D01*
X92378Y67971D01*
X92181Y67819D01*
X91547Y66993D01*
X91149Y66032D01*
X91013Y65000D01*
X91149Y63968D01*
X91547Y63007D01*
X92181Y62181D01*
X93007Y61547D01*
X93968Y61149D01*
X95000Y61013D01*
X96032Y61149D01*
X96993Y61547D01*
X97819Y62181D01*
X98453Y63007D01*
X98851Y63968D01*
X98987Y65000D01*
X98851Y66032D01*
X98453Y66993D01*
X97819Y67819D01*
X97622Y67971D01*
X97791Y68471D01*
X101047D01*
Y61047D01*
D02*
G37*
G36*
X108471Y8953D02*
X101047D01*
Y1529D01*
X97791D01*
X97622Y2029D01*
X97819Y2181D01*
X98453Y3007D01*
X98851Y3968D01*
X98921Y4500D01*
X95000D01*
X91079D01*
X91149Y3968D01*
X91547Y3007D01*
X92181Y2181D01*
X92378Y2029D01*
X92208Y1529D01*
X87792D01*
X87622Y2029D01*
X87819Y2181D01*
X88453Y3007D01*
X88851Y3968D01*
X88987Y5000D01*
X88851Y6032D01*
X88453Y6993D01*
X87819Y7819D01*
X86993Y8453D01*
X86032Y8851D01*
X85000Y8987D01*
X83968Y8851D01*
X83402Y8617D01*
X82155Y9863D01*
X82347Y10325D01*
X100753D01*
X100753Y10325D01*
X101299Y10434D01*
X101762Y10743D01*
X106009Y14991D01*
X106009Y14991D01*
X106319Y15454D01*
X106427Y16000D01*
Y37500D01*
X106427Y37500D01*
X106319Y38046D01*
X106009Y38509D01*
X106009Y38509D01*
X105150Y39368D01*
X105000Y49000D01*
X73500Y49000D01*
X73500Y19927D01*
X64306D01*
X63953Y20281D01*
Y20610D01*
X64181Y21016D01*
X64181D01*
X64181Y21016D01*
Y24953D01*
Y26437D01*
X62000D01*
X59819D01*
Y24396D01*
X53000D01*
X53000Y24396D01*
X52454Y24287D01*
X51991Y23978D01*
X51942Y23930D01*
X51500Y24017D01*
X50524Y23823D01*
X49698Y23271D01*
X49145Y22444D01*
X48951Y21468D01*
X48466Y21345D01*
X47524Y21158D01*
X46989Y20800D01*
X46670Y21189D01*
X53554Y28073D01*
X59819D01*
Y27437D01*
X62000D01*
X64181D01*
Y27612D01*
X64681Y27763D01*
X64725Y27698D01*
X65552Y27145D01*
X66527Y26951D01*
X67503Y27145D01*
X68330Y27698D01*
X68882Y28525D01*
X69076Y29500D01*
X68882Y30476D01*
X68330Y31302D01*
X67503Y31855D01*
X66527Y32049D01*
X65552Y31855D01*
X64725Y31302D01*
X64474Y30927D01*
X58000D01*
Y32950D01*
X69600D01*
Y44050D01*
X59254D01*
X58936Y44436D01*
X58949Y44500D01*
X58861Y44942D01*
X66491Y52573D01*
X99547D01*
Y51819D01*
X107453D01*
Y56181D01*
X106896D01*
Y61047D01*
X108471D01*
Y8953D01*
D02*
G37*
G36*
X15533Y21948D02*
X15451Y21537D01*
X15645Y20562D01*
X16198Y19735D01*
X17025Y19182D01*
X18000Y18988D01*
X18975Y19182D01*
X19132Y19286D01*
X19573Y19051D01*
Y16929D01*
X19098Y16529D01*
X19000Y16549D01*
X18024Y16355D01*
X17198Y15802D01*
X16645Y14976D01*
X16451Y14000D01*
X16565Y13427D01*
X16155Y12927D01*
X7500D01*
X6954Y12819D01*
X6491Y12509D01*
X6491Y12509D01*
X3991Y10009D01*
X3681Y9546D01*
X3573Y9000D01*
X3573Y9000D01*
Y8687D01*
X3007Y8453D01*
X2181Y7819D01*
X1547Y6993D01*
X1149Y6032D01*
X1013Y5000D01*
X1149Y3968D01*
X1547Y3007D01*
X2181Y2181D01*
X2378Y2029D01*
X2208Y1529D01*
X-971D01*
Y22266D01*
X-471Y22418D01*
X-302Y22166D01*
X525Y21614D01*
X1500Y21419D01*
X2475Y21614D01*
X2819Y21843D01*
X3319Y21576D01*
Y18047D01*
X3319D01*
X3411Y17874D01*
X3145Y17476D01*
X2951Y16500D01*
X3145Y15525D01*
X3698Y14698D01*
X4524Y14145D01*
X5500Y13951D01*
X6475Y14145D01*
X7302Y14698D01*
X7855Y15525D01*
X8049Y16500D01*
X7855Y17476D01*
X7589Y17874D01*
X7681Y18047D01*
X7681D01*
Y18604D01*
X8819D01*
Y18016D01*
X13181D01*
Y22510D01*
X14972D01*
X15533Y21948D01*
D02*
G37*
G36*
X35373Y22591D02*
X25709Y12927D01*
X21845D01*
X21435Y13427D01*
X21549Y14000D01*
X21461Y14442D01*
X22009Y14991D01*
X22009Y14991D01*
X22319Y15454D01*
X22427Y16000D01*
X22427Y16000D01*
Y17115D01*
X22906Y17260D01*
X22948Y17198D01*
X23775Y16645D01*
X24750Y16451D01*
X25725Y16645D01*
X26552Y17198D01*
X27105Y18024D01*
X27299Y19000D01*
X27105Y19975D01*
X26552Y20802D01*
X26177Y21053D01*
Y25750D01*
X26069Y26296D01*
X25759Y26759D01*
X25759Y26759D01*
X24427Y28091D01*
Y29750D01*
X35373D01*
Y22591D01*
D02*
G37*
G36*
X73500Y17000D02*
X103352Y17000D01*
X103481Y16500D01*
X100162Y13180D01*
X66712D01*
X66395Y13680D01*
X66549Y14453D01*
X66355Y15428D01*
X65802Y16255D01*
X65327Y16573D01*
X65479Y17073D01*
X73500D01*
Y17000D01*
D02*
G37*
G36*
X41273Y19491D02*
X28898Y7117D01*
X28286Y7211D01*
X27819Y7819D01*
X26993Y8453D01*
X26032Y8851D01*
X25000Y8987D01*
X23968Y8851D01*
X23007Y8453D01*
X22181Y7819D01*
X21547Y6993D01*
X21149Y6032D01*
X21013Y5000D01*
X21149Y3968D01*
X21547Y3007D01*
X22181Y2181D01*
X22378Y2029D01*
X22208Y1529D01*
X17792D01*
X17622Y2029D01*
X17819Y2181D01*
X18453Y3007D01*
X18851Y3968D01*
X18987Y5000D01*
X18851Y6032D01*
X18453Y6993D01*
X17819Y7819D01*
X16993Y8453D01*
X16032Y8851D01*
X15000Y8987D01*
X13968Y8851D01*
X13007Y8453D01*
X12181Y7819D01*
X11547Y6993D01*
X11149Y6032D01*
X11013Y5000D01*
X11149Y3968D01*
X11547Y3007D01*
X12181Y2181D01*
X12378Y2029D01*
X12208Y1529D01*
X7791D01*
X7622Y2029D01*
X7819Y2181D01*
X8453Y3007D01*
X8851Y3968D01*
X8987Y5000D01*
X8851Y6032D01*
X8453Y6993D01*
X7819Y7819D01*
X7098Y8372D01*
X6959Y8940D01*
X8091Y10073D01*
X26300D01*
X26300Y10073D01*
X26846Y10181D01*
X27309Y10491D01*
X37809Y20991D01*
X37809Y20991D01*
X38119Y21454D01*
X38227Y22000D01*
Y29750D01*
X41273D01*
Y19491D01*
D02*
G37*
G36*
X47073Y16358D02*
Y12500D01*
X47073Y12500D01*
X47181Y11954D01*
X47491Y11491D01*
X51038Y7943D01*
X51038Y7943D01*
X51440Y7675D01*
X51553Y7502D01*
X51679Y7166D01*
X51547Y6993D01*
X51149Y6032D01*
X51013Y5000D01*
X51149Y3968D01*
X51547Y3007D01*
X52181Y2181D01*
X52378Y2029D01*
X52209Y1529D01*
X47791D01*
X47622Y2029D01*
X47819Y2181D01*
X48453Y3007D01*
X48851Y3968D01*
X48987Y5000D01*
X48851Y6032D01*
X48453Y6993D01*
X47819Y7819D01*
X46993Y8453D01*
X46427Y8687D01*
Y10500D01*
Y16161D01*
X46927Y16445D01*
X47073Y16358D01*
D02*
G37*
G36*
X43573Y17101D02*
Y11000D01*
Y8687D01*
X43007Y8453D01*
X42181Y7819D01*
X41547Y6993D01*
X41149Y6032D01*
X41013Y5000D01*
X41149Y3968D01*
X41547Y3007D01*
X42181Y2181D01*
X42378Y2029D01*
X42208Y1529D01*
X37791D01*
X37622Y2029D01*
X37819Y2181D01*
X38453Y3007D01*
X38851Y3968D01*
X38987Y5000D01*
X38851Y6032D01*
X38453Y6993D01*
X37819Y7819D01*
X36993Y8453D01*
X36032Y8851D01*
X35453Y8927D01*
X35274Y9455D01*
X43111Y17292D01*
X43573Y17101D01*
D02*
G37*
%LPC*%
G36*
X95500Y8921D02*
Y5500D01*
X98921D01*
X98851Y6032D01*
X98453Y6993D01*
X97819Y7819D01*
X96993Y8453D01*
X96032Y8851D01*
X95500Y8921D01*
D02*
G37*
G36*
X94500Y8921D02*
X93968Y8851D01*
X93007Y8453D01*
X92181Y7819D01*
X91547Y6993D01*
X91149Y6032D01*
X91079Y5500D01*
X94500D01*
Y8921D01*
D02*
G37*
%LPD*%
D12*
X11000Y20000D02*
D03*
Y23937D02*
D03*
X5500Y20031D02*
D03*
Y23968D02*
D03*
X62000Y23000D02*
D03*
Y26937D02*
D03*
D13*
X56400Y33500D02*
D03*
X54500D02*
D03*
X52500D02*
D03*
X50500D02*
D03*
X48600D02*
D03*
X46600D02*
D03*
X44600D02*
D03*
X42700D02*
D03*
X40700D02*
D03*
X38700D02*
D03*
X36800D02*
D03*
X34800D02*
D03*
X32800D02*
D03*
X30800D02*
D03*
X28900D02*
D03*
X26900D02*
D03*
X24900D02*
D03*
X23000D02*
D03*
X21000D02*
D03*
X19000D02*
D03*
X17100D02*
D03*
X15100D02*
D03*
X13100D02*
D03*
X11200D02*
D03*
D14*
X4200Y38500D02*
D03*
X63400D02*
D03*
D15*
X105468Y54000D02*
D03*
X101532D02*
D03*
X58031Y18500D02*
D03*
X61968D02*
D03*
X61968Y14500D02*
D03*
X58031D02*
D03*
D20*
X100000Y25965D02*
D03*
D21*
X79528D02*
D03*
Y42500D02*
D03*
X100000D02*
D03*
D24*
X53000Y22968D02*
X61968D01*
X51500Y21468D02*
X53000Y22968D01*
X24750Y19000D02*
Y25750D01*
X23000Y27500D02*
X24750Y25750D01*
X23000Y27500D02*
Y33500D01*
X21000Y16000D02*
Y33500D01*
X17963Y21537D02*
X18000D01*
X15563Y23937D02*
X17963Y21537D01*
X11000Y23937D02*
X15563D01*
X61968Y18500D02*
Y22968D01*
X10968Y20031D02*
X11000Y20000D01*
X5500Y20031D02*
X10968D01*
X19000Y14000D02*
X21000Y16000D01*
X19000Y14000D02*
X20000D01*
X7500Y11500D02*
X26300D01*
X36800Y22000D01*
X48500Y12500D02*
Y18500D01*
X71047Y8953D02*
X75000Y5000D01*
X52047Y8953D02*
X71047D01*
X48500Y12500D02*
X52047Y8953D01*
X54647Y10353D02*
X79647D01*
X85000Y5000D01*
X60582Y11753D02*
X100753D01*
X58031Y14303D02*
X60582Y11753D01*
X58031Y14303D02*
Y14500D01*
X100753Y11753D02*
X105000Y16000D01*
X53000Y12000D02*
X54647Y10353D01*
X1500Y23968D02*
X5500D01*
Y16500D02*
Y20031D01*
X36800Y22000D02*
Y33500D01*
X5000Y9000D02*
X7500Y11500D01*
X42700Y18900D02*
Y33500D01*
X28800Y5000D02*
X42700Y18900D01*
X25000Y5000D02*
X28800D01*
X45000Y11000D02*
Y21537D01*
Y10500D02*
Y11000D01*
Y5000D02*
Y10500D01*
Y21537D02*
X52963Y29500D01*
X66500D01*
X40700Y38200D02*
X47000Y44500D01*
X40700Y33500D02*
Y38200D01*
X56400Y44500D02*
X65900Y54000D01*
X101532D01*
X105000Y65000D02*
X105468Y64531D01*
Y54000D02*
Y64531D01*
X80500Y60500D02*
X85000Y65000D01*
X68500Y60500D02*
X80500D01*
X52500Y44500D02*
X68500Y60500D01*
X38700Y48800D02*
X40900Y51000D01*
X53000D01*
X18500D02*
X36500D01*
X38700Y48800D01*
Y33500D02*
Y48800D01*
X30000Y39000D02*
X36000D01*
X24900Y33500D02*
Y39000D01*
X13000Y38600D02*
Y45500D01*
Y38600D02*
X13100Y38500D01*
X13000Y45500D02*
X18500Y51000D01*
X71000Y65000D02*
X75000D01*
X50500Y44500D02*
X71000Y65000D01*
X50500Y33500D02*
Y44500D01*
X100000Y42500D02*
X105000Y37500D01*
Y16000D02*
Y37500D01*
X59000Y26937D02*
X62000D01*
X61984Y14453D02*
X62008Y14476D01*
X63976D02*
X64000Y14453D01*
X62008Y14476D02*
X63976D01*
X53000Y12000D02*
Y17000D01*
X54500Y18500D01*
X58031D01*
X100000Y22000D02*
Y25965D01*
X96500Y18500D02*
X100000Y22000D01*
X61968Y18500D02*
X96500D01*
X5000Y5000D02*
Y9000D01*
X35000Y5000D02*
X35500Y5500D01*
X52500Y33500D02*
Y44500D01*
X13100Y33500D02*
Y38500D01*
X17100Y33500D02*
Y38500D01*
X29000Y33600D02*
Y38000D01*
X28900Y33500D02*
X29000Y33600D01*
Y38000D02*
X30000Y39000D01*
D25*
X105000Y65000D02*
D03*
Y5000D02*
D03*
D26*
X95000Y65000D02*
D03*
X85000D02*
D03*
X75000D02*
D03*
X95000Y5000D02*
D03*
X85000D02*
D03*
X75000D02*
D03*
X65000D02*
D03*
X55000D02*
D03*
X45000D02*
D03*
X35000D02*
D03*
X25000D02*
D03*
X15000D02*
D03*
X5000D02*
D03*
D27*
X51500Y21468D02*
D03*
X24750Y19000D02*
D03*
X18000Y21537D02*
D03*
X19000Y14000D02*
D03*
X48500Y18803D02*
D03*
X5500Y16500D02*
D03*
X1500Y23968D02*
D03*
X66527Y29500D02*
D03*
X47000Y44500D02*
D03*
X56400D02*
D03*
X36000Y39000D02*
D03*
X24900D02*
D03*
X53000Y51000D02*
D03*
X59000Y26937D02*
D03*
X64000Y14453D02*
D03*
X13100Y38500D02*
D03*
X17100D02*
D03*
M02*
