G04*
G04 #@! TF.GenerationSoftware,Altium Limited,Altium Designer,19.0.15 (446)*
G04*
G04 Layer_Color=2752767*
%FSLAX25Y25*%
%MOIN*%
G70*
G01*
G75*
%ADD34C,0.00200*%
%ADD39C,0.00267*%
D34*
X99200Y25165D02*
Y26765D01*
X100800D01*
Y25165D01*
X99200D01*
X78728D02*
Y26765D01*
X80328D01*
Y25165D01*
X78728D01*
Y41700D02*
Y43300D01*
X80328D01*
Y41700D01*
X78728D01*
X99200D02*
Y43300D01*
X100800D01*
Y41700D01*
X99200D01*
X51500Y20669D02*
X50700Y22268D01*
X52300D01*
X51500Y20669D01*
X24750Y18200D02*
X23950Y19800D01*
X25550D01*
X24750Y18200D01*
X18000Y20737D02*
X17200Y22337D01*
X18800D01*
X18000Y20737D01*
X19000Y13200D02*
X18200Y14800D01*
X19800D01*
X19000Y13200D01*
X48500Y18003D02*
X47700Y19603D01*
X49300D01*
X48500Y18003D01*
X5500Y15700D02*
X4700Y17300D01*
X6300D01*
X5500Y15700D01*
X1500Y23168D02*
X700Y24769D01*
X2300D01*
X1500Y23168D01*
X66527Y28700D02*
X65728Y30300D01*
X67327D01*
X66527Y28700D01*
X47000Y43700D02*
X46200Y45300D01*
X47800D01*
X47000Y43700D01*
X56400D02*
X55600Y45300D01*
X57200D01*
X56400Y43700D01*
X36000Y38200D02*
X35200Y39800D01*
X36800D01*
X36000Y38200D01*
X24900D02*
X24100Y39800D01*
X25700D01*
X24900Y38200D01*
X53000Y50200D02*
X52200Y51800D01*
X53800D01*
X53000Y50200D01*
X59000Y26137D02*
X58200Y27737D01*
X59800D01*
X59000Y26137D01*
X64000Y13653D02*
X63200Y15253D01*
X64800D01*
X64000Y13653D01*
X13100Y37700D02*
X12300Y39300D01*
X13900D01*
X13100Y37700D01*
X17100D02*
X16300Y39300D01*
X17900D01*
X17100Y37700D01*
D39*
X105800Y65000D02*
G03*
X105800Y65000I-800J0D01*
G01*
X95800D02*
G03*
X95800Y65000I-800J0D01*
G01*
X85800D02*
G03*
X85800Y65000I-800J0D01*
G01*
X75800D02*
G03*
X75800Y65000I-800J0D01*
G01*
X105800Y5000D02*
G03*
X105800Y5000I-800J0D01*
G01*
X95800D02*
G03*
X95800Y5000I-800J0D01*
G01*
X85800D02*
G03*
X85800Y5000I-800J0D01*
G01*
X75800D02*
G03*
X75800Y5000I-800J0D01*
G01*
X65800D02*
G03*
X65800Y5000I-800J0D01*
G01*
X55800D02*
G03*
X55800Y5000I-800J0D01*
G01*
X45800D02*
G03*
X45800Y5000I-800J0D01*
G01*
X35800D02*
G03*
X35800Y5000I-800J0D01*
G01*
X25800D02*
G03*
X25800Y5000I-800J0D01*
G01*
X15800D02*
G03*
X15800Y5000I-800J0D01*
G01*
X5800D02*
G03*
X5800Y5000I-800J0D01*
G01*
M02*
