G04*
G04 #@! TF.GenerationSoftware,Altium Limited,Altium Designer,19.0.15 (446)*
G04*
G04 Layer_Color=32768*
%FSLAX25Y25*%
%MOIN*%
G70*
G01*
G75*
%ADD35C,0.00100*%
%ADD36C,0.00394*%
%ADD38C,0.00197*%
G36*
X97793Y14732D02*
X109264Y26203D01*
Y42262D01*
X97793Y53732D01*
X81734D01*
X70264Y42262D01*
Y26203D01*
X81734Y14732D01*
X97793D01*
D02*
G37*
D35*
X109264Y26203D02*
Y42262D01*
X97793Y53732D02*
X109264Y42262D01*
X81734Y53732D02*
X97793D01*
X70264Y42262D02*
X81734Y53732D01*
X70264Y26203D02*
Y42262D01*
Y26203D02*
X81734Y14732D01*
X97793D01*
X109264Y26203D01*
D36*
X9031Y18228D02*
Y25709D01*
X12968Y18228D02*
Y25709D01*
X9819Y21969D02*
X12181D01*
X11000Y20787D02*
Y23150D01*
X9031Y18228D02*
X12968D01*
X9031Y25709D02*
X12968D01*
X53031Y15760D02*
X56968D01*
X53031Y23240D02*
X56968D01*
X55000Y18319D02*
Y20681D01*
X53819Y19500D02*
X56181D01*
X56968Y15760D02*
Y23240D01*
X53031Y15760D02*
Y23240D01*
X35260Y18892D02*
Y22829D01*
X42740Y18892D02*
Y22829D01*
X37819Y20861D02*
X40181D01*
X39000Y19679D02*
Y22042D01*
X35260Y18892D02*
X42740D01*
X35260Y22829D02*
X42740D01*
X3531Y18260D02*
X7468D01*
X3531Y25740D02*
X7468D01*
X5500Y20819D02*
Y23181D01*
X4319Y22000D02*
X6681D01*
X3531Y18260D02*
Y25740D01*
X7468Y18260D02*
Y25740D01*
X107240Y52031D02*
Y55968D01*
X99760Y52031D02*
Y55968D01*
X102319Y54000D02*
X104681D01*
X103500Y52819D02*
Y55181D01*
X99760Y52031D02*
X107240D01*
X99760Y55968D02*
X107240D01*
X17000Y27772D02*
Y31709D01*
X15032Y29740D02*
X18969D01*
X55032Y27760D02*
X58969D01*
X55032Y35240D02*
X58969D01*
X57000Y30319D02*
Y32681D01*
X55819Y31500D02*
X58181D01*
X58969Y27760D02*
Y35240D01*
X55032Y27760D02*
Y35240D01*
X32531Y27760D02*
X36468D01*
X32531Y35240D02*
X36468D01*
X34500Y30319D02*
Y32681D01*
X33319Y31500D02*
X35681D01*
X36468Y27760D02*
Y35240D01*
X32531Y27760D02*
Y35240D01*
X26032Y27760D02*
X29969D01*
X26032Y35240D02*
X29969D01*
X28000Y30319D02*
Y32681D01*
X26819Y31500D02*
X29181D01*
X29969Y27760D02*
Y35240D01*
X26032Y27760D02*
Y35240D01*
X56260Y16532D02*
Y20469D01*
X63740Y16532D02*
Y20469D01*
X58819Y18500D02*
X61181D01*
X60000Y17319D02*
Y19681D01*
X56260Y20469D02*
X63740D01*
X56260Y16532D02*
X63740D01*
X66740Y45031D02*
Y48968D01*
X59260Y45031D02*
Y48968D01*
X61819Y47000D02*
X64181D01*
X63000Y45819D02*
Y48181D01*
X59260Y48968D02*
X66740D01*
X59260Y45031D02*
X66740D01*
X63740Y12531D02*
Y16468D01*
X56260Y12531D02*
Y16468D01*
X58819Y14500D02*
X61181D01*
X60000Y13319D02*
Y15681D01*
X56260Y12531D02*
X63740D01*
X56260Y16468D02*
X63740D01*
X59260Y49031D02*
Y52969D01*
X66740Y49031D02*
Y52969D01*
X61819Y51000D02*
X64181D01*
X63000Y49819D02*
Y52181D01*
X59260Y49031D02*
X66740D01*
X59260Y52969D02*
X66740D01*
X4031Y27760D02*
Y35240D01*
X7969Y27760D02*
Y35240D01*
X4819Y31500D02*
X7181D01*
X6000Y30319D02*
Y32681D01*
X4031Y35240D02*
X7969D01*
X4031Y27760D02*
X7969D01*
X44724Y27772D02*
Y31709D01*
X42756Y29740D02*
X46693D01*
X60031Y21228D02*
Y28709D01*
X63968Y21228D02*
Y28709D01*
X60819Y24969D02*
X63181D01*
X62000Y23787D02*
Y26150D01*
X60031Y21228D02*
X63968D01*
X60031Y28709D02*
X63968D01*
D38*
X7846Y21669D02*
X26153D01*
X7846Y37811D02*
X26153D01*
X7846Y21669D02*
Y37811D01*
X26153Y21669D02*
Y37811D01*
X35571Y21669D02*
X53878D01*
X35571Y37811D02*
X53878D01*
X35571Y21669D02*
Y37811D01*
X53878Y21669D02*
Y37811D01*
M02*
