G04*
G04 #@! TF.GenerationSoftware,Altium Limited,Altium Designer,19.0.15 (446)*
G04*
G04 Layer_Color=16711935*
%FSLAX25Y25*%
%MOIN*%
G70*
G01*
G75*
%ADD16R,0.03162X0.02769*%
%ADD19R,0.02769X0.03162*%
%ADD20R,0.05000X0.05000*%
%ADD21C,0.05000*%
%ADD22R,0.06706X0.06706*%
%ADD23C,0.06706*%
%ADD31R,0.05721X0.03556*%
D16*
X55000Y17531D02*
D03*
Y21468D02*
D03*
X57000Y29531D02*
D03*
Y33468D02*
D03*
X34500Y29531D02*
D03*
Y33468D02*
D03*
X28000Y29531D02*
D03*
Y33468D02*
D03*
X6000D02*
D03*
Y29531D02*
D03*
D19*
X37031Y20861D02*
D03*
X40968D02*
D03*
X64969Y47000D02*
D03*
X61032D02*
D03*
X61032Y51000D02*
D03*
X64969D02*
D03*
D20*
X100000Y25965D02*
D03*
D21*
X79528D02*
D03*
Y42500D02*
D03*
X100000D02*
D03*
D22*
X105000Y65000D02*
D03*
Y5000D02*
D03*
D23*
X95000Y65000D02*
D03*
X85000D02*
D03*
X75000D02*
D03*
X95000Y5000D02*
D03*
X85000D02*
D03*
X75000D02*
D03*
X65000D02*
D03*
X55000D02*
D03*
X45000D02*
D03*
X35000D02*
D03*
X25000D02*
D03*
X15000D02*
D03*
X5000D02*
D03*
D31*
X12276Y33480D02*
D03*
Y26000D02*
D03*
X21724D02*
D03*
Y29740D02*
D03*
Y33480D02*
D03*
X40000D02*
D03*
Y26000D02*
D03*
X49449D02*
D03*
Y29740D02*
D03*
Y33480D02*
D03*
M02*
