G04*
G04 #@! TF.GenerationSoftware,Altium Limited,Altium Designer,19.0.15 (446)*
G04*
G04 Layer_Physical_Order=4*
G04 Layer_Color=16711680*
%FSLAX25Y25*%
%MOIN*%
G70*
G01*
G75*
%ADD12R,0.02362X0.01968*%
%ADD15R,0.01968X0.02362*%
%ADD20R,0.05000X0.05000*%
%ADD21C,0.05000*%
%ADD24C,0.00800*%
%ADD25R,0.05906X0.05906*%
%ADD26C,0.05906*%
%ADD27C,0.03000*%
%ADD28R,0.04921X0.02756*%
%ADD29C,0.01000*%
%ADD30C,0.01200*%
G36*
X92378Y67971D02*
X92181Y67819D01*
X91547Y66993D01*
X91149Y66032D01*
X91013Y65000D01*
X91149Y63968D01*
X91547Y63007D01*
X92181Y62181D01*
X93007Y61547D01*
X93573Y61313D01*
Y59591D01*
X92909Y58927D01*
X43400D01*
X43400Y58927D01*
X42854Y58819D01*
X42391Y58509D01*
X42391Y58509D01*
X25342Y41461D01*
X24900Y41549D01*
X23924Y41355D01*
X23098Y40802D01*
X22545Y39976D01*
X22351Y39000D01*
X22545Y38025D01*
X23098Y37198D01*
X23924Y36645D01*
X24900Y36451D01*
X25875Y36645D01*
X26645Y37159D01*
X26964Y36771D01*
X26847Y36654D01*
X26493Y36124D01*
X26369Y35500D01*
Y35453D01*
X25819D01*
Y35100D01*
X25185D01*
Y35858D01*
X18527D01*
Y36447D01*
X18902Y36698D01*
X19455Y37525D01*
X19649Y38500D01*
X19455Y39476D01*
X18902Y40302D01*
X18076Y40855D01*
X17100Y41049D01*
X16125Y40855D01*
X15298Y40302D01*
X14745Y39476D01*
X14551Y38500D01*
X14745Y37525D01*
X15298Y36698D01*
X15673Y36447D01*
Y35858D01*
X8815D01*
Y34908D01*
X8181D01*
Y35453D01*
X3819D01*
Y31484D01*
Y30031D01*
X6000D01*
Y29531D01*
X6500D01*
Y27547D01*
X8181D01*
Y28109D01*
X8815D01*
Y23622D01*
X15736D01*
Y28109D01*
X18264D01*
Y24303D01*
X18000Y24086D01*
X17025Y23892D01*
X16198Y23339D01*
X15645Y22512D01*
X15451Y21537D01*
X15611Y20731D01*
X15311Y20231D01*
X7324D01*
X3972Y23582D01*
X4049Y23968D01*
X3855Y24944D01*
X3302Y25771D01*
X2475Y26324D01*
X1500Y26518D01*
X525Y26324D01*
X-302Y25771D01*
X-471Y25519D01*
X-971Y25671D01*
Y68471D01*
X72208D01*
X72378Y67971D01*
X72181Y67819D01*
X71547Y66993D01*
X71149Y66032D01*
X71013Y65000D01*
X71149Y63968D01*
X71547Y63007D01*
X72181Y62181D01*
X73007Y61547D01*
X73968Y61149D01*
X75000Y61013D01*
X76032Y61149D01*
X76993Y61547D01*
X77819Y62181D01*
X78453Y63007D01*
X78851Y63968D01*
X78987Y65000D01*
X78851Y66032D01*
X78453Y66993D01*
X77819Y67819D01*
X77622Y67971D01*
X77792Y68471D01*
X82209D01*
X82378Y67971D01*
X82181Y67819D01*
X81547Y66993D01*
X81149Y66032D01*
X81013Y65000D01*
X81149Y63968D01*
X81547Y63007D01*
X82181Y62181D01*
X83007Y61547D01*
X83968Y61149D01*
X85000Y61013D01*
X86032Y61149D01*
X86993Y61547D01*
X87819Y62181D01*
X88453Y63007D01*
X88851Y63968D01*
X88987Y65000D01*
X88851Y66032D01*
X88453Y66993D01*
X87819Y67819D01*
X87622Y67971D01*
X87792Y68471D01*
X92208D01*
X92378Y67971D01*
D02*
G37*
G36*
X101047Y61047D02*
X108471D01*
Y51000D01*
X73046D01*
X72037Y52009D01*
X71574Y52319D01*
X71028Y52427D01*
X71027Y52427D01*
X66953D01*
Y53181D01*
X61532D01*
Y51000D01*
X60532D01*
Y53181D01*
X59047D01*
Y52427D01*
X53000D01*
X52454Y52319D01*
X51991Y52009D01*
X51681Y51546D01*
X51573Y51000D01*
X51681Y50454D01*
X51991Y49991D01*
X52454Y49681D01*
X53000Y49573D01*
X58785D01*
X59047Y49181D01*
Y45938D01*
X58547Y45786D01*
X58202Y46302D01*
X57376Y46855D01*
X56400Y47049D01*
X55424Y46855D01*
X54598Y46302D01*
X54347Y45927D01*
X49053D01*
X48802Y46302D01*
X47976Y46855D01*
X47000Y47049D01*
X46025Y46855D01*
X45198Y46302D01*
X44645Y45476D01*
X44451Y44500D01*
X44591Y43797D01*
X44141Y43496D01*
X44124Y43507D01*
X43500Y43631D01*
X34500D01*
X33876Y43507D01*
X33347Y43154D01*
X27129Y36936D01*
X26741Y37255D01*
X27255Y38025D01*
X27449Y39000D01*
X27361Y39442D01*
X43991Y56073D01*
X93500D01*
X93500Y56073D01*
X94046Y56181D01*
X94509Y56491D01*
X96009Y57991D01*
X96319Y58454D01*
X96427Y59000D01*
X96427Y59000D01*
Y61313D01*
X96993Y61547D01*
X97819Y62181D01*
X98453Y63007D01*
X98851Y63968D01*
X98987Y65000D01*
X98851Y66032D01*
X98453Y66993D01*
X97819Y67819D01*
X97622Y67971D01*
X97791Y68471D01*
X101047D01*
Y61047D01*
D02*
G37*
G36*
X59573Y44331D02*
Y35715D01*
X59181Y35453D01*
X54819D01*
Y35100D01*
X52909D01*
Y35858D01*
X51080D01*
Y36051D01*
X50956Y36676D01*
X50602Y37205D01*
X46208Y41599D01*
X46455Y42059D01*
X47000Y41951D01*
X47976Y42145D01*
X48802Y42698D01*
X49053Y43073D01*
X54347D01*
X54598Y42698D01*
X55424Y42145D01*
X56400Y41951D01*
X57376Y42145D01*
X58202Y42698D01*
X58755Y43525D01*
X58875Y44128D01*
X59321Y44392D01*
X59441Y44399D01*
X59573Y44331D01*
D02*
G37*
G36*
X46873Y36320D02*
X46681Y35858D01*
X45988D01*
Y31061D01*
X43944D01*
X43461Y31102D01*
Y35858D01*
X41427D01*
Y37000D01*
X41427Y37000D01*
X41319Y37546D01*
X41009Y38009D01*
X41009Y38009D01*
X39150Y39869D01*
X39349Y40369D01*
X42824D01*
X46873Y36320D01*
D02*
G37*
G36*
X65100Y31553D02*
X64725Y31302D01*
X64402Y30819D01*
X63905Y30770D01*
X62427Y32248D01*
Y44819D01*
X65100D01*
Y31553D01*
D02*
G37*
G36*
X35000Y27547D02*
X36539D01*
Y23622D01*
X43461D01*
Y28002D01*
X45988D01*
Y23622D01*
X46899D01*
X47090Y23160D01*
X46218Y22288D01*
X42953D01*
Y23042D01*
X35047D01*
Y22288D01*
X33731D01*
X29009Y27009D01*
X28953Y27047D01*
X29104Y27547D01*
X30181D01*
Y28002D01*
X32319D01*
Y27547D01*
X34000D01*
Y29531D01*
X35000D01*
Y27547D01*
D02*
G37*
G36*
X72439Y47570D02*
Y27392D01*
X68704D01*
X68460Y27892D01*
X68882Y28525D01*
X69076Y29500D01*
X68882Y30476D01*
X68330Y31302D01*
X67955Y31553D01*
Y45441D01*
X67846Y45987D01*
X67537Y46450D01*
X67537Y46450D01*
X66953Y47034D01*
Y48819D01*
X66953D01*
Y49573D01*
X70436D01*
X72439Y47570D01*
D02*
G37*
G36*
X65518Y24955D02*
X65518Y24955D01*
X65981Y24646D01*
X66527Y24537D01*
X66527Y24537D01*
X72439D01*
Y20721D01*
X108471D01*
Y8953D01*
X106631D01*
Y9500D01*
X106507Y10124D01*
X106154Y10654D01*
X102654Y14153D01*
X102124Y14507D01*
X101500Y14631D01*
X72676D01*
X69131Y18176D01*
Y19000D01*
X69007Y19624D01*
X68654Y20154D01*
X63331Y25476D01*
Y26489D01*
X63793Y26680D01*
X65518Y24955D01*
D02*
G37*
G36*
X102778Y9415D02*
X102587Y8953D01*
X101047D01*
Y1529D01*
X97791D01*
X97622Y2029D01*
X97819Y2181D01*
X98453Y3007D01*
X98851Y3968D01*
X98921Y4500D01*
X95000D01*
Y5000D01*
X94500D01*
Y8921D01*
X93968Y8851D01*
X93504Y8659D01*
X91440Y10722D01*
X91222Y10869D01*
X91373Y11369D01*
X100824D01*
X102778Y9415D01*
D02*
G37*
G36*
X71407Y8559D02*
X71904Y8228D01*
X71971Y8129D01*
X72077Y7684D01*
X71547Y6993D01*
X71149Y6032D01*
X71013Y5000D01*
X71149Y3968D01*
X71547Y3007D01*
X72181Y2181D01*
X72378Y2029D01*
X72208Y1529D01*
X67791D01*
X67622Y2029D01*
X67819Y2181D01*
X68453Y3007D01*
X68851Y3968D01*
X68987Y5000D01*
X68851Y6032D01*
X68453Y6993D01*
X67819Y7819D01*
X66993Y8453D01*
X66032Y8851D01*
X65000Y8987D01*
X64021Y8858D01*
X63852Y8895D01*
X63521Y9116D01*
Y11315D01*
X64136Y11931D01*
X64976Y12098D01*
X65802Y12650D01*
X66126Y13134D01*
X66769Y13197D01*
X71407Y8559D01*
D02*
G37*
G36*
X57919Y22048D02*
X62745Y17222D01*
X62681Y16578D01*
X62198Y16255D01*
X61645Y15428D01*
X61451Y14453D01*
X61645Y13477D01*
X61645Y13477D01*
X61084Y12916D01*
X60775Y12453D01*
X60666Y11907D01*
X60666Y11907D01*
Y7907D01*
X60666Y7907D01*
X60775Y7360D01*
X61084Y6897D01*
X61383Y6598D01*
X61149Y6032D01*
X61013Y5000D01*
X61149Y3968D01*
X61547Y3007D01*
X62181Y2181D01*
X62378Y2029D01*
X62208Y1529D01*
X57792D01*
X57622Y2029D01*
X57819Y2181D01*
X58453Y3007D01*
X58851Y3968D01*
X58987Y5000D01*
X58851Y6032D01*
X58453Y6993D01*
X57819Y7819D01*
X56993Y8453D01*
X56226Y8771D01*
X56135Y9230D01*
X55825Y9693D01*
X55825Y9693D01*
X54019Y11500D01*
X56009Y13491D01*
X56009Y13491D01*
X56319Y13954D01*
X56427Y14500D01*
X56427Y14500D01*
Y15547D01*
X57181D01*
Y19484D01*
Y22252D01*
X57681Y22404D01*
X57919Y22048D01*
D02*
G37*
G36*
X52662Y8819D02*
X52619Y8155D01*
X52181Y7819D01*
X51547Y6993D01*
X51149Y6032D01*
X51013Y5000D01*
X51149Y3968D01*
X51547Y3007D01*
X52181Y2181D01*
X52378Y2029D01*
X52209Y1529D01*
X47791D01*
X47622Y2029D01*
X47819Y2181D01*
X48453Y3007D01*
X48851Y3968D01*
X48987Y5000D01*
X48851Y6032D01*
X48453Y6993D01*
X47819Y7819D01*
X46993Y8453D01*
X46032Y8851D01*
X45000Y8987D01*
X43968Y8851D01*
X43007Y8453D01*
X42181Y7819D01*
X41547Y6993D01*
X41149Y6032D01*
X41013Y5000D01*
X41149Y3968D01*
X41547Y3007D01*
X42181Y2181D01*
X42378Y2029D01*
X42208Y1529D01*
X37791D01*
X37622Y2029D01*
X37819Y2181D01*
X38453Y3007D01*
X38851Y3968D01*
X38987Y5000D01*
X38851Y6032D01*
X38453Y6993D01*
X37819Y7819D01*
X36993Y8453D01*
X36032Y8851D01*
X35000Y8987D01*
X33968Y8851D01*
X33402Y8617D01*
X32446Y9573D01*
X32653Y10073D01*
X51409D01*
X52662Y8819D01*
D02*
G37*
G36*
X-302Y22166D02*
X525Y21614D01*
X1500Y21419D01*
X1998Y21519D01*
X4246Y19270D01*
X4183Y18627D01*
X3698Y18302D01*
X3145Y17476D01*
X2951Y16500D01*
X3145Y15525D01*
X3698Y14698D01*
X4524Y14145D01*
X5500Y13951D01*
X6475Y14145D01*
X7302Y14698D01*
X7553Y15073D01*
X16155D01*
X16565Y14573D01*
X16451Y14000D01*
X16645Y13025D01*
X17198Y12198D01*
X18024Y11645D01*
X19000Y11451D01*
X19975Y11645D01*
X20802Y12198D01*
X21053Y12573D01*
X25409D01*
X31383Y6598D01*
X31149Y6032D01*
X31013Y5000D01*
X31149Y3968D01*
X31547Y3007D01*
X32181Y2181D01*
X32378Y2029D01*
X32208Y1529D01*
X27792D01*
X27622Y2029D01*
X27819Y2181D01*
X28453Y3007D01*
X28851Y3968D01*
X28987Y5000D01*
X28851Y6032D01*
X28453Y6993D01*
X27819Y7819D01*
X26993Y8453D01*
X26032Y8851D01*
X25000Y8987D01*
X23968Y8851D01*
X23007Y8453D01*
X22181Y7819D01*
X21547Y6993D01*
X21149Y6032D01*
X21013Y5000D01*
X21149Y3968D01*
X21547Y3007D01*
X22181Y2181D01*
X22378Y2029D01*
X22208Y1529D01*
X17792D01*
X17622Y2029D01*
X17819Y2181D01*
X18453Y3007D01*
X18851Y3968D01*
X18987Y5000D01*
X18851Y6032D01*
X18453Y6993D01*
X17819Y7819D01*
X16993Y8453D01*
X16032Y8851D01*
X15000Y8987D01*
X13968Y8851D01*
X13007Y8453D01*
X12181Y7819D01*
X11547Y6993D01*
X11149Y6032D01*
X11013Y5000D01*
X11149Y3968D01*
X11547Y3007D01*
X12181Y2181D01*
X12378Y2029D01*
X12208Y1529D01*
X7791D01*
X7622Y2029D01*
X7819Y2181D01*
X8453Y3007D01*
X8851Y3968D01*
X8987Y5000D01*
X8851Y6032D01*
X8453Y6993D01*
X7819Y7819D01*
X6993Y8453D01*
X6032Y8851D01*
X5000Y8987D01*
X3968Y8851D01*
X3007Y8453D01*
X2181Y7819D01*
X1547Y6993D01*
X1149Y6032D01*
X1013Y5000D01*
X1149Y3968D01*
X1547Y3007D01*
X2181Y2181D01*
X2378Y2029D01*
X2208Y1529D01*
X-971D01*
Y22266D01*
X-471Y22418D01*
X-302Y22166D01*
D02*
G37*
%LPC*%
G36*
X5500Y29032D02*
X3819D01*
Y27547D01*
X5500D01*
Y29032D01*
D02*
G37*
G36*
X95500Y8921D02*
Y5500D01*
X98921D01*
X98851Y6032D01*
X98453Y6993D01*
X97819Y7819D01*
X96993Y8453D01*
X96032Y8851D01*
X95500Y8921D01*
D02*
G37*
%LPD*%
D12*
X55000Y17531D02*
D03*
Y21468D02*
D03*
X57000Y29531D02*
D03*
Y33468D02*
D03*
X34500Y29531D02*
D03*
Y33468D02*
D03*
X28000Y29531D02*
D03*
Y33468D02*
D03*
X6000D02*
D03*
Y29531D02*
D03*
D15*
X37031Y20861D02*
D03*
X40968D02*
D03*
X64969Y47000D02*
D03*
X61032D02*
D03*
X61032Y51000D02*
D03*
X64969D02*
D03*
D20*
X100000Y25965D02*
D03*
D21*
X79528D02*
D03*
Y42500D02*
D03*
X100000D02*
D03*
D24*
X51500Y15500D02*
Y21468D01*
X49500Y13500D02*
X51500Y15500D01*
X35969Y13500D02*
X49500D01*
X27931Y21537D02*
X35969Y13500D01*
X55000Y14500D02*
Y17531D01*
X52000Y11500D02*
X55000Y14500D01*
X18000Y21537D02*
X27931D01*
X6732Y18803D02*
X24553D01*
X24750Y19000D01*
X5500Y16500D02*
X27000D01*
X1567Y23968D02*
X6732Y18803D01*
X1500Y23968D02*
X1567D01*
X37031Y18469D02*
X39500Y16000D01*
X37031Y18469D02*
Y20861D01*
X39500Y16000D02*
X45697D01*
X48500Y18803D01*
X27000Y16500D02*
X32000Y11500D01*
X52000D01*
X54816Y8684D01*
Y5184D02*
Y8684D01*
Y5184D02*
X55000Y5000D01*
X19000Y14000D02*
X26000D01*
X35000Y5000D01*
X49484Y25965D02*
X53000D01*
X49449Y26000D02*
X49484Y25965D01*
X53000D02*
X55000Y23965D01*
Y21468D02*
Y23965D01*
X49449Y23500D02*
Y26000D01*
X46809Y20861D02*
X49449Y23500D01*
X40968Y20861D02*
X46809D01*
X21724Y26000D02*
X28000D01*
X33140Y20861D01*
X37031D01*
X64969Y47000D02*
X66527Y45441D01*
Y29500D02*
Y45441D01*
X63300Y29192D02*
X66527Y25965D01*
X63300Y29192D02*
Y29357D01*
X61000Y31657D02*
X63300Y29357D01*
X61000Y31657D02*
Y46968D01*
X66527Y25965D02*
X79528D01*
X47000Y44500D02*
X56400D01*
X17100Y35000D02*
Y38500D01*
X15580Y33480D02*
X17100Y35000D01*
X12276Y33480D02*
X15580D01*
X40000D02*
Y37000D01*
X38000Y39000D02*
X40000Y37000D01*
X36000Y39000D02*
X38000D01*
X93500Y57500D02*
X95000Y59000D01*
Y65000D01*
X43400Y57500D02*
X93500D01*
X24900Y39000D02*
X43400Y57500D01*
X53000Y51000D02*
X61032D01*
X61000Y46968D02*
X61032Y47000D01*
X64969Y51000D02*
X71028D01*
X79528Y42500D01*
X62093Y11907D02*
X64187Y14000D01*
X62093Y7907D02*
Y11907D01*
X59000Y26937D02*
Y27728D01*
X57197Y29531D02*
X59000Y27728D01*
X57000Y29531D02*
X57197D01*
X62093Y7907D02*
X65000Y5000D01*
X34500Y33468D02*
X34512Y33480D01*
X40000D01*
X6000Y29531D02*
X6209Y29740D01*
X6000Y33468D02*
X6012Y33480D01*
X12276D01*
D25*
X105000Y65000D02*
D03*
Y5000D02*
D03*
D26*
X95000Y65000D02*
D03*
X85000D02*
D03*
X75000D02*
D03*
X95000Y5000D02*
D03*
X85000D02*
D03*
X75000D02*
D03*
X65000D02*
D03*
X55000D02*
D03*
X45000D02*
D03*
X35000D02*
D03*
X25000D02*
D03*
X15000D02*
D03*
X5000D02*
D03*
D27*
X51500Y21468D02*
D03*
X24750Y19000D02*
D03*
X18000Y21537D02*
D03*
X19000Y14000D02*
D03*
X48500Y18803D02*
D03*
X5500Y16500D02*
D03*
X1500Y23968D02*
D03*
X66527Y29500D02*
D03*
X47000Y44500D02*
D03*
X56400D02*
D03*
X36000Y39000D02*
D03*
X24900D02*
D03*
X53000Y51000D02*
D03*
X59000Y26937D02*
D03*
X64000Y14453D02*
D03*
X13100Y38500D02*
D03*
X17100D02*
D03*
D28*
X12276Y33480D02*
D03*
Y26000D02*
D03*
X21724D02*
D03*
Y29740D02*
D03*
Y33480D02*
D03*
X40000D02*
D03*
Y26000D02*
D03*
X49449D02*
D03*
Y29740D02*
D03*
Y33480D02*
D03*
D29*
X72489Y9641D02*
X90359D01*
X59000Y23130D02*
X72489Y9641D01*
X59000Y23130D02*
Y26937D01*
X90359Y9641D02*
X95000Y5000D01*
X27791Y29740D02*
X28000Y29531D01*
X21724Y29740D02*
X27791D01*
X28000Y29531D02*
X34500D01*
X49240D01*
X49449Y29740D01*
X49657Y29531D01*
X57000D01*
D30*
X61700Y24800D02*
X67500Y19000D01*
X61700Y24800D02*
Y28694D01*
X67500Y17500D02*
Y19000D01*
X56925Y33468D02*
X61700Y28694D01*
X72000Y13000D02*
X101500D01*
X67500Y17500D02*
X72000Y13000D01*
X56925Y33468D02*
X57000D01*
X49461D02*
X56925D01*
X28000Y35500D02*
X34500Y42000D01*
X28000Y33468D02*
Y35500D01*
X34500Y42000D02*
X43500D01*
X49449Y36051D01*
X6209Y29740D02*
X21724D01*
X101500Y13000D02*
X105000Y9500D01*
X49449Y33480D02*
X49461Y33468D01*
X49449Y33480D02*
Y36051D01*
X21724Y33480D02*
X21736Y33468D01*
X28000D01*
X105000Y5000D02*
Y9500D01*
M02*
