G04*
G04 #@! TF.GenerationSoftware,Altium Limited,Altium Designer,19.0.15 (446)*
G04*
G04 Layer_Color=32896*
%FSLAX25Y25*%
%MOIN*%
G70*
G01*
G75*
%ADD10C,0.00787*%
%ADD11C,0.00600*%
%ADD32C,0.00984*%
D10*
X54213Y15760D02*
X55787D01*
X35260Y20073D02*
Y21648D01*
X16213Y23638D02*
Y35842D01*
X17787Y23638D02*
Y35842D01*
X16213Y23638D02*
X17787D01*
X16213Y35842D02*
X17787D01*
X56213Y27760D02*
X57787D01*
X33713D02*
X35287D01*
X27213D02*
X28787D01*
X66740Y46213D02*
Y47787D01*
X59260Y50213D02*
Y51787D01*
X5213Y27760D02*
X6787D01*
X43937Y23638D02*
Y35842D01*
X45512Y23638D02*
Y35842D01*
X43937Y23638D02*
X45512D01*
X43937Y35842D02*
X45512D01*
D11*
X108764Y34232D02*
G03*
X108764Y34232I-19000J0D01*
G01*
X100000Y9732D02*
Y14732D01*
X97500Y12232D02*
X102500D01*
X42953Y18190D02*
Y14991D01*
Y18190D02*
X41582D01*
X41125Y18038D01*
X40972Y17885D01*
X40820Y17581D01*
Y17276D01*
X40972Y16971D01*
X41125Y16819D01*
X41582Y16667D01*
X42953D01*
X41886D02*
X40820Y14991D01*
X38580Y18190D02*
X40104Y16057D01*
X37819D01*
X38580Y18190D02*
Y14991D01*
X37103Y17428D02*
Y17581D01*
X36950Y17885D01*
X36798Y18038D01*
X36493Y18190D01*
X35884D01*
X35579Y18038D01*
X35427Y17885D01*
X35274Y17581D01*
Y17276D01*
X35427Y16971D01*
X35732Y16514D01*
X37255Y14991D01*
X35122D01*
X57919Y14515D02*
Y11315D01*
Y14515D02*
X56547D01*
X56090Y14362D01*
X55938Y14210D01*
X55786Y13905D01*
Y13600D01*
X55938Y13296D01*
X56090Y13144D01*
X56547Y12991D01*
X57919D01*
X56852D02*
X55786Y11315D01*
X53546Y14515D02*
X55070Y12382D01*
X52784D01*
X53546Y14515D02*
Y11315D01*
X52221Y13905D02*
X51916Y14058D01*
X51459Y14515D01*
Y11315D01*
X94046Y14199D02*
Y11914D01*
X93894Y11457D01*
X93589Y11152D01*
X93132Y11000D01*
X92827D01*
X92370Y11152D01*
X92066Y11457D01*
X91913Y11914D01*
Y14199D01*
X89506D02*
X91030Y12066D01*
X88744D01*
X89506Y14199D02*
Y11000D01*
X86657Y14199D02*
X88181Y12066D01*
X85896D01*
X86657Y14199D02*
Y11000D01*
X19000Y44199D02*
Y41914D01*
X18848Y41457D01*
X18543Y41152D01*
X18086Y41000D01*
X17781D01*
X17324Y41152D01*
X17019Y41457D01*
X16867Y41914D01*
Y44199D01*
X14460D02*
X15983Y42066D01*
X13698D01*
X14460Y44199D02*
Y41000D01*
X12982Y43438D02*
Y43590D01*
X12830Y43895D01*
X12677Y44047D01*
X12373Y44199D01*
X11763D01*
X11459Y44047D01*
X11306Y43895D01*
X11154Y43590D01*
Y43285D01*
X11306Y42981D01*
X11611Y42524D01*
X13135Y41000D01*
X11002D01*
X47090Y40135D02*
Y37850D01*
X46938Y37393D01*
X46633Y37088D01*
X46176Y36936D01*
X45871D01*
X45414Y37088D01*
X45110Y37393D01*
X44957Y37850D01*
Y40135D01*
X42550D02*
X44074Y38002D01*
X41789D01*
X42550Y40135D02*
Y36936D01*
X41225Y39526D02*
X40920Y39678D01*
X40463Y40135D01*
Y36936D01*
X1062Y29715D02*
X758Y29867D01*
X453Y30172D01*
X301Y30476D01*
Y31086D01*
X453Y31391D01*
X758Y31695D01*
X1062Y31848D01*
X1519Y32000D01*
X2281D01*
X2738Y31848D01*
X3043Y31695D01*
X3348Y31391D01*
X3500Y31086D01*
Y30476D01*
X3348Y30172D01*
X3043Y29867D01*
X2738Y29715D01*
X301Y27292D02*
X2434Y28816D01*
Y26531D01*
X301Y27292D02*
X3500D01*
X301Y24443D02*
X2434Y25967D01*
Y23682D01*
X301Y24443D02*
X3500D01*
X66500Y57199D02*
Y54000D01*
Y57199D02*
X65129D01*
X64672Y57047D01*
X64520Y56895D01*
X64367Y56590D01*
Y56285D01*
X64520Y55980D01*
X64672Y55828D01*
X65129Y55676D01*
X66500D01*
X65434D02*
X64367Y54000D01*
X62128Y57199D02*
X63651Y55066D01*
X61366D01*
X62128Y57199D02*
Y54000D01*
X58822Y56133D02*
X58974Y55676D01*
X59279Y55371D01*
X59736Y55219D01*
X59888D01*
X60345Y55371D01*
X60650Y55676D01*
X60802Y56133D01*
Y56285D01*
X60650Y56742D01*
X60345Y57047D01*
X59888Y57199D01*
X59736D01*
X59279Y57047D01*
X58974Y56742D01*
X58822Y56133D01*
Y55371D01*
X58974Y54609D01*
X59279Y54152D01*
X59736Y54000D01*
X60040D01*
X60497Y54152D01*
X60650Y54457D01*
X67000Y44248D02*
Y41049D01*
Y44248D02*
X65629D01*
X65172Y44096D01*
X65020Y43944D01*
X64867Y43639D01*
Y43334D01*
X65020Y43029D01*
X65172Y42877D01*
X65629Y42725D01*
X67000D01*
X65934D02*
X64867Y41049D01*
X62628Y44248D02*
X64151Y42115D01*
X61866D01*
X62628Y44248D02*
Y41049D01*
X59169Y44248D02*
X60693Y41049D01*
X61302Y44248D02*
X59169D01*
X27562Y42215D02*
X27258Y42367D01*
X26953Y42672D01*
X26801Y42976D01*
Y43586D01*
X26953Y43891D01*
X27258Y44195D01*
X27562Y44348D01*
X28019Y44500D01*
X28781D01*
X29238Y44348D01*
X29543Y44195D01*
X29848Y43891D01*
X30000Y43586D01*
Y42976D01*
X29848Y42672D01*
X29543Y42367D01*
X29238Y42215D01*
X26801Y39792D02*
X28934Y41316D01*
Y39031D01*
X26801Y39792D02*
X30000D01*
X26801Y38162D02*
Y36487D01*
X28019Y37401D01*
Y36944D01*
X28172Y36639D01*
X28324Y36487D01*
X28781Y36334D01*
X29086D01*
X29543Y36487D01*
X29848Y36791D01*
X30000Y37248D01*
Y37705D01*
X29848Y38162D01*
X29695Y38315D01*
X29391Y38467D01*
X33594Y42215D02*
X33290Y42367D01*
X32985Y42672D01*
X32833Y42976D01*
Y43586D01*
X32985Y43891D01*
X33290Y44195D01*
X33594Y44348D01*
X34051Y44500D01*
X34813D01*
X35270Y44348D01*
X35575Y44195D01*
X35879Y43891D01*
X36032Y43586D01*
Y42976D01*
X35879Y42672D01*
X35575Y42367D01*
X35270Y42215D01*
X32833Y39792D02*
X34965Y41316D01*
Y39031D01*
X32833Y39792D02*
X36032D01*
X33594Y38315D02*
X33442D01*
X33137Y38162D01*
X32985Y38010D01*
X32833Y37705D01*
Y37096D01*
X32985Y36791D01*
X33137Y36639D01*
X33442Y36487D01*
X33747D01*
X34051Y36639D01*
X34508Y36944D01*
X36032Y38467D01*
Y36334D01*
X60307Y32215D02*
X60002Y32367D01*
X59698Y32672D01*
X59545Y32976D01*
Y33586D01*
X59698Y33891D01*
X60002Y34195D01*
X60307Y34348D01*
X60764Y34500D01*
X61526D01*
X61983Y34348D01*
X62288Y34195D01*
X62592Y33891D01*
X62745Y33586D01*
Y32976D01*
X62592Y32672D01*
X62288Y32367D01*
X61983Y32215D01*
X59545Y29792D02*
X61678Y31316D01*
Y29031D01*
X59545Y29792D02*
X62745D01*
X60155Y28467D02*
X60002Y28162D01*
X59545Y27705D01*
X62745D01*
D32*
X22217Y37024D02*
G03*
X22217Y37024I-492J0D01*
G01*
X49941D02*
G03*
X49941Y37024I-492J0D01*
G01*
M02*
